<svg xmlns="http://www.w3.org/2000/svg" width="1086.158" height="346.12" viewBox="0 0 1086.158 346.12">
  <g id="baner-cybersoft" transform="translate(-57.21 -61.88)">
    <path id="Path_1014" data-name="Path 1014" d="M543.079,0c299.934,0,543.079,7.477,543.079,16.7S843.013,33.4,543.079,33.4,0,25.923,0,16.7,243.145,0,543.079,0Z" transform="translate(57.21 303.69)" fill="rgba(82,62,109,0.69)" opacity="0.55"/>
    <g id="cybersoft" transform="translate(-154 -201)">
      <text id="C" transform="translate(229 518)" fill="#fff" font-size="190" font-family="Prototype"><tspan x="0" y="0">C</tspan></text>
      <text id="Y" transform="translate(337 518)" fill="#fff" font-size="190" font-family="Prototype"><tspan x="0" y="0">Y</tspan></text>
      <text id="B" transform="translate(464 518)" fill="#fff" font-size="190" font-family="Prototype"><tspan x="0" y="0">B</tspan></text>
      <text id="E" transform="translate(584 518)" fill="#fff" font-size="190" font-family="Prototype"><tspan x="0" y="0">E</tspan></text>
      <text id="R" transform="translate(694 518)" fill="#fff" font-size="190" font-family="Prototype"><tspan x="0" y="0">R</tspan></text>
      <text id="S" transform="translate(810 518)" fill="#fff" font-size="190" font-family="Prototype"><tspan x="0" y="0">S</tspan></text>
      <text id="O" transform="translate(926 518)" fill="#fff" font-size="190" font-family="Prototype"><tspan x="0" y="0">O</tspan></text>
      <text id="F" transform="translate(1061 518)" fill="#fff" font-size="190" font-family="Prototype"><tspan x="0" y="0">F</tspan></text>
      <text id="T" transform="translate(1175 518)" fill="#fff" font-size="190" font-family="Prototype"><tspan x="0" y="0">T</tspan></text>
    </g>
    <path id="Path_282" data-name="Path 282" d="M248.21,161.47h-1v-4h1Zm0-8h-1v-4h1Zm0-8h-1v-4h1Zm0-8h-1v-4h1Zm0-8h-1v-4h1Zm0-8h-1v-4h1Zm0-8h-1v-4h1Zm0-8h-1v-4h1Zm0-8h-1v-4h1Zm0-8h-1v-4h1Zm0-8h-1v-4h1Zm44-7h-4v-1h4Zm-8,0h-4v-1h4Zm-8,0h-4v-1h4Zm-8,0h-4v-1h4Zm-8,0h-4v-1h4Zm-8,0h-4v-1h4Z" transform="translate(37.039)" fill="#fff"/>
    <circle id="Ellipse_12" data-name="Ellipse 12" cx="1.88" cy="1.88" r="1.88" transform="translate(281.211 159.48)" fill="#fff"/>
    <path id="Path_283" data-name="Path 283" d="M249.84,161.36a2.13,2.13,0,1,0-2.13,2.13,2.13,2.13,0,0,0,2.13-2.13Zm-3.76,0a1.63,1.63,0,1,1,1.63,1.63A1.63,1.63,0,0,1,246.08,161.36Z" transform="translate(35.362)" fill="#fff"/>
    <path id="Path_284" data-name="Path 284" d="M295.63,75.83A1.88,1.88,0,1,0,293.75,74a1.88,1.88,0,0,0,1.88,1.83Z" transform="translate(42.277)" fill="#fff"/>
    <path id="Path_285" data-name="Path 285" d="M295.63,76.08a2.105,2.105,0,1,1,0,.05Zm0-3.76a1.655,1.655,0,1,1,0,.05Z" transform="translate(42.262)" fill="#fff"/>
    <path id="Path_286" data-name="Path 286" d="M483.14,161.48h-1V157.7h1Zm0-7.78h-1v-4h1Zm0-8h-1v-4h1Zm0-8h-1v-4h1Zm0-8h-1v-4h1Zm0-8h-1v-4h1Zm0-8h-1v-4h1Zm0-8h-1v-4h1Zm0-8h-1v-4h1Zm0-8h-1v-4h1ZM481,83.85h-4v-1h4Zm-8,0h-4v-1h4Zm-8,0h-4v-1h4Z" transform="translate(67.535)" fill="#fff"/>
    <path id="Path_287" data-name="Path 287" d="M461.1,85.23a1.88,1.88,0,1,1,1.342-.543,1.88,1.88,0,0,1-1.342.543Z" transform="translate(66.095)" fill="#fff"/>
    <path id="Path_288" data-name="Path 288" d="M461.1,85.48a2.115,2.115,0,1,1,.03,0Zm0-3.76a1.63,1.63,0,1,1-1.63,1.63,1.63,1.63,0,0,1,1.63-1.63Z" transform="translate(66.092)" fill="#fff"/>
    <path id="Path_289" data-name="Path 289" d="M480.76,161.37a1.88,1.88,0,1,0,1.88-1.88A1.88,1.88,0,0,0,480.76,161.37Z" transform="translate(69.192)" fill="#fff"/>
    <path id="Path_290" data-name="Path 290" d="M480.51,161.37a2.13,2.13,0,1,1,2.13,2.13,2.13,2.13,0,0,1-2.13-2.13Zm3.76,0a1.63,1.63,0,1,0-1.63,1.63,1.63,1.63,0,0,0,1.63-1.63Z" transform="translate(69.19)" fill="#fff"/>
    <path id="Path_291" data-name="Path 291" d="M827.38,144.22h-1v-4h1Zm0-8h-1v-4h1Zm0-8h-1v-4h1Zm0-8h-1v-4h1Zm0-8h-1v-4h1Zm0-8h-1v-4h1Z" transform="translate(118.622)" fill="#fff"/>
    <path id="Path_292" data-name="Path 292" d="M828.76,144.12a1.88,1.88,0,1,1-1.88-1.88A1.88,1.88,0,0,1,828.76,144.12Z" transform="translate(118.737)" fill="#fff"/>
    <path id="Path_293" data-name="Path 293" d="M829,144.12a2.13,2.13,0,1,0-2.13,2.13,2.13,2.13,0,0,0,2.13-2.13Zm-3.76,0a1.63,1.63,0,1,1,1.63,1.63,1.63,1.63,0,0,1-1.63-1.63Z" transform="translate(118.756)" fill="#fff"/>
    <path id="Path_294" data-name="Path 294" d="M828.76,100.21a1.88,1.88,0,1,0-1.88,1.88A1.88,1.88,0,0,0,828.76,100.21Z" transform="translate(118.737)" fill="#fff"/>
    <path id="Path_295" data-name="Path 295" d="M829,100.21a2.13,2.13,0,1,1-2.13-2.13,2.13,2.13,0,0,1,2.13,2.13Zm-3.76,0a1.63,1.63,0,1,0,1.63-1.63,1.63,1.63,0,0,0-1.63,1.63Z" transform="translate(118.756)" fill="#fff"/>
    <path id="Path_296" data-name="Path 296" d="M603.44,148.8h-1v-2.36h1Zm0-6.36h-1v-4h1Zm0-8h-1v-4h1Zm0-8h-1v-4h1Zm0-8h-1v-4h1Zm0-8h-1v-4h1Zm0-8h-1v-4h1Zm0-8h-1v-4h1Zm123.28-7.72h-4v-1h4Zm-8,0h-4v-1h4Zm-8,0h-4v-1h4Zm-8,0h-4v-1h4Zm-8,0h-4v-1h4Zm-8,0h-4v-1h4Zm-8,0h-4v-1h4Zm-8,0h-4v-1h4Zm-8,0h-4v-1h4Zm-8,0h-4v-1h4Zm-8,0h-4v-1h4Zm-8,0h-4v-1h4Zm-8,0h-4v-1h4Zm-8,0h-4v-1h4Zm-8,0h-4v-1h4Zm-8,0h-3.78v-.28h-.5v-.72h4.28Z" transform="translate(97.993)" fill="#fff"/>
    <path id="Path_297" data-name="Path 297" d="M726.61,84.34a1.88,1.88,0,1,1-1.88,1.88A1.88,1.88,0,0,1,726.61,84.34Z" transform="translate(104.305)" fill="#fff"/>
    <path id="Path_298" data-name="Path 298" d="M726.61,84.09a2.13,2.13,0,1,0,2.13,2.13A2.13,2.13,0,0,0,726.61,84.09Zm0,3.76a1.63,1.63,0,1,1,1.63-1.63,1.63,1.63,0,0,1-1.63,1.63Z" transform="translate(104.319)" fill="#fff"/>
    <circle id="Ellipse_13" data-name="Ellipse 13" cx="1.88" cy="1.88" r="1.88" transform="translate(687.566 146.82)" fill="#fff"/>
    <path id="Path_299" data-name="Path 299" d="M600.81,148.7a2.13,2.13,0,1,1,2.13,2.13A2.13,2.13,0,0,1,600.81,148.7Zm3.76,0a1.63,1.63,0,1,0-1.63,1.63A1.63,1.63,0,0,0,604.57,148.7Z" transform="translate(86.512)" fill="#fff"/>
    <path id="Path_300" data-name="Path 300" d="M675.42,390.55h-4v-1h4Zm-8,0h-4v-1h4Zm-8,0h-4v-1h4Zm-8,0h-4v-1h4Zm-8,0h-4v-1h4Zm-8,0h-4v-1h4Zm-8,0h-4v-1h4Zm-8,0h-4v-1h4Zm-4.94-3.06h-1v-4h1Zm0-8h-1v-4h1Zm0-8h-1v-4h1Zm0-8h-1v-4h1Z" transform="translate(93.493)" fill="#fff"/>
    <path id="Path_301" data-name="Path 301" d="M612.1,359.6a1.88,1.88,0,1,1,1.88,1.88A1.88,1.88,0,0,1,612.1,359.6Z" transform="translate(88.095)" fill="#fff"/>
    <path id="Path_302" data-name="Path 302" d="M611.85,359.6a2.13,2.13,0,1,0,2.13-2.13,2.13,2.13,0,0,0-2.13,2.13Zm3.76,0a5.761,5.761,0,1,0,.02.03Z" transform="translate(88.101)" fill="#fff"/>
    <path id="Path_303" data-name="Path 303" d="M676.64,391.93a1.88,1.88,0,1,0-1.88-1.88,1.88,1.88,0,0,0,1.88,1.88Z" transform="translate(97.114)" fill="#fff"/>
    <path id="Path_304" data-name="Path 304" d="M676.64,392.18a2.13,2.13,0,1,1,2.13-2.13,2.13,2.13,0,0,1-2.13,2.13Zm0-3.76a1.63,1.63,0,1,0,1.63,1.63A1.63,1.63,0,0,0,676.64,388.42Z" transform="translate(97.124)" fill="#fff"/>
    <path id="Path_305" data-name="Path 305" d="M909.56,374.94h-4v-1h4Zm-8,0h-4v-1h4Zm11.19-1.81h-1v-4h1Zm0-8h-1v-4h1Z" transform="translate(121.578 15)" fill="#fff"/>
    <path id="Path_306" data-name="Path 306" d="M891.76,376.32a1.88,1.88,0,1,1,1.88-1.88A1.88,1.88,0,0,1,891.76,376.32Z" transform="translate(121.578 15)" fill="#fff"/>
    <path id="Path_307" data-name="Path 307" d="M891.76,376.57a2.13,2.13,0,1,0-2.13-2.13,2.13,2.13,0,0,0,2.13,2.13Zm0-3.76a1.63,1.63,0,1,1-1.63,1.63,1.63,1.63,0,0,1,1.63-1.63Z" transform="translate(121.578 15)" fill="#fff"/>
    <path id="Path_308" data-name="Path 308" d="M914.13,360.28a1.88,1.88,0,1,0-1.88,1.88,1.88,1.88,0,0,0,1.88-1.88Z" transform="translate(121.578 15)" fill="#fff"/>
    <path id="Path_309" data-name="Path 309" d="M914.38,360.28a2.13,2.13,0,1,1-2.13-2.13,2.13,2.13,0,0,1,2.13,2.13Zm-3.76,0a1.63,1.63,0,1,0,1.63-1.63,1.63,1.63,0,0,0-1.63,1.63Z" transform="translate(121.578 15)" fill="#fff"/>
    <path id="Path_310" data-name="Path 310" d="M152.57,374.5H150.9v-1h1.67Zm-5.67,0h-4v-1h4Zm-8,0h-4v-1h4Zm-8,0h-4v-1h4Zm-4.9-3.15h-1v-4h1Zm0-8h-1v-4h1Zm0-8h-1v-4h1Zm0-8h-1v-4h1Z" fill="#fff"/>
    <path id="Path_311" data-name="Path 311" d="M123.66,343.46a1.88,1.88,0,1,1,1.88,1.88A1.88,1.88,0,0,1,123.66,343.46Z" fill="#fff"/>
    <path id="Path_312" data-name="Path 312" d="M123.41,343.46a2.13,2.13,0,1,0,2.13-2.13,2.13,2.13,0,0,0-2.13,2.13Zm3.76,0a1.63,1.63,0,1,1-1.63-1.63A1.63,1.63,0,0,1,127.17,343.46Z" fill="#fff"/>
    <path id="Path_313" data-name="Path 313" d="M152.46,375.88a1.88,1.88,0,1,0-1.88-1.88A1.88,1.88,0,0,0,152.46,375.88Z" fill="#fff"/>
    <path id="Path_314" data-name="Path 314" d="M152.46,376.13a2.13,2.13,0,1,1,2.13-2.13,2.13,2.13,0,0,1-2.13,2.13Zm0-3.76a1.63,1.63,0,1,0,1.63,1.63,1.63,1.63,0,0,0-1.63-1.63Z" fill="#fff"/>
    <path id="Path_315" data-name="Path 315" d="M318.32,378.51H315.7v-1h1.62v-1.39h1Zm-6.62,0h-4v-1h4Zm-8,0h-4v-1h4Zm-8,0h-4v-1h4Zm-8,0h-4v-1h4Zm-8,0h-4v-1h4Zm-8,0h-4v-1h4Zm46.62-6.39h-1v-4h1Zm0-8h-1v-4h1Zm0-8h-1v-4h1Z" transform="translate(40.335)" fill="#fff"/>
    <path id="Path_316" data-name="Path 316" d="M258.71,379.89a1.88,1.88,0,1,1,1.88-1.88A1.88,1.88,0,0,1,258.71,379.89Z" transform="translate(36.964)" fill="#fff"/>
    <path id="Path_317" data-name="Path 317" d="M258.71,380.14a2.13,2.13,0,1,0-2.13-2.13A2.13,2.13,0,0,0,258.71,380.14Zm0-3.76a1.63,1.63,0,1,1-1.63,1.63A1.63,1.63,0,0,1,258.71,376.38Z" transform="translate(36.945)" fill="#fff"/>
    <path id="Path_318" data-name="Path 318" d="M319.7,351.47a1.88,1.88,0,1,0-1.88,1.88A1.88,1.88,0,0,0,319.7,351.47Z" transform="translate(45.471)" fill="#fff"/>
    <path id="Path_319" data-name="Path 319" d="M320,351.47a2.13,2.13,0,1,1-2.13-2.13,2.13,2.13,0,0,1,2.13,2.13Zm-3.76,0a1.63,1.63,0,1,0,1.63-1.63A1.63,1.63,0,0,0,316.24,351.47Z" transform="translate(45.464)" fill="#fff"/>
    <path id="Path_320" data-name="Path 320" d="M370.08,383.89h-3v-1h3Zm-7,0h-4v-1h4Zm-8,0h-4v-1h4Zm-8,0h-4v-1h4Zm-8,0h-3.85v-1.14h1v.14h2.85Zm-2.85-5.14h-1v-4h1Zm0-8h-1v-4h1Zm0-8h-1v-4h1Z" transform="translate(49.725)" fill="#fff"/>
    <circle id="Ellipse_14" data-name="Ellipse 14" cx="1.88" cy="1.88" r="1.88" transform="translate(381.899 356.97)" fill="#fff"/>
    <path id="Path_321" data-name="Path 321" d="M333.6,358.85a2.13,2.13,0,1,0,2.13-2.13,2.13,2.13,0,0,0-2.13,2.13Zm3.76,0a1.63,1.63,0,1,1-1.63-1.63,1.63,1.63,0,0,1,1.63,1.63Z" transform="translate(48.036)" fill="#fff"/>
    <path id="Path_322" data-name="Path 322" d="M370,385.27a1.88,1.88,0,1,0-1.88-1.88,1.88,1.88,0,0,0,1.88,1.88Z" transform="translate(52.981)" fill="#fff"/>
    <path id="Path_323" data-name="Path 323" d="M370,385.52a2.13,2.13,0,1,1,2.13-2.13,2.13,2.13,0,0,1-2.13,2.13Zm0-3.76a1.63,1.63,0,1,0,1.63,1.63,1.63,1.63,0,0,0-1.63-1.63Z" transform="translate(52.97)" fill="#fff"/>
    <path id="Path_324" data-name="Path 324" d="M594.89,377.09h-2.45v-1h1.45v-1.56h1Zm-6.45,0h-4v-1h4Zm6.45-6.56h-1v-4h1Zm0-8h-1v-4h1Z" transform="translate(84.656)" fill="#fff"/>
    <path id="Path_325" data-name="Path 325" d="M578.11,378.47a1.88,1.88,0,1,1,1.88-1.88A1.88,1.88,0,0,1,578.11,378.47Z" transform="translate(82.933)" fill="#fff"/>
    <path id="Path_326" data-name="Path 326" d="M578.11,378.72a2.13,2.13,0,1,0-2.13-2.13A2.13,2.13,0,0,0,578.11,378.72Zm0-3.76a1.63,1.63,0,1,1-1.63,1.63,1.63,1.63,0,0,1,1.63-1.63Z" transform="translate(82.936)" fill="#fff"/>
    <path id="Path_327" data-name="Path 327" d="M596.27,357.53a1.88,1.88,0,1,0-1.88,1.88,1.88,1.88,0,0,0,1.88-1.88Z" transform="translate(85.276)" fill="#fff"/>
    <path id="Path_328" data-name="Path 328" d="M596.52,357.53a2.13,2.13,0,1,1-2.13-2.13A2.13,2.13,0,0,1,596.52,357.53Zm-3.76,0a1.63,1.63,0,1,0,1.63-1.63A1.63,1.63,0,0,0,592.76,357.53Z" transform="translate(85.281)" fill="#fff"/>
    <path id="Path_338" data-name="Path 338" d="M701.16,174.28a1.016,1.016,0,0,1-.84-1.61s.65-.93,1.85-2.49a1.02,1.02,0,1,1,1.62,1.24c-1.16,1.51-1.79,2.41-1.79,2.42A1,1,0,0,1,701.16,174.28Z" transform="translate(117.777 -2)" fill="#292c3d"/>
    <path id="Path_339" data-name="Path 339" d="M812.41,188.92a19.5,19.5,0,0,1-3.45-.31,1.017,1.017,0,0,1,.37-2,12.79,12.79,0,0,0,5.7-.08,1.033,1.033,0,1,1,.52,2,12.36,12.36,0,0,1-3.14.39Zm-9-2.48a1.13,1.13,0,0,1-.53-.14,24.589,24.589,0,0,1-5-4.07,1.026,1.026,0,0,1,1.48-1.42,22,22,0,0,0,4.59,3.73,1,1,0,0,1-.52,1.9Zm17.47-.62a1,1,0,0,1-.59-1.86,38.2,38.2,0,0,0,4.66-3.88,1.018,1.018,0,0,1,1.41,1.47,38.993,38.993,0,0,1-4.9,4.09,1,1,0,0,1-.6.18Zm-26.2-8.11a1,1,0,0,1-.84-.43c-1.07-1.53-2.18-3.27-3.39-5.32a1.022,1.022,0,1,1,1.76-1.04c1.18,2,2.26,3.7,3.31,5.18a1,1,0,0,1-.25,1.43,1.07,1.07,0,0,1-.61.18Zm35.25-.4a1.1,1.1,0,0,1-.68-.25,1,1,0,0,1-.09-1.45c1.22-1.4,2.51-3,4-4.76a1.025,1.025,0,1,1,1.6,1.28c-1.46,1.82-2.77,3.41-4,4.83a1,1,0,0,1-.85.35Zm7.81-9.72a1.06,1.06,0,0,1-.63-.21,1,1,0,0,1-.19-1.43l1.22-1.58c.87-1.14,1.73-2.27,2.58-3.37a1.023,1.023,0,0,1,1.62,1.25l-2.58,3.36-1.21,1.58a1,1,0,0,1-.83.4ZM788.26,167a1,1,0,0,1-.9-.53l-1-1.85c-.65-1.21-1.31-2.41-2-3.61a1.023,1.023,0,1,1,1.79-.99l2,3.62,1,1.85a1,1,0,0,1-.4,1.39,1.11,1.11,0,0,1-.49.12Zm-81.38,0a1.017,1.017,0,0,1-.79-1.68c1.35-1.6,2.75-3.18,4.15-4.71a1.026,1.026,0,1,1,1.51,1.39c-1.39,1.5-2.76,3.06-4.09,4.64A1,1,0,0,1,706.88,167Zm8.44-9.15a1.021,1.021,0,0,1-.73-1.75c1.51-1.5,3-2.94,4.58-4.3a1.024,1.024,0,1,1,1.36,1.53c-1.5,1.33-3,2.75-4.5,4.22a1,1,0,0,1-.71.27Zm130.08,0a1,1,0,0,1-.79-1.68c1.57-1.87,2.95-3.41,4.24-4.7a1.022,1.022,0,1,1,1.45,1.44c-1.24,1.24-2.58,2.73-4.11,4.56a1,1,0,0,1-.79.31Zm-63.24-1.62a1,1,0,0,1-.87-.49c-1.17-1.93-2.27-3.61-3.37-5.14a1.017,1.017,0,1,1,1.65-1.19c1.14,1.57,2.27,3.29,3.47,5.27a.933.933,0,0,1-.88,1.48Zm-57.52-6.61a1,1,0,0,1-.64-1.82c1.71-1.34,3.42-2.59,5.1-3.71a1.019,1.019,0,1,1,1.14,1.69c-1.64,1.1-3.31,2.32-5,3.62a1,1,0,0,1-.6.15Zm50.18-3.42a1,1,0,0,1-.75-.32,31.815,31.815,0,0,0-4.48-4,1.023,1.023,0,0,1,1.21-1.65,33.49,33.49,0,0,1,4.77,4.27,1,1,0,0,1-.75,1.72ZM735,142.64a1.02,1.02,0,0,1-.49-1.92,54.8,54.8,0,0,1,5.72-2.73,1.02,1.02,0,0,1,.77,1.89,56,56,0,0,0-5.51,2.63,1,1,0,0,1-.49.13Zm29.83-3.71a.91.91,0,0,1-.39-.08,23.759,23.759,0,0,0-5.37-1.51l-.35-.06a1.021,1.021,0,1,1,.3-2.02l.38.06a26.43,26.43,0,0,1,5.83,1.64,1.02,1.02,0,0,1-.4,2ZM746.5,138a1.007,1.007,0,0,1-.24-2,35.548,35.548,0,0,1,6.32-1,1.042,1.042,0,0,1,.13,2.08,33.359,33.359,0,0,0-6,.94,1.071,1.071,0,0,1-.21-.02Z" transform="translate(117.411)" fill="#292c3d"/>
    <path id="Path_340" data-name="Path 340" d="M887.03,129.77l-34.75,21.46,1.59-12.54Z" transform="translate(117.578 2)" fill="#0254e4"/>
    <path id="Path_341" data-name="Path 341" d="M887.03,129.77l-34.75,21.46,4.36-8.93Z" transform="translate(117.578 2)" fill="#292c3d"/>
    <path id="Path_342" data-name="Path 342" d="M866.7,155.45l-21.64-26.49,46.85-4.94Z" transform="translate(117.578 2)" fill="#fff"/>
    <path id="Path_343" data-name="Path 343" d="M890.44,124.83l-36.74,14.7,2.66,3.26Z" transform="translate(117.578 2)" fill="#0254e4"/>
    <path id="Path_347" data-name="Path 347" d="M671.86,165.41s9.28-2.36,10-.83,10.4,31.73,10.4,31.73l-2.46,2.29s-10.32-25.49-13.31-28.16S670.48,166.46,671.86,165.41Z" transform="translate(79.241 6)" fill="#f9a57e"/>
    <path id="Path_386" data-name="Path 386" d="M286.41,235.93s2.39,7,3.8,10.14c7.85,17.32-6.68,15.1-12.2,14.29s-11.82-2.9-11.48-7.37c.24-3,2.08-3.38,2.83-4.39s-.71-2.68-.08-5.18,4.82-3,5.64-3.69,2.49-2.59,1.68-6.21-1.17-5.55,1.17-7.9,6-1.33,6-1.33Z" transform="translate(39.19)" fill="#292c3d"/>
    <path id="Path_387" data-name="Path 387" d="M313.49,262.83c-.5-.38-2.44.71-3.84,1.17a15.777,15.777,0,0,1-3.65.35,12.418,12.418,0,0,1-.27,2c.88,0,1.56.21,2.21.16s2-.23,2.46-.32a2.25,2.25,0,0,1,1.57.18c1.56,1.29,2.43,1.39,2.64.92,0-.07-1.23-1.19-1.64-1.63.68.61,2.36,1.83,2.71,1.45s-1.3-1.71-2-2.29c.7.6,2.5,2.1,2.93,2C317.84,266.48,314,263.22,313.49,262.83Z" transform="translate(39.313)" fill="#f9a57e"/>
    <rect id="Rectangle_39" data-name="Rectangle 39" width="19.55" height="2.51" transform="translate(344.664 266.61)" fill="#292c3d"/>
    <path id="Path_388" data-name="Path 388" d="M307.54,264l-.68,2.85s-9-1-12.07-2.4-6.13-8.71-6.13-8.71l2.34-9.18s4.53,12,6.11,13.46S307.54,264,307.54,264Z" transform="translate(40.154)" fill="#ff4c6b"/>
    <rect id="Rectangle_40" data-name="Rectangle 40" width="41.78" height="26.66" rx="1.84" transform="translate(348.437 232.38)" fill="#afeaf0"/>
    <path id="Path_389" data-name="Path 389" d="M306.2,257.2v-23a1.84,1.84,0,0,1,1.84-1.83h-2.17a1.83,1.83,0,0,0-1.84,1.83v23a1.83,1.83,0,0,0,1.84,1.83H308A1.84,1.84,0,0,1,306.2,257.2Z" transform="translate(43.767)" fill="#292c3d"/>
    <path id="Path_390" data-name="Path 390" d="M325,265.62s.85-8.1-2.84-10.84c0,0-.85-.69.54-1.48s5.21-1.7,6.52.67,2.17,6.53,1.62,11.65Z" transform="translate(46.567)" fill="#292c3d"/>
    <rect id="Rectangle_41" data-name="Rectangle 41" width="1.73" height="45.54" transform="translate(311.094 284.93)" fill="#afeaf0"/>
    <rect id="Rectangle_42" data-name="Rectangle 42" width="1.73" height="45.54" transform="translate(347.702 284.93)" fill="#afeaf0"/>
    <rect id="Rectangle_43" data-name="Rectangle 43" width="43.01" height="4.45" transform="translate(307.362 282.24)" fill="#292c3d"/>
    <path id="Path_391" data-name="Path 391" d="M290.73,310.09s-4.39,3.82-4.36,4.38,7.51,13.28,8.81,13.32,1.61-2.17,1.4-3-2.62-13-2.62-13Z" transform="translate(41.473)" fill="#292c3d"/>
    <path id="Path_392" data-name="Path 392" d="M284.36,312.46s-4.27,4-4.23,4.5S288,330,289.34,330s1.54-2.21,1.31-3-3-12.89-3-12.89Z" transform="translate(40.583)" fill="#292c3d"/>
    <path id="Path_393" data-name="Path 393" d="M287.12,268.78s5.55,2.64,11.93,5.13c4.05,1.58,9.71,3.65,9.52,8-.13,3.16-12.89,33.7-12.89,33.7l-5.79-2.9s10.61-25.7,10.42-27.45-1.41-.2-11.91-1.15-13.67-2.95-13.6-7.93,2.82-11.94,7.06-13.71S287.12,268.78,287.12,268.78Z" transform="translate(40.718)" fill="#4d505e"/>
    <path id="Path_394" data-name="Path 394" d="M287.12,268.78s2.12,2.7,8.5,5.18c4.05,1.58,9.08,4.47,9.07,7.26,0,3.17-11.88,32.95-11.88,32.95l-2.92-1.46s10.61-25.7,10.42-27.45-1.41-.2-11.91-1.15-13.67-2.95-13.6-7.93,2.82-11.94,7.06-13.71S287.12,268.78,287.12,268.78Z" transform="translate(39.563)" fill="#3d3848"/>
    <path id="Path_395" data-name="Path 395" d="M284.25,265s1.68,7,5.69,8.72,13.21,3.58,13.2,8c0,3.18-13.73,34.58-13.73,34.58l-7-3.29s9.3-25.41,9.06-27.15.69-.89-9.83-1.52-11.93-2.64-12-7.62S276,265,276,265a10.77,10.77,0,0,1,8.25,0Z" transform="translate(39.943)" fill="#4d505e"/>
    <path id="Path_396" data-name="Path 396" d="M287,234.72s-1.66,6.8,1.42,10.28c0,0,4.11,5.54-2.37,6.48s-5.64-7.56-5.64-7.56,1.1-9.38-.58-13.44C279.82,230.48,284,232.8,287,234.72Z" transform="translate(40.511)" fill="#e76f59"/>
    <path id="Path_397" data-name="Path 397" d="M282.63,225.1s8.89.45,8.94,2.65-.74,3.64-.45,5.57c.64,4.13-1.76,8.68-2.82,8.87-1.62.29-7.14-2.15-8-5.49S279.21,223.77,282.63,225.1Z" transform="translate(40.576)" fill="#f9a57e"/>
    <path id="Path_398" data-name="Path 398" d="M291.1,264.41s1.86.24,2.25.24,5.54-2.89,6.09-2.49,5.77,4,5.61,4.74-1.61.29-4.38-2c0,0,3.69,2.61,3,3.24s-3.92-2.29-3.92-2.29,3.32,2.47,2.53,3-3.72-2.4-3.72-2.4,2.29,2.21,2,2.58-1.77-.26-3.35-1.74c0,0-.29-.16-1.13.29s-6-.42-6-.42Z" transform="translate(39.202)" fill="#f9a57e"/>
    <path id="Path_399" data-name="Path 399" d="M292.33,231.93s-6.19,1.41-8.21-3.34c-1.6-3.75-1.05-4.21-1.05-4.21s3.42-2.66,7.44,1C293.2,227.75,292.33,231.93,292.33,231.93Z" transform="translate(40.951)" fill="#292c3d"/>
    <path id="Path_400" data-name="Path 400" d="M283.59,224.28s3.29,2.9,1.46,5.64c-1.64,2.48-.55,3.81-.9,5.47a1.83,1.83,0,0,1-1-1.13c-.17-.78-.42-2.73-1.46-2.45s-2,1.56,0,3.2a4,4,0,0,1-.32,4s-5.31-4.56-3.77-9.69S283.59,224.28,283.59,224.28Z" transform="translate(40.086)" fill="#292c3d"/>
    <path id="Path_401" data-name="Path 401" d="M287.74,244.07s.41,3.22-.75,3.8-5.27-5.48-5.27-5.48-5.6,2.35-6.87,3.38.58,10.9.58,10.9S271.53,268.5,272,271s17.54-.5,17.54-.5,1.64-12.07,2.28-13.86,1.45-2.86.63-5.48c-1.16-3.69-1.47-4.63-1.47-4.63a18,18,0,0,0-3.24-2.46Z" transform="translate(39.791)" fill="#ff4c6b"/>
    <path id="Path_402" data-name="Path 402" d="M277.58,254.79c-1.28-1.71-.52-4.58-1.86-6.34-.41-.54-.83-1.06-1.26-1.57-.33,2.84,1,9.79,1,9.79S271.53,268.5,272,271s17.54-.5,17.54-.5,1.45-10.62,2.15-13.42c-.44.65-3.89,4.85-7.68,4.27C281.9,261.05,280.16,258.26,277.58,254.79Z" transform="translate(39.748)" fill="#da395b"/>
    <path id="Path_403" data-name="Path 403" d="M280.58,233a1.55,1.55,0,0,0,1,1.62c.46.12.42,1.56.79,3,.7,2.75.25,4.63-1.8,5.43a22.36,22.36,0,0,0-5.92,2.69c-2.37,1.66-.85-5.27,2.14-7S280.58,233,280.58,233Z" transform="translate(39.566)" fill="#292c3d"/>
    <path id="Path_404" data-name="Path 404" d="M334.27,269.12H321.83a1,1,0,0,1-.91-1.46l.74-1.47a1,1,0,0,1,.9-.55h11a1,1,0,0,1,.9.55l.73,1.47a1,1,0,0,1-.92,1.46Z" transform="translate(46.65)" fill="#292c3d"/>
    <rect id="Rectangle_44" data-name="Rectangle 44" width="109.06" height="2.92" transform="translate(283.314 269.12)" fill="#7695a8"/>
    <rect id="Rectangle_45" data-name="Rectangle 45" width="1.27" height="60.11" transform="translate(287.906 270.37)" fill="#7695a8"/>
    <rect id="Rectangle_46" data-name="Rectangle 46" width="1.27" height="60.11" transform="translate(386.955 271.37)" fill="#7695a8"/>
    <path id="Path_405" data-name="Path 405" d="M292.68,264.27l-.32,3.67s-21.66.23-24.93-.19-4.74-4.75-2.63-8.54,8.38-13.66,11.12-13.87,4.32,3.53,2.05,7.59-6.38,8-5.48,8.65S292.68,264.27,292.68,264.27Z" transform="translate(38.903)" fill="#ff4c6b"/>
    <path id="Path_406" data-name="Path 406" d="M551.11,250.24l2.49,35.95,27.44,1.71-.76-36.68Z" transform="translate(81.352)" fill="#afeaf0"/>
    <path id="Path_407" data-name="Path 407" d="M578.51,249.32c-2.22-.67-7.28,19.35-6.49,22.56.54,2.21,19.21,1.41,19.21,1.41l.2-3.84s-11.85-1.35-11.79-2.32,3.5-7.37,3.5-7.37S580.75,250,578.51,249.32Z" transform="translate(81.572)" fill="#afeaf0"/>
    <path id="Path_408" data-name="Path 408" d="M569.73,237.52l-5,.78s1.41,4.47-.76,8.29c0,0,3.62,3.92,6.14,2.88a3,3,0,0,0,1.69-3.83S569,243.47,569.73,237.52Z" transform="translate(81.5)" fill="#e76f59"/>
    <path id="Path_409" data-name="Path 409" d="M563.88,229.8s7.84-.9,8.38.42.66,5,1.17,5.81,1.43,1.73,1.09,2.23-.73.38-.94,1-.14,3.78-1.17,4.26-6.32.19-8.23-2.82S560.09,230.08,563.88,229.8Z" transform="translate(81.56)" fill="#f9a57e"/>
    <path id="Path_410" data-name="Path 410" d="M561.91,230.54l5.2,2.4a11.72,11.72,0,0,0,1.33,5.68s-.46.72-1,.31a1.87,1.87,0,0,1-.92-1.37c-.12-.76-.57-2.79-1.93-1.79s.07,2.19.77,2.48c0,0,1.1,3.95-1,3.67,0,0-1.93-1.22-3.6-6S560.62,229.65,561.91,230.54Z" transform="translate(80.961)" fill="#292c3d"/>
    <path id="Path_411" data-name="Path 411" d="M574.53,228.81s1.86,2.67-2.46,4.46-10.53-2.92-10.53-2.92.16-2.34,3.6-3.35c2.58-.75,5-.64,6.31.85C573.68,230.38,574.53,228.81,574.53,228.81Z" transform="translate(81.569)" fill="#292c3d"/>
    <rect id="Rectangle_47" data-name="Rectangle 47" width="1.5" height="39.5" transform="translate(635.814 289.83)" fill="#afeaf0"/>
    <rect id="Rectangle_48" data-name="Rectangle 48" width="1.5" height="39.5" transform="translate(667.561 289.83)" fill="#afeaf0"/>
    <rect id="Rectangle_49" data-name="Rectangle 49" width="37.3" height="5.17" transform="translate(634.019 286.19)" fill="#292c3d"/>
    <path id="Path_412" data-name="Path 412" d="M564.48,245.27s-7,1.95-7.3,2.13c0,0,.77,10.15.66,12.89s-1.22,14.43-1.22,14.43h21.81s-.26-11.9-.15-14.52c0,0-.7-8.84.23-10.88a57.692,57.692,0,0,0-6.74-3.68s0,2.88-1.5,3.66S564.48,245.27,564.48,245.27Z" transform="translate(81.523)" fill="#afeaf0"/>
    <path id="Path_413" data-name="Path 413" d="M578.28,260.2s0-1.22-.08-2.86a27.376,27.376,0,0,1-1.56,4.26c-1.43,2.94-4.95,7-8.69,6.57s-6.76-3.77-7.7-7.42c-.7-2.74-.36-5.73-1.28-8.41a11.4,11.4,0,0,0-1.65-3c.21,3.08.6,9,.52,11-.12,2.73-1.22,14.43-1.22,14.43h21.81S578.17,262.82,578.28,260.2Z" transform="translate(82.517)" fill="#5ac4e0"/>
    <path id="Path_414" data-name="Path 414" d="M578,272.64l-5-8.4s-1.18-.7-1.19.74l5.72,8S578.91,274.59,578,272.64Z" transform="translate(82.513)" fill="#292c3d"/>
    <path id="Path_415" data-name="Path 415" d="M576.07,270.49a5.26,5.26,0,0,0-1.65-1.85c-.81-.41-4.45,1.07-4.71,1.13a11.11,11.11,0,0,1-2.9.57,19.7,19.7,0,0,1-.49,2.5c.85.32,3.58-.21,3.93-.26a2.56,2.56,0,0,1,1.88.53c.57.4,1.11.74,1.52.66s0-.58-.26-.85h0c1,1.23,1.54,1.05,1.74.79s-1.1-1.47-1.23-1.63-1.27-1-1.27-1a5.191,5.191,0,0,1,1.46,1c.13.13,1.49,2.2,2,1.57s-.67-1.69-1.13-2.35a5.12,5.12,0,0,0-1.51-1.23c.55-.07,1.5,1,1.82,1.34s1.14,2.1,1.8,1.66S576.45,271,576.07,270.49Zm-2.78,2.32a10.766,10.766,0,0,0-1.08-.81A5.558,5.558,0,0,1,573.29,272.81Z" transform="translate(82.069)" fill="#f9a57e"/>
    <path id="Path_416" data-name="Path 416" d="M575.88,269s1.35.52,1.58,1.12-.13,1-.45.82Z" transform="translate(82.716)" fill="#f9a57e"/>
    <path id="Path_417" data-name="Path 417" d="M557.18,247.4a12.389,12.389,0,0,0-3.39,3.66c-1.09,2.05-7,17.61-6.23,20.82.54,2.21,19.21,1.41,19.21,1.41l.2-3.84s-11.85-1.35-11.79-2.32,3.5-7.37,3.5-7.37S560.56,251.89,557.18,247.4Z" transform="translate(81.999)" fill="#afeaf0"/>
    <path id="Path_418" data-name="Path 418" d="M587.34,323s6.25,1.69,8.84,2.52c2.15.68,1.87,2.61-.43,3.51s-4.29.6-4.89-.11-1.9-.32-2.38,0-5-.33-5.26-1.23a22.575,22.575,0,0,1,.14-4.46Z" transform="translate(84.798)" fill="#292c3d"/>
    <path id="Path_419" data-name="Path 419" d="M577.23,323.42s6.1,2.2,8.6,3.24c2.09.86,1.66,2.76-.71,3.47s-4.33.24-4.87-.52-1.86-.47-2.37-.23-4.91-.73-5.14-1.65.94-5.23.94-5.23Z" transform="translate(83.278)" fill="#292c3d"/>
    <path id="Path_420" data-name="Path 420" d="M590.87,287c-.69-2.56-13.43-10.29-14.47-12.62H566.12a16.811,16.811,0,0,0-2.73,7.87c-.65,6.53,5.39,4.29,11.38,4.51s8.4,3.9,8.56,5.54-.92,31.29-.92,31.29l8.13-.05S591.28,288.48,590.87,287Z" transform="translate(82.973)" fill="#0254e4"/>
    <path id="Path_421" data-name="Path 421" d="M585.08,323.52s2.7-35.43,2.09-36.34c-1.85-2.82-10.88-9.45-14-12.53l-7.07-.32a16.81,16.81,0,0,0-2.73,7.87c-.65,6.53,5.39,4.29,11.38,4.51s8.4,3.9,8.56,5.54-.92,31.29-.92,31.29Z" transform="translate(82.669)" fill="#00a1cc" opacity="0.65"/>
    <path id="Path_422" data-name="Path 422" d="M585.68,287.78c-.48-2.25-13.77-10.11-16.56-13.11l-10.9-.75a9.84,9.84,0,0,0-2.64,6.3c.06,6.28,4.79,7.79,10.78,8,6.9.21,10.45,1.1,10.44,2.74s-4.26,32.47-4.26,32.47l8.06.41S586,289.32,585.68,287.78Z" transform="translate(82.027)" fill="#0254e4"/>
    <path id="Path_423" data-name="Path 423" d="M643.31,238.55a47.874,47.874,0,0,0,2.52-4.78c.66-1.67,3.35-7.47,4.2-6.86s-1.54,5.47-1.54,5.47,2.12-6.09,3.26-5.75-2,6-2,6,2.56-5.35,3.22-4.83.15,1.7-2,5.66c0,0,1.87-3.4,2.58-2.6s-1.57,3.92-2.4,4.65-4.75,3.85-5.69,5.16C645.45,240.68,643.35,240,643.31,238.55Z" transform="translate(93.176)" fill="#f9a57e"/>
    <path id="Path_424" data-name="Path 424" d="M647.08,234.55s2.81-1.59,3.59-1,0,1.27-2.92,2.21c0,0-1,1.3-1.68,1.41a2,2,0,0,1,1.01-2.62Z" transform="translate(93.075)" fill="#ffb089"/>
    <path id="Path_425" data-name="Path 425" d="M588.77,235.87a12.811,12.811,0,0,1-1.09-2.79c0-.63.32-1.31.34-2.17s1.18-2.86.93-3.43-1-.43-1.63.93-.45,2.2-1,1.81a14.94,14.94,0,0,1-2.31-2.76c-.43-.71-1.8-2.09-2.16-1.86s-.46.59,1.95,4c0,0-2.73-4.1-3.54-3.36-.56.52,2.11,3.52,2.49,4,0,0-2.47-3.1-3.2-2.37s2.7,3.27,2.7,3.27-2.53-2-2.87-1.42,1.13,1.9,2.58,2.71,1.83,1,2.2,1.58a29.172,29.172,0,0,1,1.28,2.72S587.75,237.28,588.77,235.87Z" transform="translate(87.852)" fill="#f9a57e"/>
    <path id="Path_426" data-name="Path 426" d="M619.32,221.86l-5.16.79s-.29,9.64-4.38,10.41c0,0-1.45,15.79,4,14.48s8.3-15,8.3-15S617.27,231.2,619.32,221.86Z" transform="translate(88.473)" fill="#e76f59"/>
    <path id="Path_427" data-name="Path 427" d="M619.73,214.67s-5.57-2.29-7.79-.9-2,6.2-2.36,8.4c-.51,3.44,1,6.8,1.87,7.13s7.87-1.56,9-6.6S621,215.53,619.73,214.67Z" transform="translate(88.378)" fill="#f9a57e"/>
    <path id="Path_428" data-name="Path 428" d="M611.27,319.81s.75,4.63.19,5.71-12.32.59-13-.18.47-2.09,1.09-2.4,7-3.1,7-3.1Z" transform="translate(86.904)" fill="#292c3d"/>
    <path id="Path_429" data-name="Path 429" d="M626.45,319.81h-4.1a21.524,21.524,0,0,0,0,4.21c.27.77,4.14,5.55,6.14,5.55,1.09,0,2.43,0,2.64-1,.18-.81-.62-2.51-1.28-3.43C628.4,323.17,626.45,319.81,626.45,319.81Z" transform="translate(89.999)" fill="#292c3d"/>
    <path id="Path_430" data-name="Path 430" d="M618.72,223.43a10.61,10.61,0,0,1-3.28,1.2c-1.29.09-2.09-1.44-3.91-1l-2,.46s-1,6.52,1.49,6.33,6.64-2.76,8.11-4.51a3.22,3.22,0,0,0,2.52-1.51c1-1.5,2.31-6.17,1.45-9s-4.67-3.93-6.27-2.61a5.27,5.27,0,0,0-3.53-.89c-2.32.12-2.8,1.35-3.78,2.09s-2,.73-2.28.1c0,0-.69,1.17.56,3.17s2.69,1.7,4.63,1.25a14.241,14.241,0,0,0,4.37-2.37s-.1,4,.9,5.49c0,0,.37.16.51,0s0-2.26,1.17-1.79S619.73,222.64,618.72,223.43Z" transform="translate(88.431)" fill="#292c3d"/>
    <path id="Path_431" data-name="Path 431" d="M611.1,225.37a6.22,6.22,0,0,0,3.08.14s-.91,1.19-1.91,1a1.31,1.31,0,0,1-1.17-1.14Z" transform="translate(87.894)" fill="#fff"/>
    <path id="Path_432" data-name="Path 432" d="M620.48,231.06l-4.77,2.59L612,231.42a34,34,0,0,0-1.35,12.12c.55,6.45,1.59,11.08,6,5.09S622.56,233.15,620.48,231.06Z" transform="translate(88.473)" fill="#fff"/>
    <path id="Path_433" data-name="Path 433" d="M620.48,231.06l-4.77,2.59L612,231.42a34,34,0,0,0-1.35,12.12c.55,6.45,1.59,11.08,6,5.09S622.56,233.15,620.48,231.06Z" transform="translate(88.473)" fill="#fff"/>
    <path id="Path_434" data-name="Path 434" d="M614.81,236.6s-2.57,13.89-2.35,14.16c.14-.18,1.7,3.77,2.6,0,.71-2.93.79-13.84.9-14s1.34-1.44,2.13-2.15c.51-.47,1-.95,1.49-1.44.12-.23.24-.46.35-.7l-.21.49a11.259,11.259,0,0,1,1-1.62,2.6,2.6,0,0,0-.25-.31l-4.77,2.59-3.7-2.2s-.11.33-.27.92a17.742,17.742,0,0,1,1,1.62C613.16,234.63,614.81,236.6,614.81,236.6Z" transform="translate(88.484)" fill="#292c3d"/>
    <path id="Path_435" data-name="Path 435" d="M605,256.92l14.66-.28s2.23,3.66,2.73,14.21c.34,7.22.63,9.22,1.35,18.76.49,6.49,2.79,31.32,2.79,31.32h-7.79s-3.3-28.34-3.47-29.88c-.06-.55-2-15.54-2-15.54s.32,13.58.32,15.16.34,29.46.34,29.46h-8.21s-.92-23.71-1-29.14C604.62,282.21,603.87,259.76,605,256.92Z" transform="translate(88.541)" fill="#292c3d"/>
    <path id="Path_436" data-name="Path 436" d="M612,231.42s-5.16,1-7.15,1.66c0,0,.63,11.92-1.37,14.91l-.9,26s11.3-.14,11.66-14.21.34-14.7.34-14.7Z" transform="translate(87.414)" fill="#4d505e"/>
    <path id="Path_437" data-name="Path 437" d="M613.59,246.66a.593.593,0,1,1,0-.01Z" transform="translate(87.942)" fill="#292c3d"/>
    <path id="Path_438" data-name="Path 438" d="M613.31,250.93a.42.42,0,0,1-.44.42.44.44,0,0,1-.43-.44.45.45,0,0,1,.45-.43.44.44,0,0,1,.42.45Z" transform="translate(87.901)" fill="#292c3d"/>
    <path id="Path_439" data-name="Path 439" d="M613,255.19a.43.43,0,1,1-.43-.43A.43.43,0,0,1,613,255.19Z" transform="translate(87.858)" fill="#292c3d"/>
    <path id="Path_440" data-name="Path 440" d="M612.76,259.45a.43.43,0,0,1-.44.42.44.44,0,0,1-.43-.44.42.42,0,0,1,.44-.42.44.44,0,0,1,.43.44Z" transform="translate(87.823)" fill="#292c3d"/>
    <path id="Path_441" data-name="Path 441" d="M627.52,234.36l-7-3.3-5.91,14-1.26,16.33s.15,14.35,12.4,12.58l-1-26.34S624.62,238,627.52,234.36Z" transform="translate(89.162)" fill="#4d505e"/>
    <path id="Path_442" data-name="Path 442" d="M647.22,240.19,643,237.1s-7.89,12.46-8.35,12.09-4.22-13.49-7.08-14.83c0,0-1.44,1-2.26,4.06a34.191,34.191,0,0,0-.55,9s7.44,11,10.07,10.65S647.22,240.19,647.22,240.19Z" transform="translate(88.549)" fill="#4d505e"/>
    <path id="Path_443" data-name="Path 443" d="M589,234.36l-4.83,1.92s6.61,23.89,10.42,21.79,8.87-9.54,8.87-9.54a17.719,17.719,0,0,0,2-5.94c.48-3.19.18-7.56-.58-9.51,0,0-3.36,2-6.18,7.66s-3.67,7.22-3.92,6.87S589,234.36,589,234.36Z" transform="translate(87.528)" fill="#4d505e"/>
    <path id="Path_444" data-name="Path 444" d="M611.76,232.21c0,.12,1.25,4.6,1.25,4.6l2.7-2,2.29,2.14,2.42-5.13-.4-.5-2.89,1.57-1.42,1.28-3.16-2.4-.18-.12Z" transform="translate(88.461)" fill="#abacb3" opacity="0.55"/>
    <path id="Path_445" data-name="Path 445" d="M615.71,233.29l-3.33-2.54-.8.75,1.29,4.55,2.84-2.13,2.55,2.39,2.47-5.13-1.24-1.3Z" transform="translate(88.476)" fill="#fff"/>
    <rect id="Rectangle_50" data-name="Rectangle 50" width="24.86" height="1.51" transform="translate(665.549 272.09)" fill="#3f6a85"/>
    <rect id="Rectangle_51" data-name="Rectangle 51" width="28.47" height="20.55" rx="1.48" transform="translate(661.785 252.29)" fill="#292c3d"/>
    <path id="Path_446" data-name="Path 446" d="M579.31,271.36V253.78a1.49,1.49,0,0,1,1.48-1.49h-1.31a1.49,1.49,0,0,0-1.48,1.49v17.58a1.48,1.48,0,0,0,1.48,1.48h1.31A1.48,1.48,0,0,1,579.31,271.36Z" transform="translate(83.111)" fill="#5b5d6a"/>
    <path id="Path_447" data-name="Path 447" d="M594.17,262.57a1.43,1.43,0,1,1-1.43-1.43,1.43,1.43,0,0,1,1.43,1.43Z" transform="translate(85.03)" fill="#fff"/>
    <rect id="Rectangle_52" data-name="Rectangle 52" width="18.73" height="2.68" transform="translate(711.536 270.92)" fill="#292c3d"/>
    <path id="Path_448" data-name="Path 448" d="M615.82,253.54l6.06,18.82.95-.35-6.07-18.82Z" transform="translate(88.907)" fill="#292c3d"/>
    <path id="Path_449" data-name="Path 449" d="M649.38,319.4s-5,2.46-7.66,3.56c-2.22.92-1.76,3,.77,3.7s4.6.25,5.18-.55,2-.5,2.52-.24,4.75-.72,5-1.69-.8-5.28-.8-5.28Z" transform="translate(93.148)" fill="#292c3d"/>
    <path id="Path_450" data-name="Path 450" d="M675.38,273.1l-8.48.11s-20.73,7.73-23.44,9.77,4.45,37.43,4.45,37.43l7-.74s-1.66-31.67-.31-33,23.3-3.36,24.68-3.77S678.75,277.6,675.38,273.1Z" transform="translate(95.546)" fill="#4d505e"/>
    <path id="Path_451" data-name="Path 451" d="M675.38,273.1l-8.48.11s-20.73,7.73-23.44,9.77,4.45,37.43,4.45,37.43l7-.74s-1.66-31.67-.31-33,23.3-3.36,24.68-3.77S678.75,277.6,675.38,273.1Z" transform="translate(95.546)" fill="#3d3848"/>
    <path id="Path_452" data-name="Path 452" d="M692.57,254.21l-8.6,34.41-3.57-.89,7.41-34.71Z" transform="translate(95.719)" fill="#afeaf0"/>
    <rect id="Rectangle_53" data-name="Rectangle 53" width="1.43" height="37.56" transform="translate(747.116 289.62)" fill="#afeaf0"/>
    <rect id="Rectangle_54" data-name="Rectangle 54" width="1.43" height="37.56" transform="translate(777.296 289.62)" fill="#afeaf0"/>
    <rect id="Rectangle_55" data-name="Rectangle 55" width="35.47" height="4.91" transform="translate(745.865 286.16)" fill="#292c3d"/>
    <path id="Path_453" data-name="Path 453" d="M673.12,237l-4.86,1s1.39,6,0,9.28c0,0,2.65,1,7.12-2.35C675.38,245,672.62,242.65,673.12,237Z" transform="translate(96.488)" fill="#e76f59"/>
    <path id="Path_454" data-name="Path 454" d="M673.92,230.07s-5.41-2-6.86-1.3-3.22,1.85-2.95,2.94a15.429,15.429,0,0,1,.13,5.37c-.35,1-1,1.72-.81,2.07s1,.08,1.23.51,1.5,3.29,2.24,3.7,4.93-1.07,6.87-5.63S675.12,230.84,673.92,230.07Z" transform="translate(96.202)" fill="#f9a57e"/>
    <path id="Path_455" data-name="Path 455" d="M643.31,320s-6.51,2.27-9.19,3.35c-2.23.89-1.79,2.92.73,3.7s4.6.3,5.18-.5,2-.48,2.53-.22,4.75-.66,5-1.64a14.43,14.43,0,0,0-.36-3.82Z" transform="translate(92.036)" fill="#292c3d"/>
    <path id="Path_456" data-name="Path 456" d="M670.71,228.44s1.85-2.06,3.94-.85,1.27,3.12,1.71,4a5.16,5.16,0,0,1-.17,5.4c-1.13,2-.45,3.29-2.33,3.5s-2.44-.35-2.44-.35a7.271,7.271,0,0,0,.73-2.94s1.61-.89,1.39-2.28a1.19,1.19,0,0,0-2.37-.14c-.45,1.43.35,2.41-.7,3.1,0,0-.63.18-.63-1.41a15.5,15.5,0,0,1,.29-2.93s-3.8,2-6.72,0-.91-5.18,1.22-5.91a7,7,0,0,1,6.08.81Z" transform="translate(96.313)" fill="#292c3d"/>
    <path id="Path_457" data-name="Path 457" d="M677.72,271.84l-9.46,1.89s-21.51,7.77-24.22,9.8-3.19,36.88-3.19,36.88l7.06.68s3-33.13,4.68-34.1c1.42-.83,24.55-.83,26-.83C680.67,286.16,682.47,276.64,677.72,271.84Z" transform="translate(95.531)" fill="#4d505e"/>
    <path id="Path_458" data-name="Path 458" d="M638.44,269.4s-1.43.17-1.73.17-4.22-2.38-4.65-2.07-4.46,3.2-4.34,3.77,1.23.25,3.38-1.61c0,0-2.85,2.07-2.31,2.58s3-1.81,3-1.81-2.57,2-2,2.42,2.87-1.9,2.87-1.9-1.78,1.76-1.54,2.06,1.36-.19,2.58-1.37c0,0,.23-.12.87.25s4.61-.29,4.61-.29Z" transform="translate(91.013)" fill="#f9a57e"/>
    <path id="Path_459" data-name="Path 459" d="M637.42,268.23l1.21,4.54s19.59-4.43,21.57-5.89S674,252.57,672.29,249s-4-2.7-5.41-.67S658.69,259,657.73,260,637.42,268.23,637.42,268.23Z" transform="translate(94.567)" fill="#0254e4"/>
    <path id="Path_460" data-name="Path 460" d="M640.65,271.51s-1.5.17-1.82.17-4.43-2.37-4.88-2.06-4.69,3.19-4.56,3.77,1.3.24,3.55-1.62c0,0-3,2.07-2.43,2.59s3.18-1.81,3.18-1.81-2.69,2-2.06,2.41,3-1.89,3-1.89-1.86,1.76-1.61,2.06,1.42-.2,2.71-1.37c0,0,.23-.13.91.24s4.84-.28,4.84-.28Z" transform="translate(91.311)" fill="#f9a57e"/>
    <path id="Path_461" data-name="Path 461" d="M675,244.64s-4.38,2.22-6.86,2.08c0,0-4,8.44-4.28,10.69s.45,17,.45,17,9.72,2.11,15.44-.78c0,0-1.54-9.61-.91-14.39S679,248.19,675,244.64Z" transform="translate(96.662)" fill="#0254e4"/>
    <path id="Path_462" data-name="Path 462" d="M673.14,260.32c1-2.24,4.77-5.84,2.85-8.35-1.53-2-2.63-2.16-4.32-.24a57,57,0,0,1-4.83,5.34,29.793,29.793,0,0,1-3,2.22c0,4.64.51,15.1.51,15.1a38.741,38.741,0,0,0,6.93.74C669.23,270.73,671.1,265,673.14,260.32Z" transform="translate(96.364)" fill="#00a1cc" opacity="0.65"/>
    <path id="Path_463" data-name="Path 463" d="M639.58,270.34l1.27,4.54s20.57-4.42,22.65-5.89,14.5-14.31,12.71-17.89-4.2-2.69-5.69-.66-8.59,10.7-9.61,11.71S639.58,270.34,639.58,270.34Z" transform="translate(95.053)" fill="#0254e4"/>
    <path id="Path_464" data-name="Path 464" d="M541.84,246.81a39.768,39.768,0,0,0,1.81-4.2c.45-1.46,2.33-6.55,3.1-6.09s-.94,4.73-.94,4.73,1.38-5.29,2.37-5.08-1.25,5.21-1.25,5.21,1.8-4.69,2.4-4.3.23,1.43-1.36,4.93c0,0,1.36-3,2-2.38s-1.07,3.42-1.72,4.1a47.129,47.129,0,0,0-4.46,4.74S542,248,541.84,246.81Z" transform="translate(75.321)" fill="#f9a57e"/>
    <path id="Path_465" data-name="Path 465" d="M544.76,243.18s2.27-1.54,3-1.07.07,1.07-2.32,2.06c0,0-.79,1.17-1.33,1.3a1.65,1.65,0,0,1,.65-2.29Z" transform="translate(75.307)" fill="#ffb089"/>
    <path id="Path_466" data-name="Path 466" d="M541.62,245.41s-8,13.54-8.47,13.45-12.1-3.63-16.11-6.62c-1.14-.85-1.13,8.41,0,9s18.15,3.59,18.9,3.12,9.4-16.72,9.4-16.72Z" transform="translate(75.139)" fill="#0254e4"/>
    <path id="Path_467" data-name="Path 467" d="M537.12,261.93c-5.8,3.73-19.4-7-21-7.39-.23,2.53.14,6.3.89,6.68,1.14.57,18.15,3.59,18.9,3.12a17.741,17.741,0,0,0,1.83-2.89,5.477,5.477,0,0,1-.62.48Z" transform="translate(74.567)" fill="#00a1cc" opacity="0.65"/>
    <path id="Path_468" data-name="Path 468" d="M517.17,246.35c-.51-.1-3-5.29-4-6.3-.51,3.54-2.65,11.95-2.65,11.95,2.6,2.79,7.78,1.08,7.78,1.08a17.8,17.8,0,0,1-1.13-6.73Z" transform="translate(73.759)" fill="#e76f59"/>
    <path id="Path_469" data-name="Path 469" d="M515.77,233.47s5,1.14,6,2.61,1,5.3,1.5,6.31c.32.61.61,1.11.77,1.47s-.21.5-.65.65a.74.74,0,0,0-.47.49c-.3.93-1.13,3.29-2,3.62-1,.41-6.18.25-7.72-4.23S512.54,232.51,515.77,233.47Z" transform="translate(74.313)" fill="#f9a57e"/>
    <path id="Path_470" data-name="Path 470" d="M536.33,319.85l-3.39-.56a25.631,25.631,0,0,1-.46,4,10.87,10.87,0,0,0,7.7.38A13.122,13.122,0,0,1,537,321.8a3.71,3.71,0,0,1-.67-1.95Z" transform="translate(76.926)" fill="#f9a57e"/>
    <path id="Path_471" data-name="Path 471" d="M532.78,321.74a10.9,10.9,0,0,0,6.57,1.5s4.87,2.6,5.18,3.25c.44.91-1.69,1-5,.86-2.83-.09-2.62-.3-3.19-.86s-1.28-1.18-1.28-1.18a5.761,5.761,0,0,0-.55,2l-1.27-.18a4.16,4.16,0,0,0-.46-2.38A2.39,2.39,0,0,1,532.78,321.74Z" transform="translate(77.236)" fill="#292c3d"/>
    <path id="Path_472" data-name="Path 472" d="M522.66,319l-2.55-.7s-1.51,2.5-1.94,3.16a10.85,10.85,0,0,0,7.42,2.08,13.191,13.191,0,0,1-2.66-2.48,3.819,3.819,0,0,1-.27-2.06Z" transform="translate(74.838)" fill="#f9a57e"/>
    <path id="Path_473" data-name="Path 473" d="M518.45,320.89a10.9,10.9,0,0,0,6.41,2.1s4.6,3,4.85,3.72c.35,1-1.78.81-5.07.39-2.82-.35-2.59-.54-3.11-1.15s-1.16-1.29-1.16-1.29a5.9,5.9,0,0,0-.73,1.91l-1.25-.3a4.17,4.17,0,0,0-.24-2.41,2.4,2.4,0,0,1,.3-2.97Z" transform="translate(75.109)" fill="#292c3d"/>
    <path id="Path_474" data-name="Path 474" d="M510.86,272.27l6.68,4.72s21.67,4.18,24.42,6.24-17.49,38.63-17.49,38.63l-6.3-2.1s15.12-32.37,13.75-33.74-23.66-3.41-25.07-3.83S507.44,276.84,510.86,272.27Z" transform="translate(75.186)" fill="#ff4c6b"/>
    <path id="Path_475" data-name="Path 475" d="M510.86,272.27l6.68,4.72s21.67,4.18,24.42,6.24-17.49,38.63-17.49,38.63l-6.3-2.1s15.12-32.37,13.75-33.74-23.66-3.41-25.07-3.83S507.44,276.84,510.86,272.27Z" transform="translate(75.186)" fill="#da395b"/>
    <path id="Path_476" data-name="Path 476" d="M508.81,274.41l8.73.74s22.39,5.64,25.13,7.7-4,38.64-4,38.64l-6.83-1.73s3.85-32.4,2.17-33.38c-1.44-.85-24.93-.85-26.4-.85C505.48,285.53,504,279.28,508.81,274.41Z" transform="translate(75.21)" fill="#ff4c6b"/>
    <path id="Path_477" data-name="Path 477" d="M511.28,250.24a63.6,63.6,0,0,0,6.92,2.63s4.07,8,4.35,10.29,2.05,14.5,2.05,14.5-12.57,3.61-18.38.74c0,0,1.76-8.69,1.11-13.45S507.25,253.77,511.28,250.24Z" transform="translate(73.889)" fill="#0254e4"/>
    <path id="Path_478" data-name="Path 478" d="M512.83,263.92c0,4,2.61,6,5.27,8.6a17.449,17.449,0,0,1,4,5.76c1.42-.42,2.51-.62,2.51-.62s-1-6.57-1.57-11c-2.67-1.19-4.09-3.75-5-6.47a10.34,10.34,0,0,0-1.85-3.76c-3,.08-3.14,3.54-3.31,6.78Z" transform="translate(74.378)" fill="#00a1cc" opacity="0.65"/>
    <path id="Path_479" data-name="Path 479" d="M493.07,253.09l8.74,34.93,3.62-.9-7.52-35.24Z" transform="translate(77.552)" fill="#afeaf0"/>
    <rect id="Rectangle_56" data-name="Rectangle 56" width="1.45" height="38.13" transform="translate(607.827 289.04)" fill="#afeaf0"/>
    <rect id="Rectangle_57" data-name="Rectangle 57" width="1.45" height="38.13" transform="translate(577.189 289.04)" fill="#afeaf0"/>
    <rect id="Rectangle_58" data-name="Rectangle 58" width="36.01" height="4.99" transform="translate(575.192 285.53)" fill="#292c3d"/>
    <path id="Path_480" data-name="Path 480" d="M522.39,237.72c1.63-.63.9-3.16-.22-3.94a12.23,12.23,0,0,0-6.93-2.34c-3,.06-5.65,2.35-7.37,4.56-1.24,1.61-1.16,3.31-2.05,5-.82,1.57-2.59,2.36-3.65,3.77a5.46,5.46,0,0,0-.61,4.63A8.7,8.7,0,0,1,502,253c-.25,1.56-1.51,2.71-1.93,4.22a11.46,11.46,0,0,0-.07,4.29,5.8,5.8,0,0,0,2.57,4.36c3.1,2.06,7.29-.43,7.77-3.89a17.86,17.86,0,0,0-.39-4.45,3.8,3.8,0,0,1,2.07-4c1.35-.87,2-1.44,1.89-3.14a13.89,13.89,0,0,1,0-3.47c.24-1.31.8-1.56-.23-2.52-.72-.68-1.33-1.4-.75-2.42.46-.82,1.21-1.06,1.85-.29.17.2,1,1.91,1.24.95.06-.27-.3-.79-.33-1.09a1.19,1.19,0,0,1,.34-1.08c.51-.54,1.26-.83,1.78-1.37s.75-1.58,1.7-2a2.44,2.44,0,0,1,1.51-.06C521.28,237.14,522.24,237.78,522.39,237.72Z" transform="translate(73.321)" fill="#292c3d"/>
    <rect id="Rectangle_59" data-name="Rectangle 59" width="18.73" height="2.68" transform="translate(627.052 270.92)" fill="#292c3d"/>
    <path id="Path_481" data-name="Path 481" d="M570.96,253.54l-6.07,18.82-.95-.35,6.07-18.82Z" transform="translate(81.418)" fill="#292c3d"/>
    <rect id="Rectangle_60" data-name="Rectangle 60" width="1.25" height="55.06" transform="translate(625.931 272.6)" fill="#7695a8"/>
    <rect id="Rectangle_61" data-name="Rectangle 61" width="1.25" height="55.06" transform="translate(748.472 274.6)" fill="#7695a8"/>
    <rect id="Rectangle_62" data-name="Rectangle 62" width="125.01" height="1.46" transform="translate(626.278 273.6)" fill="#7695a8"/>
    <path id="Path_482" data-name="Path 482" d="M544.92,270s1.62-.11,2-.18,4.23-3.38,4.77-3.14,5.59,2.47,5.58,3.1-1.33.52-4.08-1c0,0,3.58,1.6,3.08,2.26s-3.73-1.29-3.73-1.29,3.24,1.55,2.66,2.15-3.57-1.42-3.57-1.42,2.32,1.5,2.12,1.87-1.55.07-3.15-.92c0,0-.27-.09-.91.43s-5.19.65-5.19.65Z" transform="translate(79.047)" fill="#f9a57e"/>
    <path id="Path_483" data-name="Path 483" d="M546,269.08v4.32s-15.15.92-19.41-.49-13.22-12.86-14-14.78c-.93-2.3,2.58-7.9,6.06-2.8a106.34,106.34,0,0,0,10.12,12.19C529.08,267.73,546,269.08,546,269.08Z" transform="translate(75.914)" fill="#0254e4"/>
    <path id="Path_484" data-name="Path 484" d="M770.19,248.61s-9.38-.7-12.27-5.52,0-8.11,2.37-9.65,5.92-3.9,6.05-6.09,0-7.58,5.61-9.36a8.23,8.23,0,0,1,5.88.31,6.69,6.69,0,0,1,2.33,1.86,5,5,0,0,1,1,2.41,9.42,9.42,0,0,1,.13,2.38c0,1.27-.32,2.58-.44,3.85-.1,1.11-.17,2.19-.17,3.31a6.651,6.651,0,0,0,.38,2.17c.25.72.64,1.37.91,2.07a26.735,26.735,0,0,1,1,2.8,7.54,7.54,0,0,1,0,3.1c-.29,3.11-2.57,5.05-5.46,5.84a21.591,21.591,0,0,1-7.32.52Z" transform="translate(111.319)" fill="#292c3d"/>
    <path id="Path_485" data-name="Path 485" d="M776.91,230.89a5.33,5.33,0,0,1-3.81-2.12,9.37,9.37,0,0,1-1.7,6.85s0,6.23,4,5.62,3.55-5.26,3.55-5.26a5.49,5.49,0,0,1-2.04-5.09Z" transform="translate(111.428)" fill="#e76f59"/>
    <path id="Path_486" data-name="Path 486" d="M772.68,221s3.83-1.61,5.26-.82,2.08,3,2.55,5.23-.67,6.46-2.78,7.16c-2.49.83-4.68-1.22-5.5-3.82,0,0-2.19-.53-2-3.45S771.1,220.7,772.68,221Z" transform="translate(111.557)" fill="#f9a57e"/>
    <path id="Path_487" data-name="Path 487" d="M778.14,235.17s-1.65,3-2.5,3.51-4.33-4-4.33-4A34.328,34.328,0,0,1,764,238s-1.15,12.16-1.9,15c0,0-1.31,15.38-1.31,17.45h20.65a46.59,46.59,0,0,1,3.54-19.5s-1.21-9.4-.55-11.73A67.542,67.542,0,0,1,778.14,235.17Z" transform="translate(111.676)" fill="#0254e4"/>
    <path id="Path_488" data-name="Path 488" d="M785,250.89s-.3-2.3-.52-4.91a87.3,87.3,0,0,0-3.37,8.72c-1.34,3.5-5.24,10.15-10,8.64-3.78-1.18-5-5.56-5.57-9.06-.33-1.91-.63-3.85-.83-5.78-.17-1.59-.22-4.2-1.1-5.55-.51.44-.71,2-.78,2.69-.09,1-.11,2-.16,3.05a10.456,10.456,0,0,1-.08,1.56c-.08.56-.13.87-.2,1.31s-.06.64-.13.94a.5.5,0,0,1,0,.12.443.443,0,0,1-.08.32c-.08.09-1.31,15.38-1.31,17.45h20.65a46.589,46.589,0,0,1,3.48-19.5Z" transform="translate(111.681)" fill="#00a1cc" opacity="0.65"/>
    <path id="Path_489" data-name="Path 489" d="M771.51,234.42l-2.24,1.34,3.43,5.6,2.94-2.42,2.81,2.27,1.38-4.96-2-1.45-2.12,3.54Z" transform="translate(111.44)" fill="#fff"/>
    <path id="Path_490" data-name="Path 490" d="M778.4,221.4s-.74,2.6-3,3.23a2.06,2.06,0,0,0-1.46,2.19c0,.46-1,.53-1.05.22s.24-1.86-1.1-2.17-1.44,1.69-.24,2.89c0,0,2.24,2.37,1.19,5a8.67,8.67,0,0,1-7.44,5.65c-4.21.48-6,6.37-6,6.37s-4.23-5,.46-8.57,8-5.66,8-8,1.51-8.78,5.54-9.21S778.4,221.4,778.4,221.4Z" transform="translate(110.839)" fill="#292c3d"/>
    <path id="Path_491" data-name="Path 491" d="M781.07,225.08s-1.75.25-3.62-2.37a8.8,8.8,0,0,1-1.87-4.7S782.33,219.08,781.07,225.08Z" transform="translate(111.826)" fill="#292c3d"/>
    <rect id="Rectangle_63" data-name="Rectangle 63" width="1.68" height="44.32" transform="translate(869.908 282.45)" fill="#afeaf0"/>
    <rect id="Rectangle_64" data-name="Rectangle 64" width="1.68" height="44.32" transform="translate(905.521 282.45)" fill="#afeaf0"/>
    <rect id="Rectangle_65" data-name="Rectangle 65" width="1.68" height="44.32" transform="translate(928.954 282.45)" fill="#afeaf0"/>
    <rect id="Rectangle_66" data-name="Rectangle 66" width="1.68" height="44.32" transform="translate(966.998 283.45)" fill="#afeaf0"/>
    <rect id="Rectangle_67" data-name="Rectangle 67" width="41.85" height="4.33" transform="translate(869.066 279.83)" fill="#292c3d"/>
    <path id="Path_492" data-name="Path 492" d="M783.41,309.1s-3.8,4.2-3.71,4.74,8.78,12,10,11.85,1.31-2.28,1-3.06-4-12.23-4-12.23Z" transform="translate(113.015)" fill="#292c3d"/>
    <path id="Path_493" data-name="Path 493" d="M772.65,309.23s-4.15,3.85-4.11,4.39,7.69,12.69,9,12.69,1.5-2.15,1.27-3-2.93-12.54-2.93-12.54Z" transform="translate(111.312)" fill="#292c3d"/>
    <path id="Path_494" data-name="Path 494" d="M789.52,282.94c-1.47,7-6.45,26.55-6.45,26.55l4.41,2.64S795,293,797.43,282.94Z" transform="translate(113.855)" fill="#e76f59"/>
    <path id="Path_495" data-name="Path 495" d="M780.67,282.94c-2.18,7.16-8.42,26.73-8.42,26.73l3.94,2.65s10.44-19.39,14.29-29.38Z" transform="translate(112.703)" fill="#f9a57e"/>
    <path id="Path_496" data-name="Path 496" d="M796.2,275.79a43.4,43.4,0,0,0-10.15-4.44h0c-1.43-.37-4-3.71-4.35-6.55-2.06.81-4.62.78-7.14.86-3.49.12-7.57.65-11-.16a9.41,9.41,0,0,1-2.14-.82,13.9,13.9,0,0,0-3.81,9.76c0,3.18.92,4.59,4.39,5.72,1.87.61,11.7-.3,14.44.83,2.43,1,2,3.59,1.58,5.37,11.57,1.66,17.57.54,19.71.05C798.38,284.13,799.9,277.89,796.2,275.79Z" transform="translate(113.06)" fill="#4d505e"/>
    <path id="Path_497" data-name="Path 497" d="M828.05,264.74s-9.85-.05-13.31-2.36-4.06-11.47,1-15.22,6.06-4.9,6.29-7.37.16-8.07,6.67-8.1,5.83,5.2,6.32,8.53c.33,2.32,3.52,5.74,6.31,7.87C844.87,250.83,848.88,267.05,828.05,264.74Z" transform="translate(120.131)" fill="#292c3d"/>
    <path id="Path_498" data-name="Path 498" d="M831,241.46a5.669,5.669,0,0,1-1.74.26,5.2,5.2,0,0,1-2.92-.82c-.27,1.85.57,4-1.24,4.53,0,0,.11,8,3.31,8s3.63-8,3.63-8S830.54,245.09,831,241.46Z" transform="translate(119.113)" fill="#e76f59"/>
    <path id="Path_499" data-name="Path 499" d="M833,239.48c-.33-.72-1.17-.37-1.17-.37.17-1.93.16-5,.16-5l-3.35-.36-3.34.36s0,3,.16,5c0,0-.84-.35-1.17.37-.56,1.2.79,2,.79,2s.94,4.08,3.56,4.32c2.63-.24,3.62-4.34,3.57-4.32S833.56,240.68,833,239.48Z" transform="translate(119.209)" fill="#f9a57e"/>
    <path id="Path_500" data-name="Path 500" d="M832.46,234.08s-1.76,4.53-6.59,4.2a3,3,0,0,1-.13,1.51s-.66-1.89-1.41-1.47a2.54,2.54,0,0,0-1,1.14s-.7-5.37,2.78-6.56A7.15,7.15,0,0,1,832.46,234.08Z" transform="translate(119.106)" fill="#292c3d"/>
    <path id="Path_501" data-name="Path 501" d="M830.92,233.67a5.008,5.008,0,0,0-.07.75c0,.54,0,1.07,0,1.61a3.86,3.86,0,0,1,.87,2.45,2.87,2.87,0,0,0,.16,1.31s.67-1.89,1.41-1.47a2.54,2.54,0,0,1,1,1.14S834.09,233.57,830.92,233.67Z" transform="translate(119.542)" fill="#292c3d"/>
    <path id="Path_502" data-name="Path 502" d="M838,258.1c-1-2.81-.47-10.36-.47-10.36-1.19-.38-5.87-2.57-5.87-2.57l-3,7.33-3.2-7.28s-3.77,1.82-5,2.19c0,0-.24,7.88-1.21,10.69,0,0,3,4.84,0,15.67H838C835,262.94,838,258.1,838,258.1Z" transform="translate(119.623)" fill="#afeaf0"/>
    <path id="Path_503" data-name="Path 503" d="M838,258.1a32.251,32.251,0,0,1-.41-4.36c-.44,1.2-1,3.81-1.42,5-1.54,4-3.2,5.64-7.67,5.71-3.57.06-6.91-5.71-7.28-6.78-.44-1.23-1-2.41-1.42-3.61a16.374,16.374,0,0,1-.54,4.05s3,4.84,0,15.67H838C835,262.94,838,258.1,838,258.1Z" transform="translate(119.623)" fill="#5ac4e0"/>
    <path id="Path_504" data-name="Path 504" d="M837.31,266.08s-1.58.81-2.11.66a2.232,2.232,0,0,0-1.88-.15,7.27,7.27,0,0,0-2.05.9c-.56.33-1.63.86-1.29,1.5s1.49-.21,1.6-.26l.48-.23s-1.31.62-1.07,1,.88.37,1.3.13a8.234,8.234,0,0,0,.79-.5s-.88.61-.72.81a1.16,1.16,0,0,0,1.26,0,2.07,2.07,0,0,0,.69-.52s-.78.55-.08.79,1.34-.49,1.73-.77.93-.89,1.12-1,1.88-.71,1.88-.71Z" transform="translate(120.05)" fill="#f9a57e"/>
    <path id="Path_505" data-name="Path 505" d="M830,269.18l-4.61-7.55s-1.38-.73-1.31.91l5.46,7S831.15,271.35,830,269.18Z" transform="translate(118.897)" fill="#292c3d"/>
    <path id="Path_506" data-name="Path 506" d="M819.72,266.1a8.522,8.522,0,0,0,1.88.83c.24-.08,3.66-2.07,4.4-1.71a4.75,4.75,0,0,1,1.53,1.65c.35.47,1.5,1.89,1,2.35s-1.35-1.12-1.65-1.44-1.18-1.26-1.68-1.16a4.579,4.579,0,0,1,1.41,1.07c.43.6,1.47,1.51,1.08,2.14s-1.68-1.22-1.8-1.34a4.551,4.551,0,0,0-1.37-.87s1.08.77,1.2.91,1.38,1.12,1.17,1.46-.64.48-1.6-.61a4.71,4.71,0,0,0-1.15-.82,7.5,7.5,0,0,1,1.08.75c.21.22.68.73.31.84s-.88-.17-1.42-.51a2.34,2.34,0,0,0-1.81-.37c-.63.16-3.63-.89-3.63-.89Z" transform="translate(118.531)" fill="#f9a57e"/>
    <path id="Path_507" data-name="Path 507" d="M827.71,265.38s1.28.42,1.52,1-.17.86-.47.74Z" transform="translate(118.88)" fill="#f9a57e"/>
    <path id="Path_508" data-name="Path 508" d="M820.47,247.41c-1.07.29-3.69,1.27-6.13,7.88-2.21,6-3.11,10.85-2.9,12.4.35,2.5,10.06,2.42,10.06,2.42l.65-3.86s-4.36-1.42-4.26-2c.14-.72,1.37-3.38,1.88-5C819.86,259,821.22,247.2,820.47,247.41Z" transform="translate(117.565)" fill="#afeaf0"/>
    <path id="Path_509" data-name="Path 509" d="M837.31,247.7c.77.13,3.61,1.43,6.12,7.59,2.42,5.9,3.12,10.85,2.9,12.4-.34,2.5-10.05,2.42-10.05,2.42l-.65-3.86s4.36-1.42,4.25-2c-.14-.72-1.37-3.38-1.88-5C837.91,259,836.54,247.58,837.31,247.7Z" transform="translate(121.074)" fill="#afeaf0"/>
    <path id="Path_510" data-name="Path 510" d="M806.94,264.29l-1.24,2.21a19.758,19.758,0,0,1,2.15,1.45,4.67,4.67,0,0,0,2.92,2.29c1.94.37,2.24.76,2.73.26s-.79-1.19-1.57-1.37-1.41-.31-1.3-.49.81-.17,2.18,0,3.19.84,3.6.56-1-1.47-2.7-1.65a15.424,15.424,0,0,1-1.79-.27,19.458,19.458,0,0,1,1.94.18c.39.1,2.7.76,3.24.33s-1.52-1.22-3-1.37a6.94,6.94,0,0,0-1.9,0,19.718,19.718,0,0,1,2.13-.06c.52.06,2,.5,2.18.11s-1.09-.92-2.21-1a12.25,12.25,0,0,0-2.07.13,11.839,11.839,0,0,1,2-.27c.55,0,1.39.15,1.44-.1s-.32-.74-2.19-.71a14.514,14.514,0,0,0-2.55.35C810,265.1,807.22,264.3,806.94,264.29Z" transform="translate(111.822)" fill="#f9a57e"/>
    <rect id="Rectangle_68" data-name="Rectangle 68" width="1.3" height="57.26" transform="translate(860.199 269.84)" fill="#7695a8"/>
    <rect id="Rectangle_69" data-name="Rectangle 69" width="1.3" height="57.26" transform="translate(979.608 270.84)" fill="#7695a8"/>
    <rect id="Rectangle_70" data-name="Rectangle 70" width="118.28" height="1.52" transform="translate(861.046 269.84)" fill="#7695a8"/>
    <path id="Path_511" data-name="Path 511" d="M840.78,283.17v-.51a15.72,15.72,0,0,0-2.86-9.09H819.16a16.89,16.89,0,0,0-2.56,9.09v.51Z" transform="translate(119.867)" fill="#273137"/>
    <path id="Path_512" data-name="Path 512" d="M823.24,310.07s-4.75,5.64-5.3,6.84.8,2.71,2.65,2.1,7.3-6.84,7-7.61a5,5,0,0,0-1.48-1.61Z" transform="translate(118.384)" fill="#292c3d"/>
    <rect id="Rectangle_71" data-name="Rectangle 71" width="41.34" height="4.33" transform="translate(928.439 279.83)" fill="#292c3d"/>
    <path id="Path_513" data-name="Path 513" d="M828.09,282.11c-.18-2.19.22-6.19-3.4-6.19-5.47,0-4.35,7.87-4.26,8.75.86,8.72,2.81,25.4,2.81,25.4l2.92-.37S828.17,283.11,828.09,282.11Z" transform="translate(118.516)" fill="#f9a57e"/>
    <path id="Path_514" data-name="Path 514" d="M834.15,310.07s4.74,5.64,5.29,6.84-.8,2.71-2.65,2.1-7.3-6.84-7-7.61a5,5,0,0,1,1.48-1.61Z" transform="translate(120.116)" fill="#292c3d"/>
    <path id="Path_515" data-name="Path 515" d="M829.29,282.11c.18-2.19-.21-6.19,3.4-6.19,5.48,0,4.36,7.87,4.27,8.75-.86,8.72-2.81,25.4-2.81,25.4l-2.93-.37S829.21,283.11,829.29,282.11Z" transform="translate(119.819)" fill="#f9a57e"/>
    <path id="Path_516" data-name="Path 516" d="M808.05,263.46,806.83,268s-16-2.86-17.49-5.08-5.28-11.74-5.28-11.74-2.17-7.25.35-12c0,0,2.38.9,3.73,4.59.88,2.37,5.13,12.56,6,13.63S808.05,263.46,808.05,263.46Z" transform="translate(111.039)" fill="#0254e4"/>
    <path id="Path_517" data-name="Path 517" d="M764.79,266.89s1.4.22,1.7.22,4.26-2.06,4.68-1.75,4.29,3.18,4.15,3.72-1.23.18-3.28-1.66c0,0,2.74,2.06,2.19,2.53s-2.93-1.83-2.93-1.83,2.46,1.95,1.85,2.36-2.77-1.9-2.77-1.9,1.7,1.72,1.45,2-1.34-.24-2.5-1.39c0,0-.22-.13-.87.19s-4.55-.45-4.55-.45Z" transform="translate(110.755)" fill="#f9a57e"/>
    <path id="Path_518" data-name="Path 518" d="M766.1,267l-1.27,2.86s-12.06-5.22-12.49-10.08,7-21.3,12.16-21.19c0,0-1,11-2.32,14,0,0-2.91,4.61-2.87,5.73S766.1,267,766.1,267Z" transform="translate(111.323)" fill="#0254e4"/>
    <rect id="Rectangle_72" data-name="Rectangle 72" width="60.12" height="40.67" rx="2.73" transform="translate(466.089 120.09)" fill="#0254e4"/>
    <rect id="Rectangle_73" data-name="Rectangle 73" width="54.65" height="34.19" transform="translate(468.894 123.33)" fill="#afeaf0"/>
    <path id="Path_519" data-name="Path 519" d="M426.46,133.33v16.74l16.3-8.37Z" transform="translate(62.122)" fill="#ff4c6b"/>
    <path id="Path_520" data-name="Path 520" d="M415,233.9h-5.44s-.78,7.41-2.2,8.29c0,0-1.75,8.75,4.92,8.75,8.07,0,4.92-8.75,4.92-8.75C415.76,241.31,415,233.9,415,233.9Z" transform="translate(58.987)" fill="#e76f59"/>
    <path id="Path_521" data-name="Path 521" d="M419.33,235.35c-.75-.86-1.66.45-1.66.45s1.25-4.89,0-7-5.27-1-5.27-1-4-1.13-5.27,1,0,7,0,7-.91-1.31-1.66-.45,1.24,3.05,1.69,3.32c0,0,2.9,5.42,5.24,5.42s5.24-5.42,5.24-5.42C418.09,238.4,420.08,236.22,419.33,235.35Z" transform="translate(58.92)" fill="#f9a57e"/>
    <path id="Path_522" data-name="Path 522" d="M411.39,229.68s-3.06.54-3.39,2.18a6.291,6.291,0,0,0,.16,2.44,15.807,15.807,0,0,1,.26,2.7.47.47,0,0,1-.4-.07,5.621,5.621,0,0,1-1-1.24c-.58-.85-1.41-.71-1.65-.17,0,0-.68-8,2.68-8.32S411.39,229.68,411.39,229.68Z" transform="translate(58.463)" fill="#292c3d"/>
    <path id="Path_523" data-name="Path 523" d="M413.37,229.68s3.05.54,3.39,2.18a6.29,6.29,0,0,1-.16,2.44,15.82,15.82,0,0,0-.26,2.7.45.45,0,0,0,.39-.07,5.121,5.121,0,0,0,1-1.24c.59-.85,1.42-.71,1.66-.17,0,0,.68-8-2.69-8.32S413.37,229.68,413.37,229.68Z" transform="translate(59.625)" fill="#292c3d"/>
    <path id="Path_524" data-name="Path 524" d="M417.86,227.67a2.46,2.46,0,0,0-1.44-2.14,8.14,8.14,0,0,0-6.87,0c-2.37,1.19-3.09,1.45-3.79,1.06s-.25-.79-.25-.79-1.56,0-1.48,2.39,3,5.41,6.91,5.41C416.86,233.6,418.77,229.47,417.86,227.67Z" transform="translate(58.726)" fill="#292c3d"/>
    <path id="Path_525" data-name="Path 525" d="M417.18,242.19c-.28,7.44-4.92,6.67-4.92,6.67s-4.63.77-4.92-6.67c0,0-7.4,2-11,4.46A71.4,71.4,0,0,1,398,260.36l4.23,16.39,10.06.5,10.06-.5,4.23-16.39a71.4,71.4,0,0,1,1.64-13.71C424.58,244.23,417.18,242.19,417.18,242.19Z" transform="translate(58.618)" fill="#afeaf0"/>
    <path id="Path_526" data-name="Path 526" d="M425.83,251c-4.6,2.45-6.84,8.09-11.31,10.86s-7.89-2.92-10.14-5.92A17.39,17.39,0,0,0,397,250a70.821,70.821,0,0,1,1,10.36l4.23,16.39,10.06.5,10.06-.5,4.23-16.39a71.592,71.592,0,0,1,1-10.21A10.947,10.947,0,0,0,425.83,251Z" transform="translate(58.641)" fill="#5ac4e0"/>
    <path id="Path_527" data-name="Path 527" d="M430.92,283.38c0-5.75-7.13-9.53-7.13-9.53h-24s-7.13,3.78-7.13,9.53a28.538,28.538,0,0,0,.58,4.44h8c-.33.59-.62,1.13-.85,1.59-.07.14-.15.27-.23.4h5.79c.44,0,1.27.18,1.15-.46-.18-.92-.75-1.44-.19-2.4a3.33,3.33,0,0,1,2.47-1.38h4.31a6.5,6.5,0,0,1,1.4.23c.41.07.94.07,1.17.48a6.38,6.38,0,0,1,.41,1.8,9.837,9.837,0,0,1-.13,1.73h8.12a21,21,0,0,1-1.39-2h7.08A28.541,28.541,0,0,0,430.92,283.38Z" transform="translate(58.44)" fill="#0254e4"/>
    <path id="Path_528" data-name="Path 528" d="M430.92,283.38c0-5.75-7.13-9.53-7.13-9.53h-24s-7.13,3.78-7.13,9.53a28.538,28.538,0,0,0,.58,4.44h8c-.33.59-.62,1.13-.85,1.59-.07.14-.15.27-.23.4h6.93c.18,0-.28-1-.32-1.09a1.68,1.68,0,0,1-.12-1.19,2.33,2.33,0,0,1,.79-1.07,5.94,5.94,0,0,1,4.12-.95c1.37,0,2.89-.15,4.09.65a2.641,2.641,0,0,1,.62.53c.83,1,.39,2,.27,3.12h8.12a21.006,21.006,0,0,1-1.39-2h7.08a28.541,28.541,0,0,0,.57-4.43Z" transform="translate(58.44)" fill="#00a1cc" opacity="0.65"/>
    <path id="Path_529" data-name="Path 529" d="M396.33,246.65s-9.15,19.78-8.48,22.41c.16.66,11.3,7.38,16.54,6.42l2.13-.39S398.74,246.51,396.33,246.65Z" transform="translate(58.624)" fill="#afeaf0"/>
    <path id="Path_530" data-name="Path 530" d="M428.17,246.65s9.15,19.78,8.49,22.41c-.17.66-11.3,7.38-16.54,6.42l-2.13-.39S425.76,246.51,428.17,246.65Z" transform="translate(59.03)" fill="#afeaf0"/>
    <path id="Path_531" data-name="Path 531" d="M399.9,253.57a13.789,13.789,0,0,1-.35,2.89c-.81,3.57-2.08,7.3-.75,10.93a59.071,59.071,0,0,0,4.13,8.17,6.89,6.89,0,0,0,1.46-.08l2.13-.39S403,262,399.9,253.57Z" transform="translate(57.563)" fill="#5ac4e0"/>
    <path id="Path_532" data-name="Path 532" d="M423.17,275.38a13,13,0,0,0,1-5.27c-.12-3.65-.14-7.31-.08-11,0-1.58.06-3.11.15-4.61-3,8.42-6.26,20.55-6.26,20.55l2.13.39A8.86,8.86,0,0,0,423.17,275.38Z" transform="translate(60.301)" fill="#5ac4e0"/>
    <path id="Path_533" data-name="Path 533" d="M403.13,317.61s-5.81,6.91-6.49,8.38,1,3.32,3.25,2.56,3.58-2.3,3.61-3.28,1.25-1.5,1.78-1.58,3.54-3.5,3.24-4.45-1.82-2-1.82-2Z" transform="translate(57.52)" fill="#292c3d"/>
    <path id="Path_534" data-name="Path 534" d="M420.48,317.61s5.81,6.91,6.49,8.38-1,3.32-3.24,2.56-3.59-2.3-3.62-3.28-1.25-1.5-1.78-1.58-3.54-3.5-3.24-4.45,1.82-2,1.82-2Z" transform="translate(60.215)" fill="#292c3d"/>
    <rect id="Rectangle_74" data-name="Rectangle 74" width="1.89" height="39.93" transform="translate(448.115 287.8)" fill="#afeaf0"/>
    <rect id="Rectangle_75" data-name="Rectangle 75" width="1.89" height="39.93" transform="translate(490.127 289.8)" fill="#afeaf0"/>
    <rect id="Rectangle_76" data-name="Rectangle 76" width="51.8" height="5.12" transform="translate(443.641 285.58)" fill="#292c3d"/>
    <path id="Path_535" data-name="Path 535" d="M405.16,283.08c-.69-1.64-.83-5.12-5.49-5.12-9,0-6.86,7.18-6.73,8.26,1.36,10.7,7.87,32,7.87,32h9s-3.27-26.15-3.77-30.19a28.7,28.7,0,0,0-.88-4.95Z" transform="translate(57.243)" fill="#0254e4"/>
    <path id="Path_536" data-name="Path 536" d="M418.47,283.08c.69-1.64.83-5.12,5.49-5.12,9,0,6.86,7.18,6.73,8.26-1.36,10.7-7.87,32-7.87,32h-9s3.27-26.15,3.77-30.19A28.7,28.7,0,0,1,418.47,283.08Z" transform="translate(60.332)" fill="#0254e4"/>
    <rect id="Rectangle_77" data-name="Rectangle 77" width="26.37" height="1.56" transform="translate(457.785 275.31)" fill="#292c3d"/>
    <path id="Path_537" data-name="Path 537" d="M429.33,257H395.2a1.58,1.58,0,0,0-1.53,2.05c.32,2.06,4.62,16.44,5.49,16.44h26.21c.76,0,5.17-14.38,5.48-16.44a1.57,1.57,0,0,0-1.52-2.05Z" transform="translate(58.526)" fill="#292c3d"/>
    <path id="Path_538" data-name="Path 538" d="M413.67,267a1.41,1.41,0,1,1-1.41-1.41A1.41,1.41,0,0,1,413.67,267Z" transform="translate(59.078)" fill="#fff"/>
    <path id="Path_539" data-name="Path 539" d="M157.01,285.18v1.95h22.12v5.09H157.01v1.95h47.18v-8.99Z" fill="#da395b"/>
    <path id="Path_540" data-name="Path 540" d="M209.89,295.52h1.43v-1.35h-49.6v6.22h49.6V299h-1.43c-.47-.05-.84-.81-.84-1.76S209.42,295.57,209.89,295.52Z" transform="translate(24.342)" fill="#0254e4"/>
    <rect id="Rectangle_78" data-name="Rectangle 78" width="21.38" height="9" transform="translate(182.8 285.18)" fill="#ff4c6b"/>
    <rect id="Rectangle_79" data-name="Rectangle 79" width="27.38" height="6.22" transform="translate(161.72 294.17)" fill="#00a1cc" opacity="0.65"/>
    <path id="Path_541" data-name="Path 541" d="M157,287.13h0c.68.07,1.22,1.18,1.22,2.54s-.54,2.48-1.22,2.54h23.77v-5.09Z" fill="#f8f2ed"/>
    <path id="Path_542" data-name="Path 542" d="M209.52,266.39v-1.95H187.4v-5.1h22.12v-1.95H162.34v9Z" fill="#ff4c6b"/>
    <rect id="Rectangle_80" data-name="Rectangle 80" width="21.38" height="9" transform="translate(162.34 257.39)" fill="#da395b"/>
    <path id="Path_543" data-name="Path 543" d="M209.52,264.44h0c-.68-.06-1.23-1.17-1.23-2.54s.55-2.47,1.23-2.54H185.75v5.1Z" fill="#f8f2ed"/>
    <path id="Path_544" data-name="Path 544" d="M215.09,325.47v-1.36H182.74v-3.57h32.35v-1.36H146.1v6.29Z" fill="#ff4c6b"/>
    <rect id="Rectangle_81" data-name="Rectangle 81" width="31.27" height="6.3" transform="translate(146.11 319.18)" fill="#da395b"/>
    <path id="Path_545" data-name="Path 545" d="M215.09,324.11h0a1.78,1.78,0,1,1,0-3.55H180.33v3.57Z" transform="translate(26.746)" fill="#f8f2ed"/>
    <path id="Path_546" data-name="Path 546" d="M149.8,300.39v1.95h23.71v5.1H149.8v1.95h50.56v-9Z" fill="#48525b"/>
    <rect id="Rectangle_82" data-name="Rectangle 82" width="29.1" height="9" transform="translate(177.44 300.39)" fill="#b6b6b6"/>
    <path id="Path_547" data-name="Path 547" d="M149.8,302.34h0c.73.06,1.31,1.17,1.31,2.54s-.58,2.47-1.31,2.54h53.44v-5.09Z" fill="#f8f2ed"/>
    <path id="Path_548" data-name="Path 548" d="M177.52,302.34H149.8c.73.06,1.31,1.17,1.31,2.54s-.58,2.47-1.31,2.54h27.72Z" fill="#f8f2ed"/>
    <path id="Path_549" data-name="Path 549" d="M152.41,276.18v1.95h19.65v5.09H152.41v1.96h41.9v-9Z" fill="#48525b"/>
    <rect id="Rectangle_83" data-name="Rectangle 83" width="24.11" height="9" transform="translate(175.32 276.18)" fill="#b6b6b6"/>
    <path id="Path_550" data-name="Path 550" d="M152.41,278.13h0c.61.06,1.09,1.17,1.09,2.54s-.48,2.47-1.09,2.54H196.7v-5.09Z" fill="#f8f2ed"/>
    <path id="Path_551" data-name="Path 551" d="M175.38,278.13h-23c.61.06,1.09,1.17,1.09,2.54s-.48,2.47-1.09,2.54h23Z" fill="#f8f2ed"/>
    <path id="Path_552" data-name="Path 552" d="M212.18,319.18v-2.13H185.41v-5.54h26.77v-2.12H158.45v9.79Z" transform="translate(23.948)" fill="#afeaf0"/>
    <rect id="Rectangle_84" data-name="Rectangle 84" width="29.23" height="9.79" transform="translate(152.24 309.39)" fill="#5ac4e0"/>
    <path id="Path_553" data-name="Path 553" d="M212.18,317.05h0c-.74-.08-1.32-1.28-1.32-2.77s.58-2.69,1.32-2.76H155.55v5.54Z" fill="#f8f2ed"/>
    <path id="Path_554" data-name="Path 554" d="M181.39,317.05h30.79c-.74-.08-1.32-1.28-1.32-2.77s.58-2.69,1.32-2.76H181.39Z" transform="translate(26.799)" fill="#f8f2ed"/>
    <path id="Path_555" data-name="Path 555" d="M203.15,276.18v-2.12H182.33v-5.55h20.82v-2.12H161.36v9.79Z" fill="#afeaf0"/>
    <rect id="Rectangle_85" data-name="Rectangle 85" width="22.73" height="9.79" transform="translate(156.52 266.39)" fill="#5ac4e0"/>
    <path id="Path_556" data-name="Path 556" d="M203.15,274.06h0c-.57-.07-1-1.28-1-2.77s.46-2.69,1-2.76H159.1v5.55Z" fill="#f8f2ed"/>
    <path id="Path_557" data-name="Path 557" d="M179.2,274.06h24c-.57-.07-1-1.28-1-2.77s.46-2.69,1-2.76h-24Z" fill="#f8f2ed"/>
    <rect id="Rectangle_86" data-name="Rectangle 86" width="15.3" transform="translate(194.59 299.04)" fill="#f8f2ed"/>
    <path id="Path_558" data-name="Path 558" d="M209.05,297.28c0-.94.37-1.71.84-1.76H190.83V299h19.06C209.42,299,209.05,298.23,209.05,297.28Z" fill="#f8f2ed"/>
    <path id="Path_559" data-name="Path 559" d="M204.58,250h1v-2.05H169.12v9.47h36.51v-2h-1c-.35-.07-.63-1.24-.63-2.68S204.23,250.05,204.58,250Z" fill="#0254e4"/>
    <rect id="Rectangle_87" data-name="Rectangle 87" width="20.15" height="9.48" transform="translate(169.12 247.92)" fill="#00a1cc" opacity="0.65"/>
    <path id="Path_560" data-name="Path 560" d="M204,252.66c0-1.44.28-2.61.63-2.68h-14v5.37h14C204.23,255.27,204,254.1,204,252.66Z" fill="#f8f2ed"/>
    <path id="Path_561" data-name="Path 561" d="M587.08,153.75H560.79l-14.1,11.51L553,153.75h-6.46a2,2,0,0,1-2-2v-26.1a2,2,0,0,1,2-2h40.51a2,2,0,0,1,2,2v26.1a2,2,0,0,1-1.97,2Z" transform="translate(81.548)" fill="#fff"/>
    <path id="Path_562" data-name="Path 562" d="M572.9,134.78c0,3.48-4.38,4.51-4.38,5.86v.54h-4.38V139.9c0-1.87,3.33-2.94,3.33-5a1.68,1.68,0,0,0-1.69-1.79c-1.38,0-1.66,1.08-1.66,2.15v.69h-4.71c0-.33-.07-.64-.07-1,0-3.33,3-5.4,7-5.4S572.9,131.61,572.9,134.78Zm-4,12.7h-5.06v-4.74h5.06Z" transform="translate(81.263)" fill="#292c3d"/>
    <path id="Path_563" data-name="Path 563" d="M107.23,160.45h-4.8l4.14,8.89-9-8.89H81.75a1.27,1.27,0,0,1-1.27-1.28V142.76a1.27,1.27,0,0,1,1.27-1.27h25.48a1.27,1.27,0,0,1,1.27,1.27v16.41a1.27,1.27,0,0,1-1.27,1.28Z" fill="#fff"/>
    <path id="Path_564" data-name="Path 564" d="M98.31,148.52c0,2.19-2.75,2.83-2.75,3.68v.34H92.8v-.8c0-1.18,2.1-1.86,2.1-3.16a1.07,1.07,0,0,0-1.07-1.13c-.87,0-1,.68-1,1.36v.43h-3v-.61c0-2.09,1.87-3.4,4.4-3.4S98.31,146.52,98.31,148.52Zm-2.51,8H92.61v-3H95.8Z" fill="#292c3d"/>
    <path id="Path_565" data-name="Path 565" d="M356.71,156.27H336.64l-10.76,8.79,4.84-8.79h-4.94a1.54,1.54,0,0,1-1.54-1.54V134.8a1.54,1.54,0,0,1,1.54-1.54h30.93a1.54,1.54,0,0,1,1.55,1.54v19.93a1.54,1.54,0,0,1-1.55,1.54Z" transform="translate(48.056)" fill="#fff"/>
    <path id="Path_566" data-name="Path 566" d="M337.05,150.09h-3.76v-3.52h3.76Z" transform="translate(47.968)"/>
    <path id="Path_567" data-name="Path 567" d="M343,150.09h-3.76v-3.52H343Z" transform="translate(48.824)"/>
    <path id="Path_568" data-name="Path 568" d="M348.85,150.09H345.1v-3.52h3.75Z" transform="translate(49.667)"/>
    <path id="Path_569" data-name="Path 569" d="M964.37,159.37H948l-8.76,7.16,3.94-7.16h-4a1.25,1.25,0,0,1-1.25-1.25V141.9a1.25,1.25,0,0,1,1.25-1.26h25.18a1.25,1.25,0,0,1,1.26,1.26v16.22a1.25,1.25,0,0,1-1.25,1.25Z" transform="translate(150.578)" fill="#fff"/>
    <path id="Path_570" data-name="Path 570" d="M950.41,155.9v-2.48h2.52v2.48Zm.82-3.26-.76-8.92h2.68l-1,8.92Z" transform="translate(150.578)"/>
    <path id="Path_571" data-name="Path 571" d="M310.9,69.74V84.83h8.22v4.32H305.84V69.74Z" transform="translate(44.422)" fill="#fff"/>
    <path id="Path_572" data-name="Path 572" d="M336.73,69.74v4H326.49v3.63h9.24v4h-9.24v3.66H337v4H321.42V69.74Z" transform="translate(46.788)" fill="#fff"/>
    <path id="Path_573" data-name="Path 573" d="M353,85.71h-8.38l-1.36,3.44h-5.2l8.33-19.41h5.2l8.14,19.41h-5.4Zm-1.49-3.87-2.66-6.92-2.71,6.92Z" transform="translate(49.502)" fill="#fff"/>
    <path id="Path_574" data-name="Path 574" d="M373.15,89.15l-2.82-5.37h-3.76v5.37H361.5V69.74h8.72c5.15,0,8.08,2.49,8.08,6.81,0,2.94-1.21,5.1-3.46,6.26l4,6.34Zm-6.58-9.41h3.68c2.05,0,3.24-1.06,3.24-3s-1.19-2.94-3.24-2.94h-3.68Z" transform="translate(52.712)" fill="#fff"/>
    <path id="Path_575" data-name="Path 575" d="M386,69.74l8.8,11.68V69.74h4.7V89.15h-4.42l-8.81-11.63V89.15h-4.73V69.74Z" transform="translate(55.668)" fill="#fff"/>
    <path id="Path_576" data-name="Path 576" d="M408.36,69.74V89.15H403.3V69.74Z" transform="translate(58.116)" fill="#fff"/>
    <path id="Path_577" data-name="Path 577" d="M416.58,69.74l8.8,11.68V69.74h4.71V89.15h-4.43l-8.8-11.63V89.15h-4.73V69.74Z" transform="translate(60.131)" fill="#fff"/>
    <path id="Path_578" data-name="Path 578" d="M446.73,79.24h4.37v7.64a15.55,15.55,0,0,1-8.1,2.49c-5.93,0-10.38-4.26-10.38-9.91s4.56-9.86,10.71-9.86a12.49,12.49,0,0,1,8,2.88L448.44,76a7.84,7.84,0,0,0-5.12-2.13,5.58,5.58,0,0,0,.06,11.15,8,8,0,0,0,3.35-.91Z" transform="translate(63.167)" fill="#fff"/>
    <path id="Path_579" data-name="Path 579" d="M752,81.57h4.37v7.64a15.52,15.52,0,0,1-8.08,2.49c-5.92,0-10.38-4.26-10.38-9.91s4.57-9.85,10.71-9.85a12.42,12.42,0,0,1,8,2.88l-2.88,3.54a7.82,7.82,0,0,0-5.12-2.13,5.58,5.58,0,0,0,.06,11.15,7.93,7.93,0,0,0,3.35-.91Z" transform="translate(107.742)" fill="#fff"/>
    <path id="Path_580" data-name="Path 580" d="M779.47,81.76c0,5.68-4.49,9.94-10.49,9.94s-10.49-4.26-10.49-9.94S763,71.94,769,71.94,779.47,76.15,779.47,81.76Zm-15.78,0A5.47,5.47,0,0,0,769,87.38a5.56,5.56,0,1,0-5.34-5.59Z" transform="translate(110.991)" fill="#fff"/>
    <path id="Path_581" data-name="Path 581" d="M794.39,88.05H786l-1.36,3.43h-5.2l8.33-19.4H793l8.14,19.4h-5.4Zm-1.5-3.88-2.66-6.92-2.71,6.92Z" transform="translate(114.137)" fill="#fff"/>
    <path id="Path_582" data-name="Path 582" d="M807.92,72.08V87.16h8.22v4.32H802.85V72.08Z" transform="translate(116.611)" fill="#fff"/>
    <path id="Path_606" data-name="Path 606" d="M515.7,133.76h-4.44v-4.44h-2.5v4.44h-4.43v2.5h4.43v4.43h2.5v-4.43h4.44Z" transform="translate(73.117)" fill="#fff9fd"/>
    <path id="Path_607" data-name="Path 607" d="M86.17,210.59H81.73v-4.44h-2.5v4.44H74.79v2.5h4.44v4.43h2.5v-4.43h4.44Z" fill="#fff9fd"/>
    <path id="Path_608" data-name="Path 608" d="M104,263.05H99.56v-4.44h-2.5v4.44H92.62v2.49h4.44v4.44h2.5v-4.44H104Z" fill="#fff9fd"/>
    <path id="Path_609" data-name="Path 609" d="M307.27,150.02h-4.44v-4.44h-2.49v4.44H295.9v2.49h4.44v4.44h2.49v-4.44h4.44Z" transform="translate(42.899)" fill="#fff9fd"/>
    <path id="Path_610" data-name="Path 610" d="M164.13,122.25H159.7v-4.44h-2.5v4.44h-4.44v2.5h4.44v4.44h2.5v-4.44h4.43Z" fill="#fff9fd"/>
    <path id="Path_611" data-name="Path 611" d="M707.57,116.57h-4.44v-4.44h-2.5v4.44h-4.44v2.49h4.44v4.44h2.5v-4.44h4.44Z" transform="translate(100.933)" fill="#fff9fd"/>
    <path id="Path_612" data-name="Path 612" d="M912.75,146.12h-4.44v-4.44h-2.5v4.44h-4.44v2.5h4.44v4.44h2.5v-4.44h4.44Z" transform="translate(150.578)" fill="#fff9fd"/>
    <path id="Path_613" data-name="Path 613" d="M961.79,218.7h-4.44v-4.44h-2.5v4.44h-4.44v2.5h4.44v4.44h2.5V221.2h4.44Z" transform="translate(150.578)" fill="#fff9fd"/>
    <path id="Path_614" data-name="Path 614" d="M949.31,286.95h-4.44v-4.44h-2.5v4.44h-4.44v2.5h4.44v4.43h2.5v-4.43h4.44Z" transform="translate(150.578)" fill="#fff9fd"/>
    <circle id="Ellipse_15" data-name="Ellipse 15" cx="15.89" cy="15.89" r="15.89" transform="translate(601.939 65.33)" fill="#fff"/>
    <path id="Path_615" data-name="Path 615" d="M134.17,90.16c-5.51,0-10.95-.12-16.41.12a80.1,80.1,0,0,1-11.18-.37,13.05,13.05,0,0,1-3.73-.84c-1.1-.44-2.55-.93-.87-1.52,3.69-1.3,8,1.32,11.54-.28-.38-.63-1.68-1.57-1.07-2.44.4-.56,2.57-.83,3.23-.89a17.81,17.81,0,0,1,7.81.72c2.72,1.1,5.46.9,8.44.9,1.34,0,6.94-.6,7.56,1.11.37,1-1.06.55.18,1.47.88.65,2.51.53,3.54.52.67,0,2.53-.15,3,.46.7.87-.36,1.37-1.12,1.54C143.23,91.07,135.82,90.16,134.17,90.16Z" fill="#fff"/>
    <path id="Path_616" data-name="Path 616" d="M940,71.67c-5.51,0-11-.12-16.41.12a77.148,77.148,0,0,1-11.18-.37,13.05,13.05,0,0,1-3.73-.84c-1.1-.43-2.55-.93-.87-1.52,3.69-1.29,8,1.33,11.54-.27-.38-.63-1.68-1.58-1.07-2.44.4-.56,2.57-.83,3.23-.89a17.81,17.81,0,0,1,7.81.71c2.72,1.11,5.46.9,8.44.9,1.34,0,6.93-.59,7.56,1.12.37,1-1.06.55.18,1.46.88.66,2.5.54,3.54.53.67,0,2.53-.15,3,.46.7.87-.36,1.37-1.12,1.54C949,72.59,941.62,71.67,940,71.67Z" transform="translate(150.578)" fill="#fff"/>
    <path id="Path_617" data-name="Path 617" d="M676.16,68.2c-5.51,0-11-.12-16.41.12A78.588,78.588,0,0,1,648.57,68a13.051,13.051,0,0,1-3.73-.84c-1.1-.44-2.55-.93-.87-1.52,3.69-1.3,8,1.32,11.54-.28-.38-.63-1.68-1.57-1.07-2.43.4-.57,2.57-.83,3.23-.9a17.81,17.81,0,0,1,7.81.72c2.72,1.1,5.46.9,8.44.9,1.33,0,6.93-.6,7.56,1.11.37,1-1.06.56.18,1.47.88.65,2.5.53,3.54.53.67,0,2.53-.15,3,.46.7.87-.36,1.37-1.12,1.53C685.22,69.11,677.8,68.2,676.16,68.2Z" transform="translate(96.392)" fill="#fff"/>
    <path id="Path_618" data-name="Path 618" d="M156.6,71.38a60.67,60.67,0,0,0,8.21.16,14.23,14.23,0,0,1,3.51.14,29.75,29.75,0,0,0,7.38-.22c1.5-.13,3.33.07,4.72-.63,2.77-1.4-1.16-2-2.39-1.93a10.15,10.15,0,0,1-6-.89A7.77,7.77,0,0,0,169,67.4c-.89-.09-2.37-.52-3.2-.1-.37.17-.53.59-1,.78a6.73,6.73,0,0,1-2.19.28,23.311,23.311,0,0,1-3.74-.46c-.87-.07-7.26-1-7.59,0-.24.74,2.3.68,2.1,1.42-.14.52-2.88.48-3.35.55-.73.11-3.51,0-3.54,1a19.5,19.5,0,0,0,6,.72,1,1,0,0,0,.3,0h0a19.91,19.91,0,0,1,3.81-.21Z" fill="#fff"/>
    <path id="Path_619" data-name="Path 619" d="M871.94,93.38a60.67,60.67,0,0,0,8.21.16,14.23,14.23,0,0,1,3.51.14,30.75,30.75,0,0,0,7.38-.22c1.5-.13,3.33.07,4.72-.63,2.78-1.4-1.16-2-2.39-1.93a10.15,10.15,0,0,1-6-.89,8,8,0,0,0-3.08-.62c-.89-.08-2.36-.51-3.2-.1-.36.18-.52.6-1,.79a7.109,7.109,0,0,1-2.2.28,24.659,24.659,0,0,1-3.74-.46c-.87-.07-7.25-1-7.59,0-.24.75,2.3.69,2.1,1.43-.14.52-2.87.48-3.35.55-.73.11-3.51,0-3.54,1a19.5,19.5,0,0,0,6,.72,1.509,1.509,0,0,0,.3,0h0A19.909,19.909,0,0,1,871.94,93.38Z" transform="translate(150.578)" fill="#fff"/>
    <path id="Path_620" data-name="Path 620" d="M915,290.92c-2.14-.9-3.68-1.66-3.32-5.07a5.19,5.19,0,0,1,1.91-3.73,3.61,3.61,0,0,0,1.71-2.4c.45-2-.11-3.64.85-5.47s3.23-1.75,4.25-3.57c.89-1.58,1.3-3.32,3.3-3.93a1.8,1.8,0,0,1,2.25,2.52,20.857,20.857,0,0,0-1.32,2.63,3,3,0,0,0,.69,2.36c1.06,1.83,1.61,4-.46,5.9-1.23,1.12-2.18,2.08-1.56,3.91.71,2.09,1.08,3.37-.81,5.21-1.42,1.38-2.74,1.27-4.33,1.37-1.43.1-3.28.7-4.45-.25Z" transform="translate(150.578)" fill="#8494ab"/>
    <path id="Path_621" data-name="Path 621" d="M910.41,290.88c-1.53,1.64-2.84,2.93-5.1,1a4.61,4.61,0,0,1-1.62-3.9c0-1.34.12-1.95-.72-3-1.31-1.61-3.18-2.19-4-4.28s1.13-3.68.39-5.7c-.65-1.75-1.85-3.39-.7-4.91.93-1.23,2.87-.49,3.61.93a20.01,20.01,0,0,0,1,2.5,3.43,3.43,0,0,0,2,1.22c1.67.6,3.17,1.62,3.31,3.76.09,1.32.21,2.41,1.47,3s2.08,1,2.32,3a6.261,6.261,0,0,1-.83,3.67c-.5,1.19-.92,3.05-2,3.73Z" transform="translate(150.578)" fill="#0254e4"/>
    <path id="Path_622" data-name="Path 622" d="M916.54,288.72h-.2a.16.16,0,0,1-.14-.18.14.14,0,0,1,.17-.14c1.06.11,2.16-.86,2.77-1.72a2.82,2.82,0,0,0,.38-2.08v-.65c-.1-1.69-.19-3.14,1.12-4.47a4.87,4.87,0,0,0,1.73-4.4v-.52a8.583,8.583,0,0,1,0-2,5.058,5.058,0,0,1,.39-1,3.131,3.131,0,0,0,.4-1.22.16.16,0,0,1,.16-.16h0a.16.16,0,0,1,.16.16,3.151,3.151,0,0,1-.43,1.36,4.139,4.139,0,0,0-.36.93,7.8,7.8,0,0,0,0,1.94v.52a5.24,5.24,0,0,1-1.83,4.65c-1.21,1.22-1.13,2.55-1,4.22v.64a3.18,3.18,0,0,1-.45,2.3A4,4,0,0,1,916.54,288.72Z" transform="translate(150.578)" fill="#fff"/>
    <path id="Path_623" data-name="Path 623" d="M920.22,284.24a.87.87,0,0,1-.67-.35.16.16,0,0,1,0-.23.15.15,0,0,1,.22,0,.52.52,0,0,0,.55.22c.67-.17,1.41-1.62,1.53-2.16.35-1.61.78-2.43,2.35-3a.15.15,0,0,1,.2.09.16.16,0,0,1-.09.21c-1.51.58-1.82,1.33-2.14,2.79-.11.49-.87,2.19-1.77,2.41A.64.64,0,0,1,920.22,284.24Z" transform="translate(150.578)" fill="#fff"/>
    <path id="Path_624" data-name="Path 624" d="M910.5,290a1.78,1.78,0,0,1-.85-.21c-1.12-.6-1.64-2.34-2.1-3.88a10.826,10.826,0,0,0-.7-1.94,8.73,8.73,0,0,0-2.8-3.08,4.85,4.85,0,0,1-2.24-3.93,9.53,9.53,0,0,0-1.25-4,.164.164,0,1,1,.26-.2,9.819,9.819,0,0,1,1.31,4.18,4.53,4.53,0,0,0,2.11,3.71,9.141,9.141,0,0,1,2.89,3.18,11.378,11.378,0,0,1,.73,2c.44,1.48.94,3.15,1.94,3.68a1.66,1.66,0,0,0,1.34.07.158.158,0,1,1,.1.3,2.509,2.509,0,0,1-.74.12Z" transform="translate(150.578)" fill="#fff"/>
    <path id="Path_625" data-name="Path 625" d="M905.54,282.09a.13.13,0,0,1-.1,0,.15.15,0,0,1,0-.22c.47-.62.18-1.59-.12-2.62a4.679,4.679,0,0,1-.31-2.58.163.163,0,1,1,.31.1,4.44,4.44,0,0,0,.31,2.39c.31,1.06.64,2.16.06,2.91A.16.16,0,0,1,905.54,282.09Z" transform="translate(150.578)" fill="#fff"/>
    <path id="Path_626" data-name="Path 626" d="M907.15,284.27h-.06a4.46,4.46,0,0,1-.58-.3,1.719,1.719,0,0,0-.9-.34,4,4,0,0,0-.6,0,2.29,2.29,0,0,1-1.3-.18,7.19,7.19,0,0,1-2.2-1.93c-.1-.12-.23-.33-.37-.54s-.58-.88-.72-.91a.17.17,0,0,1-.12-.19.15.15,0,0,1,.18-.13c.25,0,.52.43.93,1.05.13.21.26.4.35.52a7.209,7.209,0,0,0,2.09,1.84,1.91,1.91,0,0,0,1.14.15,4.475,4.475,0,0,1,.64,0,2.14,2.14,0,0,1,1,.38,3.3,3.3,0,0,0,.53.28.16.16,0,0,1,.09.21A.15.15,0,0,1,907.15,284.27Z" transform="translate(150.578)" fill="#fff"/>
    <path id="Path_627" data-name="Path 627" d="M909.76,291.23c-2.29-1.94-5-3.24-4.4-6.92.51-3.05,4-3.83,2.93-7.11-.71-2.1-2.53-4.52-1.91-6.86.66-2.5,3.93-1.5,4.63-3.83.59-2-1.49-4.25.36-5.86,1.63-1.42,4.51-.07,5.39,1.56,1.12,2.08-.73,3.63-.43,5.66.2,1.32,1.46,1.51,2.39,2.27a7.491,7.491,0,0,1,2.23,3c1.19,3.38-2.2,4.61-3.23,7.21s2.34,3.21,2.59,5.69c.27,2.73-2.65,4.88-5,5.33C913.69,291.64,911.21,292.45,909.76,291.23Z" transform="translate(150.578)" fill="#b3b2da"/>
    <path id="Path_628" data-name="Path 628" d="M912.4,292h0a.16.16,0,0,1-.11-.2,28.32,28.32,0,0,0,.29-13,16.85,16.85,0,0,1,.63-9.55,8.442,8.442,0,0,0,.59-3.71.16.16,0,0,1,.13-.19.18.18,0,0,1,.19.13,8.661,8.661,0,0,1-.61,3.87,16.55,16.55,0,0,0-.61,9.38,28.85,28.85,0,0,1-.3,13.16.15.15,0,0,1-.2.11Z" transform="translate(150.578)" fill="#fff"/>
    <path id="Path_629" data-name="Path 629" d="M912.8,278.78a.18.18,0,0,1-.16-.14.16.16,0,0,1,.14-.18,3.67,3.67,0,0,0,3-2.93v-.58c.06-1,.14-2.2.85-2.79a1.76,1.76,0,0,1,1.39-.33.161.161,0,1,1-.04.32,1.4,1.4,0,0,0-1.14.26c-.61.5-.68,1.64-.73,2.56v.59a4,4,0,0,1-3.28,3.22Z" transform="translate(150.578)" fill="#fff"/>
    <path id="Path_630" data-name="Path 630" d="M911.83,278.82a2.49,2.49,0,0,1-1.6-.57,3.61,3.61,0,0,1-1-2.88c0-.13,0-.28,0-.44.05-.94.12-2.34-.46-3a1.05,1.05,0,0,0-.76-.33.14.14,0,0,1-.15-.16.16.16,0,0,1,.16-.16h0a1.38,1.38,0,0,1,1,.43c.67.74.59,2.23.54,3.21v.44a3.33,3.33,0,0,0,.83,2.63,2.52,2.52,0,0,0,2.13.43.18.18,0,0,1,.19.14.16.16,0,0,1-.14.18,3.641,3.641,0,0,1-.74.08Z" transform="translate(150.578)" fill="#fff"/>
    <path id="Path_631" data-name="Path 631" d="M913.73,289.37a1.431,1.431,0,0,1-.58-.11.15.15,0,0,1-.09-.21.16.16,0,0,1,.21-.09c1,.4,2.46-.69,3-1.42a4.441,4.441,0,0,0,.55-1.27c.29-.88.6-1.79,1.42-2a.15.15,0,0,1,.19.12.16.16,0,0,1-.12.2c-.64.16-.92,1-1.18,1.79a4.758,4.758,0,0,1-.6,1.36,4.3,4.3,0,0,1-2.8,1.63Z" transform="translate(150.578)" fill="#fff"/>
    <path id="Path_632" data-name="Path 632" d="M912.3,289.31a2,2,0,0,1-.63-.11,5.34,5.34,0,0,1-2.55-2.77,5.808,5.808,0,0,1-.25-1.86c0-1.12-.08-2.29-.82-2.66a.16.16,0,0,1-.07-.22.15.15,0,0,1,.21-.07c.91.46,1,1.78,1,2.94a5.548,5.548,0,0,0,.23,1.74,5,5,0,0,0,2.36,2.59,1.41,1.41,0,0,0,1.19-.08.17.17,0,0,1,.22.06.16.16,0,0,1-.07.22,1.63,1.63,0,0,1-.82.22Z" transform="translate(150.578)" fill="#fff"/>
    <path id="Path_633" data-name="Path 633" d="M902.05,290.28a30.4,30.4,0,0,0-1.82,10.61c0,11.24,5.58,20.35,12.46,20.35s12.47-9.11,12.47-20.35a30.4,30.4,0,0,0-1.83-10.61Z" transform="translate(150.578)" fill="#ff4c6b"/>
    <path id="Path_634" data-name="Path 634" d="M924.64,295.1a27.86,27.86,0,0,0-1.31-4.82H902.05a27.855,27.855,0,0,0-1.31,4.82Z" transform="translate(150.578)" fill="#0254e4"/>
    <path id="Path_638" data-name="Path 638" d="M185.06,185.38s-.94,4.36-1.82,4.77-10.05-1.85-10.58-2.88.22-2.12,2.18-2c1.76.06,2.92.71,4.35.5,1.25-.18,2.48-2.57,2.48-2.57Z" transform="translate(-12 5)" fill="#292c3d"/>
    <path id="Path_639" data-name="Path 639" d="M200.65,195.3s2.35,3.8,2,4.7-8.52,5.65-9.62,5.27-1.31-1.68.15-3,2.6-1.5,3.49-2.65c.77-1,0-3.57,0-3.57Z" transform="translate(-12 5)" fill="#292c3d"/>
    <path id="Path_643" data-name="Path 643" d="M214.38,163.1s-3.7,1.92-5.42,1.7-16.5.94-18.23,2.36,5.34,29.91,5.34,29.91l5.85-1s-2.09-20.83-1.74-21,9.19-.11,24.26-.11c3.68,0,7.78-7.74,3.13-13.14Z" transform="translate(-14.628 5)" fill="#0254e4"/>
    <path id="Path_644" data-name="Path 644" d="M193.28,169.47a16.84,16.84,0,0,0,1.64-4,105,105,0,0,1,14-.68c1.72.22,5.42-1.7,5.42-1.7l.85-.08c-1.06,1.51-2.3,2.84-3.86,3.18-1.86.41-3.81.52-5.65,1-3.18.84-6.34,2.51-7.76,5.68A86.319,86.319,0,0,0,193.25,185c-1-4.32-1.95-8.85-2.52-12.44C191.85,172,192.66,170.49,193.28,169.47Z" transform="translate(-14.995 5)" fill="#00a1cc" opacity="0.65"/>
    <path id="Path_645" data-name="Path 645" d="M212.86,159.92s-17.59,1.05-19.27,2.7-13,21.13-13,21.13l4.66,3.36s9.27-13.67,13.74-19a6.61,6.61,0,0,1,4-2.27c1.9-.32,4.68-.74,6.76-.86a7.58,7.58,0,0,0,5.08-1.92Z" transform="translate(-16.229 5)" fill="#0254e4"/>
    <path id="Path_646" data-name="Path 646" d="M208.34,132.76a7.15,7.15,0,0,0,1.45-1.17c.43,1.69,1.45,4.79,3.39,6.24,0,0-3.45,1.92-6.5,1.61,0,0-.12-4.08-1-6a6,6,0,0,0,2.66-.68Z" transform="translate(-13.292 5)" fill="#e76f59"/>
    <path id="Path_652" data-name="Path 652" d="M190.49,154.44a3.27,3.27,0,0,1-1.34-1.09,1.94,1.94,0,0,0-.5-.63A4.63,4.63,0,0,1,188,152a1.55,1.55,0,0,0-.69-.6c-.37-.11-.26.37-.14.68s1.07.95.95,1.31-1.22-.46-1.44-.63c-.51-.39-.45-.87-.69-1.41-.14-.31-.3-.41-.5-.06s0,.57.07.82a3.52,3.52,0,0,0,.93,1.43,4,4,0,0,1-1-1.24c-.14-.27-.55-1.52-1-1.33-.89.38.84,2.79,1.32,3.05a4.58,4.58,0,0,1-1.09-1.19c-.19-.25-.61-.88-.82-.34-.3.79,1.17,1.71,1.76,2.24a5.84,5.84,0,0,1-1.25-.89c-.53-.43-.66.11-.19.64a8.556,8.556,0,0,0,.77.67,5.17,5.17,0,0,0,3.15,1.13c.48,0,1.29.62,1.63.38C190.43,156.24,190.38,155.11,190.49,154.44Z" transform="matrix(1, -0.017, 0.017, 1, -16.656, 8.29)" fill="#e8a393"/>
    <path id="Path_655" data-name="Path 655" d="M189.83,153.11S200,155.93,201,155.87s3.4-9,4.35-13.4c.09-.41,1.44-.43,3-1.72.63-.53,2.49.49,3.12,0a4.24,4.24,0,0,1,.8,4.7c-2.31,5.11-4.3,14.9-9.61,15-7,.14-14.17-3.53-14.17-3.53Z" transform="translate(-13.332 5)" fill="#da395b"/>
    <path id="Path_657" data-name="Path 657" d="M188.84,151.05l-11.63-6.94a21.84,21.84,0,0,0-5.44,9.82l13.2,6.19S187,155.27,188.84,151.05Z" transform="translate(-13 5)" fill="#fff"/>
    <path id="Path_1012" data-name="Path 1012" d="M179.85,155.39a12.1,12.1,0,0,0,6.94-5.57l2.05,1.23c-1.81,4.22-3.87,9.07-3.87,9.07l-9.64-4.52A9.58,9.58,0,0,0,179.85,155.39Z" transform="translate(-13 5)" fill="#d8d8d8"/>
    <path id="Path_1013" data-name="Path 1013" d="M188.88,158.2a3.31,3.31,0,0,1-1.72-.22,1.93,1.93,0,0,0-.76-.27,4.64,4.64,0,0,1-.9-.24,1.71,1.71,0,0,0-.9-.14c-.38.1,0,.45.23.65s1.42.24,1.51.61-1.29.25-1.56.23c-.64-.07-.84-.51-1.33-.83-.28-.19-.47-.19-.46.21s.29.49.5.66a3.51,3.51,0,0,0,1.55.72,3.94,3.94,0,0,1-1.51-.52c-.26-.15-1.27-1-1.55-.6-.55.79,2.2,1.92,2.74,1.88a4.65,4.65,0,0,1-1.55-.43c-.3-.11-1-.42-.88.14.17.83,1.9.83,2.67,1a5.649,5.649,0,0,1-1.52-.09c-.68-.08-.5.44.18.64a10.069,10.069,0,0,0,1,.17,5.24,5.24,0,0,0,3.27-.72c.42-.21,1.42-.15,1.58-.53C189.78,159.75,189.13,158.82,188.88,158.2Z" transform="translate(-15 5)" fill="#f9a57e"/>
    <path id="Path_1015" data-name="Path 1015" d="M657.69,133.32s-2,5.35-.76,9.34l-6.55-1.59s2.68-8.95,3.82-10.47S657.69,133.32,657.69,133.32Z" transform="translate(75.923 6)" fill="#f9a57e"/>
    <path id="Path_1016" data-name="Path 1016" d="M667.08,159.85a8.681,8.681,0,0,0,1.93-.78,2.55,2.55,0,0,1,1.63-.46c.44.06,4,1.55,3.06,2.21-.31.21-1.08-.16-1.38-.27s-.88-.37-1.3-.56c.38,0,2.31.8,2.11,1.25-.36.79-2.31-.27-2.76-.52.34.05,1.55.5,1.55.94,0,.7-1.44.12-1.75,0a2.191,2.191,0,0,0-.65-.32,2.63,2.63,0,0,0-.88.16,5.16,5.16,0,0,1-1.52,0c-.29,0-1,0-1.13-.21a1.1,1.1,0,0,1,.19-1.09,2.069,2.069,0,0,1,.9-.35Z" transform="translate(78.226 6)" fill="#f9a57e"/>
    <path id="Path_1017" data-name="Path 1017" d="M656.49,141.29s3.33,12,5,14,7,4.86,7,4.86L667,162.63s-9.72-4.95-11.4-9a30.561,30.561,0,0,1-2-6.22c-.26-1.48-1.36-5.18-.81-6.65A2.124,2.124,0,0,1,656.49,141.29Z" transform="translate(77.028 6)" fill="#0254e4"/>
    <path id="Path_1018" data-name="Path 1018" d="M657.69,133.32s-2,5.35-.76,9.34l-6.55-1.59s2.68-8.95,3.82-10.47S657.69,133.32,657.69,133.32Z" transform="translate(74.923 6)" fill="#e76f59"/>
    <path id="Path_1019" data-name="Path 1019" d="M656.49,141.29s3.33,12,5,14,7,4.86,7,4.86L667,162.63s-9.72-4.95-11.4-9a30.561,30.561,0,0,1-2-6.22c-.26-1.48-1.36-5.18-.81-6.65A2.124,2.124,0,0,1,656.49,141.29Z" transform="translate(76.028 6)" fill="#00a1cc" opacity="0.65"/>
    <path id="Path_1020" data-name="Path 1020" d="M689.84,198.6l2.46-2.29s9.81-.73,10.38.13-9.3,5.52-10.57,5.44S690,199.54,689.84,198.6Z" transform="translate(79.155 6)" fill="#292c3d"/>
    <path id="Path_1021" data-name="Path 1021" d="M671.86,165.41s9.28-2.36,10-.83,10.4,31.73,10.4,31.73l-2.46,2.29s-10.32-25.49-13.31-28.16S670.48,166.46,671.86,165.41Z" transform="translate(79.241 6)" fill="#e76f59"/>
    <path id="Path_1022" data-name="Path 1022" d="M667.08,159.85a8.681,8.681,0,0,0,1.93-.78,2.55,2.55,0,0,1,1.63-.46c.44.06,4,1.55,3.06,2.21-.31.21-1.08-.16-1.38-.27s-.88-.37-1.3-.56c.38,0,2.31.8,2.11,1.25-.36.79-2.31-.27-2.76-.52.34.05,1.55.5,1.55.94,0,.7-1.44.12-1.75,0a2.191,2.191,0,0,0-.65-.32,2.63,2.63,0,0,0-.88.16,5.16,5.16,0,0,1-1.52,0c-.29,0-1,0-1.13-.21a1.1,1.1,0,0,1,.19-1.09,2.069,2.069,0,0,1,.9-.35Z" transform="translate(77.226 6)" fill="#e8a393"/>
    <path id="Path_1023" data-name="Path 1023" d="M683.15,143.81l2.18.9-7.49,18.08-2.21-1.19Z" transform="translate(77.794 7)" fill="#292c3d"/>
    <rect id="Rectangle_140" data-name="Rectangle 140" width="14.27" height="2.22" transform="translate(739.427 167.29)" fill="#292c3d"/>
    <path id="Path_1024" data-name="Path 1024" d="M636.92,151c1.91-1.09,2.23-2.3,1.17-6.29a8.37,8.37,0,0,1,4.37-9.23c2-.81,3.67-1.16,4.86-3.25s-1.06-6.53,2.7-9.82c2.75-2.39,6.68-.48,6.68-.48.85-.47,1.2,4.47,1.26,8.18-4.77,7.3-3.41,16.84-1.67,25a4.436,4.436,0,0,0,.17.55c-.37,6.32-.67,11.56-.67,11.56s-11.46,6.49-19.26.93S633.1,153.17,636.92,151Z" transform="translate(73.942 6)" fill="#292c3d"/>
    <path id="Path_1025" data-name="Path 1025" d="M670.62,197.1l2.91,1.67s3.57,9.17,2.92,10-8-7.28-8.3-8.51S669.77,197.54,670.62,197.1Z" transform="translate(77.587 6)" fill="#292c3d"/>
    <path id="Path_1026" data-name="Path 1026" d="M666.91,164.87s18.7,1.31,20.45,3-14.13,30.75-14.13,30.75l-2.61-1.5s3.93-13.83,5-17,3-7,2.62-7.56-19.21,2.32-19.06-3S666.91,164.87,666.91,164.87Z" transform="translate(78.151 6)" fill="#f9a57e"/>
    <path id="Path_1027" data-name="Path 1027" d="M658.37,126.35s2.54,1.22,3.15,2.25.08,2.44.13,3.37a13.522,13.522,0,0,1,.16,2.56c-.14.23-1.07,0-1.23.2s-1.36,1-1.74,1.83-.89.93-1.77.5-4.28-4.91-4.32-7S655.85,125.49,658.37,126.35Z" transform="translate(75.425 6)" fill="#f9a57e"/>
    <path id="Path_1028" data-name="Path 1028" d="M648.36,159.12l8.67-.66s4.52,5,9,5h15.25a27.389,27.389,0,0,1-4.44,11.38s-14.54,1.07-21.59.49S641.45,167,648.36,159.12Z" transform="translate(76.834 6)" fill="#4d505e"/>
    <path id="Path_1029" data-name="Path 1029" d="M651.21,138.05a36.289,36.289,0,0,0,5.33,1.71s2.81,6.19,3.9,7.86-2.77,8.08-3,10.84c0,0-2.31,2.22-9.34.86C648.11,159.32,646.28,141.94,651.21,138.05Z" transform="translate(75.048 6)" fill="#0254e4"/>
    <path id="Path_1030" data-name="Path 1030" d="M650.15,141.75a3.36,3.36,0,0,1,3.93,1.23c.73,1.51,0,4.2.06,5.83a32.723,32.723,0,0,0,.64,5.68,11.749,11.749,0,0,0,2.29,4.24c-.9.55-3.51,1.64-9,.59,0,0-1.12-10.6.74-17.09A13.51,13.51,0,0,0,650.15,141.75Z" transform="translate(74.724 6)" fill="#00a1cc" opacity="0.65"/>
    <path id="Path_1031" data-name="Path 1031" d="M665.71,159.85a8.311,8.311,0,0,0,1.93-.78,2.6,2.6,0,0,1,1.64-.46c.44.06,4,1.55,3.06,2.21-.31.21-1.08-.16-1.39-.27s-.88-.37-1.3-.56c.39,0,2.32.8,2.11,1.25-.35.79-2.31-.27-2.76-.52.35.05,1.55.5,1.55.94,0,.7-1.43.12-1.74,0a2.239,2.239,0,0,0-.66-.32,2.579,2.579,0,0,0-.87.16,5.161,5.161,0,0,1-1.52,0c-.3,0-1,0-1.14-.21a1.13,1.13,0,0,1,.19-1.09,2.17,2.17,0,0,1,.9-.35Z" transform="translate(77.029 6)" fill="#f9a57e"/>
    <path id="Path_1032" data-name="Path 1032" d="M666.31,159.76l-.76,2.87s-18.77-2.18-19.21-5.51.77-18.83,5.29-17.22.06,12.85.77,13.72S666.31,159.76,666.31,159.76Z" transform="translate(75.483 6)" fill="#0254e4"/>
    <path id="Path_1033" data-name="Path 1033" d="M656,122.2a3.76,3.76,0,0,1,4.57.2c2.33,1.88,2.25,4.71,4.17,4.46,0,0-1.26,3.28-4,2.5S655.06,124.16,656,122.2Z" transform="translate(74.856 6)" fill="#292c3d"/>
    <text id="CODING" transform="translate(172 381)" fill="#fff" font-size="25" font-family="Prototype" letter-spacing="0.2em"><tspan x="0" y="0">CODING</tspan></text>
    <text id="LEARNING" transform="translate(432 392)" fill="#fff" font-size="36" font-family="Prototype" letter-spacing="0.2em"><tspan x="0" y="0">LEARNING</tspan></text>
    <text id="ENGLISH" transform="translate(806 400)" fill="#fff" font-size="35" font-family="Prototype" letter-spacing="0.2em"><tspan x="0" y="0">ENGLISH</tspan></text>
    <path id="Path_1037" data-name="Path 1037" d="M208.34,132.76a7.15,7.15,0,0,0,1.45-1.17c.43,1.69,1.45,4.79,3.39,6.24,0,0-3.45,1.92-6.5,1.61,0,0-.12-4.08-1-6a6,6,0,0,0,2.66-.68Z" transform="translate(-13.292 5)" fill="#f9a57e"/>
    <path id="Path_1038" data-name="Path 1038" d="M205.38,122.26s-4.51.28-5.48,1.56a6.2,6.2,0,0,0-.22,5.55c.78,1.38-.24,3.72-.08,4.26s1.55.24,1.66.39,1.2,2.78,3.14,2.55c2.73-.32,5.28-3.59,5.84-5.53S209.51,121.71,205.38,122.26Z" transform="translate(-14.135 5)" fill="#f9a57e"/>
    <path id="Path_1039" data-name="Path 1039" d="M206.41,121.91a3.64,3.64,0,0,1,1.89-.8,2.48,2.48,0,0,1,2.59,1.34,10.27,10.27,0,0,1,.92,1.81,7.86,7.86,0,0,1,.63,3,7.29,7.29,0,0,1-.66,3.32c-.46.92-1.58,2.2-2.38,2.19-.32,0-1.46-1.8-1.58-2.34s.12-.61.42-1c.5-.61.95-1.61.18-2.2-1.1-.85-2.15.13-2,1.84,0,0-.15,1-.48,1S202.69,126.26,206.41,121.91Z" transform="translate(-13.445 5)" fill="#292c3d"/>
    <path id="Path_1040" data-name="Path 1040" d="M197.94,125.31a5.06,5.06,0,0,0,.57-1.17,7.5,7.5,0,0,1,0-.82c.2-.82.12-1.34,1.74-2.63a6.14,6.14,0,0,1,5.33-.79,4.83,4.83,0,0,1,1.69.9c.15.13.6.45.59.64s-.54.62-.69.8a8.182,8.182,0,0,0-.62,1.08c-1.27,2.2-3.53,4.9-6.35,3.61a11.464,11.464,0,0,1-1.09-.59,5.93,5.93,0,0,0,.47,2.89,2.56,2.56,0,0,1-1.32-1,3,3,0,0,1-.32-2.92Z" transform="translate(-14 5)" fill="#292c3d"/>
    <path id="Path_1041" data-name="Path 1041" d="M230.47,163.49s-5.25,5.66-19.09,1.76a30,30,0,0,0-1.93-6.86c-1.47-3.4-3.85-10.09-4.32-13.71-.53-4.09,1.5-6.2,1.5-6.2s2.61,1.94,5.79-1.35a15.54,15.54,0,0,1,10.85,8C227.27,152.34,230.47,163.49,230.47,163.49Z" transform="translate(-12.866 5)" fill="#ff4c6b"/>
    <path id="Path_1042" data-name="Path 1042" d="M211.46,143a2.68,2.68,0,0,1,.12-.53c3.32,1.62,2.9,4.82,2.1,9.64-.61,3.71-2.39,9.57-2.74,10.88a28.76,28.76,0,0,0-1.49-4.6c-.68-1.57-1.55-3.84-2.34-6.19a24.26,24.26,0,0,0,2.74-5.71C210.27,145.28,211.12,144.24,211.46,143Z" transform="translate(-13.096 5)" fill="#da395b"/>
    <path id="Path_1043" data-name="Path 1043" d="M188.6,157.74l-.33,3.91S205,163,207,161.77a9,9,0,0,0,3.45-5c1.21-3.57,6-13.43,1.69-14.93-1.36-.47-3.15-.46-4,1.31-2,4-4.19,12.76-4.76,13.14C202.49,156.81,188.6,157.74,188.6,157.74Z" transform="translate(-15.325 5)" fill="#ff4c6b"/>
  </g>
</svg>
