<svg xmlns="http://www.w3.org/2000/svg" xmlns:xlink="http://www.w3.org/1999/xlink" width="500" height="500" viewBox="0 0 500 500">
  <defs>
    <clipPath id="clip-path">
      <rect id="Rectangle_23" data-name="Rectangle 23" width="500" height="500" transform="translate(150.18 174.25)" fill="#28334a"/>
    </clipPath>
  </defs>
  <g id="banner-skill" transform="translate(-150.18 -174.25)">
    <g id="OBJECTS">
      <g id="Group_20" data-name="Group 20" clip-path="url(#clip-path)">
        <path id="Path_371" data-name="Path 371" d="M214.3,308.18h-9.64a53,53,0,0,0-3.51-8.64l6.77-6.77a5.24,5.24,0,0,0,0-7.4L193.58,271a5.24,5.24,0,0,0-7.4,0l-6.53,6.53a51.11,51.11,0,0,0-8.89-3.79v-9.12a5.23,5.23,0,0,0-5.23-5.23H145.26a5.23,5.23,0,0,0-5.23,5.23v8.87a51.179,51.179,0,0,0-9.17,3.76L124.61,271a5.24,5.24,0,0,0-7.4,0l-14.33,14.34a5.22,5.22,0,0,0,0,7.4L109.1,299a51.789,51.789,0,0,0-3.79,9.19H96.49a5.23,5.23,0,0,0-5.23,5.23V333.7a5.23,5.23,0,0,0,5.23,5.23h9a53,53,0,0,0,3.81,9l-6.45,6.46a5.22,5.22,0,0,0,0,7.4l14.33,14.33a5.22,5.22,0,0,0,7.4,0l6.7-6.7A51,51,0,0,0,140,372.9v9.56a5.23,5.23,0,0,0,5.23,5.23H165.5a5.23,5.23,0,0,0,5.23-5.23v-9.82a50.681,50.681,0,0,0,8.44-3.55l7,7a5.22,5.22,0,0,0,7.4,0l14.34-14.33a5.24,5.24,0,0,0,0-7.4l-7-7a51.149,51.149,0,0,0,3.53-8.41h9.86a5.23,5.23,0,0,0,5.23-5.23V313.41A5.23,5.23,0,0,0,214.3,308.18ZM155,357.08a33.87,33.87,0,1,1,33.87-33.87A33.87,33.87,0,0,1,155,357.08Z" transform="translate(150.18 174.25)" fill="#c8ced9"/>
        <path id="Path_372" data-name="Path 372" d="M165.53,262.25a2.4,2.4,0,0,1,2.4,2.4v11.19l2,.63a48.439,48.439,0,0,1,8.4,3.58l1.86,1,1.5-1.5,6.53-6.52a2.37,2.37,0,0,1,3.38,0l14.34,14.33a2.42,2.42,0,0,1,.7,1.7,2.38,2.38,0,0,1-.7,1.69l-6.77,6.77L197.68,299l.94,1.84a47.93,47.93,0,0,1,3.32,8.17l.61,2H214.3a2.4,2.4,0,0,1,2.4,2.39v20.28a2.41,2.41,0,0,1-2.4,2.4H202.37l-.63,2A48.34,48.34,0,0,1,198.4,346l-1,1.85,1.48,1.48,7,7a2.42,2.42,0,0,1,.7,1.7,2.38,2.38,0,0,1-.7,1.69l-14.34,14.34a2.39,2.39,0,0,1-3.38,0l-7-7-1.48-1.49-1.85,1a49.1,49.1,0,0,1-8,3.35l-2,.64v11.88a2.39,2.39,0,0,1-2.4,2.39H145.26a2.4,2.4,0,0,1-2.4-2.39V370.79l-2-.6a48.376,48.376,0,0,1-8.24-3.34l-1.84-1-1.46,1.47-6.7,6.7a2.42,2.42,0,0,1-1.7.7,2.38,2.38,0,0,1-1.69-.7l-14.34-14.34a2.38,2.38,0,0,1-.7-1.69,2.42,2.42,0,0,1,.7-1.7l6.46-6.46,1.5-1.49-1-1.86a48.8,48.8,0,0,1-3.61-8.47l-.62-2H96.49a2.41,2.41,0,0,1-2.4-2.4v-20.2a2.4,2.4,0,0,1,2.4-2.39h10.92l.61-2a48.66,48.66,0,0,1,3.59-8.69l1-1.85-1.5-1.48-6.23-6.23a2.38,2.38,0,0,1-.7-1.69,2.42,2.42,0,0,1,.7-1.7L119.22,273a2.34,2.34,0,0,1,1.69-.71,2.38,2.38,0,0,1,1.7.71l6.24,6.24,1.48,1.48,1.85-1a49.094,49.094,0,0,1,8.67-3.56l2-.61v-11a2.41,2.41,0,0,1,2.4-2.4h20.27M155,359.91a36.71,36.71,0,1,0-36.7-36.7,36.71,36.71,0,0,0,36.7,36.7m10.55-100.49H145.26a5.23,5.23,0,0,0-5.23,5.23v8.87a51.18,51.18,0,0,0-9.17,3.76L124.61,271a5.24,5.24,0,0,0-7.4,0l-14.33,14.34a5.22,5.22,0,0,0,0,7.4L109.1,299a51.789,51.789,0,0,0-3.79,9.19H96.49a5.23,5.23,0,0,0-5.23,5.23V333.7a5.23,5.23,0,0,0,5.23,5.23h9a53,53,0,0,0,3.81,9l-6.45,6.46a5.22,5.22,0,0,0,0,7.4l14.33,14.33a5.24,5.24,0,0,0,7.4,0l6.7-6.7A51,51,0,0,0,140,372.9v9.56a5.23,5.23,0,0,0,5.23,5.23H165.5a5.23,5.23,0,0,0,5.23-5.23v-9.82a50.681,50.681,0,0,0,8.44-3.55l7,7a5.24,5.24,0,0,0,7.4,0l14.34-14.33a5.24,5.24,0,0,0,0-7.4l-7-7a51.149,51.149,0,0,0,3.53-8.41h9.86a5.23,5.23,0,0,0,5.23-5.23V313.41a5.23,5.23,0,0,0-5.23-5.23h-9.64a53,53,0,0,0-3.51-8.64l6.77-6.77a5.24,5.24,0,0,0,0-7.4L193.58,271a5.24,5.24,0,0,0-7.4,0l-6.53,6.53a51.11,51.11,0,0,0-8.89-3.79v-9.12a5.23,5.23,0,0,0-5.23-5.23ZM155,357.08a33.87,33.87,0,1,1,33.87-33.87A33.87,33.87,0,0,1,155,357.08Z" transform="translate(150.18 174.25)" fill="#28334a"/>
        <path id="Path_373" data-name="Path 373" d="M386.58,133.92l-5.08,1.17a27.478,27.478,0,0,0-2.89-4.13l2.74-4.39a2.81,2.81,0,0,0-.9-3.89l-9.28-5.82a2.84,2.84,0,0,0-3.9.9L364.62,122a28.222,28.222,0,0,0-5.14-.92l-1.1-4.8a2.81,2.81,0,0,0-3.39-2.12l-10.68,2.45a2.83,2.83,0,0,0-2.12,3.39l1.08,4.67a28.351,28.351,0,0,0-4.38,3.1l-4-2.54a2.83,2.83,0,0,0-3.9.9l-5.81,9.29a2.81,2.81,0,0,0,.9,3.89l4,2.53a27.536,27.536,0,0,0-.88,5.3l-4.65,1.07a2.82,2.82,0,0,0-2.12,3.38l2.46,10.68a2.83,2.83,0,0,0,3.39,2.12l4.75-1.09a28.378,28.378,0,0,0,3.1,4.25l-2.62,4.19a2.82,2.82,0,0,0,.89,3.89l9.29,5.81a2.83,2.83,0,0,0,3.9-.89l2.72-4.34a28.751,28.751,0,0,0,5,.8l1.16,5a2.83,2.83,0,0,0,3.39,2.12l10.68-2.46a2.82,2.82,0,0,0,2.12-3.38l-1.19-5.17a27.477,27.477,0,0,0,4-2.9l4.52,2.83a2.83,2.83,0,0,0,3.9-.89l5.81-9.29a2.81,2.81,0,0,0-.9-3.89l-4.53-2.84a29.4,29.4,0,0,0,.84-4.86l5.19-1.2a2.82,2.82,0,0,0,2.12-3.39L390,136a2.83,2.83,0,0,0-3.42-2.08Zm-25.31,32.93A18.3,18.3,0,1,1,375,144.91a18.3,18.3,0,0,1-13.73,21.94Z" transform="translate(150.18 174.25)" fill="#c8ced9"/>
        <path id="Path_374" data-name="Path 374" d="M367.91,131.85a20.23,20.23,0,1,0,9,12.62,20.23,20.23,0,0,0-9-12.62Zm4.4,26.65a17.84,17.84,0,1,1,2.28-13.5,17.84,17.84,0,0,1-2.28,13.5Z" transform="translate(150.18 174.25)" fill="#28334a"/>
        <path id="Path_375" data-name="Path 375" d="M392.84,146.62l-2.46-10.68a3.24,3.24,0,0,0-3.89-2.44l-4.78,1.1a28,28,0,0,0-2.58-3.68l2.58-4.12a3.25,3.25,0,0,0-1-4.48l-9.29-5.82a3.2,3.2,0,0,0-2.45-.41,3.26,3.26,0,0,0-2,1.44l-2.48,4a28.421,28.421,0,0,0-4.6-.83l-1-4.5a3.25,3.25,0,0,0-3.9-2.44l-10.67,2.46a3.24,3.24,0,0,0-2.44,3.9l1,4.36a28.2,28.2,0,0,0-3.93,2.78l-3.78-2.37a3.26,3.26,0,0,0-4.48,1l-5.81,9.29a3.25,3.25,0,0,0,1,4.48l3.77,2.36a28.682,28.682,0,0,0-.8,4.76l-4.33,1a3.26,3.26,0,0,0-2,1.44,3.22,3.22,0,0,0-.41,2.46l2.45,10.68a3.27,3.27,0,0,0,3.9,2.44l4.46-1a28.309,28.309,0,0,0,2.77,3.81l-2.45,3.92a3.25,3.25,0,0,0,1,4.48l9.29,5.81a3.2,3.2,0,0,0,2.45.42,3.24,3.24,0,0,0,2-1.45l2.55-4.08a28.619,28.619,0,0,0,4.48.72l1.09,4.73a3.26,3.26,0,0,0,3.16,2.52,3.808,3.808,0,0,0,.74-.08l10.67-2.46a3.25,3.25,0,0,0,2.44-3.9l-1.11-4.9a28.07,28.07,0,0,0,3.57-2.57l4.26,2.67a3.25,3.25,0,0,0,4.48-1l5.81-9.28a3.27,3.27,0,0,0-1-4.49L384.77,156a27.666,27.666,0,0,0,.74-4.32l4.89-1.12a3.24,3.24,0,0,0,2-1.45A3.2,3.2,0,0,0,392.84,146.62Zm-9.56,3.09-.11,1.43a26.161,26.161,0,0,1-.79,4.51l-.37,1.4,5.76,3.6a.87.87,0,0,1,.28,1.2l-5.81,9.29a.87.87,0,0,1-1.2.28l-5.75-3.6-1.09.94a26.38,26.38,0,0,1-3.73,2.7l-1.23.73,1.51,6.56a.87.87,0,0,1-.65,1l-10.68,2.46a.88.88,0,0,1-1-.66l-1.49-6.45-1.45-.09a26.461,26.461,0,0,1-4.66-.75l-1.39-.35-3.47,5.55a.87.87,0,0,1-1.2.28L335.43,174a.85.85,0,0,1-.38-.54.81.81,0,0,1,.11-.66l3.39-5.42-1-1.09a26.128,26.128,0,0,1-2.87-4l-.73-1.23-6.15,1.41a.86.86,0,0,1-1-.65l-2.46-10.67a.85.85,0,0,1,.11-.66.83.83,0,0,1,.54-.39l6.06-1.39.1-1.45a25.772,25.772,0,0,1,.82-4.93l.37-1.4-5.26-3.29a.85.85,0,0,1-.38-.54.79.79,0,0,1,.11-.65l5.81-9.29a.85.85,0,0,1,.54-.39.9.9,0,0,1,.66.11l5.27,3.3,1.09-.94a25.61,25.61,0,0,1,4.07-2.88l1.26-.72-1.4-6.09a.87.87,0,0,1,.65-1l10.68-2.46a.87.87,0,0,1,.65.11.88.88,0,0,1,.39.54l1.43,6.2,1.42.12a26.291,26.291,0,0,1,4.78.85l1.41.4,3.42-5.47a.85.85,0,0,1,.54-.39.9.9,0,0,1,.66.11l9.29,5.81a.9.9,0,0,1,.38.55.87.87,0,0,1-.11.65l-3.5,5.6.92,1.09a25.538,25.538,0,0,1,2.69,3.84l.73,1.26,6.49-1.5a.86.86,0,0,1,1,.66l2.46,10.67a.9.9,0,0,1-.11.66.84.84,0,0,1-.54.38Z" transform="translate(150.18 174.25)" fill="#28334a"/>
        <rect id="Rectangle_2" data-name="Rectangle 2" width="189.24" height="347" rx="12.21" transform="translate(312.03 251.75)" fill="#494c5b"/>
        <path id="Path_376" data-name="Path 376" d="M338.89,80.33a9.38,9.38,0,0,1,9.37,9.37V412.3a9.38,9.38,0,0,1-9.37,9.37H174.06a9.38,9.38,0,0,1-9.37-9.37V89.7a9.38,9.38,0,0,1,9.37-9.37H338.89m0-2.83H174.06a12.21,12.21,0,0,0-12.21,12.2V412.3a12.21,12.21,0,0,0,12.21,12.2H338.89a12.2,12.2,0,0,0,12.2-12.2V89.7a12.2,12.2,0,0,0-12.2-12.2Z" transform="translate(150.18 174.25)" fill="#9da6bf"/>
        <path id="Path_377" data-name="Path 377" d="M174.59,149.73V398.9a4,4,0,0,0,4,4H334.34a4,4,0,0,0,4-4V149.73Z" transform="translate(150.18 174.25)" fill="#eff2f9"/>
        <path id="Path_378" data-name="Path 378" d="M191.44,91.36a3.81,3.81,0,1,1-3.81-3.8,3.81,3.81,0,0,1,3.81,3.8Z" transform="translate(150.18 174.25)" fill="#2d303a"/>
        <path id="Path_379" data-name="Path 379" d="M277,93.87H236.24a3.15,3.15,0,0,1-3.16-3.15h0a3.15,3.15,0,0,1,3.16-3.16H277a3.15,3.15,0,0,1,3.16,3.16h0A3.15,3.15,0,0,1,277,93.87Z" transform="translate(150.18 174.25)" fill="#2d303a"/>
        <rect id="Rectangle_3" data-name="Rectangle 3" width="144.95" height="67.03" transform="translate(336.03 332.97)" fill="#c8ced9"/>
        <rect id="Rectangle_4" data-name="Rectangle 4" width="144.95" height="67.03" transform="translate(336.03 448.5)" fill="#c8ced9"/>
        <circle id="Ellipse_20" data-name="Ellipse 20" cx="2.69" cy="2.69" r="2.69" transform="matrix(0.681, -0.732, 0.732, 0.681, 472.059, 407.47)" fill="#6c52b2"/>
        <path id="Path_380" data-name="Path 380" d="M315.76,235.8a2.69,2.69,0,1,0-2.78-2.59,2.69,2.69,0,0,0,2.78,2.59Z" transform="translate(150.18 174.25)" fill="#aa9fdd"/>
        <path id="Path_381" data-name="Path 381" d="M305.74,235.8a2.69,2.69,0,1,0-2.79-2.59,2.69,2.69,0,0,0,2.79,2.59Z" transform="translate(150.18 174.25)" fill="#aa9fdd"/>
        <path id="Path_382" data-name="Path 382" d="M334.34,101.27H178.6a4,4,0,0,0-4,4V150.8H338.35V105.28a4,4,0,0,0-4.01-4.01Z" transform="translate(150.18 174.25)" fill="#28334a"/>
        <rect id="Rectangle_5" data-name="Rectangle 5" width="11.35" height="1.45" rx="0.65" transform="translate(464.24 295.6)" fill="#d9d9ff"/>
        <rect id="Rectangle_6" data-name="Rectangle 6" width="11.35" height="1.45" rx="0.65" transform="translate(464.24 299)" fill="#d9d9ff"/>
        <rect id="Rectangle_7" data-name="Rectangle 7" width="11.35" height="1.45" rx="0.65" transform="translate(464.24 302.39)" fill="#d9d9ff"/>
        <circle id="Ellipse_21" data-name="Ellipse 21" cx="12.67" cy="12.67" r="12.67" transform="translate(336.02 287.05)" fill="#fef5ca"/>
        <rect id="Rectangle_8" data-name="Rectangle 8" width="43.79" height="5.12" transform="translate(366.93 294.5)" fill="#fbde44"/>
        <rect id="Rectangle_9" data-name="Rectangle 9" width="31.29" height="3.24" transform="translate(366.93 302.66)" fill="#fbde44"/>
        <path id="Path_405" data-name="Path 405" d="M2.46,0H146.69a2.46,2.46,0,0,1,2.46,2.46V72.34a2.46,2.46,0,0,1-2.46,2.46H2.46A2.46,2.46,0,0,1,0,72.34V2.46A2.46,2.46,0,0,1,2.46,0Z" transform="translate(360.229 477.073) rotate(-18.34)" fill="#28334a"/>
        <path id="Path_383" data-name="Path 383" d="M349.83,259.47l21.75,65.62L235.39,370.24l-21.75-65.62,136.19-45.15m.24-2.94c-.26,0-.52.05,1.12-.5L214.28,301.42c-3.18,1.05-3.88,2.44-3.45,3.73l22,66.34a2.46,2.46,0,0,0,2.33,1.69,2.54,2.54,0,0,0,.77-.13l136.91-45.39a2.44,2.44,0,0,0,1.56-3.1l-22-66.34a2.46,2.46,0,0,0-2.33-1.69Z" transform="translate(150.18 174.25)" fill="#28334a"/>
        <path id="Path_384" data-name="Path 384" d="M248.1,366l8.41-51.58a5.47,5.47,0,0,1,8.31-3.74l35.33,22.21a4.75,4.75,0,0,0,7-2.49l7.69-22.7a5.47,5.47,0,0,1,8.32-2.73l34.94,24.64Z" transform="translate(150.18 174.25)" fill="#fbde44"/>
        <path id="Path_406" data-name="Path 406" d="M10.97,0A10.97,10.97,0,1,1,0,10.97,10.97,10.97,0,0,1,10.97,0Z" transform="translate(466.59 450.32)" fill="#fbde44"/>
        <path id="Path_386" data-name="Path 386" d="M371.77,258.56l-.85-.43-.13.08C371,258.29,371.39,258.41,371.77,258.56Z" transform="translate(150.18 174.25)" fill="#894f36"/>
        <path id="Path_407" data-name="Path 407" d="M2.46,0H146.69a2.46,2.46,0,0,1,2.46,2.46V72.34a2.46,2.46,0,0,1-2.46,2.46H2.46A2.46,2.46,0,0,1,0,72.34V2.46A2.46,2.46,0,0,1,2.46,0Z" transform="translate(298.096 317.47) rotate(12.01)" fill="#fbde44"/>
        <path id="Path_394" data-name="Path 394" d="M150.09,146.59l140.34,29.87-14.38,67.62L135.71,214.21l14.38-67.62m-.29-2.9a2.46,2.46,0,0,0-2.4,1.94L132.85,214a2.47,2.47,0,0,0,1.9,2.92l141.08,30a2.939,2.939,0,0,0,.51,0,2.46,2.46,0,0,0,2.4-1.95l14.54-68.35a2.45,2.45,0,0,0-1.89-2.92l-141.08-30a2.939,2.939,0,0,0-.51-.05Z" transform="translate(150.18 174.25)" fill="#403177"/>
        <rect id="Rectangle_12" data-name="Rectangle 12" width="81.61" height="58.89" rx="3.1" transform="translate(305.889 327.853) rotate(12.01)" fill="#28334a"/>
        <path id="Path_395" data-name="Path 395" d="M265,230.63l-29.74-6.33a4.48,4.48,0,0,1-3.46-5.32h0a4.48,4.48,0,0,1,5.32-3.45l29.75,6.33a4.48,4.48,0,0,1,3.45,5.32h0a4.48,4.48,0,0,1-5.32,3.45Z" transform="translate(150.18 174.25)" fill="#28334a"/>
        <path id="Path_396" data-name="Path 396" d="M200.19,192.62a10.26,10.26,0,1,1-7.84-12.21,10.26,10.26,0,0,1,7.84,12.21Z" transform="translate(150.18 174.25)" fill="#fbde44"/>
        <path id="Path_397" data-name="Path 397" d="M187.49,192.54l1.12-5.13a.81.81,0,0,1,1.41-.35l2.92,3.5a.8.8,0,0,1-.32,1.26l-4,1.64a.81.81,0,0,1-1.13-.92Z" transform="translate(150.18 174.25)" fill="#eff2f9"/>
        <rect id="Rectangle_13" data-name="Rectangle 13" width="40.5" height="4.24" transform="translate(390.522 353.598) rotate(12.01)" fill="#28334a"/>
        <rect id="Rectangle_14" data-name="Rectangle 14" width="40.5" height="1.9" transform="translate(388.264 364.197) rotate(12.01)" fill="#28334a"/>
        <rect id="Rectangle_15" data-name="Rectangle 15" width="35.79" height="1.9" transform="translate(387.529 367.668) rotate(12.01)" fill="#28334a"/>
        <rect id="Rectangle_16" data-name="Rectangle 16" width="39.25" height="1.9" transform="translate(386.787 371.151) rotate(12.01)" fill="#28334a"/>
        <rect id="Rectangle_17" data-name="Rectangle 17" width="40.5" height="1.9" transform="translate(386.052 374.626) rotate(12.01)" fill="#28334a"/>
        <rect id="Rectangle_18" data-name="Rectangle 18" width="37.49" height="1.9" transform="translate(385.31 378.099) rotate(12.01)" fill="#28334a"/>
        <rect id="Rectangle_19" data-name="Rectangle 19" width="39.17" height="1.9" transform="translate(384.565 381.581) rotate(12.01)" fill="#28334a"/>
        <rect id="Rectangle_20" data-name="Rectangle 20" width="58.38" height="28.59" rx="3.33" transform="translate(480.88 367.29)" fill="#fbde44"/>
        <text id="Js" transform="translate(500.2 389.02)" fill="#28334a" font-size="22.92" font-family="Roboto-Bold, Roboto" font-weight="700"><tspan x="0" y="0">Js</tspan></text>
        <rect id="Rectangle_21" data-name="Rectangle 21" width="83.38" height="28.59" rx="3.33" transform="translate(283.83 261.74)" fill="#fbde44"/>
        <text id="AngularJS" transform="translate(293.77 281.18)" fill="#28334a" font-size="13.54" font-family="Roboto-Bold, Roboto" font-weight="700"><tspan x="0" y="0">AngularJS</tspan></text>
        <rect id="Rectangle_22" data-name="Rectangle 22" width="82.46" height="25.66" rx="3.44" transform="translate(270.83 484.61)" fill="#fbde44"/>
        <text id="ReactJS" transform="translate(284.96 503.27)" fill="#28334a" font-size="14.78" font-family="Roboto-Bold, Roboto" font-weight="700"><tspan x="0" y="0">ReactJS</tspan></text>
        <text id="_" data-name="&lt;/&gt;" transform="translate(383.42 238.81)" fill="#28334a" font-size="21.3" font-family="Roboto-Bold, Roboto" font-weight="700"><tspan x="0" y="0">&lt;/&gt;</tspan></text>
        <text id="Html5" transform="translate(505.73 273.59)" fill="#28334a" font-size="21.3" font-family="Roboto-Bold, Roboto" font-weight="700"><tspan x="0" y="0">Html5</tspan></text>
        <text id="css" transform="translate(515.73 548.8)" fill="#28334a" font-size="31" font-family="Roboto-Bold, Roboto" font-weight="700"><tspan x="0" y="0">css</tspan></text>
      </g>
    </g>
  </g>
</svg>
