<svg xmlns="http://www.w3.org/2000/svg" xmlns:xlink="http://www.w3.org/1999/xlink" width="309.571" height="282.551" viewBox="0 0 309.571 282.551">
  <defs>
    <clipPath id="clip-path">
      <rect id="Rectangle_3" data-name="Rectangle 3" width="20.864" height="27.395" transform="translate(0 0)" fill="none"/>
    </clipPath>
    <linearGradient id="linear-gradient" x1="0.5" x2="0.938" y2="0.162" gradientUnits="objectBoundingBox">
      <stop offset="0" stop-color="#745f67"/>
      <stop offset="1" stop-color="#47232f"/>
    </linearGradient>
    <linearGradient id="linear-gradient-2" x1="-0.005" y1="0.148" x2="0.763" y2="0.971" gradientUnits="objectBoundingBox">
      <stop offset="0" stop-color="#fef388"/>
      <stop offset="0.27" stop-color="#cca962"/>
      <stop offset="0.609" stop-color="#936440"/>
      <stop offset="1" stop-color="#3b0f09"/>
    </linearGradient>
    <radialGradient id="radial-gradient" cx="0.105" cy="0.906" r="1.098" gradientTransform="matrix(0.029, -1, 1.283, 0.038, -1.06, 0.977)" gradientUnits="objectBoundingBox">
      <stop offset="0" stop-color="#562522"/>
      <stop offset="0.51" stop-color="#5c2b28"/>
      <stop offset="0.824" stop-color="#976260"/>
      <stop offset="1" stop-color="#a16c6a"/>
    </radialGradient>
    <linearGradient id="linear-gradient-3" x1="0.462" y1="0.431" x2="0.612" y2="0.701" gradientUnits="objectBoundingBox">
      <stop offset="0" stop-color="#d0a733"/>
      <stop offset="1" stop-color="#f8e87d"/>
    </linearGradient>
    <linearGradient id="linear-gradient-4" x1="0.5" y1="0" x2="0.5" y2="1" xlink:href="#linear-gradient-3"/>
    <linearGradient id="linear-gradient-5" x1="0.537" y1="0.181" x2="0.132" y2="0.669" xlink:href="#linear-gradient-3"/>
  </defs>
  <g id="Character-svg" transform="translate(-417.652 -210.266)">
    <path id="Path_1512" data-name="Path 1512" d="M474.807,451.485c1.157-3.249,60.785-78.739,64.787-80.134.441-.184,26.014,18.817,26.014,18.817,1.028,1.45,50.577-7.931,50.577-7.931l-.753,59.5-89.791-3.782s-12.282,6.884-23.517,12.465h0a133.553,133.553,0,0,1-14.687,6.774C482.829,458.3,473.632,454.753,474.807,451.485Z" transform="translate(-56.516 24.563)" fill="#eb9481"/>
    <path id="Path_1513" data-name="Path 1513" d="M487.3,457.173A128.507,128.507,0,0,0,501.99,450.4h0c11.217-5.508,23.5-12.465,23.5-12.465l19.992.844,32.531-49.77c-6.884,1.083-12.025,1.689-12.355,1.23,0,0-25.555-19-26.014-18.817-4,1.4-63.63,76.885-64.787,80.135S482.787,458.238,487.3,457.173Z" transform="translate(-56.473 24.622)" fill="#fff"/>
    <path id="Path_1514" data-name="Path 1514" d="M474.519,451.6c1.212-3.341,61.1-78.758,65.209-80.208,1.542-.551,14.081,7.564,26.124,18.8L527.17,438.786s-35.12,17.679-39.783,18.762S473.307,454.941,474.519,451.6Z" transform="translate(-56.76 24.577)" fill="#ffe226"/>
    <path id="Path_1515" data-name="Path 1515" d="M476.7,450.615c10.354-12.392,50.926-63.373,60.216-76.408h0c-10.538,12.08-50.688,63.373-60.344,76.334C476.3,450.725,476.481,450.891,476.7,450.615Z" transform="translate(-55.069 26.865)" fill="#263238"/>
    <path id="Path_1516" data-name="Path 1516" d="M485.845,425.132a13.034,13.034,0,0,0,2.919-10.024,12.649,12.649,0,0,0-4.516-8.188s-.184.092-.11.165A14.98,14.98,0,0,1,485.68,425a.11.11,0,0,0,.165.129Z" transform="translate(-48.645 54.295)" fill="#263238"/>
    <path id="Path_1517" data-name="Path 1517" d="M501.053,418.292c4.076-5.012,6.958-12.3,5.306-18.726,0-.239-.4-.147-.459,0a89.955,89.955,0,0,1-5.508,18.358.4.4,0,0,0,.661.367Z" transform="translate(-35.048 48.026)" fill="#263238"/>
    <path id="Path_1518" data-name="Path 1518" d="M498.555,419.766c4.076-5.012,6.958-12.3,5.306-18.726,0-.257-.4-.147-.459,0a88.821,88.821,0,0,1-5.508,18.267.4.4,0,0,0,.661.459Z" transform="translate(-37.177 49.251)" fill="#263238"/>
    <path id="Path_1519" data-name="Path 1519" d="M496.035,421.236c4.076-5.012,6.958-12.3,5.306-18.726,0-.257-.4-.147-.459,0a88.821,88.821,0,0,1-5.508,18.267.4.4,0,0,0,.661.459Z" transform="translate(-39.283 50.48)" fill="#263238"/>
    <path id="Path_1520" data-name="Path 1520" d="M493.515,422.709c4.076-5.012,6.958-12.3,5.306-18.726,0-.257-.4-.165-.459,0a88.82,88.82,0,0,1-5.508,18.267.4.4,0,0,0,.661.459Z" transform="translate(-41.39 51.706)" fill="#263238"/>
    <path id="Path_1521" data-name="Path 1521" d="M519.123,385.256c4.5-5.691-4.351-12.686-8.849-6.995S514.626,390.947,519.123,385.256Z" transform="translate(-27.821 28.575)" fill="#263238"/>
    <path id="Path_1522" data-name="Path 1522" d="M509.286,429.456c4.149-.881,4.645-5.746,3.672-9.087a33.945,33.945,0,0,0-9.289-14.87.184.184,0,0,0-.275,0c-.44-.165-1.1,0-1.138.587-.367,5.508-1.45,11.511-.092,17.037C502.971,426.39,505.339,430.337,509.286,429.456Zm-5.838-14.687c.11-2.754.367-5.508.385-8.243,1.836,2.919,3.672,5.728,5.232,8.812a36.878,36.878,0,0,1,1.946,4.553c.789,2.423,1.083,10.758-4.828,6.884-3.249-2.185-2.864-8.794-2.735-12.062Z" transform="translate(-34.121 53.055)" fill="#263238"/>
    <path id="Path_1523" data-name="Path 1523" d="M511.364,399.114c-4.167,3.874-6.517,9.418-9.289,14.264a.789.789,0,0,0,.624,1.12.165.165,0,0,0,.2.184,33.65,33.65,0,0,0,15.935-7.343c2.644-2.24,4.92-6.591,1.928-9.6S513.805,396.856,511.364,399.114Zm5.306-.771c7.068,0,2.24,6.811.239,8.408a39.223,39.223,0,0,1-4.131,2.735,101.4,101.4,0,0,1-9.179,4.461c1.505-2.295,2.791-4.718,4.222-7.068,1.652-2.809,4.957-8.555,8.867-8.537Z" transform="translate(-33.701 45.376)" fill="#263238"/>
    <path id="Path_1524" data-name="Path 1524" d="M586.585,375.894l40.5-3.194s58.49-16.963,92.288-8.078c38.755,10.171,44.225,55.442,4.828,73.6-38.993,17.955-210.589,11.327-210.589,11.327l36.717-54.469s56.489-13.273,105.947-10.593l-70.019,8.078Z" transform="translate(-23.997 16.789)" fill="#37474f"/>
    <path id="Path_1525" data-name="Path 1525" d="M553.79,378.468c6.022-.991,12.117-1.469,18.193-2.038s12.282-1.01,18.358-1.4a368.152,368.152,0,0,1,36.845-.569l3.451.184a3.969,3.969,0,0,0,.753-.165c.588-.129,1.175-.275,1.836-.367,1.1-.2,2.221-.33,3.341-.477,2.332-.312,4.663-.514,6.995-.9a.11.11,0,1,1,0,.22c-2.332.477-4.626,1.1-6.958,1.56l-2.019.386c4.5.33,8.977.771,13.457,1.267.147,0,.147.239,0,.22-6.095-.477-12.263-.661-18.358-.679s-12.172,0-18.248.2c-12.3.441-24.582,1.3-36.845,2.313-6.884.587-13.787,1.285-20.69,1.432a.606.606,0,0,1-.11-1.193Z" transform="translate(9.202 25.726)" fill="#263238"/>
    <path id="Path_1526" data-name="Path 1526" d="M523.188,433.778c2.276-3.47,4.222-7.178,6.3-10.758l6.224-10.721c4.186-7.16,19.185-31.209,20.653-32.9a.134.134,0,0,1,.22.147c-.716,1.836-10.1,17.808-12.245,21.369-4.314,7.1-8.849,14.063-13.31,21.076-1.267,2-2.589,3.984-3.874,5.966s-2.662,3.947-3.855,6C523.3,434.09,523.115,433.962,523.188,433.778Z" transform="translate(-16.006 31.255)" fill="#263238"/>
    <path id="Path_1527" data-name="Path 1527" d="M696.661,458.839c-.991-3.3-56.911-81.53-60.913-83.109-.441-.2-26.877,17.569-26.877,17.569-1.1,1.4-50.137-10.336-50.137-10.336l-2.074,59.481,89.956.477s11.951,7.454,22.893,13.549h0a137.135,137.135,0,0,0,14.411,7.454C688.327,465.228,697.689,462.125,696.661,458.839Z" transform="translate(11.986 28.224)" fill="#eb9481"/>
    <path id="Path_1528" data-name="Path 1528" d="M665.728,463.968a126.323,126.323,0,0,1-14.411-7.472h0c-11.015-6.095-22.875-13.567-22.875-13.567l-20.011-.092-29.961-51.4c6.848,1.4,11.951,2.258,12.3,1.836,0,0,26.418-17.771,26.877-17.569,3.929,1.579,59.922,79.8,60.913,83.109S670.1,465.253,665.728,463.968Z" transform="translate(30.216 28.199)" fill="#fff"/>
    <path id="Path_1529" data-name="Path 1529" d="M673.422,458.957c-1.046-3.378-57.315-81.566-61.335-83.2-1.524-.624-14.43,6.884-26.987,17.551l36.331,50.357s34.239,19.313,38.846,20.635S674.469,462.353,673.422,458.957Z" transform="translate(35.758 28.217)" fill="#ffe226"/>
    <path id="Path_1530" data-name="Path 1530" d="M656.814,457.782c-9.767-12.851-47.879-65.723-56.544-79.2,0-.11,0-.147.092,0,9.932,12.557,47.622,65.7,56.654,79.088C657.218,457.911,657.016,458.039,656.814,457.782Z" transform="translate(48.437 30.53)" fill="#263238"/>
    <path id="Path_1531" data-name="Path 1531" d="M623.759,430.571a12.85,12.85,0,0,1-2.442-10.152,12.484,12.484,0,0,1,4.883-7.949s.184,0,.11.147a15,15,0,0,0-2.386,17.844C623.979,430.571,623.832,430.682,623.759,430.571Z" transform="translate(65.851 58.934)" fill="#263238"/>
    <path id="Path_1532" data-name="Path 1532" d="M609.548,423.14c-3.855-5.177-6.389-12.594-4.443-18.946,0-.239.422-.129.459,0a89.707,89.707,0,0,0,4.681,18.505.413.413,0,1,1-.7.441Z" transform="translate(51.918 51.899)" fill="#263238"/>
    <path id="Path_1533" data-name="Path 1533" d="M611.98,424.7c-3.837-5.2-6.37-12.612-4.424-18.946,0-.257.422-.147.459,0a89.69,89.69,0,0,0,4.681,18.505.42.42,0,1,1-.716.441Z" transform="translate(53.966 53.188)" fill="#263238"/>
    <path id="Path_1534" data-name="Path 1534" d="M614.431,426.325c-3.855-5.2-6.37-12.612-4.424-18.964,0-.239.422-.129.459.092a88.12,88.12,0,0,0,4.682,18.487.407.407,0,1,1-.716.385Z" transform="translate(56.013 54.551)" fill="#263238"/>
    <path id="Path_1535" data-name="Path 1535" d="M616.881,427.918c-3.855-5.2-6.37-12.612-4.424-18.964,0-.239.422-.128.441,0a90.862,90.862,0,0,0,4.681,18.56.4.4,0,0,1-.7.4Z" transform="translate(58.061 55.878)" fill="#263238"/>
    <path id="Path_1536" data-name="Path 1536" d="M595.294,389.28c-4.222-5.893,4.938-12.465,9.179-6.554S599.517,395.191,595.294,389.28Z" transform="translate(43.371 32.134)" fill="#263238"/>
    <path id="Path_1537" data-name="Path 1537" d="M610.981,427.872c1.615-5.508.808-11.437.7-17.018a.771.771,0,0,0-1.1-.642c0-.092-.165-.147-.257,0a33.945,33.945,0,0,0-10.061,14.375c-1.12,3.286-.863,8.188,3.25,9.179S610.027,431.048,610.981,427.872Zm-4.167,3.36c-6.1,3.672-5.508-4.718-4.5-7.1a37.01,37.01,0,0,1,2.166-4.461,97.885,97.885,0,0,1,5.636-8.537c-.11,2.735,0,5.508,0,8.225C610.082,422.64,610.155,429.267,606.814,431.232Z" transform="translate(47.952 56.97)" fill="#263238"/>
    <path id="Path_1538" data-name="Path 1538" d="M597.066,401.875c-3.121,2.882-1.046,7.343,1.469,9.693a34,34,0,0,0,15.586,8.059.165.165,0,0,0,.2-.184.789.789,0,0,0,.679-1.083c-2.534-4.975-4.626-10.63-8.61-14.687C604.06,401.324,600.1,399.158,597.066,401.875Zm12.539,9.712c1.3,2.423,2.5,4.9,3.892,7.343a99.455,99.455,0,0,1-9.014-4.9,36.32,36.32,0,0,1-3.984-2.919c-1.927-1.689-6.425-8.7.624-8.39C605.015,402.83,608.063,408.668,609.6,411.587Z" transform="translate(44.445 49.022)" fill="#263238"/>
    <path id="Path_1539" data-name="Path 1539" d="M625.227,377.307l-40.389-1.083s-41.637-21.388-75.82-14.118c-39.2,8.335-45.474,57.113-16.816,75.178,36.295,22.893,200.511,23,200.511,23l-33.871-61.078s-54.267-12.851-103.8-12.576l69.633,11.419Z" transform="translate(-56.746 15.578)" fill="#37474f"/>
    <path id="Path_1540" data-name="Path 1540" d="M635.584,393.192a1.55,1.55,0,0,1,0-.312v-.257a3.172,3.172,0,0,0-.129-.569,11.329,11.329,0,0,0-.385-1.193c-.147-.4-.294-.771-.477-1.157a7.883,7.883,0,0,0-.624-1.083h-.183c-5.985-1.267-46.594-8.188-52.652-9.032s-12.208-1.6-18.359-2.276a362.073,362.073,0,0,0-36.717-2.295h-3.452l-.753-.2c-.588-.147-1.157-.312-1.836-.441-1.1-.239-2.2-.441-3.323-.643-2.313-.4-4.626-.716-6.921-1.212-.147,0-.2.184,0,.22,2.313.569,4.571,1.3,6.884,1.836l2,.477q-6.738.184-13.512.643c-.129,0-.147.22,0,.22,6.113-.2,12.282,0,18.358.184s12.153.551,18.212,1.065c12.263,1.028,24.508,2.46,36.717,4.057,6.848.9,48.264,8.078,55.075,8.555h-.037a2.145,2.145,0,0,0,.184.477c.165.386.349.753.551,1.12a12,12,0,0,0,.588,1.065l.312.514.165.239a1.427,1.427,0,0,1,.184.275C635.418,393.43,635.657,393.338,635.584,393.192Z" transform="translate(-31.157 25.542)" fill="#263238"/>
    <path id="Path_1541" data-name="Path 1541" d="M600.52,438.175c-2.111-3.562-3.892-7.343-5.8-11.015s-3.837-7.343-5.765-11.015c-3.837-7.343-17.679-32.091-19.074-33.835,0-.11-.275,0-.239.129.642,1.836,9.179,18.358,11.235,21.938,3.984,7.343,8.17,14.466,12.282,21.681,1.175,2.056,2.405,4.094,3.672,6.15s2.478,4.057,3.562,6.168C600.392,438.432,600.594,438.3,600.52,438.175Z" transform="translate(22.834 33.688)" fill="#263238"/>
    <path id="Path_1542" data-name="Path 1542" d="M534.141,422.61c1.505,1.6,97.3,3.8,97.8,3.194,1.322-1.652-11.015-62.419-21.057-85.7-12.851-29.8-20.066-32.476-24.362-34.238a33.944,33.944,0,0,0-17.918-.734c-2.735,1.12-14.687,14.466-18.193,25.243C543.246,352.04,532.837,421.27,534.141,422.61Z" transform="translate(-6.929 -31.506)" fill="#ffe226"/>
    <path id="Path_1543" data-name="Path 1543" d="M571.594,341.211a14.038,14.038,0,0,0-1.248,3.672,14.692,14.692,0,0,0-.239,3.929,13.467,13.467,0,0,0,1.267-3.672A14.683,14.683,0,0,0,571.594,341.211Zm13.475,62.731a13.875,13.875,0,0,0-1.23,3.672,14.08,14.08,0,0,0-.257,3.947,14.269,14.269,0,0,0,1.249-3.672A14.084,14.084,0,0,0,585.069,403.942ZM548.517,375.78a13.617,13.617,0,0,0-1.248,3.672,14.084,14.084,0,0,0-.239,3.929,13.935,13.935,0,0,0,1.248-3.672,14.8,14.8,0,0,0,.239-4Zm63.685-5.2a13.954,13.954,0,0,0-1.248,3.763,14.586,14.586,0,0,0-.239,3.91,13.166,13.166,0,0,0,1.267-3.672,14.8,14.8,0,0,0,.22-4Zm-30.108-62.859a14.117,14.117,0,0,0-3.947-.257,14.044,14.044,0,0,0,3.672,1.248,12.743,12.743,0,0,0,3.929.239,14.1,14.1,0,0,0-3.653-1.23Zm30.108,40a15.312,15.312,0,0,0-3.194-.991,14.687,14.687,0,0,0-3.929-.239,14.041,14.041,0,0,0,3.672,1.248,13.639,13.639,0,0,0,3.47.257,1.839,1.839,0,0,0,.459,0Zm-66.09-14.044a3.9,3.9,0,0,1-.257.955,12.632,12.632,0,0,0,3.543.184,12.707,12.707,0,0,0-3.286-1.138Zm13.879,84.8a14.115,14.115,0,0,0-3.947-.239,13.62,13.62,0,0,0,3.672,1.248,14.026,14.026,0,0,0,3.929.239,13.935,13.935,0,0,0-3.653-1.248Zm2.35-52.725a14.121,14.121,0,0,0-3.947-.22,14.264,14.264,0,0,0,3.672,1.248,14.8,14.8,0,0,0,3.929.239,13.365,13.365,0,0,0-3.653-1.267ZM629.148,419a13.579,13.579,0,0,0-1.726,0,11.186,11.186,0,0,0,1.836.771Zm-32.2-29.025a13.343,13.343,0,0,0-3.929-.257,14.154,14.154,0,0,0,3.672,1.248,13.494,13.494,0,0,0,3.947.239A13.384,13.384,0,0,0,596.947,389.971Zm-33.431-67.522a14.15,14.15,0,0,0-2.625-2.937,15.079,15.079,0,0,0,1.836,3.525,14.253,14.253,0,0,0,2.625,2.956,14.846,14.846,0,0,0-1.836-3.543Zm-.679,75.471a13.8,13.8,0,0,0-2.625-2.956,13.531,13.531,0,0,0,1.836,3.525,14.055,14.055,0,0,0,2.589,2.956,13.446,13.446,0,0,0-1.8-3.525Zm38.351,20.708a14.066,14.066,0,0,0-2.589-2.956,13.492,13.492,0,0,0,1.836,3.525,12.854,12.854,0,0,0,2.607,2.956,13.533,13.533,0,0,0-1.854-3.525Zm-9.179-59.757a13.642,13.642,0,0,0-2.607-2.956,14.687,14.687,0,0,0,1.836,3.525,13.307,13.307,0,0,0,2.625,2.956,14.772,14.772,0,0,0-1.854-3.451Zm-44.648-9.087a14.536,14.536,0,0,0-3.084,2.754,13.364,13.364,0,0,0,3.506-1.836,12.959,12.959,0,0,0,2.974-2.625,14.907,14.907,0,0,0-3.488,1.781Zm-7.343,55.332a14,14,0,0,0-2.937,2.607,13.77,13.77,0,0,0,3.525-1.836,14.152,14.152,0,0,0,2.956-2.607,13.054,13.054,0,0,0-3.635,1.909Zm38.241-26.858a13.715,13.715,0,0,0-2.974,2.589,14.962,14.962,0,0,0,6.481-4.369,12.852,12.852,0,0,0-3.6,1.854Zm36.717,25.28a13.311,13.311,0,0,0-2.956,2.625,14.008,14.008,0,0,0,3.506-1.836,13.782,13.782,0,0,0,2.974-2.607,13.767,13.767,0,0,0-3.561,1.891Zm-25.9-74.737a13.313,13.313,0,0,0-2.956,2.625,15.716,15.716,0,0,0,6.481-4.369,13.437,13.437,0,0,0-3.562,1.817Z" transform="translate(-4.379 -28.865)" fill="#fff"/>
    <path id="Path_1544" data-name="Path 1544" d="M578.337,312.667c41.306,31.044,77.105,74.131,73.6,87.772-3.672,14.43-32.182,30.567-57.407,33.871-5.159.661-21.13-37.212-15.843-38.938,4.112-1.359,22.856-6.7,25.1-9.271,1.56-1.836-27.538-42.7-36.992-64.071C556.895,299.67,567.267,304.351,578.337,312.667Z" transform="translate(17.131 -30.245)" fill="#eb9481"/>
    <path id="Path_1545" data-name="Path 1545" d="M608.811,354s-15.77,1.579-26.032,3.1c-5.728.844-15.4,3.176-19.332,5.728-5.856,3.819-27.941,23.5-23.3,28.951,4.222,4.938,10.574-2.882,10.574-2.882s-7.747,7.894-2.056,11.511,13.034-7.343,13.034-7.343-8.83,7.821-2.387,11.015c5.6,2.846,15.366-8.9,15.366-8.9s-10.152,7.2-4.718,10.666c6.022,3.855,22.893-11.933,22.893-11.933,13.493,1.524,21.81.587,31.319-2.075C625.921,391.341,608.811,354,608.811,354Z" transform="translate(-2.346 10.062)" fill="#eb9481"/>
    <path id="Path_1546" data-name="Path 1546" d="M550.979,383.757c.606-.844,1.23-1.671,1.836-2.5a49.7,49.7,0,0,1,3.782-4.736c1.34-1.45,2.735-2.827,4.186-4.149s3.213-2.68,4.7-4.131c.11-.129.275,0,.147.165a54.146,54.146,0,0,0-4.2,4.5l-4,4.535c-1.285,1.487-2.68,2.864-4,4.314-.679.716-1.3,1.469-1.946,2.221a15.442,15.442,0,0,1-1.836,2.093s-.147,0-.129-.11a13.634,13.634,0,0,1,1.468-2.2Z" transform="translate(6.009 21.924)" fill="#263238"/>
    <path id="Path_1547" data-name="Path 1547" d="M544.767,381.4a79.789,79.789,0,0,1,6.811-8.922,56.084,56.084,0,0,1,8.316-7.582c.11-.092.239,0,.165.165-2.515,2.809-5.067,5.508-7.619,8.335-1.248,1.358-6.719,7.674-7.343,8.261C544.914,381.8,544.693,381.639,544.767,381.4Z" transform="translate(2.033 19.14)" fill="#263238"/>
    <path id="Path_1548" data-name="Path 1548" d="M555.45,386.267a80.126,80.126,0,0,1,6.554-8.3,73.218,73.218,0,0,1,8.463-6.719c.11,0,.257.092.147.184-2.644,2.442-5.306,4.828-7.839,7.343-1.23,1.248-5.838,6.536-7.1,7.619a.147.147,0,0,1-.22-.129Z" transform="translate(10.975 24.48)" fill="#263238"/>
    <path id="Path_1549" data-name="Path 1549" d="M624.963,351.489l-31.466,20.4s-23.333-36.129-29.373-53.239,1.01-17.165,17.514-4.755S624.963,351.489,624.963,351.489Z" transform="translate(16.438 -30.79)" fill="#ffe226"/>
    <path id="Path_1550" data-name="Path 1550" d="M569.236,328.058c.147.275.275.551.422.844a11.967,11.967,0,0,0,2.111-1.983,10.9,10.9,0,0,0-2.533,1.138Zm36.019,23.077a13.311,13.311,0,0,0-2.956,2.625,15.12,15.12,0,0,0,3.525-1.836,12.852,12.852,0,0,0,2.937-2.607A14.287,14.287,0,0,0,605.255,351.134Zm-.385-15.072a14.07,14.07,0,0,0-2.607-2.937,14.357,14.357,0,0,0,1.836,3.525,15.386,15.386,0,0,0,2.625,2.956A13.6,13.6,0,0,0,604.87,336.062Zm-16.706,10.464a14.687,14.687,0,0,0-3.929-.239,15.145,15.145,0,0,0,7.674,1.487,14.045,14.045,0,0,0-3.745-1.248Zm34.385.569a11.876,11.876,0,0,0-1.4,0,11.479,11.479,0,0,0,2.46.936c-.294-.257-.661-.588-.991-.936ZM561.966,307.68a9.239,9.239,0,0,0,0,.973,10.465,10.465,0,0,0,2.937.092,11.932,11.932,0,0,0-2.864-1.065Zm26.73,11.6a13.423,13.423,0,0,0-1.248,3.672,13.955,13.955,0,0,0-.239,3.929,14.045,14.045,0,0,0,1.248-3.672,14.692,14.692,0,0,0,.239-3.929Z" transform="translate(16.41 -28.654)" fill="#fff"/>
    <path id="Path_1551" data-name="Path 1551" d="M604.4,328.02A256.181,256.181,0,0,1,578.2,345.7c-.11,0-.22-.11-.11-.184,2.386-1.45,15.219-10.887,26.179-17.7C604.4,327.744,604.509,327.928,604.4,328.02Z" transform="translate(29.861 -11.836)" fill="#263238"/>
    <path id="Path_1552" data-name="Path 1552" d="M590.966,356.745q-.942.451-1.836.991c-3.488-6.04-7.343-12.153-10.813-18.156l-5.232-8.83c-1.836-3.048-3.451-6.26-5.507-9.179h-.147a95.5,95.5,0,0,0,4.3,8.555c-.312-.422-.624-.881-.973-1.285-.771-.918-1.542-1.836-2.24-2.827-.11-.147-.349,0-.257.147a25.627,25.627,0,0,1,1.836,2.882c.569,1.046,1.248,1.836,1.836,2.882a15.082,15.082,0,0,0,2.038,2.625,3.822,3.822,0,0,0,.257.312c.955,1.836,1.836,3.525,2.882,5.25,3.506,6.077,11.456,18.358,11.566,18.358a18.83,18.83,0,0,0,2.276-1.524S591.057,356.726,590.966,356.745Z" transform="translate(20.988 -17.044)" fill="#263238"/>
    <path id="Path_1553" data-name="Path 1553" d="M575.533,313.491c-33.155,17.955-64.365,39.654-70.037,54.488-3.672,9.326,1.285,26.032,5.2,36.074,1.836,4.883,47.952-15.017,44.06-19.019-9.693-9.932-11.272-13.952-10.3-16.009.643-1.3,36.717-33.761,46.869-48.283C605.311,300.475,590.11,305.56,575.533,313.491Z" transform="translate(-31.854 -29.618)" fill="#eb9481"/>
    <path id="Path_1554" data-name="Path 1554" d="M571.309,400.02c-4.333,2.515-9.657-8.7-9.657-8.7a9.308,9.308,0,0,1-2.5,5.783c-2.735,2.662-8.114-.477-8.114-.477a11.457,11.457,0,0,1-3.672,5.691c-2.882,2.276-8.739-.11-8.739-.11a10.079,10.079,0,0,1-6.315,3.011c-6.425.294-12.025-7.784-15.641-12.851s-9.069-22.93-10.464-26.234l32.66-23.48s22.691,18.248,26.087,24.857C567.766,373.052,577.955,396.146,571.309,400.02Z" transform="translate(-30.182 0.575)" fill="#eb9481"/>
    <path id="Path_1555" data-name="Path 1555" d="M540.192,377.682a83.683,83.683,0,0,0-8-18.854c0-.147-.275,0-.2.11,3.213,5.911,4.92,12.851,7.894,18.854a.165.165,0,1,0,.312-.11Z" transform="translate(-8.648 14.046)" fill="#263238"/>
    <path id="Path_1556" data-name="Path 1556" d="M535.557,379.41a17.381,17.381,0,0,0-2.093-4.167c-.844-1.414-1.707-2.827-2.588-4.2-1.836-2.79-3.672-5.508-5.508-8.225,0-.129-.275,0-.2.11q2.68,4.149,5.159,8.427c.826,1.432,1.634,2.864,2.442,4.314a20.327,20.327,0,0,0,2.46,3.947.22.22,0,0,0,.33-.2Z" transform="translate(-14.348 17.385)" fill="#263238"/>
    <path id="Path_1557" data-name="Path 1557" d="M528.264,381.887a12.649,12.649,0,0,0-2.093-3.672c-.845-1.248-1.671-2.515-2.5-3.763-1.634-2.534-3.286-5.049-4.847-7.637,0-.129-.275,0-.2.11,1.56,2.644,3.1,5.287,4.7,7.894.771,1.285,1.56,2.57,2.368,3.837a11.715,11.715,0,0,0,2.442,3.286S528.282,382,528.264,381.887Z" transform="translate(-19.815 20.728)" fill="#263238"/>
    <path id="Path_1558" data-name="Path 1558" d="M516.92,340.829l24.931,23.664s31.815-29.116,40.9-44.831,2.148-17.055-16.339-7.894S516.92,340.829,516.92,340.829Z" transform="translate(-21.23 -30.006)" fill="#ffe226"/>
    <path id="Path_1559" data-name="Path 1559" d="M558.281,313.257a13.553,13.553,0,0,0-2.937,2.607,13.418,13.418,0,0,0,3.506-1.836,13.2,13.2,0,0,0,2.956-2.589A13.216,13.216,0,0,0,558.281,313.257Zm-15.917,34.881a13.607,13.607,0,0,0-2.607-2.937,14.94,14.94,0,0,0,1.836,3.507,12.5,12.5,0,0,0,2.625,2.956,15.134,15.134,0,0,0-1.854-3.525Zm32.77-32a15.07,15.07,0,0,0,1.836,3.525l.129.165c.22-.294.441-.606.624-.9a13.855,13.855,0,0,0-2.589-2.791ZM559.9,330.2a14.081,14.081,0,0,0-3.947-.239,14.172,14.172,0,0,0,3.672,1.248,13.989,13.989,0,0,0,3.929.239,14.037,14.037,0,0,0-3.653-1.23Zm-35.909,7.123a14.154,14.154,0,0,0-3.947-.22,14.265,14.265,0,0,0,3.672,1.248,15.512,15.512,0,0,0,3.929.239,13.37,13.37,0,0,0-3.653-1.248Zm17.385-11.254a15.147,15.147,0,0,0-1.487,7.674,14.048,14.048,0,0,0,1.248-3.672,14.681,14.681,0,0,0,.239-3.984Z" transform="translate(-18.622 -25.511)" fill="#fff"/>
    <path id="Path_1560" data-name="Path 1560" d="M543.27,344.125A242.355,242.355,0,0,1,521.24,322.9c-.11-.092,0-.22.147-.128,1.836,1.964,13.4,12.208,22.03,21.2C543.546,344.088,543.381,344.217,543.27,344.125Z" transform="translate(-17.656 -16.064)" fill="#263238"/>
    <path id="Path_1561" data-name="Path 1561" d="M546.645,319.039c-1.193,2.644-2.368,5.287-3.36,8.023v-.551a32.173,32.173,0,0,1,.661-4.957.147.147,0,0,0-.275,0c-.349,1.634-.642,3.3-.881,4.957-.129.808-.184,1.616-.239,2.423v.385c-1.12,3.672-1.836,7.343-2.791,11.015a.147.147,0,0,0,.275,0c.955-3.672,2.332-7.068,3.543-10.593s2.166-7.086,3.323-10.593a.14.14,0,1,0-.257-.11Z" transform="translate(-2.139 -19.231)" fill="#263238"/>
    <path id="Path_1562" data-name="Path 1562" d="M558.152,330.771c5.508,1.065,14.485-7.637,17.881-14.521a112.624,112.624,0,0,0-1.505-11.235c-.477-3.672-.936-7.619-1.1-11.309,0-.771-22.966,6.591-22.966,6.591a59.2,59.2,0,0,1,2.827,14.191,8.283,8.283,0,0,1-.11,1.524v.239C552.828,319.1,552.847,329.743,558.152,330.771Z" transform="translate(6.804 -40.382)" fill="#eb9481"/>
    <path id="Path_1563" data-name="Path 1563" d="M572.1,293.76c-.826,6.3-4.075,21.571-16.523,22.361a14.418,14.418,0,0,1-2.368,0,.569.569,0,0,1,0-.257,10.291,10.291,0,0,0,0-1.524,59.209,59.209,0,0,0-2.846-14.118S567.1,294.9,572.1,293.76Z" transform="translate(6.721 -40.289)" fill="#263238"/>
    <path id="Path_1564" data-name="Path 1564" d="M576.818,281.072c4.424,7.343,5.948,31.5,1.542,38.075-6.389,9.491-19.7,13.567-28.492,5.232-8.537-8.059-9.95-39.544-4.773-45.786C552.75,269.378,570.3,270.167,576.818,281.072Z" transform="translate(-0.204 -58.278)" fill="#eb9481"/>
    <path id="Path_1565" data-name="Path 1565" d="M551.581,289.27s.147,0,.147.128c0,1.634.4,3.488,1.836,3.929h0C551.819,293.272,551.379,290.812,551.581,289.27Z" transform="translate(7.703 -44.042)" fill="#263238"/>
    <path id="Path_1566" data-name="Path 1566" d="M552.917,288.3c2.607-.385,3.158,4.847.753,5.2S550.733,288.611,552.917,288.3Z" transform="translate(7.706 -44.87)" fill="#263238"/>
    <path id="Path_1567" data-name="Path 1567" d="M547.224,289.82s-.11.092-.11.165c.22,1.6.22,3.488-1.193,4.186v.092C547.7,293.822,547.7,291.307,547.224,289.82Z" transform="translate(3.009 -43.582)" fill="#263238"/>
    <path id="Path_1568" data-name="Path 1568" d="M546.567,289c-2.625,0-2.258,5.342.165,5.25S548.77,289,546.567,289Z" transform="translate(2.032 -44.268)" fill="#263238"/>
    <path id="Path_1569" data-name="Path 1569" d="M555.487,287.29a16.827,16.827,0,0,1-2.148-.11,3.672,3.672,0,0,1-2.185-.532,1.12,1.12,0,0,1-.2-1.34,2.772,2.772,0,0,1,2.588-1.065,4.149,4.149,0,0,1,2.735,1.028,1.193,1.193,0,0,1-.789,2.019Z" transform="translate(7.101 -48.267)" fill="#263238"/>
    <path id="Path_1570" data-name="Path 1570" d="M544.929,288.77c.7-.2,1.322-.5,2.019-.771a3.415,3.415,0,0,0,1.836-1.175,1.12,1.12,0,0,0-.22-1.34,2.772,2.772,0,0,0-2.772-.22A4.02,4.02,0,0,0,543.5,287.1a1.193,1.193,0,0,0,1.432,1.671Z" transform="translate(0.879 -47.617)" fill="#263238"/>
    <path id="Path_1571" data-name="Path 1571" d="M555.333,297.314c-.349.422-.679.991-1.267,1.1a4.186,4.186,0,0,1-1.836-.22v.092a2.24,2.24,0,0,0,2.148.661,1.707,1.707,0,0,0,1.12-1.579A.1.1,0,0,0,555.333,297.314Z" transform="translate(8.284 -37.344)" fill="#263238"/>
    <path id="Path_1572" data-name="Path 1572" d="M557.129,302.387a5.508,5.508,0,0,1-3.433,2.846,7.087,7.087,0,0,1-1.964.312h-.753a.4.4,0,0,1-.349-.331h0a.521.521,0,0,1,0-.165h0v-.129c-.165-1.248-.257-3.158-.257-3.158-.422.275-2.644,1.579-2.68.918a84,84,0,0,1,.349-16.908c0-.184.312-.184.312,0,.441,5.214,0,10.464.349,15.7a9.637,9.637,0,0,1,2.515-1.065c.183,0,0,3.672.22,4.241a7.637,7.637,0,0,0,5.508-2.387C557.056,302.148,557.2,302.24,557.129,302.387Z" transform="translate(4.266 -47.08)" fill="#263238"/>
    <path id="Path_1573" data-name="Path 1573" d="M550.13,297.143a6.5,6.5,0,0,0,2.845,1.836,2.882,2.882,0,0,0,1.836,0c1.248-.477,1.157-1.671.808-2.662a7.089,7.089,0,0,0-.734-1.487A8.592,8.592,0,0,1,550.13,297.143Z" transform="translate(6.528 -39.395)" fill="#263238"/>
    <path id="Path_1574" data-name="Path 1574" d="M551.68,298.212a2.881,2.881,0,0,0,1.836,0c1.248-.477,1.157-1.671.808-2.662a3.047,3.047,0,0,0-2.643,2.662Z" transform="translate(7.824 -38.793)" fill="#ff98b9"/>
    <path id="Path_1575" data-name="Path 1575" d="M585.175,302.613c-5.967,1.322-9.583-9.179-9.583-9.179s-10.63.643-13.861-6.738c0,0-8.316,8.408-16.523,7.343s-8.61-10.06-8.188-12.1,5.508.441,5.508.441-.624-5.012.569-5.8,3.286,1.836,3.286,1.836a64.954,64.954,0,0,1,18.1-7.343c9-1.836,15.458,6.242,15.458,6.242s5.012,0,7.343,2.937S588.975,301.769,585.175,302.613Z" transform="translate(-4.522 -59.478)" fill="#263238"/>
    <path id="Path_1576" data-name="Path 1576" d="M550.32,278.6a13.085,13.085,0,0,0,1.964,4.369,8.481,8.481,0,0,0,3.672,2.864,12.631,12.631,0,0,0,4.626.771c.789,0,1.6-.128,2.405-.2l2.4-.422c-.771.294-1.542.532-2.332.808a12.143,12.143,0,0,1-2.442.422,11.271,11.271,0,0,1-4.975-.643,8.17,8.17,0,0,1-3.8-3.268A9.874,9.874,0,0,1,550.32,278.6Z" transform="translate(6.687 -52.96)" fill="#263238"/>
    <path id="Path_1577" data-name="Path 1577" d="M572.672,278.991a15.2,15.2,0,0,0-5.03-5.93,12.172,12.172,0,0,0-7.344-2.038,17.338,17.338,0,0,0-1.946.147l-1.836.4c-1.267.33-2.478.826-3.672,1.267a25.326,25.326,0,0,0-3.543,1.744c-1.138.643-2.276,1.359-3.451,2.019,1.065-.808,2.166-1.56,3.249-2.35a36.142,36.142,0,0,1,3.488-1.964,20.507,20.507,0,0,1,7.784-2.056,12.373,12.373,0,0,1,7.692,2.331A13.6,13.6,0,0,1,572.672,278.991Z" transform="translate(2.951 -59.96)" fill="#263238"/>
    <path id="Path_1578" data-name="Path 1578" d="M560.87,291.5s3.543-8.684,7.343-7.582,2.368,12.851-1.3,15.256a4.167,4.167,0,0,1-5.93-.955Z" transform="translate(15.505 -48.599)" fill="#eb9481"/>
    <path id="Path_1579" data-name="Path 1579" d="M566.768,285.66a10.5,10.5,0,0,0-3.837,7.637,2.295,2.295,0,0,1,3.213-1.377v.165a2.57,2.57,0,0,0-2.552,1.505,12.975,12.975,0,0,0-.808,2.515c0,.275-.551.257-.514,0h0C561.371,292.508,563,286.89,566.768,285.66Z" transform="translate(16.473 -47.059)" fill="#263238"/>
    <path id="Path_1580" data-name="Path 1580" d="M578.591,306.97a110.153,110.153,0,0,1-7.343,9.6,17.77,17.77,0,0,1-9.436,6.058c-3.672.661-7.343.22-9.179-4.131a27.135,27.135,0,0,1-1.3-11.749.147.147,0,1,0-.276,0c-.312,5.948-.4,15.091,5.1,16.651,6.168,1.744,11.749-1.836,15.568-6.315a55.067,55.067,0,0,0,6.94-10.024Z" transform="translate(7.202 -29.597)" fill="#263238"/>
    <rect id="Rectangle_402" data-name="Rectangle 402" width="105.744" height="4.736" transform="translate(491.082 413.153)" fill="#c7c7c7"/>
    <path id="Path_1581" data-name="Path 1581" d="M540.777,320.78l3.617,4.736H457.65V320.78Z" transform="translate(33.432 92.373)" fill="#a6a6a6"/>
    <path id="Path_1582" data-name="Path 1582" d="M551.288,355.231H448.242l-8.592-70H542.714Z" transform="translate(18.387 62.658)" fill="#c7c7c7"/>
    <g id="Group_26" data-name="Group 26" transform="matrix(0.988, -0.034, 0.04, 0.999, 495.785, 367.749)">
      <g id="LogoCyberSoft" transform="translate(5.56 -5.274) scale(0.956 1)" clip-path="url(#clip-path)">
        <g id="LogoCyberSoft-2" data-name="LogoCyberSoft" transform="translate(-3.962 -1.518)">
          <g id="Group_5" data-name="Group 5" transform="translate(0 5.314)">
            <path id="Path_254" data-name="Path 254" d="M4.92,1.856,16.979,0,11.773,10.95,0,12.534Z" transform="matrix(0.799, 0.602, -0.602, 0.799, 11.377, 0)" fill="url(#linear-gradient)"/>
            <path id="Path_256" data-name="Path 256" d="M0,1.586,11.658,0,16.3,6.43l-11.44,1.6Z" transform="matrix(0.799, 0.602, -0.602, 0.799, 4.836, 8.776)" fill="url(#linear-gradient-2)"/>
            <path id="Path_257" data-name="Path 257" d="M10.73,0l.123,7.932L.28,13.885,0,5.854Z" transform="matrix(-0.999, -0.035, 0.035, -0.999, 24.69, 24.136)" fill="url(#radial-gradient)"/>
          </g>
          <g id="Group_6" data-name="Group 6" transform="translate(2.249 0)">
            <path id="Path_254-2" data-name="Path 254" d="M4.92,1.856,16.979,0,11.773,10.95,0,12.534Z" transform="matrix(0.799, 0.602, -0.602, 0.799, 9.128, 0)" fill="url(#linear-gradient-3)"/>
            <path id="Path_256-2" data-name="Path 256" d="M0,1.612,11.829,0l1.858,2.466L1.963,4.218,0,1.612Z" transform="matrix(0.799, 0.602, -0.602, 0.799, 2.539, 8.707)" fill="url(#linear-gradient-4)"/>
            <path id="Path_257-2" data-name="Path 257" d="M10.549,0l.111,3.168L.116,9.131,0,5.821Z" transform="matrix(-0.999, -0.035, 0.035, -0.999, 22.513, 19.322)" fill="url(#linear-gradient-5)"/>
          </g>
        </g>
      </g>
      <text id="Cybersoft_Acedemy" data-name="Cybersoft Acedemy" transform="matrix(0.961, 0.034, -0.035, 0.999, -10.947, 29.291)" fill="#f5f5f5" font-size="6" font-family="Prototype" opacity="0.65"><tspan x="0" y="0">Cybersoft Acedemy</tspan></text>
    </g>
  </g>
</svg>
