<svg xmlns="http://www.w3.org/2000/svg" xmlns:xlink="http://www.w3.org/1999/xlink" width="746.833" height="629.303" viewBox="0 0 746.833 629.303">
  <defs>
    <clipPath id="clip-path">
      <rect x="-21" y="-203" width="746.833" height="629.303" fill="none"/>
    </clipPath>
    <clipPath id="clip-path-2">
      <path id="Path_117" data-name="Path 117" d="M342.763,349.776c-1.863,5.687-1.863,6.74-1.863,5.687V72.43H708.975V349.691Z" transform="translate(-340.9 -72.43)" fill="none"/>
    </clipPath>
    <clipPath id="clip-path-3">
      <rect id="Rectangle_3" data-name="Rectangle 3" width="12.647" height="16.606" transform="translate(0 0)" fill="none"/>
    </clipPath>
    <linearGradient id="linear-gradient" x1="0.5" x2="0.938" y2="0.162" gradientUnits="objectBoundingBox">
      <stop offset="0" stop-color="#745f67"/>
      <stop offset="1" stop-color="#47232f"/>
    </linearGradient>
    <linearGradient id="linear-gradient-2" x1="-0.005" y1="0.148" x2="0.763" y2="0.971" gradientUnits="objectBoundingBox">
      <stop offset="0" stop-color="#fef388"/>
      <stop offset="0.27" stop-color="#cca962"/>
      <stop offset="0.609" stop-color="#936440"/>
      <stop offset="1" stop-color="#3b0f09"/>
    </linearGradient>
    <radialGradient id="radial-gradient" cx="0.105" cy="0.906" r="1.098" gradientTransform="matrix(0.029, -1, 1.283, 0.038, -1.06, 0.977)" gradientUnits="objectBoundingBox">
      <stop offset="0" stop-color="#562522"/>
      <stop offset="0.51" stop-color="#5c2b28"/>
      <stop offset="0.824" stop-color="#976260"/>
      <stop offset="1" stop-color="#a16c6a"/>
    </radialGradient>
    <linearGradient id="linear-gradient-3" x1="0.462" y1="0.431" x2="0.612" y2="0.701" gradientUnits="objectBoundingBox">
      <stop offset="0" stop-color="#d0a733"/>
      <stop offset="1" stop-color="#f8e87d"/>
    </linearGradient>
    <linearGradient id="linear-gradient-4" x1="0.5" y1="0" x2="0.5" y2="1" xlink:href="#linear-gradient-3"/>
    <linearGradient id="linear-gradient-5" x1="0.537" y1="0.181" x2="0.132" y2="0.669" xlink:href="#linear-gradient-3"/>
  </defs>
  <g id="Displaysvg" transform="translate(21 203)" clip-path="url(#clip-path)" style="isolation: isolate">
    <g id="Displaysvg-2" data-name="Displaysvg" transform="translate(-375.748 -449.934)">
      <g id="_3794012" data-name="3794012" transform="translate(375.748 288.237)">
        <g id="OBJECTS" transform="translate(0 0)">
          <g id="Group_6" data-name="Group 6" transform="translate(0 2.081)" opacity="0.8">
            <g id="Group_3" data-name="Group 3" transform="translate(0 67.643)" opacity="0.5">
              <path id="Path_1" data-name="Path 1" d="M436.387,204.727c-28.437-5.2-55.334-18.943-78.216-39.954-34.544-31.437-106.839-84.927-175.809-58.3C87.245,143.232,86.832,249.544,111.6,307.3S312.092,534.17,539.877,507.269C743.7,483.2,783.417,207.557,674.75,157.678,580.4,114.411,548.25,224.647,436.387,204.727Z" transform="translate(-97.799 -99.274)" fill="#562522"/>
            </g>
            <g id="Group_4" data-name="Group 4" transform="translate(620.585 120.829)" opacity="0.5">
              <ellipse id="Ellipse_1" data-name="Ellipse 1" cx="10.65" cy="11.474" rx="10.65" ry="11.474" fill="#562522"/>
            </g>
            <path id="Path_2" data-name="Path 2" d="M146.13,91.646a6.924,6.924,0,0,1,7.735,4.266c1.962,5.318-3.185,11.275-10.1,8.531h0C137.8,100.163,140.386,92.713,146.13,91.646Z" transform="translate(-79.842 -34.9)" fill="#562522"/>
            <circle id="Ellipse_2" data-name="Ellipse 2" cx="13.877" cy="13.877" r="13.877" transform="translate(586.284 41.268) rotate(-80.75)" fill="#562522"/>
            <g id="Group_5" data-name="Group 5" transform="translate(80.797 35.562)" opacity="0.8">
              <path id="Path_3" data-name="Path 3" d="M182.174,86.961a14.005,14.005,0,1,1-6.626-8.451A14.034,14.034,0,0,1,182.174,86.961Z" transform="translate(-154.624 -76.711)" fill="#562522"/>
            </g>
            <path id="Path_4" data-name="Path 4" d="M565.551,377.87a6.9,6.9,0,0,1,8.4,2.844c2.844,4.863-1.024,11.673-8.318,10.337h0C558.939,387.781,560.105,379.975,565.551,377.87Z" transform="translate(-33.121 85.696)" fill="#562522"/>
            <path id="Path_5" data-name="Path 5" d="M599.747,366.971a14.019,14.019,0,1,1-18.8-6.327,14.019,14.019,0,0,1,18.8,6.327Z" transform="translate(-28.003 78.012)" fill="#562522"/>
            <circle id="Ellipse_3" data-name="Ellipse 3" cx="8.545" cy="8.545" r="8.545" transform="translate(567.45)" fill="#562522"/>
          </g>
          <g id="Group_7" data-name="Group 7" transform="translate(14.434)" opacity="0.8">
            <path id="Path_6" data-name="Path 6" d="M681.512,215.56c0-76.282-50.15-159.873-112.546-164.935-1.122-.1-2.245-.171-3.367-.242-89.468-5.275-96.282,132.943-177.22,148.541s-142.761-63.116-239.615-11.773C110.6,207.419,84.652,268.721,89.184,332.2c5.759,80.671,61.287,164.772,204.666,170.6C498.333,511.12,681.546,443.156,681.512,215.56Z" transform="translate(-88.67 -50.237)" fill="#562522"/>
          </g>
          <ellipse id="Ellipse_4" data-name="Ellipse 4" cx="249.833" cy="12.882" rx="249.833" ry="12.882" transform="translate(154.331 519.237)" fill="#562522"/>
          <path id="Path_7" data-name="Path 7" d="M603.268,399.11H568.66v36h40.48V404.968a5.844,5.844,0,0,0-5.872-5.858Z" transform="translate(-29.903 96.936)" fill="#562522"/>
          <rect id="Rectangle_10" data-name="Rectangle 10" width="120.175" height="77.15" transform="translate(353.561 418.896)" fill="#562522"/>
          <path id="Path_8" data-name="Path 8" d="M377.016,399.11H663.277A22.636,22.636,0,0,1,685.913,421.7v13.365H354.38V421.7A22.636,22.636,0,0,1,377.016,399.11Z" transform="translate(-120.297 96.936)" fill="#fff"/>
          <rect id="Rectangle_11" data-name="Rectangle 11" width="120.175" height="77.15" transform="translate(338.831 418.896)" fill="#fff"/>
          <path id="Path_9" data-name="Path 9" d="M428.05,368.538l120.175-9.626.014-14.062H428.206Z" transform="translate(-89.219 74.047)" fill="#ced3e6"/>
          <rect id="Rectangle_12" data-name="Rectangle 12" width="545.223" height="334.661" rx="11.29" transform="translate(127.074 84.25)" fill="#562522"/>
          <path id="Path_10" data-name="Path 10" d="M677.307,125.543v280.1H627.67V109.49h33.584A16.067,16.067,0,0,1,677.307,125.543Z" transform="translate(-5.01 -25.24)" fill="#585859"/>
          <path id="Path_11" data-name="Path 11" d="M803.925,125.543V428.1a16.038,16.038,0,0,1-16.053,16.053h-492.7A16.038,16.038,0,0,1,279.12,428.1V125.543a16.053,16.053,0,0,1,16.053-16.053h494.9l.4.071h.583a16.067,16.067,0,0,1,12.867,15.982Z" transform="translate(-152.046 -25.24)" fill="#fff"/>
          <path id="Path_12" data-name="Path 12" d="M791.087,109.741H790.5l-.4-.071H295.2a16.053,16.053,0,0,0-16.053,16.053v280.1H803.955v-280.1A16.067,16.067,0,0,0,791.087,109.741ZM783.1,377.66a4.351,4.351,0,0,1-4.365,4.365H304.288a4.351,4.351,0,0,1-4.365-4.365V134.6a4.351,4.351,0,0,1,4.365-4.365H778.732A4.351,4.351,0,0,1,783.1,134.6Z" transform="translate(-152.033 -25.164)" fill="#39393b"/>
          <rect id="Rectangle_13" data-name="Rectangle 13" width="483.173" height="251.796" rx="3.07" transform="translate(147.89 105.066)" fill="#ced3e6"/>
          <path id="Path_13" data-name="Path 13" d="M776.933,128.5V151.43H293.76V128.5a4.351,4.351,0,0,1,4.365-4.365H772.568a4.351,4.351,0,0,1,4.365,4.365Z" transform="translate(-145.87 -19.064)" fill="#fff"/>
          <path id="Path_14" data-name="Path 14" d="M609.462,134.567a3.711,3.711,0,1,1-3.711-3.7A3.711,3.711,0,0,1,609.462,134.567Z" transform="translate(-15.822 -16.221)" fill="#df615c"/>
          <circle id="Ellipse_5" data-name="Ellipse 5" cx="3.711" cy="3.711" r="3.711" transform="translate(598.247 114.635)" fill="#5392f3"/>
          <rect id="Rectangle_14" data-name="Rectangle 14" width="384.383" height="7.849" rx="2.43" transform="translate(190.076 114.421)" fill="#d2dcec"/>
          <path id="Path_15" data-name="Path 15" d="M308.262,134.759v3.6a.668.668,0,0,1-1.01.583l-3.142-1.82-3.142-1.82a.668.668,0,0,1,0-1.152l3.142-1.82,3.142-1.82a.668.668,0,0,1,1.01.583Z" transform="translate(-142.968 -16.414)"/>
          <path id="Path_16" data-name="Path 16" d="M309.92,134.757v3.6a.668.668,0,0,0,1,.583l3.142-1.82,3.142-1.82a.654.654,0,0,0,0-1.152l-3.142-1.82-3.142-1.82a.668.668,0,0,0-1,.583Z" transform="translate(-139.053 -16.411)"/>
          <rect id="Rectangle_15" data-name="Rectangle 15" width="8.915" height="2.09" rx="0.65" transform="translate(609.848 120.625) rotate(-45)" fill="#39393b"/>
          <rect id="Rectangle_16" data-name="Rectangle 16" width="2.09" height="8.915" rx="0.65" transform="translate(609.848 115.819) rotate(-45)" fill="#39393b"/>
          <rect id="Rectangle_17" data-name="Rectangle 17" width="372.653" height="209.183" rx="6.42" transform="translate(202.503 137.91)" fill="#fff"/>
          <path id="Path_17" data-name="Path 17" d="M432.9,223.846H351.245a2.275,2.275,0,0,1-2.275-2.261h0a2.275,2.275,0,0,1,2.275-2.275H432.9a2.275,2.275,0,0,1,2.275,2.275h0a2.275,2.275,0,0,1-2.275,2.261Z" transform="translate(-122.579 21.087)" fill="#ced3e6"/>
          <path id="Path_18" data-name="Path 18" d="M432.9,210.35H351.245a2.275,2.275,0,0,1-2.275-2.275h0a2.275,2.275,0,0,1,2.275-2.275H432.9a2.275,2.275,0,0,1,2.275,2.275h0a2.275,2.275,0,0,1-2.275,2.275Z" transform="translate(-122.579 15.388)" fill="#ced3e6"/>
          <path id="Path_19" data-name="Path 19" d="M432.9,237.346H351.245a2.275,2.275,0,0,1-2.275-2.275h0a2.275,2.275,0,0,1,2.275-2.261H432.9a2.275,2.275,0,0,1,2.275,2.261h0A2.275,2.275,0,0,1,432.9,237.346Z" transform="translate(-122.579 26.782)" fill="#ced3e6"/>
          <path id="Path_20" data-name="Path 20" d="M609.5,223.846H527.8a2.261,2.261,0,0,1-2.261-2.261h0a2.261,2.261,0,0,1,2.261-2.275h81.7a2.261,2.261,0,0,1,2.275,2.275h0a2.261,2.261,0,0,1-2.275,2.261Z" transform="translate(-48.093 21.087)" fill="#ced3e6"/>
          <path id="Path_21" data-name="Path 21" d="M609.5,210.35H527.8a2.275,2.275,0,0,1-2.261-2.275h0A2.275,2.275,0,0,1,527.8,205.8h81.7a2.275,2.275,0,0,1,2.275,2.275h0a2.275,2.275,0,0,1-2.275,2.275Z" transform="translate(-48.093 15.388)" fill="#ced3e6"/>
          <path id="Path_22" data-name="Path 22" d="M609.5,237.346H527.8a2.275,2.275,0,0,1-2.261-2.275h0a2.261,2.261,0,0,1,2.261-2.261h81.7a2.261,2.261,0,0,1,2.275,2.261h0A2.275,2.275,0,0,1,609.5,237.346Z" transform="translate(-48.093 26.782)" fill="#ced3e6"/>
          <path id="Path_23" data-name="Path 23" d="M332.17,271.5H704.823v30.57A1.934,1.934,0,0,1,702.889,304H334.1a1.934,1.934,0,0,1-1.934-1.934Z" transform="translate(-129.667 43.104)" fill="#39393b"/>
          <path id="Path_24" data-name="Path 24" d="M569.25,281.569v-2.844h3.441V276.28h-4.678a1.223,1.223,0,0,0-1.223,1.223v4.067Z" transform="translate(-30.692 45.12)" fill="#fff"/>
          <path id="Path_25" data-name="Path 25" d="M569.25,283.41h-2.46V287.6a1.237,1.237,0,0,0,1.223,1.223h4.678v-2.446H569.25Z" transform="translate(-30.692 48.128)" fill="#fff"/>
          <path id="Path_26" data-name="Path 26" d="M576.966,281.544h2.46v-3.981a1.223,1.223,0,0,0-1.223-1.223H573.71v2.36h3.256Z" transform="translate(-27.773 45.146)" fill="#fff"/>
          <path id="Path_27" data-name="Path 27" d="M576.966,283.41v2.972H573.71v2.446H578.2a1.237,1.237,0,0,0,1.223-1.223V283.41Z" transform="translate(-27.773 48.128)" fill="#fff"/>
          <path id="Path_28" data-name="Path 28" d="M347.44,284.425V276.69l6.7,3.867,6.711,3.867-6.711,3.882-6.7,3.867Z" transform="translate(-123.225 45.293)" fill="#fff"/>
          <rect id="Rectangle_18" data-name="Rectangle 18" width="4.152" height="14.091" rx="0.84" transform="translate(258.411 322.765)" fill="#fff"/>
          <rect id="Rectangle_19" data-name="Rectangle 19" width="4.152" height="14.091" rx="0.84" transform="translate(267.098 322.765)" fill="#fff"/>
          <rect id="Rectangle_20" data-name="Rectangle 20" width="372.653" height="6.114" transform="translate(202.503 308.49)" fill="#ced3e6"/>
          <rect id="Rectangle_21" data-name="Rectangle 21" width="191.211" height="6.114" transform="translate(202.503 308.49)" fill="#d0a733"/>
          <path id="Path_29" data-name="Path 29" d="M552.35,250.49h4.266v9.256H562.3v3.27h-9.839Z" transform="translate(-36.783 34.241)" fill="#39393b"/>
          <path id="Path_30" data-name="Path 30" d="M560.08,250.49h4.266v12.47H560.08Z" transform="translate(-33.522 34.241)" fill="#39393b"/>
          <path id="Path_31" data-name="Path 31" d="M578.184,250.49l-5.261,12.47h-4.138l-5.275-12.47h4.521l2.986,7.28,3.043-7.28Z" transform="translate(-32.076 34.241)" fill="#39393b"/>
          <path id="Path_32" data-name="Path 32" d="M584.485,259.759v3.171H574.12V250.46h10.138v3.171h-6.043v1.422h5.275v3.029h-5.275v1.678Z" transform="translate(-27.6 34.228)" fill="#39393b"/>
          <path id="Path_33" data-name="Path 33" d="M550.526,256.323a5.133,5.133,0,1,1-5.119-5.133A5.133,5.133,0,0,1,550.526,256.323Z" transform="translate(-41.884 34.536)" fill="#df615c"/>
          <path id="Path_34" data-name="Path 34" d="M368.078,260.383c0,2.844-2.7,4.692-6.569,4.692s-6.569-1.848-6.569-4.692a3.825,3.825,0,0,1,1.962-3.37,3.569,3.569,0,0,1-1.422-2.844c0-2.659,2.488-4.379,6.043-4.379s6.057,1.72,6.057,4.379a3.583,3.583,0,0,1-1.422,2.844A3.825,3.825,0,0,1,368.078,260.383Zm-4.962-.171a1.607,1.607,0,1,0-1.607,1.536,1.422,1.422,0,0,0,1.607-1.536Zm-2.773-5.858a1.18,1.18,0,1,0,.546-1.129,1.18,1.18,0,0,0-.546,1.129Z" transform="translate(-120.061 33.945)" fill="#39393b"/>
          <path id="Path_35" data-name="Path 35" d="M364.83,257.424c0-4.849,2.758-7.664,6.64-7.664s6.626,2.844,6.626,7.664-2.758,7.664-6.626,7.664S364.83,262.286,364.83,257.424Zm8.3,0c0-2.844-.711-3.711-1.664-3.711s-1.678.882-1.678,3.711.711,3.711,1.678,3.711S373.134,260.253,373.134,257.424Z" transform="translate(-115.889 33.933)" fill="#39393b"/>
          <path id="Path_36" data-name="Path 36" d="M351.575,253.6a4.493,4.493,0,1,1-1.316-3.191A4.507,4.507,0,0,1,351.575,253.6Z" transform="translate(-125.284 33.65)" fill="#df615c"/>
          <path id="Path_37" data-name="Path 37" d="M356.645,261.857H339.81a8.716,8.716,0,0,1,8.289-5.346h.256a8.7,8.7,0,0,1,8.289,5.346Z" transform="translate(-126.444 36.779)" fill="#df615c"/>
          <g id="Group_8" data-name="Group 8" transform="translate(214.916 31.556)" clip-path="url(#clip-path-2)">
            <path id="Path_38" data-name="Path 38" d="M394.32,189.119s-2.247,13.749-12.37,16.209c-8.161,1.976-15.868-5.872-18.484-8.958-.64-.739-.981-1.209-.981-1.209a12.793,12.793,0,0,1-1.521,0c-2.133,0-5.915-.469-7.394-3.085-2.119-3.739,5.574-6.285,5.574-6.285s-3.938-3.526-2.957-6.086,6.256-3.043,6.256-3.043-5.687-3.7-3.782-6.91c2.844-4.849,8.759.483,9.228.768-.37-.427-7.749-8.062-3.711-9.427,3.526-1.194,9.313,2.758,13.124,6.7.611.611.953.981.953.981l.626-.441c1.905-1.28,7.763-4.692,11.489-1.578C394.832,170.578,394.32,189.119,394.32,189.119Z" transform="translate(-335.711 -35.118)" fill="#ea9b7a"/>
            <path id="Path_39" data-name="Path 39" d="M377.2,191.823a.868.868,0,0,1-.81,0,.825.825,0,0,1-.213-1.123,7.181,7.181,0,0,0,1.223-6.014c-1.337-5.133-8.218-8.7-8.289-8.73a.81.81,0,0,1,.739-1.422c.313.156,7.593,3.939,9.1,9.768a8.73,8.73,0,0,1-1.422,7.308A.98.98,0,0,1,377.2,191.823Z" transform="translate(-329.141 -29.376)" fill="#d96c63"/>
            <path id="Path_40" data-name="Path 40" d="M374.451,173.848a2.488,2.488,0,0,1-1.137,2.19,2.59,2.59,0,0,1-.526.256,5.089,5.089,0,0,1-1.422.327,6.863,6.863,0,0,1,1.024.839,2.843,2.843,0,0,1,.626.953,2.09,2.09,0,0,1-.355,2.019c-1.294,1.706-4.266,2.417-6.7,2.7a8.531,8.531,0,0,1,3.754,3.8,2.517,2.517,0,0,1-.313,2.446,4.821,4.821,0,0,1-1.749,1.28,26.446,26.446,0,0,1-6.512,1.806c-.64-.739-.981-1.209-.981-1.209a12.793,12.793,0,0,1-1.521,0,.711.711,0,0,1,.412-.171c2.972-.355,8.062-1.422,9.071-2.716a.924.924,0,0,0,.071-.953c-.54-1.536-3.427-3.569-5.929-4.18a.81.81,0,0,1-.611-.882.8.8,0,0,1,.81-.7c1.991,0,7.45-.3,8.9-2.247.213-.284.156-.427.128-.512a2.7,2.7,0,0,0-1.223-1.109A19.692,19.692,0,0,0,365.522,176a.8.8,0,0,1-.412-.242.807.807,0,0,1,.8-1.322c.27.071.839.213,1.564.441A18.019,18.019,0,0,0,371.1,175a3.142,3.142,0,0,0,1.422-.37.91.91,0,0,0,.4-.853,5.005,5.005,0,0,0-.967-2.417.8.8,0,0,1,.071-.91h0a.782.782,0,0,1,1.294.085A6.767,6.767,0,0,1,374.451,173.848Z" transform="translate(-333.416 -31.208)" fill="#d96c63"/>
            <path id="Path_41" data-name="Path 41" d="M368.767,180.282a21.814,21.814,0,0,1,3.754,2.758c1.152,1.095,1.863,1.635,2.645,2.36h0l-15.427-65.49a.8.8,0,0,0-1.564.313l10.593,60.059Z" transform="translate(-333.619 -52.671)" fill="#39393b"/>
            <path id="Path_42" data-name="Path 42" d="M378.1,193.826c-5.36,3.441-6.853.9-6.853.9l-2.716-15.384a2.36,2.36,0,0,0,.583-2.289,2.842,2.842,0,0,0-.626-.953,5.909,5.909,0,0,0-.626-.54v-.341a4.549,4.549,0,0,0,1.095-.284,2.586,2.586,0,0,0,.526-.256,2.474,2.474,0,0,0,1-1.294,4.024,4.024,0,0,0,2.4,1.066,4.738,4.738,0,0,0,.782,0Z" transform="translate(-329.527 -29.844)" fill="#39393b"/>
            <path id="Path_43" data-name="Path 43" d="M382.466,173.017a27.1,27.1,0,0,1-5.275,3.526,9.043,9.043,0,0,1-4.649,1.123,4,4,0,0,1-2.844-1.649c-2.545-3.412-.37-7.877,1.152-10.237.611.611.953.981.953.981l.626-.441c-1.308,1.948-3.512,5.972-1.422,8.744a2.4,2.4,0,0,0,1.792,1c2.844.3,7.237-2.972,8.688-4.266a.8.8,0,0,1,1.137,0,.825.825,0,0,1-.156,1.223Z" transform="translate(-329.246 -33.05)" fill="#d96c63"/>
            <path id="Path_44" data-name="Path 44" d="M465.636,159.69h0v.284l-.1.469-.213,1.038c-.071.355-.156.725-.242,1.095s-.156.739-.242,1.109c-.341,1.493-.725,3.014-1.123,4.536-.839,3.043-1.72,6.1-2.744,9.114s-2.1,5.986-3.327,8.915c-.611,1.422-1.223,2.915-1.891,4.337s-1.322,2.844-1.991,4.266c-1.422,2.844-2.844,5.545-4.479,8.2-.37.682-.8,1.322-1.194,1.991s-.8,1.322-1.237,1.962c-.853,1.265-1.678,2.574-2.574,3.811-1.735,2.517-3.654,4.877-5.559,7.237a75.448,75.448,0,0,1-6.142,6.626l-1.692,1.564-1.664,1.507-.825.754-.213.185.1-.1.156-.114a3.709,3.709,0,0,1,.611-.441,10.11,10.11,0,0,1,3-1.422,3.986,3.986,0,0,0,.711-.171h2.7c.228.085-.227,0-.924-.3a26.388,26.388,0,0,1-2.687-1.422c-1.024-.611-2.133-1.351-3.27-2.161a86.356,86.356,0,0,1-7.109-5.687c-2.417-2.133-4.806-4.266-7.209-6.583s-4.806-4.678-7.18-7.109-4.735-4.905-7.109-7.436c-1.18-1.251-2.346-2.5-3.484-3.782l-3.356-3.668L367.23,207.734l.853,1.308.825,1.209,1.635,2.374c1.109,1.564,2.218,3.114,3.341,4.649,2.275,3.057,4.607,6.086,7.038,9.071s4.934,5.929,7.55,8.83c1.322,1.422,2.659,2.844,4.038,4.337s2.844,2.844,4.266,4.266a119.442,119.442,0,0,0,9.541,8.332c1.749,1.351,3.6,2.7,5.687,4.024a58.1,58.1,0,0,0,6.825,3.839,41.634,41.634,0,0,0,9.327,3.185l.7.142.768.128,1.536.213c.54,0,1.109.1,1.664.128h3.569a18.388,18.388,0,0,0,1.948-.185l.967-.142,1.024-.2c.682-.142,1.351-.284,2.033-.483a27.939,27.939,0,0,0,7.891-3.683c.569-.4,1.137-.825,1.692-1.251l.412-.341.37-.3.3-.27,1.194-1.052,2.375-2.133c.768-.711,1.521-1.422,2.275-2.2a126.531,126.531,0,0,0,8.631-9.285c2.659-3.242,5.232-6.569,7.578-10.024s4.536-7,6.583-10.593l1.422-2.716c.483-.91.938-1.834,1.422-2.758s.938-1.834,1.422-2.844l1.308-2.844a151.947,151.947,0,0,0,8.218-23.006c1.052-3.924,1.976-7.877,2.7-11.9.355-2.019.7-4.052.967-6.114.071-.526.128-1.038.185-1.564s.128-1.052.185-1.607.114-1.081.156-1.635l.156-1.976Z" transform="translate(-329.793 -35.619)" fill="#2b3647"/>
            <path id="Path_45" data-name="Path 45" d="M379.232,191.449a2.2,2.2,0,0,0,2.4,2.033,2.232,2.232,0,1,0-2.4-2.033Z" transform="translate(-324.733 -23.244)" fill="#ffe226"/>
            <path id="Path_46" data-name="Path 46" d="M412.187,223.148a.967.967,0,0,0,.924-.725,71.632,71.632,0,0,0,1.55-16.55.953.953,0,0,0-1.905,0,71.276,71.276,0,0,1-1.507,16.024.967.967,0,0,0,.7,1.166Z" transform="translate(-311.235 -16.539)" fill="#354358"/>
            <path id="Path_47" data-name="Path 47" d="M417.837,215.848a.938.938,0,0,0,.427-.1.953.953,0,0,0,.427-1.28,76.033,76.033,0,0,0-4.678-8.261.953.953,0,1,0-1.493,1.18,79.406,79.406,0,0,1,4.465,7.934.938.938,0,0,0,.853.526Z" transform="translate(-310.786 -16.164)" fill="#354358"/>
            <path id="Path_48" data-name="Path 48" d="M374.7,210.693a.924.924,0,0,0,.682-.284c7.991-8.247,26.034-21.257,26.2-21.328a.938.938,0,0,0,.228-1.322.967.967,0,0,0-1.337-.227c-.185.142-18.356,13.252-26.461,21.626a.953.953,0,0,0,0,1.422A.981.981,0,0,0,374.7,210.693Z" transform="translate(-327.065 -23.948)" fill="#ffe226"/>
            <path id="Path_49" data-name="Path 49" d="M382.976,202.822a.938.938,0,0,0,.611-.228.953.953,0,0,0,.114-1.337l-9.64-11.574a.953.953,0,0,0-1.351-.128.967.967,0,0,0-.114,1.351l9.64,11.574a.981.981,0,0,0,.739.341Z" transform="translate(-327.623 -23.114)" fill="#ffe226"/>
            <path id="Path_50" data-name="Path 50" d="M467.292,386.786l12.939-76.325,1.052-6.242-37.224-13.138-2.119-.754-8.773-3.128s-.711,3.256-1.806,8.872c-.142.682-.27,1.422-.427,2.133-3.484,18.058-10.038,55.267-11.816,88.581Z" transform="translate(-307.903 18.171)" fill="#39393b"/>
            <path id="Path_51" data-name="Path 51" d="M449,380.571c5.6-30.442,12.8-74.917,13.209-77.505a1.01,1.01,0,0,0-1.991-.327c-.1.64-7.564,46.822-13.266,77.832Z" transform="translate(-296.163 24.387)" fill="#585859"/>
            <path id="Path_52" data-name="Path 52" d="M538.554,276.181s2.844,26.589-3.242,41.39-84.344,7.18-104.293-6.142c-8.19-5.46,9.242-55.879,9.242-55.879Z" transform="translate(-303.806 4.819)" fill="#39393b"/>
            <path id="Path_53" data-name="Path 53" d="M427.4,304.127a23.7,23.7,0,0,0,3.455-.9A23.22,23.22,0,0,0,436,300.743a27.64,27.64,0,0,0,4.607-3.754c8.631-8.716,11.176-21.868,11.289-22.522a1.01,1.01,0,0,0-1.976-.37c0,.156-2.673,13.849-11.375,22.138a23.862,23.862,0,0,1-3.583,2.844,21.685,21.685,0,0,1-4.92,2.346,22.244,22.244,0,0,1-2.175.583A12.846,12.846,0,0,0,427.4,304.127Z" transform="translate(-304.41 12.334)" fill="#585859"/>
            <path id="Path_54" data-name="Path 54" d="M461.37,315.779a.981.981,0,0,0,.953,1.024h0a1,1,0,0,0,1.052-.924c.185-3.626.4-7.351.626-11.076l.128-1.962c.8-12.143,1.792-24.072,2.545-32.489,0-.682.128-1.337.185-1.976.171-1.848.327-3.484.455-4.877l-1.991-.327c-.128,1.422-.284,3.043-.455,4.92,0,.626-.114,1.294-.185,1.976-.739,8.346-1.749,20.162-2.531,32.233l-.128,2C461.783,308.157,461.555,312.025,461.37,315.779Z" transform="translate(-290.08 8.034)" fill="#585859"/>
            <path id="Path_55" data-name="Path 55" d="M459.557,302.609a27.8,27.8,0,0,0,3.512,1.337,16.747,16.747,0,0,0,1.976.5,14.216,14.216,0,0,0,1.905.256,6.91,6.91,0,0,0,3.37-.526,4.1,4.1,0,0,0,2.289-3.071c.725-3.754,2.261-19.223,3.3-30.172,0-.668.128-1.337.185-1.962.171-1.763.313-3.356.441-4.706l-2-.242c-.128,1.422-.27,2.972-.441,4.749,0,.626-.128,1.28-.185,1.962-1.038,10.92-2.559,26.375-3.27,30a2.133,2.133,0,0,1-1.209,1.692,7,7,0,0,1-4.266,0,17.543,17.543,0,0,1-1.976-.54,21.111,21.111,0,0,1-2.758-1.081,1.038,1.038,0,0,0-1.422.441.967.967,0,0,0,.555,1.365Z" transform="translate(-291.125 8.392)" fill="#585859"/>
            <path id="Path_56" data-name="Path 56" d="M513.526,388.962c3.1-28.337,6.683-66.244,8.7-88.155,0-.7.128-1.422.185-2.019.9-9.683,1.422-15.8,1.422-15.8-4.792-1.991-13.508-.626-22.75,2-.668.2-1.422.384-2.019.6a276.781,276.781,0,0,0-33.925,13.252V389Z" transform="translate(-288.489 15.995)" fill="#39393b"/>
            <path id="Path_57" data-name="Path 57" d="M496.439,380.582c2.673-31.494,5.844-76.993,5.886-77.59a1,1,0,0,0-.924-1.081,1.024,1.024,0,0,0-1.081.938c0,.6-3.228,46.267-5.9,77.733Z" transform="translate(-276.137 24.376)" fill="#585859"/>
            <path id="Path_58" data-name="Path 58" d="M485.093,274.443a52.836,52.836,0,0,0,5.574,14.8A32.475,32.475,0,0,0,501,300.719a23.574,23.574,0,0,0,12.8,3.754c0-.7.128-1.422.185-2.019a21.6,21.6,0,0,1-11.929-3.427,29.987,29.987,0,0,1-9.413-10.365,51.187,51.187,0,0,1-5.588-14.574,1.011,1.011,0,0,0-1.991.355Z" transform="translate(-280.091 12.288)" fill="#585859"/>
            <path id="Path_59" data-name="Path 59" d="M428.45,323.176c21.669,20.233,72.927,31,112.426,11.759,4.337-11.844,9.1-54.116,10.38-66.742.256-2.517.455-5.033.626-7.55a332.624,332.624,0,0,0,0-37.1,14.5,14.5,0,0,0-.1-2.09c-.512-10.507-1.294-21.413-2.019-32.973-1.422-22.892-9.086-36.968-22.366-39.115a54.657,54.657,0,0,1-14.659-4.422l-1.251-.626a41.12,41.12,0,0,1-6.711-4.152H475.2a22.48,22.48,0,0,1-9.214,7.706l-1.209.583c-10.508,4.55-22.75,3.64-25.295,16.323-1.592,7.962,4.507,24.328,3.867,57.528,0,2.446-.128,4.962-.256,7.578s-.27,4.991-.469,7.621-.4,4.948-.654,7.536c-.227,2.261-.483,4.593-.768,6.981s-.626,4.948-1,7.507C438.275,273.284,432.986,305.432,428.45,323.176Z" transform="translate(-303.967 -43.854)" fill="#2b3647"/>
            <path id="Path_60" data-name="Path 60" d="M500.1,310.629h-.242a.882.882,0,0,1-.611-1.081c16.437-60.315,13.124-121.625,13.081-122.279a.91.91,0,0,1,.839-.938.881.881,0,0,1,.938.839c0,.611,3.37,62.206-13.152,122.791A.9.9,0,0,1,500.1,310.629Z" transform="translate(-274.113 -24.382)" fill="#354358"/>
            <path id="Path_61" data-name="Path 61" d="M437.354,234.756a.953.953,0,0,0,.938-.839c1.976-17.446,1.991-52.153,1.991-52.495a.953.953,0,1,0-1.905,0c0,.341,0,34.935-1.976,52.281a.953.953,0,0,0,.839,1.052Z" transform="translate(-300.615 -26.853)" fill="#354358"/>
            <path id="Path_62" data-name="Path 62" d="M465.6,265.58a2.232,2.232,0,1,0,2.033-2.417,2.232,2.232,0,0,0-2.033,2.417Z" transform="translate(-288.297 8.027)" fill="#ffe226"/>
            <path id="Path_63" data-name="Path 63" d="M465.352,273.165a2.232,2.232,0,1,0,2.033-2.4A2.232,2.232,0,0,0,465.352,273.165Z" transform="translate(-288.403 11.233)" fill="#c77e2e"/>
            <path id="Path_65" data-name="Path 65" d="M501.1,94.055c-5.517-3.583-22.892-5.375-22.892-5.375s-2.844-7.507-6.086-9.654c-7.323-4.891-8.232,5-8.232,5s-7.109-9.953-13.593-7.109,1.792,12.157,1.792,12.157-9.669-1.792-8.531,6.441,10.365,11.816,10.365,11.816a18.029,18.029,0,0,0-1.422,12.157c1.422,7.522,4.649,7.877,4.649,7.877l40.068,3.583s8.233,0,10.379-10.38-5-14.673-5-14.673S507.242,97.979,501.1,94.055Z" transform="translate(-297.633 -70.751)" fill="#39393b"/>
            <path id="Path_66" data-name="Path 66" d="M461,142.139v7.536a23.778,23.778,0,0,0,2.659,1.863c13.081,7.849,27.171-1.863,27.171-1.863V123.57l-26.276,16.351Z" transform="translate(-290.236 -50.857)" fill="#ea9b7a"/>
            <path id="Path_67" data-name="Path 67" d="M461,138.4v7.749a23.774,23.774,0,0,0,2.659,1.863C474.792,143.6,482.9,131.93,482.9,131.93l-18.342,4.465Z" transform="translate(-290.236 -47.33)" fill="#39393b"/>
            <path id="Path_68" data-name="Path 68" d="M487.113,136.55a14.873,14.873,0,0,1,11.2,11.531c-8.531,8.972-16.138,16.749-28.437,19.024V149.091a31.821,31.821,0,0,0,17.233-12.541Z" transform="translate(-286.49 -45.381)" fill="#2b3647"/>
            <path id="Path_69" data-name="Path 69" d="M464.07,138.38s-7.863,1.678-10.92,11.73c7.92,9.64,12.157,13.266,23.759,16.223V148.319S470.44,148.219,464.07,138.38Z" transform="translate(-293.547 -44.609)" fill="#2b3647"/>
            <path id="Path_70" data-name="Path 70" d="M457.71,268.621l5.09,12.3h0l2.289,5.517,6.469,15.612,3.114-6.029,1.109-2.133,2.5-4.834,1.095-2.133,2.517-4.834,1.095-2.133,2.5-4.834h0l1.109-2.133,2.36-4.536-.057-.5-.37-3.6-.825-8.176-.37-3.612-.839-8.161-.355-3.612-.839-8.161-.37-3.6-.825-8.176-.37-3.612-.825-8.161-.37-3.612-.839-8.161-.37-3.611-.825-8.161-.37-3.611-.825-8.176-.37-3.6-.853-8.446-6.256-.242-.171,1.408-.384,2.858-.853,6.484-.384,2.858-.853,6.484-.37,2.858-.853,6.484-.384,2.858-.853,6.484-.384,2.858-.853,6.484-.37,2.858-.867,6.484-.37,2.858-.853,6.484-.384,2.858-.853,6.484-.384,2.858-.853,6.484-.37,2.872-.853,6.469-.384,2.872-.853,6.484-.384,2.858Z" transform="translate(-291.624 -34.868)" fill="#d0a733"/>
            <path id="Path_71" data-name="Path 71" d="M467.26,165.318l8.033,8.019-.37-3.6-7.28-7.28Z" transform="translate(-287.595 -34.451)" fill="#585859"/>
            <path id="Path_72" data-name="Path 72" d="M466.39,171.888l10.465,10.465-.37-3.611-9.711-9.711Z" transform="translate(-287.962 -31.679)" fill="#585859"/>
            <path id="Path_73" data-name="Path 73" d="M465.53,178.458l12.882,12.9-.37-3.611L465.9,175.6Z" transform="translate(-288.325 -28.908)" fill="#585859"/>
            <path id="Path_74" data-name="Path 74" d="M464.66,185.028l15.328,15.328-.37-3.612L465.044,182.17Z" transform="translate(-288.692 -26.136)" fill="#585859"/>
            <path id="Path_75" data-name="Path 75" d="M463.79,191.6l17.759,17.759-.37-3.612L464.174,188.74Z" transform="translate(-289.059 -23.364)" fill="#585859"/>
            <path id="Path_76" data-name="Path 76" d="M462.93,198.168l20.176,20.19-.37-3.6L463.3,195.31Z" transform="translate(-289.421 -20.593)" fill="#585859"/>
            <path id="Path_77" data-name="Path 77" d="M462.06,204.738l22.607,22.622-.355-3.612L462.43,201.88Z" transform="translate(-289.788 -17.821)" fill="#585859"/>
            <path id="Path_78" data-name="Path 78" d="M461.19,211.308l25.053,25.053-.37-3.612-24.3-24.3Z" transform="translate(-290.155 -15.05)" fill="#585859"/>
            <path id="Path_79" data-name="Path 79" d="M460.32,217.878,487.8,245.362l-.37-3.6L460.7,215.02Z" transform="translate(-290.523 -12.278)" fill="#585859"/>
            <path id="Path_80" data-name="Path 80" d="M459.46,224.462l25.295,25.295,1.109-2.133L459.83,221.59Z" transform="translate(-290.885 -9.507)" fill="#585859"/>
            <path id="Path_81" data-name="Path 81" d="M458.59,231.032l22.934,22.92,1.095-2.133-23.645-23.66Z" transform="translate(-291.252 -6.735)" fill="#585859"/>
            <path id="Path_82" data-name="Path 82" d="M457.72,237.6l20.56,20.546,1.095-2.133L458.1,234.74Z" transform="translate(-291.619 -3.959)" fill="#585859"/>
            <path id="Path_83" data-name="Path 83" d="M461.29,245.48,463.579,251l9.583,9.583,1.109-2.133Z" transform="translate(-290.113 0.571)" fill="#585859"/>
            <path id="Path_84" data-name="Path 84" d="M474.066,161.712l-3.114,4.621-3.128-4.863-.555,4.152,3.64,3.7,3.484-4.394Z" transform="translate(-287.591 -34.868)" fill="#585859"/>
            <path id="Path_85" data-name="Path 85" d="M480.559,159.261l-8.332,12.37-7.977-12.37,7.977-10.351Z" transform="translate(-288.865 -40.167)" fill="#d0a733"/>
            <path id="Path_86" data-name="Path 86" d="M490.337,169.8a.938.938,0,0,0,.6-.213c8.233-6.569,15.256-23.56,15.555-24.271a.967.967,0,0,0-.526-1.251.953.953,0,0,0-1.237.526c-.071.171-6.683,16.166-14.219,22.863l-12.526-17.062a.967.967,0,0,0-.782-.4.953.953,0,0,0-.768.412l-11.7,16.607c-1.792-3.228-6.484-11.787-10.422-19.735a.967.967,0,0,0-1.72.853c4.991,9.953,11.147,21.029,11.218,21.143a.938.938,0,0,0,.782.483.967.967,0,0,0,.825-.4l11.816-16.778,12.356,16.792a.953.953,0,0,0,.64.37Z" transform="translate(-293.809 -42.242)" fill="#ffe226"/>
            <path id="Path_87" data-name="Path 87" d="M470.167,151.39a.953.953,0,0,0,.953-.953v-4.266a.967.967,0,0,0-1.919,0v4.266a.953.953,0,0,0,.967.953Z" transform="translate(-286.776 -41.68)" fill="#d0a733"/>
            <path id="Path_88" data-name="Path 88" d="M456.69,113.837s-4.266-5.062-6.7,0-.555,15.271,5.958,13.593Z" transform="translate(-295.31 -55.911)" fill="#d96c63"/>
            <path id="Path_89" data-name="Path 89" d="M451.19,139.654s0,15.555,16.181,15.527,27.015-12.669,27.612-13.252h0l.171-3.27.91-16.977.5-9.086s2.076-16.351-13.451-19.337c-11.375-2.175-21.982-.284-27.356,5.687-.171.185-.341.384-.5.583a13.963,13.963,0,0,0-3.057,7.621l-.5,16.294-.128,4Z" transform="translate(-294.374 -64.011)" fill="#ea9b7a"/>
            <path id="Path_90" data-name="Path 90" d="M464.567,107.383s6.782,5.062,10.835,1.834-5.375-6.74-8.531-6.484S462.548,106.189,464.567,107.383Z" transform="translate(-289.153 -59.652)" fill="#39393b"/>
            <path id="Path_91" data-name="Path 91" d="M462.578,107.383s-6.8,5.062-10.835,1.834,5.375-6.74,8.531-6.484S464.6,106.189,462.578,107.383Z" transform="translate(-294.558 -59.652)" fill="#39393b"/>
            <path id="Path_92" data-name="Path 92" d="M463.509,127.854a6.754,6.754,0,0,0,4.635-1.422.716.716,0,0,0-.938-1.081,4.976,4.976,0,0,1-4.976.768.716.716,0,0,0-.583,1.308,6.17,6.17,0,0,0,1.863.427Z" transform="translate(-290.142 -50.179)" fill="#d96c63"/>
            <path id="Path_93" data-name="Path 93" d="M472.183,119.24s-9.882,1.991-14.873,1.536c0,0,1.863,7.351,9.214,5.5A7.379,7.379,0,0,0,472.183,119.24Z" transform="translate(-291.792 -52.683)" fill="#fff"/>
            <path id="Path_94" data-name="Path 94" d="M454.05,99.472c2.545-.9,4.379,0,8.332,1.678,5.687,2.517,12.114.256,17.773-2.63s9.043,1.123,7.109,3.768-1.706,4.777.427,8.133-4.038,4.934-.626,7.564a3.5,3.5,0,0,1,.768,4.266,2.332,2.332,0,0,0,2.616,3.085h0c1.848-.469,4.436-3.725,4.436-3.725l.5-9.086s2.048-16.28-13.479-19.266c-11.375-2.175-21.982-.284-27.356,5.687A2.959,2.959,0,0,0,454.05,99.472Z" transform="translate(-291.746 -65.433)" fill="#39393b"/>
            <path id="Path_95" data-name="Path 95" d="M466.4,116.207c0,1.137,2.332,2.047,5.2,2.047s5.218-.91,5.218-2.047-2.332-2.047-5.218-2.047S466.4,115.07,466.4,116.207Z" transform="translate(-287.958 -54.826)" fill="#d96c63"/>
            <path id="Path_96" data-name="Path 96" d="M451.46,118.215a11.916,11.916,0,0,0,1.251,0c2.844,0,5.218-.91,5.218-2.047s-2.332-2.047-5.218-2.047h-1.123Z" transform="translate(-294.26 -54.843)" fill="#d96c63"/>
            <path id="Path_97" data-name="Path 97" d="M464.81,112.054c0,1.564.711,2.844,1.578,2.844s1.578-1.251,1.578-2.844-.711-2.844-1.578-2.844S464.81,110.5,464.81,112.054Z" transform="translate(-288.628 -56.914)" fill="#39393b"/>
            <path id="Path_98" data-name="Path 98" d="M453.81,112.054c0,1.564.711,2.844,1.578,2.844s1.578-1.251,1.578-2.844-.711-2.844-1.578-2.844S453.81,110.5,453.81,112.054Z" transform="translate(-293.269 -56.914)" fill="#39393b"/>
            <path id="Path_99" data-name="Path 99" d="M478.43,122.79c.071.171,2.119,4.92,5.062,6.313h0l.185-3.27a11.219,11.219,0,0,1-5.247-3.043Z" transform="translate(-282.883 -51.186)" fill="#39393b"/>
            <path id="Path_100" data-name="Path 100" d="M480.43,116.459s6.228-8.36,10.792-1.792c3.754,5.417-3.356,19.522-10.792,14.688Z" transform="translate(-282.039 -55.674)" fill="#ea9b7a"/>
            <path id="Path_101" data-name="Path 101" d="M481.19,125.572a.64.64,0,0,0,.64-.569,10.678,10.678,0,0,1,6.214-8.616.654.654,0,0,0,.356-.839.64.64,0,0,0-.825-.355,11.972,11.972,0,0,0-7.024,9.669.668.668,0,0,0,.569.711Z" transform="translate(-281.989 -54.409)" fill="#39393b"/>
            <path id="Path_102" data-name="Path 102" d="M486.578,120.563a.6.6,0,0,0,.5-.227.654.654,0,0,0-.085-.91c-.256-.2-2.559-2-4.479-1.521a.64.64,0,0,0-.455.782.626.626,0,0,0,.782.455c1.095-.284,2.844.839,3.341,1.28a.625.625,0,0,0,.4.142Z" transform="translate(-281.362 -53.281)" fill="#39393b"/>
            <path id="Path_103" data-name="Path 103" d="M462.8,121.051a.64.64,0,1,0,0-1.28,4.393,4.393,0,0,1-3.825-1.777c2.545-5.261,5.09-10.579,5.119-10.621a.654.654,0,0,0-.3-.853.626.626,0,0,0-.853.3s-2.673,5.559-5.275,10.92a.64.64,0,0,0,0,.555A5.488,5.488,0,0,0,462.8,121.051Z" transform="translate(-291.668 -58.078)" fill="#39393b"/>
            <path id="Path_104" data-name="Path 104" d="M572.8,171.332s8.616,8.7,17.062,5.318c6.868-2.744,8.389-12.3,8.73-15.882.071-.853.085-1.422.085-1.422a9.935,9.935,0,0,0,1.109-.739c1.521-1.109,4.01-3.341,3.74-5.986-.384-3.754-7.209-1.664-7.209-1.664s1.038-4.536-.981-5.858-6.043,1.01-6.043,1.01,2.2-5.559-.81-6.9c-4.536-2.019-6.029,4.806-6.228,5.261,0-.5,2.218-21.442-1.422-20.361-3.142.938-6.043,18.484-6.768,23.2-.114.754-.171,1.18-.171,1.18h-.682c-2.019.071-7.948.6-9.043,4.735C562.975,158.279,572.8,171.332,572.8,171.332Z" transform="translate(-246.756 -50.645)" fill="#ea9b7a"/>
            <path id="Path_105" data-name="Path 105" d="M584.862,148.851a7.55,7.55,0,0,0-.739,4.649,2.19,2.19,0,0,0,1.422,1.592,4.266,4.266,0,0,0,1.905,0,22.653,22.653,0,0,0,5.588-2.033c.085-.853.1-1.422.1-1.422a9.947,9.947,0,0,0,1.109-.739.768.768,0,0,0-.384.1c-2.3,1.265-6.484,3.114-7.891,2.659a.839.839,0,0,1-.54-.626c-.384-1.422.654-4.266,2.133-6.029a.711.711,0,0,0-.953-1.038c-1.422,1.038-5.488,3.583-7.522,2.943-.3-.1-.341-.242-.355-.313a2.388,2.388,0,0,1,.3-1.422,17.812,17.812,0,0,1,2.5-3.7.711.711,0,0,0,.171-.4.7.7,0,0,0-.228-.6.725.725,0,0,0-1.01,0,20.074,20.074,0,0,0-2.545,3.683,6.154,6.154,0,0,0-.6,1.763,2.32,2.32,0,0,0,0,1,1.806,1.806,0,0,0,1.28,1.265C580.5,150.9,582.985,149.889,584.862,148.851Z" transform="translate(-241.186 -42.965)" fill="#d96c63"/>
            <path id="Path_106" data-name="Path 106" d="M575.271,142.825a.7.7,0,0,1,.512.611,4.607,4.607,0,0,0,.611,2.19.8.8,0,0,0,.725.4,2.5,2.5,0,0,0,1.166-.427,20.107,20.107,0,0,0,3.782-3.128.668.668,0,0,1-.171.384,17.53,17.53,0,0,0-2.5,3.711l-.412.256a5.357,5.357,0,0,1-1.294.54,2.147,2.147,0,0,1-.5.085,2.19,2.19,0,0,1-1.934-1,6.028,6.028,0,0,1-.9-2.915.682.682,0,0,1,.882-.711Z" transform="translate(-242.415 -42.884)" fill="#d96c63"/>
            <path id="Path_107" data-name="Path 107" d="M568.076,151.593a23.247,23.247,0,0,0,5.588-.156,7.878,7.878,0,0,0,3.9-1.564,3.54,3.54,0,0,0,1.251-2.659c.085-3.754-3.754-5.844-6.057-6.754-.114.754-.171,1.18-.171,1.18H571.9c1.934.725,5.559,2.5,5.5,5.531a2.161,2.161,0,0,1-.768,1.635c-1.891,1.664-6.711,1.564-8.4,1.422a.687.687,0,1,0-.156,1.365Z" transform="translate(-245.33 -43.731)" fill="#d96c63"/>
            <path id="Path_108" data-name="Path 108" d="M580.273,162.7a.683.683,0,0,0,.54-.455.711.711,0,0,0-.412-.91,6.356,6.356,0,0,1-3.939-3.683c-1.664-4.379,1.422-10.436,1.422-10.493a.682.682,0,0,0-.3-.953.7.7,0,0,0-.953.3c-.142.27-3.441,6.7-1.55,11.645a7.663,7.663,0,0,0,4.763,4.507.683.683,0,0,0,.427.043Z" transform="translate(-242.356 -41.343)" fill="#d96c63"/>
            <path id="Path_109" data-name="Path 109" d="M511.88,150.16l14.745,12.8q3.519,3.306,7.109,6.555c2.389,2.161,4.735,4.266,7.109,6.469s4.735,4.266,7.109,6.341,4.735,4.109,7.109,6.057,4.664,3.853,6.853,5.474c1.095.81,2.147,1.55,3,2.1l.569.37.242.142.085.071a.911.911,0,0,1,.17.2c.085.1.071.171.171.256a1.223,1.223,0,0,0,.725.114,11.374,11.374,0,0,0,4.138-1.607,35.647,35.647,0,0,0,5.687-4.266,75.374,75.374,0,0,0,5.815-5.844,144.577,144.577,0,0,0,10.991-14.219c3.5-5.048,5.972-8.943,9.128-14.318a23.674,23.674,0,0,0,21.47,8.2,191.13,191.13,0,0,1-8.3,19.167,149.279,149.279,0,0,1-10.92,18.569,98.534,98.534,0,0,1-7.109,9.029,66.829,66.829,0,0,1-9.228,8.616,49.311,49.311,0,0,1-6.014,3.91,40.156,40.156,0,0,1-7.465,3.1,33.7,33.7,0,0,1-9.015,1.422,32.786,32.786,0,0,1-9.541-1.209A35.023,35.023,0,0,1,552.1,226.1l-1.024-.469-.867-.412-.81-.412-.768-.412c-2-1.081-3.711-2.119-5.346-3.156-3.242-2.062-6.157-4.109-9.015-6.185s-5.574-4.18-8.261-6.285-5.346-4.266-7.948-6.384-5.19-4.266-7.735-6.5-5.076-4.408-7.578-6.612-4.977-4.465-7.436-6.725l-3.683-3.412-1.82-1.735-1.863-1.792Z" transform="translate(-278.867 -39.64)" fill="#2b3647"/>
            <path id="Path_110" data-name="Path 110" d="M517.761,195.352a.714.714,0,0,1-.416-.14c-7.913-5.579-21.979-17.331-22.118-17.47a.722.722,0,1,1,.914-1.118c.15.116,14.171,11.833,21.979,17.377a.749.749,0,0,1,.185,1.013A.763.763,0,0,1,517.761,195.352Z" transform="translate(-270.533 -24.374)" fill="#354358"/>
            <path id="Path_111" data-name="Path 111" d="M502.818,182.581h-.128l-6.853-1.01a.867.867,0,0,1-.754-1,.9.9,0,0,1,1.01-.754l6.853,1a.884.884,0,1,1-.128,1.763Z" transform="translate(-275.862 -27.13)" fill="#354358"/>
            <path id="Path_112" data-name="Path 112" d="M586.725,171.991a.881.881,0,0,0,.455-1,.91.91,0,0,0-1.066-.7c-12.91,2.844-19.337-9.5-19.394-9.612a.91.91,0,0,0-1.223-.4h0a.9.9,0,0,0-.4,1.209c0,.142,7.109,13.678,21.328,10.579A1.422,1.422,0,0,0,586.725,171.991Z" transform="translate(-246.363 -35.408)" fill="#ffe226"/>
            <path id="Path_113" data-name="Path 113" d="M576,172.151a.925.925,0,0,0,.412-.455l4.266-9.953a.91.91,0,1,0-1.664-.711l-4.266,9.953A.91.91,0,0,0,576,172.151Z" transform="translate(-242.28 -35.326)" fill="#ffe226"/>
            <path id="Path_114" data-name="Path 114" d="M570.312,162.68a1.564,1.564,0,1,0,.668-2.119,1.564,1.564,0,0,0-.668,2.119Z" transform="translate(-244.196 -35.325)" fill="#ffe226"/>
            <path id="Path_115" data-name="Path 115" d="M541.86,194.231a.9.9,0,0,0,.469-.654,39.672,39.672,0,0,1,2.645-9.015.91.91,0,1,0-1.607-.825,39.158,39.158,0,0,0-2.844,9.541.9.9,0,0,0,.739,1.038.967.967,0,0,0,.6-.085Z" transform="translate(-256.694 -25.727)" fill="#354358"/>
            <path id="Path_116" data-name="Path 116" d="M546.971,191.924l.171-.114a.924.924,0,0,0,.114-1.28A16.694,16.694,0,0,1,544.1,184.5a.9.9,0,1,0-1.763.37,18.312,18.312,0,0,0,3.526,6.825.924.924,0,0,0,1.109.227Z" transform="translate(-255.932 -25.454)" fill="#354358"/>
          </g>
        </g>
      </g>
      <g id="Group_10" data-name="Group 10" transform="matrix(0.919, 0.195, -0.208, 0.978, 794.907, 442.549)">
        <g id="LogoCyberSoft" transform="translate(2.972 0.626)" opacity="0.68" clip-path="url(#clip-path-3)">
          <g id="LogoCyberSoft-2" data-name="LogoCyberSoft" transform="translate(-2.402 -0.92)">
            <g id="Group_5-2" data-name="Group 5" transform="translate(0 3.221)">
              <path id="Path_254" data-name="Path 254" d="M2.982,1.125,10.292,0,7.137,6.637,0,7.6Z" transform="matrix(0.799, 0.602, -0.602, 0.799, 6.896, 0)" fill="url(#linear-gradient)"/>
              <path id="Path_256" data-name="Path 256" d="M0,.962,7.067,0,9.879,3.9l-6.934.972Z" transform="matrix(0.799, 0.602, -0.602, 0.799, 2.931, 5.32)" fill="url(#linear-gradient-2)"/>
              <path id="Path_257" data-name="Path 257" d="M6.5,0l.075,4.808L.17,8.416,0,3.548Z" transform="matrix(-0.999, -0.035, 0.035, -0.999, 14.966, 14.63)" fill="url(#radial-gradient)"/>
            </g>
            <g id="Group_6-2" data-name="Group 6" transform="translate(1.363 0)">
              <path id="Path_254-2" data-name="Path 254" d="M2.982,1.125,10.292,0,7.137,6.637,0,7.6Z" transform="matrix(0.799, 0.602, -0.602, 0.799, 5.533, 0)" fill="url(#linear-gradient-3)"/>
              <path id="Path_256-2" data-name="Path 256" d="M0,.977,7.17,0,8.3,1.495,1.19,2.557,0,.977Z" transform="matrix(0.799, 0.602, -0.602, 0.799, 1.539, 5.278)" fill="url(#linear-gradient-4)"/>
              <path id="Path_257-2" data-name="Path 257" d="M6.394,0l.067,1.92L.07,5.535,0,3.529Z" transform="matrix(-0.999, -0.035, 0.035, -0.999, 13.647, 11.712)" fill="url(#linear-gradient-5)"/>
            </g>
          </g>
        </g>
        <text id="Cybersoft_Acedemy" data-name="Cybersoft Acedemy" transform="translate(0 19.702)" fill="#f5f5f5" font-size="2" font-family="Prototype" opacity="0.65"><tspan x="0" y="0">Cybersoft Acedemy</tspan></text>
      </g>
    </g>
  </g>
</svg>
