<svg xmlns="http://www.w3.org/2000/svg" xmlns:xlink="http://www.w3.org/1999/xlink" width="452.36" height="430.2" viewBox="0 0 452.36 430.2">
  <defs>
    <clipPath id="clip-path">
      <rect x="-18" y="-14" width="452.36" height="430.2" fill="none"/>
    </clipPath>
    <clipPath id="clip-path-2">
      <rect id="Rectangle_3" data-name="Rectangle 3" width="6.287" height="8.255" transform="translate(0 0)" fill="none"/>
    </clipPath>
    <linearGradient id="linear-gradient" x1="0.5" x2="0.938" y2="0.162" gradientUnits="objectBoundingBox">
      <stop offset="0" stop-color="#745f67"/>
      <stop offset="1" stop-color="#47232f"/>
    </linearGradient>
    <linearGradient id="linear-gradient-2" x1="-0.005" y1="0.148" x2="0.763" y2="0.971" gradientUnits="objectBoundingBox">
      <stop offset="0" stop-color="#fef388"/>
      <stop offset="0.27" stop-color="#cca962"/>
      <stop offset="0.609" stop-color="#936440"/>
      <stop offset="1" stop-color="#3b0f09"/>
    </linearGradient>
    <radialGradient id="radial-gradient" cx="0.105" cy="0.906" r="1.098" gradientTransform="matrix(0.029, -1, 1.283, 0.038, -1.06, 0.977)" gradientUnits="objectBoundingBox">
      <stop offset="0" stop-color="#562522"/>
      <stop offset="0.51" stop-color="#5c2b28"/>
      <stop offset="0.824" stop-color="#976260"/>
      <stop offset="1" stop-color="#a16c6a"/>
    </radialGradient>
    <linearGradient id="linear-gradient-3" x1="0.462" y1="0.431" x2="0.612" y2="0.701" gradientUnits="objectBoundingBox">
      <stop offset="0" stop-color="#d0a733"/>
      <stop offset="1" stop-color="#f8e87d"/>
    </linearGradient>
    <linearGradient id="linear-gradient-4" x1="0.5" y1="0" x2="0.5" y2="1" xlink:href="#linear-gradient-3"/>
    <linearGradient id="linear-gradient-5" x1="0.537" y1="0.181" x2="0.132" y2="0.669" xlink:href="#linear-gradient-3"/>
  </defs>
  <g id="fofo" transform="translate(18 14)" clip-path="url(#clip-path)" style="isolation: isolate">
    <g id="fofo-2" data-name="fofo" transform="translate(0 -0.02)">
      <g id="Background_Complete" data-name="Background Complete">
        <path id="Path_1044" data-name="Path 1044" d="M392.61,106.37h-1.5v-1h.5v-.5h1Z" fill="#354358"/>
        <path id="Path_1045" data-name="Path 1045" d="M427.28,161.36h-2v-1h2Zm-4,0h-2v-1h2Zm-4.05,0h-2v-1h2Zm-4,0h-2v-1h2Zm-4.05,0h-2v-1h2Zm-4,0h-2v-1h2Zm-4,0h-2v-1h2Zm-4.05,0h-2v-1h2Zm-4.05,0h-2v-1h2Zm-4,0h-2v-1h2Zm-4,0h-2v-1h2Zm-4.05,0h-2v-1h2Zm-4.05,0h-2v-1h2Z" transform="translate(-38.19 -54.98)" fill="#ebebeb"/>
        <path id="Path_1046" data-name="Path 1046" d="M336.48,106.37h-1.5v-1.5h1v.5h.5Z" fill="#ebebeb"/>
        <path id="Path_1047" data-name="Path 1047" d="M374.17,157.83h-1v-2h1Zm0-4h-1v-2h1Zm0-4h-1v-2h1Zm0-4.05h-1v-2h1Zm0-4.05h-1v-2h1Zm0-4h-1v-2h1Zm0-4h-1v-2h1Zm0-4.05h-1v-2h1Zm0-4h-1v-2h1Zm0-4h-1v-2h1Zm0-4h-1v-2h1Zm0-4h-1v-2h1Zm0-4h-1v-2h1Z" transform="translate(-38.19 -54.98)" fill="#ebebeb"/>
        <path id="Path_1048" data-name="Path 1048" d="M335.98,50.24h-1v-1.5h1.5v1h-.5Z" fill="#ebebeb"/>
        <path id="Path_1049" data-name="Path 1049" d="M427.28,104.72h-2v-1h2Zm-4,0h-2v-1h2Zm-4.05,0h-2v-1h2Zm-4,0h-2v-1h2Zm-4.05,0h-2v-1h2Zm-4,0h-2v-1h2Zm-4,0h-2v-1h2Zm-4.05,0h-2v-1h2Zm-4.05,0h-2v-1h2Zm-4,0h-2v-1h2Zm-4,0h-2v-1h2Zm-4.05,0h-2v-1h2Zm-4.05,0h-2v-1h2Z" transform="translate(-38.19 -54.98)" fill="#ebebeb"/>
        <path id="Path_1050" data-name="Path 1050" d="M392.61,50.24h-1v-.5h-.5v-1h1.5Z" fill="#ebebeb"/>
        <path id="Path_1051" data-name="Path 1051" d="M430.8,157.83h-1v-2h1Zm0-4h-1v-2h1Zm0-4h-1v-2h1Zm0-4.05h-1v-2h1Zm0-4.05h-1v-2h1Zm0-4h-1v-2h1Zm0-4h-1v-2h1Zm0-4.05h-1v-2h1Zm0-4h-1v-2h1Zm0-4h-1v-2h1Zm0-4h-1v-2h1Zm0-4h-1v-2h1Zm0-4h-1v-2h1Z" transform="translate(-38.19 -54.98)" fill="#ebebeb"/>
        <rect id="Rectangle_145" data-name="Rectangle 145" width="7.06" height="7.06" transform="translate(331.95 102.35)" fill="#fff"/>
        <path id="Path_1052" data-name="Path 1052" d="M377.69,164.88h-8.05v-8h8.05Zm-7.05-1h6.05v-6h-6.05Z" transform="translate(-38.19 -54.98)" fill="#ebebeb"/>
        <rect id="Rectangle_146" data-name="Rectangle 146" width="7.06" height="7.06" transform="translate(331.95 74.03)" fill="#fff"/>
        <path id="Path_1053" data-name="Path 1053" d="M377.69,136.57h-8.05v-8.06h8.05Zm-7.05-1h6.05v-6.06h-6.05Z" transform="translate(-38.19 -54.98)" fill="#ebebeb"/>
        <rect id="Rectangle_147" data-name="Rectangle 147" width="7.06" height="7.06" transform="translate(331.95 45.71)" fill="#fff"/>
        <path id="Path_1054" data-name="Path 1054" d="M377.69,108.25h-8.05v-8.06h8.05Zm-7.05-1h6.05v-6.06h-6.05Z" transform="translate(-38.19 -54.98)" fill="#ebebeb"/>
        <rect id="Rectangle_148" data-name="Rectangle 148" width="7.06" height="7.06" transform="translate(388.58 102.35)" fill="#fff"/>
        <path id="Path_1055" data-name="Path 1055" d="M434.33,164.88h-8.06v-8h8.06Zm-7.06-1h6.06v-6h-6.06Z" transform="translate(-38.19 -54.98)" fill="#ebebeb"/>
        <rect id="Rectangle_149" data-name="Rectangle 149" width="7.06" height="7.06" transform="translate(388.58 74.03)" fill="#fff"/>
        <path id="Path_1056" data-name="Path 1056" d="M434.33,136.57h-8.06v-8.06h8.06Zm-7.06-1h6.06v-6.06h-6.06Z" transform="translate(-38.19 -54.98)" fill="#ebebeb"/>
        <rect id="Rectangle_150" data-name="Rectangle 150" width="7.06" height="7.06" transform="translate(388.58 45.71)" fill="#fff"/>
        <path id="Path_1057" data-name="Path 1057" d="M434.33,108.25h-8.06v-8.06h8.06Zm-7.06-1h6.06v-6.06h-6.06Z" transform="translate(-38.19 -54.98)" fill="#ebebeb"/>
        <rect id="Rectangle_151" data-name="Rectangle 151" width="7.06" height="7.06" transform="translate(360.26 45.71)" fill="#fff"/>
        <path id="Path_1058" data-name="Path 1058" d="M406,108.25h-8v-8.06h8Zm-7.06-1H405v-6.06h-6Z" transform="translate(-38.19 -54.98)" fill="#ebebeb"/>
        <rect id="Rectangle_152" data-name="Rectangle 152" width="7.06" height="7.06" transform="translate(360.26 102.35)" fill="#fff"/>
        <path id="Path_1059" data-name="Path 1059" d="M406,164.88h-8v-8h8Zm-7.06-1H405v-6h-6Z" transform="translate(-38.19 -54.98)" fill="#ebebeb"/>
        <path id="Path_1060" data-name="Path 1060" d="M402.67,139.27h-11.3L387,151.6h4.28v1.09h-8.73V151.6h2.68l14.56-39.21h4.68l14.38,39.21h2.63v1.09h-18.7V151.6h4.05ZM391.88,138h10.33l-5-15Z" transform="translate(-38.19 -54.98)" fill="#dbdbdb"/>
        <path id="Path_1061" data-name="Path 1061" d="M116,78.62s-.2,11.13-7.32,23.74h-10c-7.12-12.61-7.31-23.74-7.31-23.74C101.59,72.86,101.86,60,101.86,60h1V80.39a3.15,3.15,0,1,0,1.44,0V60h1S105.65,72.86,116,78.62Z" transform="translate(-38.19 -54.98)" fill="#ebebeb"/>
        <rect id="Rectangle_153" data-name="Rectangle 153" width="14.83" height="6.24" transform="translate(58.02 46.16)" fill="#c7c7c7"/>
        <path id="Path_1062" data-name="Path 1062" d="M138,93.35h-1a33.42,33.42,0,1,0-66.84,0h-1a34.42,34.42,0,1,1,68.84,0Z" transform="translate(-38.19 -54.98)" fill="#ebebeb"/>
        <rect id="Rectangle_154" data-name="Rectangle 154" width="68.62" height="1" transform="translate(30.73 3.53)" fill="#ebebeb"/>
        <rect id="Rectangle_155" data-name="Rectangle 155" width="7.06" height="7.06" transform="translate(27.98 34.84)" fill="#fff"/>
        <path id="Path_1063" data-name="Path 1063" d="M73.73,97.37H65.67V89.32h8.06Zm-7.06-1h6.06V90.32H66.67Z" transform="translate(-38.19 -54.98)" fill="#ebebeb"/>
        <rect id="Rectangle_156" data-name="Rectangle 156" width="7.06" height="7.06" transform="translate(27.98 0.5)" fill="#fff"/>
        <path id="Path_1064" data-name="Path 1064" d="M73.73,63H65.67V55h8.06Zm-7.06-1h6.06V56H66.67Z" transform="translate(-38.19 -54.98)" fill="#ebebeb"/>
        <rect id="Rectangle_157" data-name="Rectangle 157" width="7.06" height="7.06" transform="translate(95.82 34.84)" fill="#fff"/>
        <path id="Path_1065" data-name="Path 1065" d="M141.57,97.37h-8.06V89.32h8.06Zm-7.06-1h6.06V90.32h-6.06Z" transform="translate(-38.19 -54.98)" fill="#ebebeb"/>
        <rect id="Rectangle_158" data-name="Rectangle 158" width="7.06" height="7.06" transform="translate(95.82 0.5)" fill="#fff"/>
        <path id="Path_1066" data-name="Path 1066" d="M141.57,63h-8.06V55h8.06Zm-7.06-1h6.06V56h-6.06Z" transform="translate(-38.19 -54.98)" fill="#ebebeb"/>
        <path id="Path_1067" data-name="Path 1067" d="M414.79,332.89l13.36-.28,6.58-.11c2.19-.05,4.36,0,6.54-.06l-.44.45-.06-11.19.5.5L428,322.14c-4.41,0-8.82-.12-13.24-.17l.28-.27c0,1.83-.09,3.67-.14,5.54Zm0,0-.14-5.54c0-1.86-.11-3.75-.13-5.65v-.27h.27c4.42-.05,8.83-.16,13.24-.17l13.24-.06h.5v12.14h-.45c-2.23,0-4.47,0-6.69-.06l-6.66-.11Z" transform="translate(-38.19 -54.98)" fill="#ebebeb"/>
        <path id="Path_1068" data-name="Path 1068" d="M429.56,347l13.36-.28,6.58-.11c2.19-.05,4.36,0,6.54-.06l-.44.45-.05-11.19.49.5-13.24-.06c-4.41,0-8.82-.12-13.24-.17l.28-.27c0,1.83-.09,3.67-.13,5.54Zm0,0-.14-5.54c0-1.86-.11-3.75-.13-5.65v-.27h.27c4.42-.05,8.83-.16,13.24-.17l13.24-.06h.51v.5L456.49,347v.45H456c-2.23,0-4.46,0-6.69-.06l-6.66-.11Z" transform="translate(-38.19 -54.98)" fill="#ebebeb"/>
        <path id="Path_1069" data-name="Path 1069" d="M400,347l13.36-.28,6.58-.11c2.18-.05,4.36,0,6.54-.06l-.44.45L426,335.81l.5.5-13.24-.06c-4.41,0-8.83-.12-13.24-.17l.27-.27c0,1.83-.08,3.67-.13,5.54Zm0,0-.14-5.54c-.05-1.86-.11-3.75-.13-5.65v-.27H400c4.41-.05,8.83-.16,13.24-.17l13.24-.06h.5v.5L427,347v.45h-.44c-2.23,0-4.47,0-6.69-.06l-6.66-.11Z" transform="translate(-38.19 -54.98)" fill="#ebebeb"/>
        <path id="Path_1070" data-name="Path 1070" d="M58.73,347l13.35-.28,6.58-.11c2.19-.05,4.37,0,6.55-.06l-.45.45-.05-11.19.5.5L72,336.25c-4.42,0-8.83-.12-13.24-.17l.27-.27c0,1.83-.09,3.67-.13,5.54Zm0,0-.15-5.54c0-1.86-.11-3.75-.13-5.65v-.27h.28c4.41-.05,8.82-.16,13.24-.17l13.24-.06h.5v.5L85.65,347v.45h-.44c-2.23,0-4.47,0-6.7-.06l-6.66-.11Z" transform="translate(-38.19 -54.98)" fill="#ebebeb"/>
        <path id="Path_1071" data-name="Path 1071" d="M58.73,85.77l13.35-.28,6.58-.12c2.19,0,4.37,0,6.55-.05l-.45.45-.05-11.19.5.49L72,75c-4.42,0-8.83-.11-13.24-.16l.27-.27c0,1.83-.09,3.67-.13,5.53Zm0,0-.15-5.54c0-1.87-.11-3.76-.13-5.65v-.27h.28c4.41,0,8.82-.16,13.24-.16l13.24-.06h.5v.51l-.06,11.19v.44H78.51L71.85,86Z" transform="translate(-38.19 -54.98)" fill="#ebebeb"/>
        <path id="Path_1072" data-name="Path 1072" d="M44,99.88l13.35-.28,6.58-.12h6.55l-.45.45V88.74l.5.49L57.2,89.12c-4.42,0-8.83-.12-13.2-.12l.27-.27c0,1.83-.09,3.67-.13,5.53Zm0,0-.15-5.54c0-1.87-.11-3.76-.13-5.65v-.27H44c4.41,0,8.82-.16,13.24-.16l13.24-.06h.5v.51L70.92,99.9v.44H63.78l-6.66-.12Z" transform="translate(-38.19 -54.98)" fill="#ebebeb"/>
        <path id="Path_1073" data-name="Path 1073" d="M429.56,85.78l13.36-.28,6.58-.11c2.19,0,4.36,0,6.54-.06l-.44.45-.05-11.19.49.5L442.8,75c-4.41,0-8.82-.11-13.24-.16l.28-.27c0,1.83-.09,3.67-.13,5.53Zm0,0-.14-5.54c0-1.87-.11-3.75-.13-5.65v-.27h.27c4.42,0,8.83-.15,13.24-.16l13.2-.07h.51v.5l-.05,11.19v.45h-7.15l-6.66-.11Z" transform="translate(-38.19 -54.98)" fill="#ebebeb"/>
        <path id="Path_1074" data-name="Path 1074" d="M193.79,272.2l-13.36.28-6.58.11c-2.19.05-4.36,0-6.54.05l.44-.44.06,11.19-.5-.5,13.24.06c4.41,0,8.82.11,13.24.16l-.28.28c0-1.83.09-3.68.13-5.54Zm0,0,.14,5.53c0,1.87.11,3.76.13,5.66v.27h-.27c-4.42,0-8.83.16-13.24.16l-13.24.07h-.51v-.5l.05-11.19v-.45h.45c2.23,0,4.46,0,6.69.06l6.66.11Z" transform="translate(-38.19 -54.98)" fill="#ebebeb"/>
        <path id="Path_1075" data-name="Path 1075" d="M179,258.09l-13.35.28-6.58.11h-6.55l.45-.44.05,11.19-.5-.5,13.24.06c4.42,0,8.83.11,13.24.16l-.27.28c0-1.83.09-3.68.13-5.54Zm0,0,.15,5.53c0,1.87.11,3.76.13,5.66v.27H179c-4.41.05-8.82.16-13.24.16l-13.24.07H152v-.5l.06-11.19v-.45h.44c2.24,0,4.47,0,6.7.06l6.66.11Z" transform="translate(-38.19 -54.98)" fill="#ebebeb"/>
      </g>
      <g id="Floor">
        <path id="Path_1076" data-name="Path 1076" d="M6.16,333.25,57.57,333l51.41-.08,102.83-.17,102.82.16,51.42.09,51.41.25-51.41.24-51.42.09-102.82.17-102.83-.17-51.41-.09Z" fill="#263238"/>
      </g>
      <g id="Plant">
        <path id="Path_1077" data-name="Path 1077" d="M110.68,288.63c-3.15-3.09-7.22-6.82-12-5.48-4.53,1.25-6.26,6.19-7.08,10.32-1,5.31-1.86,10.67-2.7,16s-1.65,10.81-2.43,16.22c-.44,3.05-.87,6.11-1.3,9.16-.21,1.53-.42,3.06-.64,4.59s-.45,3-.54,4.5a.43.43,0,0,0,.84.1c.58-2.55.82-5.2,1.2-7.79s.75-5.2,1.13-7.8q1.14-7.75,2.32-15.49t2.41-15.49c.69-4.37,1-9.81,4.9-12.69a7.5,7.5,0,0,1,7.25-.68,21.55,21.55,0,0,1,6.59,4.61C110.65,288.78,110.74,288.69,110.68,288.63Z" transform="translate(-38.19 -54.98)" fill="#263238"/>
        <path id="Path_1078" data-name="Path 1078" d="M106.37,285.48s-6.44-2.32-9.62,2.38.62,16.65,30,23.4a82.8,82.8,0,0,0-7.06-26.51C113.35,271,102.15,276.23,106.37,285.48Z" transform="translate(-38.19 -54.98)" fill="#ffc727"/>
        <path id="Path_1079" data-name="Path 1079" d="M125,309.3a23.453,23.453,0,0,0-1.47-2.38c-.49-.75-1-1.5-1.49-2.25-.38-.57-.76-1.12-1.15-1.68a1.021,1.021,0,0,1,.06-.42,5.676,5.676,0,0,0,.1-.76c.07-.55.15-1.1.23-1.65s.17-1.09.28-1.63a8.34,8.34,0,0,1,.38-1.73c0-.09-.12-.13-.13,0a5.34,5.34,0,0,1-.26,1l-.2.74c-.14.56-.27,1.12-.4,1.68s-.21,1-.3,1.55l-.12.76c-.52-.75-1.05-1.49-1.6-2.21-1.56-2.05-3.21-4-4.91-5.95v-.06a53,53,0,0,1,.76-9.16c0-.08-.11-.13-.13,0a31.229,31.229,0,0,0-1.09,8.76c-.61-.68-1.23-1.36-1.86-2q-2.13-2.31-4.37-4.53a.064.064,0,1,0-.09.09c2.47,2.66,4.82,5.43,7.1,8.25a50.441,50.441,0,0,0-5.36.2c-2,.15-4,.4-5.94.68-.08,0-.06.14,0,.13a53.305,53.305,0,0,1,5.93-.53c1.91-.08,3.81,0,5.73,0q1.85,2.3,3.66,4.63h-1.62c-.9,0-1.79.08-2.68.16a39.449,39.449,0,0,0-5.41.81.07.07,0,0,0,0,.13c1.81-.21,3.61-.38,5.42-.44h3.95a1.65,1.65,0,0,0,.74-.06c.79,1,1.58,2,2.36,3.07.62.82,1.23,1.65,1.84,2.48s1.17,1.78,1.85,2.58a.161.161,0,0,0,.19-.26Z" transform="translate(-38.19 -54.98)" fill="#263238"/>
        <path id="Path_1080" data-name="Path 1080" d="M109.17,292.14A19.2,19.2,0,0,0,106,292c-1.05,0-2.1,0-3.14.06a.07.07,0,1,0,0,.13c1.06-.07,2.12-.09,3.18-.08s2.06.12,3.08.09C109.2,292.19,109.21,292.14,109.17,292.14Z" transform="translate(-38.19 -54.98)" fill="#263238"/>
        <path id="Path_1081" data-name="Path 1081" d="M118.38,294.5a30,30,0,0,1,.46-3c0-.1-.12-.13-.13,0-.15,1-.34,2-.49,2.95-.07.5-.14,1-.2,1.48a7.43,7.43,0,0,0-.12,1.4.09.09,0,0,0,.17,0,8.21,8.21,0,0,0,.15-1.4C118.27,295.45,118.32,295,118.38,294.5Z" transform="translate(-38.19 -54.98)" fill="#263238"/>
        <path id="Path_1082" data-name="Path 1082" d="M116.45,283.4c-.26,1-.51,2-.69,3-.09.5-.17,1-.24,1.51a6.79,6.79,0,0,0-.1,1.49h.08a8.29,8.29,0,0,0,.23-1.41c.07-.49.14-1,.23-1.46.17-1,.36-2,.61-3C116.6,283.37,116.47,283.32,116.45,283.4Z" transform="translate(-38.19 -54.98)" fill="#263238"/>
        <path id="Path_1083" data-name="Path 1083" d="M78.26,342.88q-.24-2.78-.53-5.53-.58-5.49-1.32-10.94c-.49-3.63-1-7.27-1.54-10.89a28,28,0,0,0-1.12-4.94A4.73,4.73,0,0,0,71,307.49c-3.45-1.19-5.78,2.39-7.17,4.92,0,.08.07.13.12.07.83-1.2,3.14-4.57,5.75-4.41,1.77.1,3.17,1.35,4,5.74,2.11,10.94,4,33.15,4.23,34.6.11.77.66.74.66-.09A49.635,49.635,0,0,0,78.26,342.88Z" transform="translate(-38.19 -54.98)" fill="#263238"/>
        <path id="Path_1084" data-name="Path 1084" d="M64.77,311.05s3-10.65-3.65-5.32c-11.1,8.86-11.49,28.14-11.49,28.14s19.73-11.46,22.18-19C75.46,303.6,64.77,311.05,64.77,311.05Z" transform="translate(-38.19 -54.98)" fill="#ffc727"/>
        <path id="Path_1085" data-name="Path 1085" d="M68.51,316.28c-1.55.31-3.12.52-4.69.74l-2.22.31-1.5.18c1.46-2,2.95-4,4.36-6.1.05-.08-.07-.17-.14-.1a46,46,0,0,0-3.29,3.8c-.29-.82-.59-1.64-.88-2.47s-.69-1.9-.94-2.88a.06.06,0,0,0-.12,0c.27,1,.46,2,.72,2.95s.54,1.88.87,2.79c-.72.94-1.41,1.9-2.09,2.87-.34-1-.76-1.89-1.06-2.87,0-.08-.15,0-.12,0,.35,1.08.54,2.21.87,3.29-.45.67-.9,1.33-1.33,2-.8,1.24-1.55,2.49-2.29,3.75a.31.31,0,0,0-.17.3c-1.25,2.15-2.43,4.34-3.6,6.55a.07.07,0,1,0,.12.06c1.17-2.18,2.47-4.3,3.82-6.38h0a4,4,0,0,1,.64-.12l.68-.15c.51-.11,1-.24,1.53-.37,1-.24,2-.48,3-.66.09,0,0-.14,0-.12-1.19.22-2.39.36-3.59.5-.57.07-1.14.14-1.71.23H55.3c.71-1.08,1.43-2.15,2.16-3.2s1.45-2.07,2.19-3.09c.68-.1,1.36-.28,2-.41L64,317.3c1.53-.3,3.05-.64,4.58-.89a.074.074,0,1,0-.07-.13Z" transform="translate(-38.19 -54.98)" fill="#263238"/>
        <path id="Path_1086" data-name="Path 1086" d="M56.65,317.33l-.27-.85c-.18-.59-.33-1.18-.45-1.78,0-.09-.14-.05-.13,0,.13.6.27,1.2.41,1.8a12,12,0,0,0,.52,1.77.12.12,0,1,0,.22-.07C56.87,317.93,56.75,317.63,56.65,317.33Z" transform="translate(-38.19 -54.98)" fill="#263238"/>
        <path id="Path_1087" data-name="Path 1087" d="M70.52,313.81c-.9.14-1.8.2-2.71.28s-1.81.21-2.71.34v.08c.91-.06,1.81-.13,2.71-.25s1.81-.25,2.72-.31C70.61,313.94,70.61,313.8,70.52,313.81Z" transform="translate(-38.19 -54.98)" fill="#263238"/>
        <path id="Path_1088" data-name="Path 1088" d="M92.78,329.4c-.35-7.84-.85-15.67-1.63-23.48-.4-3.89-.84-7.77-1.38-11.64A84.177,84.177,0,0,0,87.52,283a21.72,21.72,0,0,0-3.75-7.95,8.52,8.52,0,0,0-7.58-3.31c-3.43.42-6.2,2.59-8.59,4.93-2.68,2.64-5.13,5.52-7.62,8.34l-1.87,2.15c0,.06,0,.15.1.09,2.43-2.79,4.95-5.5,7.59-8.09,2.44-2.4,5-5,8.33-6a8.58,8.58,0,0,1,4.84-.12,7.63,7.63,0,0,1,3.31,2.1A17.38,17.38,0,0,1,86,282.4c2.1,7.21,2.86,14.76,3.64,22.2s1.33,15.15,1.72,22.74.68,15.28,1.41,22.89c.09.93.21,1.87.33,2.81.08.63,1.06.63,1,0C93.5,345.15,93.13,337.28,92.78,329.4Z" transform="translate(-38.19 -54.98)" fill="#263238"/>
        <path id="Path_1089" data-name="Path 1089" d="M67.17,277.53s4.48-8.28-.81-10.94-23,17.11-28.17,46c0,0,28.6-12.66,38.31-25.26S75.2,272,67.17,277.53Z" transform="translate(-38.19 -54.98)" fill="#ffc727"/>
        <path id="Path_1090" data-name="Path 1090" d="M71.38,284.27c-3.22,0-6.42-.24-9.64-.22L63.55,282a30.51,30.51,0,0,0,2.52-2.92c0-.06-.06-.16-.12-.11a23.322,23.322,0,0,0-2.43,2.44L61.11,284c-1.22,1.33-2.43,2.68-3.63,4v-5.34c0-2.21,0-4.44.17-6.64,0-.09-.12-.08-.13,0-.15,2.22-.38,4.43-.49,6.65-.06,1.09-.08,2.18-.1,3.27v2.63c-.19.22-.38.42-.57.63-2.57,2.93-5,6-7.38,9.05a4.38,4.38,0,0,0,0-.51,8.05,8.05,0,0,0-.11-1c-.09-.74-.19-1.47-.3-2.21s-.21-1.37-.33-2.06-.31-1.56-.37-2.34a.07.07,0,1,0-.13,0,23.351,23.351,0,0,1,.27,2.36c.06.7.13,1.41.19,2.12s.13,1.41.2,2.12c0,.34.07.68.1,1a1.287,1.287,0,0,0,.07.51.94.94,0,0,0,.13.4c-.4.54-.81,1.07-1.22,1.6-1.62,2.15-3.21,4.32-4.8,6.49,0,.06,0,.16.09.09,1.51-2,3.06-3.9,4.63-5.81,1.18.05,2.38,0,3.56-.06s2.48,0,3.72,0a.065.065,0,0,0,0-.13H50.96c-1.24,0-2.28-.05-3.41,0,1.38-1.68,2.78-3.35,4.18-5,.51-.61,1-1.22,1.54-1.82a6.82,6.82,0,0,0,1.43,0h4.86c2.18,0,4.37-.11,6.55-.11.09,0,.08-.14,0-.14-2.19,0-4.37-.12-6.56-.17l-3.17-.08H53.69l3.6-4.27a.19.19,0,0,0,.07-.08c1.17-1.38,2.34-2.76,3.53-4.13l.49-.56c3.33.1,6.66-.12,10,0C71.46,284.41,71.46,284.27,71.38,284.27Z" transform="translate(-38.19 -54.98)" fill="#263238"/>
        <path id="Path_1091" data-name="Path 1091" d="M69.73,290H69c-.07,0-.07.12,0,.12h.78A.067.067,0,0,0,69.73,290Z" transform="translate(-38.19 -54.98)" fill="#263238"/>
        <path id="Path_1092" data-name="Path 1092" d="M68,290q-1.55,0-3.09-.06H63.37a5.339,5.339,0,0,0-1.44,0v.09a5,5,0,0,0,1.44.1H68a.07.07,0,0,0,0-.13Z" transform="translate(-38.19 -54.98)" fill="#263238"/>
        <path id="Path_1093" data-name="Path 1093" d="M59,299.62a43.286,43.286,0,0,0-6.32-.58h0c2.1.2,4.2.31,6.29.65C59.06,299.76,59.09,299.63,59,299.62Z" transform="translate(-38.19 -54.98)" fill="#263238"/>
        <path id="Path_1094" data-name="Path 1094" d="M50.41,290.42l-.06-.56c-.05-.41-.12-.82-.19-1.23-.12-.79-.26-1.57-.41-2.35,0-.08-.13-.06-.12,0,.09.8.18,1.61.26,2.42,0,.4.06.8.1,1.2a3.29,3.29,0,0,0,.16,1.13.15.15,0,0,0,.28,0,1.46,1.46,0,0,0-.02-.61Z" transform="translate(-38.19 -54.98)" fill="#263238"/>
        <path id="Path_1095" data-name="Path 1095" d="M92.5,266.89c-1-1.9-2.33-4.42-4.88-4.26-2.11.13-3.06,2.28-3.51,4.06-1.4,5.51-1.49,11.31-1.77,16.95-.57,11.92-1.08,23.85-1.16,35.79v9.92c0,3.31,0,6.77.24,10.14a.25.25,0,0,0,.49,0c0-2.89-.08-5.78-.09-8.66s0-5.64.06-8.45q.13-8.56.45-17.11c.21-5.67.46-11.33.7-17q.18-4.25.37-8.49c.12-2.74.24-5.49.55-8.22.18-1.52.41-3.05.72-4.56A6.47,6.47,0,0,1,86,263.93a2.89,2.89,0,0,1,3.73-.27,8,8,0,0,1,2.65,3.3C92.43,267,92.54,267,92.5,266.89Z" transform="translate(-38.19 -54.98)" fill="#263238"/>
        <path id="Path_1096" data-name="Path 1096" d="M91.81,266s-2.1-7.41,2.54-3.71c7.73,6.18,8,19.61,8,19.61s-13.75-8-15.45-13.25C84.36,260.79,91.81,266,91.81,266Z" transform="translate(-38.19 -54.98)" fill="#ffc727"/>
        <path id="Path_1097" data-name="Path 1097" d="M99.46,276.37c-.12-.2-.26-.4-.39-.61a3.309,3.309,0,0,0,0-.63c0-.32,0-.64,0-1a16.7,16.7,0,0,1,.07-1.87.07.07,0,1,0-.14,0c0,.61-.05,1.23-.07,1.84v1.32c-.54-.84-1.09-1.67-1.67-2.48-.16-.24-.34-.47-.51-.7a15,15,0,0,1,0-2.42c0-.87,0-1.73.06-2.59,0-.08-.13-.08-.14,0,0,.9-.07,1.8-.11,2.69,0,.64-.09,1.28-.06,1.92-1.32-1.8-2.73-3.54-4.16-5.27,0-.06-.14,0-.1.08.89,1.12,1.73,2.26,2.56,3.42-1.62-.38-3.26-.59-4.9-.83-.09,0-.12.12,0,.13,1.74.26,3.45.7,5.17,1.08h0l2,2.79.78,1.15h-.08l-.53-.07c-.38,0-.76-.08-1.14-.11-.8-.06-1.59-.1-2.38-.14a.065.065,0,1,0,0,.13,22.6,22.6,0,0,1,2.33.16l1.23.15.54.06h.16l1.32,1.95c.77,1.15,1.47,2.38,2.3,3.49,0,.06.14,0,.1-.07a34.262,34.262,0,0,0-2.24-3.57Z" transform="translate(-38.19 -54.98)" fill="#263238"/>
        <path id="Path_1098" data-name="Path 1098" d="M96,268v-.86a13.78,13.78,0,0,1,.07-1.82.07.07,0,1,0-.13,0c0,.6-.07,1.2-.09,1.8v1.31a1.23,1.23,0,0,0,0,.43.06.06,0,1,0,.12,0,1.31,1.31,0,0,0,0-.4A2.53,2.53,0,0,0,96,268Z" transform="translate(-38.19 -54.98)" fill="#263238"/>
        <path id="Path_1099" data-name="Path 1099" d="M94.34,271.07a15.041,15.041,0,0,0-1.55-.16c-.55-.04-1.13-.1-1.69-.17-.1,0-.12.12,0,.13,1.09.07,2.17.26,3.25.3a.05.05,0,1,0-.01-.1Z" transform="translate(-38.19 -54.98)" fill="#263238"/>
        <path id="Path_1100" data-name="Path 1100" d="M98.66,271.11v1.56a1.18,1.18,0,0,0,0,.46h0a.41.41,0,0,0,0-.22v-1.8C98.66,271.05,98.57,271,98.66,271.11Z" transform="translate(-38.19 -54.98)" fill="#263238"/>
        <path id="Path_1101" data-name="Path 1101" d="M92.82,306.47c-2.89-2.17-5.49-5.29-9.37-5.44-3.21-.12-5.46,2.29-6.75,5a28.781,28.781,0,0,0-1.57,4.43q-.87,3-1.64,6.12c-1,4-1.87,8.1-2.57,12.19-.39,2.28-.76,4.57-1,6.87a59.471,59.471,0,0,0-.68,7,.37.37,0,0,0,.72.08c.39-1.93.55-3.91.84-5.85s.58-3.91.91-5.85q1-5.84,2.3-11.62c.83-3.64,1.64-7.33,2.82-10.87.84-2.54,2.19-5.5,4.93-6.41,4.17-1.39,8,2.14,11,4.43C92.79,306.62,92.89,306.52,92.82,306.47Z" transform="translate(-38.19 -54.98)" fill="#263238"/>
        <path id="Path_1102" data-name="Path 1102" d="M89.83,304.4s-2.67-7.61,1.19-9.1c5.77-2.24,20.89,14.79,17.93,40.87a148.25,148.25,0,0,1-20.3-13.67c-8.63-7.24-10.83-16.69-7-19.13S89.83,304.4,89.83,304.4Z" transform="translate(-38.19 -54.98)" fill="#ffc727"/>
        <path id="Path_1103" data-name="Path 1103" d="M107.2,330.58a20.07,20.07,0,0,0-1.4-2.63c-.5-.9-1-1.79-1.51-2.67-1-1.71-2-3.43-3-5.13l-.51-.83a.476.476,0,0,1,.07-.3l.17-.76c.13-.56.23-1.14.33-1.71.21-1.11.41-2.24.71-3.34a.065.065,0,1,0-.13,0c-.24,1.11-.59,2.21-.92,3.3-.17.54-.34,1.08-.48,1.62l-.15.56c-1.24-2-2.5-4.06-3.86-6a2.841,2.841,0,0,0,.13-.84,11.054,11.054,0,0,1,.13-1.14c.11-.86.2-1.72.33-2.57a49.941,49.941,0,0,1,.92-5c0-.08-.11-.1-.14,0-.41,1.64-.86,3.28-1.18,4.95-.15.82-.29,1.64-.4,2.46-.06.41-.1.82-.14,1.24v.37c-.42-.59-.84-1.18-1.28-1.76-1.33-1.75-2.71-3.47-4.11-5.17,0-.07-.16,0-.11.07a92.48,92.48,0,0,1,6.57,9.6l1.14,1.84-.38-.05c-.49-.06-1-.09-1.47-.14l-3-.25c-2-.16-3.94-.28-5.9-.49-.09,0-.11.12,0,.13,2,.23,4,.55,6,.83,1,.14,2,.27,2.93.39a11,11,0,0,0,2.25.23L101,321.1a4.52,4.52,0,0,0-.52,0H93.89a.065.065,0,0,0,0,.13c1.28,0,2.56.08,3.84.15l1.83.11c.3,0,.6.05.91.06a1.8,1.8,0,0,0,.8,0c.66,1.07,1.32,2.14,2,3.21s1.22,2,1.84,2.94a24,24,0,0,0,2,3C107.13,330.7,107.23,330.66,107.2,330.58Z" transform="translate(-38.19 -54.98)" fill="#263238"/>
        <path id="Path_1104" data-name="Path 1104" d="M101.64,309.5a21.44,21.44,0,0,1-.52,2.48c-.22.84-.47,1.68-.74,2.51a.084.084,0,0,0,.16.05c.26-.83.49-1.65.69-2.49s.33-1.69.54-2.53C101.79,309.44,101.65,309.41,101.64,309.5Z" transform="translate(-38.19 -54.98)" fill="#263238"/>
        <path id="Path_1105" data-name="Path 1105" d="M93.06,314.59a1,1,0,0,0-.64-.24l-1.1-.15-2-.25c-1.43-.16-2.85-.3-4.27-.48-.09,0-.11.12,0,.13,1.35.16,2.68.37,4,.54l2,.26,1,.1a3.27,3.27,0,0,1,1.08.19C93.06,314.72,93.1,314.64,93.06,314.59Z" transform="translate(-38.19 -54.98)" fill="#263238"/>
        <path id="Path_1106" data-name="Path 1106" d="M101.62,326.06c-.67-.06-1.35-.08-2-.1H98.13a3.389,3.389,0,0,1-.64,0c-.09,0-.1.14,0,.13a3,3,0,0,1,.6,0h.53l1,.06c.67,0,1.35.08,2,.09C101.69,326.21,101.7,326.07,101.62,326.06Z" transform="translate(-38.19 -54.98)" fill="#263238"/>
        <path id="Path_1107" data-name="Path 1107" d="M105.73,323.14c.08-.38.15-.76.22-1.14l.42-2.26a.07.07,0,0,0-.13,0c-.17.73-.33,1.46-.5,2.19l-.24,1.1a3.064,3.064,0,0,1-.1.51,1.25,1.25,0,0,0-.06.54c0,.06.1.11.14.05A2.67,2.67,0,0,0,105.73,323.14Z" transform="translate(-38.19 -54.98)" fill="#263238"/>
        <path id="Path_1108" data-name="Path 1108" d="M61.87,290.64l-.65,10.78L59.3,333.25H26.66l-1.92-31.83-.65-10.78Z" fill="#37474f"/>
        <path id="Path_1109" data-name="Path 1109" d="M61.87,290.64l-.65,10.78H24.74l-.65-10.78Z" fill="#263238"/>
        <rect id="Rectangle_159" data-name="Rectangle 159" width="43.79" height="10.79" transform="translate(21.08 283.01)" fill="#37474f"/>
      </g>
      <g id="Shadow">
        <ellipse id="Ellipse_16" data-name="Ellipse 16" cx="180.13" cy="15.73" rx="180.13" ry="15.73" transform="translate(31.68 364.76)" fill="#ebebeb"/>
      </g>
      <g id="Screens">
        <rect id="Rectangle_160" data-name="Rectangle 160" width="168.83" height="168.48" transform="translate(122.81 0.9)" fill="#a6a6a6"/>
        <rect id="Rectangle_161" data-name="Rectangle 161" width="168.94" height="10.18" transform="translate(122.81 0.9)" fill="#263238"/>
        <path id="Path_1110" data-name="Path 1110" d="M169,61a2.12,2.12,0,1,1-2.12-2.12A2.12,2.12,0,0,1,169,61Z" transform="translate(-38.19 -54.98)" fill="#c7c7c7"/>
        <path id="Path_1111" data-name="Path 1111" d="M177.67,61a2.12,2.12,0,1,1-2.12-2.12A2.12,2.12,0,0,1,177.67,61Z" transform="translate(-38.19 -54.98)" fill="#fff"/>
        <path id="Path_1112" data-name="Path 1112" d="M186.31,61a2.12,2.12,0,1,1-2.12-2.12A2.12,2.12,0,0,1,186.31,61Z" transform="translate(-38.19 -54.98)" fill="#ffc727"/>
        <rect id="Rectangle_162" data-name="Rectangle 162" width="123.45" height="123.45" transform="translate(145.55 28.32)" fill="#fff"/>
        <path id="Path_1113" data-name="Path 1113" d="M245.39,186.55v-1a42.93,42.93,0,1,0-42.92-42.923l-1,0a43.89,43.89,0,1,1,43.883,43.88Z" transform="translate(-38.19 -54.98)" fill="#ffc727"/>
        <path id="Path_1114" data-name="Path 1114" d="M204.34,142.67a2.35,2.35,0,1,1-.685-1.668A2.36,2.36,0,0,1,204.34,142.67Z" transform="translate(-38.19 -54.98)" fill="#fff"/>
        <path id="Path_1115" data-name="Path 1115" d="M202,145.5a2.84,2.84,0,1,1,2.83-2.83A2.84,2.84,0,0,1,202,145.5Zm0-4.71a1.88,1.88,0,1,0,1.87,1.88,1.88,1.88,0,0,0-1.87-1.88Z" transform="translate(-38.19 -54.98)" fill="#ffc727"/>
        <path id="Path_1116" data-name="Path 1116" d="M232.21,133.61a5.12,5.12,0,1,1-5.12-5.11,5.12,5.12,0,0,1,5.12,5.11Z" transform="translate(-38.19 -54.98)" fill="#ffc727"/>
        <circle id="Ellipse_17" data-name="Ellipse 17" cx="5.12" cy="5.12" r="5.12" transform="translate(220.38 73.51)" fill="#ffc727"/>
        <circle id="Ellipse_18" data-name="Ellipse 18" cx="2.36" cy="2.36" r="2.36" transform="translate(248.25 85.32)" fill="#fff"/>
        <path id="Path_1117" data-name="Path 1117" d="M288.8,145.5a2.84,2.84,0,1,1,2.83-2.83,2.84,2.84,0,0,1-2.83,2.83Zm0-4.71a1.88,1.88,0,1,0,1.87,1.88,1.88,1.88,0,0,0-1.87-1.88Z" transform="translate(-38.19 -54.98)" fill="#ffc727"/>
        <path id="Path_1118" data-name="Path 1118" d="M247.75,99.26a2.36,2.36,0,1,1-2.36-2.35,2.36,2.36,0,0,1,2.36,2.35Z" transform="translate(-38.19 -54.98)" fill="#fff"/>
        <path id="Path_1119" data-name="Path 1119" d="M245.39,102.1a2.84,2.84,0,1,1,2.84-2.84A2.84,2.84,0,0,1,245.39,102.1Zm0-4.71a1.87,1.87,0,1,0,1.329.544,1.88,1.88,0,0,0-1.329-.544Z" transform="translate(-38.19 -54.98)" fill="#ffc727"/>
        <path id="Path_1120" data-name="Path 1120" d="M247.75,186.05a2.36,2.36,0,1,1-2.36-2.36,2.36,2.36,0,0,1,2.36,2.36Z" transform="translate(-38.19 -54.98)" fill="#ffc727"/>
        <path id="Path_1121" data-name="Path 1121" d="M254.76,191.57a26.9,26.9,0,0,1,1.87,11.94l-4.38,2.14a26.73,26.73,0,0,1-8.26-8.81c3.27-4.72.63-10.41.63-10.41l.46-.22,4.36,8.92a1.52,1.52,0,1,0,.63-.31l-4.36-8.92.45-.22S249,191.25,254.76,191.57Z" transform="translate(-38.19 -54.98)" fill="#263238"/>
        <rect id="Rectangle_163" data-name="Rectangle 163" width="7.21" height="3.03" transform="translate(212.739 150.663) rotate(-26.03)" fill="#263238"/>
        <rect id="Rectangle_164" data-name="Rectangle 164" width="0.56" height="5.4" transform="translate(224.19 148.3)" fill="#263238"/>
        <rect id="Rectangle_165" data-name="Rectangle 165" width="5.4" height="0.56" transform="translate(221.77 150.72)" fill="#263238"/>
        <rect id="Rectangle_166" data-name="Rectangle 166" width="5.4" height="0.56" transform="translate(222.37 152.719) rotate(-45)" fill="#263238"/>
        <rect id="Rectangle_167" data-name="Rectangle 167" width="0.56" height="5.4" transform="translate(222.37 149.297) rotate(-45)" fill="#263238"/>
        <path id="Path_1122" data-name="Path 1122" d="M262.65,194.27c-4.25-.1-5.68-2.88-6.94-5.33a7.56,7.56,0,0,0-2.43-3.26c-3.39-2-6.6.91-6.74,1l-.76-.82s3.95-3.58,8.07-1.18c1.35.79,2.08,2.21,2.85,3.72,1.23,2.38,2.39,4.63,6,4.72Z" transform="translate(-38.19 -54.98)" fill="#263238"/>
        <path id="Path_1123" data-name="Path 1123" d="M255,132.45a9.61,9.61,0,0,1-19.22,0Z" transform="translate(-38.19 -54.98)" fill="#ffc727"/>
        <rect id="Rectangle_168" data-name="Rectangle 168" width="29.44" height="110.72" transform="translate(77.92 36.32)" fill="#455a64"/>
        <rect id="Rectangle_169" data-name="Rectangle 169" width="0.24" height="2.57" transform="translate(79.312 37.716) rotate(-45)" fill="#ebebeb"/>
        <rect id="Rectangle_170" data-name="Rectangle 170" width="2.57" height="0.24" transform="translate(79.322 39.381) rotate(-45)" fill="#ebebeb"/>
        <rect id="Rectangle_171" data-name="Rectangle 171" width="0.24" height="1.53" transform="translate(103.688 38.559) rotate(-45.01)" fill="#ebebeb"/>
        <rect id="Rectangle_172" data-name="Rectangle 172" width="1.53" height="0.24" transform="translate(103.682 38.554) rotate(-45)" fill="#ebebeb"/>
        <rect id="Rectangle_173" data-name="Rectangle 173" width="0.24" height="1.53" transform="translate(104.877 38.547) rotate(-45)" fill="#ebebeb"/>
        <rect id="Rectangle_174" data-name="Rectangle 174" width="1.53" height="0.24" transform="translate(104.88 38.546) rotate(-45)" fill="#ebebeb"/>
        <path id="Path_1124" data-name="Path 1124" d="M124.24,109.72l-1.26-3-2.26,1.75V98.6l6.87,6.94-2.88.43,1.26,3Zm-1.06-3.82,1.32,3.2.84-.35L124,105.58l2.55-.38-5.38-5.43v7.67Z" transform="translate(-38.19 -54.98)" fill="#ebebeb"/>
        <path id="Path_1125" data-name="Path 1125" d="M101.72,50.79l1.29,3.11-1.29.53-1.29-3.13-2.12,1.65V44.2l6.12,6.19Z" fill="#ebebeb"/>
        <rect id="Rectangle_175" data-name="Rectangle 175" width="9.72" height="0.72" transform="matrix(0.615, -0.789, 0.789, 0.615, 82.563, 70.485)" fill="#ebebeb"/>
        <path id="Path_1126" data-name="Path 1126" d="M85.26,63.77l-1.46.27-.33,1.54-.33-1.54-1.46-.27,1.46-.36.33-1.45.33,1.45Z" fill="#ebebeb"/>
        <path id="Path_1127" data-name="Path 1127" d="M88.5,61.33l-.86.16-.19.9-.19-.9-.86-.16.85-.21.2-.85.2.85Z" fill="#ebebeb"/>
        <path id="Path_1128" data-name="Path 1128" d="M89.51,66.19l-.49.09-.11.51-.11-.51-.48-.09.48-.12.11-.49.12.49Z" fill="#ebebeb"/>
        <rect id="Rectangle_176" data-name="Rectangle 176" width="9.72" height="0.72" transform="matrix(0.615, -0.789, 0.789, 0.615, 96.764, 97.933)" fill="#ebebeb"/>
        <path id="Path_1129" data-name="Path 1129" d="M101.72,68.21l1.29,3.11-1.29.53-1.29-3.13-2.12,1.65V61.62l6.12,6.19Z" fill="#ebebeb"/>
        <path id="Path_1130" data-name="Path 1130" d="M135.9,122a2.81,2.81,0,0,1-2.58-1.11c-.51-1-.13-3.09,3-4.8,2.49-1.36,5-.8,5.58.18a2,2,0,0,1,.1,1.67,6.1,6.1,0,0,1-3.44,3.47h0a6.74,6.74,0,0,1-2.66.59Zm3.49-6.24a5.94,5.94,0,0,0-2.83.75c-2.81,1.53-3.22,3.37-2.81,4.17s2.36,1.29,4.62.29h0a5.67,5.67,0,0,0,3.18-3.17,1.55,1.55,0,0,0-.05-1.27,2.51,2.51,0,0,0-2.11-.77Z" transform="translate(-38.19 -54.98)" fill="#ebebeb"/>
        <path id="Path_1131" data-name="Path 1131" d="M134.54,122.62a1.1,1.1,0,0,1-.92-.46h0a1,1,0,0,1-.14-1.11,1.44,1.44,0,0,1,1.25-.74,1.1,1.1,0,0,1,1,.56,1.14,1.14,0,0,1-.44,1.53,1.43,1.43,0,0,1-.75.22Zm-.53-.75a.73.73,0,0,0,1,.12.65.65,0,0,0,.27-.89.58.58,0,0,0-.56-.31,1,1,0,0,0-.83.48.55.55,0,0,0,.1.6Z" transform="translate(-38.19 -54.98)" fill="#ebebeb"/>
        <path id="Path_1132" data-name="Path 1132" d="M135.9,123.91l-.29-.39c.14-.1.31-.26.29-.43s-.57-.57-.82-.67l.17-.45c.11,0,1,.42,1.12,1.06a.93.93,0,0,1-.47.88Z" transform="translate(-38.19 -54.98)" fill="#ebebeb"/>
        <path id="Path_1133" data-name="Path 1133" d="M120.94,134.57a12,12,0,0,1,4.73-2.51l1.53,1.53a11.86,11.86,0,0,1-2.5,4.74,5.06,5.06,0,0,0-4.46,1.23l-.16-.16,3.12-3.11a.68.68,0,1,0-.22-.22l-3.12,3.11-.15-.16A5,5,0,0,0,120.94,134.57Z" transform="translate(-38.19 -54.98)" fill="#ebebeb"/>
        <rect id="Rectangle_177" data-name="Rectangle 177" width="3.2" height="1.35" transform="translate(89.196 79.163) rotate(-135)" fill="#ebebeb"/>
        <rect id="Rectangle_178" data-name="Rectangle 178" width="11.78" height="11.01" transform="translate(93.6 74.45)" fill="#263238"/>
        <path id="Path_1134" data-name="Path 1134" d="M136.06,134.57a12,12,0,0,1,4.74-2.51l1.53,1.53a12,12,0,0,1-2.51,4.74,5.06,5.06,0,0,0-4.46,1.23l-.15-.16,3.11-3.11a.68.68,0,1,0-.22-.22l-3.1,3.11-.16-.16A5,5,0,0,0,136.06,134.57Z" transform="translate(-38.19 -54.98)" fill="#ebebeb"/>
        <rect id="Rectangle_179" data-name="Rectangle 179" width="3.2" height="1.35" transform="translate(104.314 79.161) rotate(-135)" fill="#ebebeb"/>
        <path id="Path_1135" data-name="Path 1135" d="M135,139.42a1.88,1.88,0,0,1-1.65-.81c-.34-.54-.55-1.57.36-3.47a1.79,1.79,0,0,0,.14-1.64,2.15,2.15,0,0,0-1.49-.84l.05-.48a2.58,2.58,0,0,1,1.86,1.09,2.2,2.2,0,0,1-.13,2.08c-.81,1.7-.65,2.57-.38,3a1.4,1.4,0,0,0,1.24.59Z" transform="translate(-38.19 -54.98)" fill="#ebebeb"/>
        <path id="Path_1136" data-name="Path 1136" d="M126.9,144.82v2h-.66a.26.26,0,0,1-.27-.22,1.869,1.869,0,0,0-.06-.47h-1.69V152l.34.06h.24a.35.35,0,0,1,.3.36v.68h-3.29v-.68a.33.33,0,0,1,.29-.36h.24l.33-.06v-5.9H121v.48a.26.26,0,0,1-.27.22H120v-2h6.9Z" transform="translate(-38.19 -54.98)" fill="#ebebeb"/>
        <path id="Path_1137" data-name="Path 1137" d="M128.06,169.13h-8.43V160.7h8.43Zm-7.7-.72h7v-7h-7Z" transform="translate(-38.19 -54.98)" fill="#ebebeb"/>
        <path id="Path_1138" data-name="Path 1138" d="M141.35,194.25h-7.28v-6.51h7.28Zm-6.55-.72h5.83v-5.07H134.8Z" transform="translate(-38.19 -54.98)" fill="#ebebeb"/>
        <path id="Path_1139" data-name="Path 1139" d="M137.35,196.18h-5.07v-4.57h5.07Zm-4.34-.73h3.62v-3.12H133Z" transform="translate(-38.19 -54.98)" fill="#ebebeb"/>
        <rect id="Rectangle_180" data-name="Rectangle 180" width="2.59" height="0.48" transform="translate(99.72 135.932) rotate(-45)" fill="#ebebeb"/>
        <path id="Path_1140" data-name="Path 1140" d="M102.07,135.36h-.48v-.96h-.92v-.48h1.4Z" fill="#ebebeb"/>
        <path id="Path_1141" data-name="Path 1141" d="M141.75,169.13h-8.43V160.7h3.93a3.2,3.2,0,1,1,4.5,3.34Zm-7.71-.72h7v-4.86l.23-.09a2.477,2.477,0,1,0-3.31-2.39v.35H134Z" transform="translate(-38.19 -54.98)" fill="#ebebeb"/>
        <path id="Path_1142" data-name="Path 1142" d="M138.65,163.06c-1.26-.21-1.44,1.12-1.46,1.64a1.45,1.45,0,0,1-1,1.11s1.95.54,2.92-.46a1.31,1.31,0,0,0-.46-2.29Z" transform="translate(-38.19 -54.98)" fill="#ebebeb"/>
        <path id="Path_1143" data-name="Path 1143" d="M143,159l-3.15,4.45a1.34,1.34,0,0,0-1-.74h-.22l2.62-3.69Z" transform="translate(-38.19 -54.98)" fill="#ebebeb"/>
        <rect id="Rectangle_181" data-name="Rectangle 181" width="3.13" height="6.38" transform="translate(86.301 121.079) rotate(45)" fill="#ebebeb"/>
        <rect id="Rectangle_182" data-name="Rectangle 182" width="3.13" height="1.35" transform="translate(87.627 119.751) rotate(45)" fill="#ebebeb"/>
        <path id="Path_1144" data-name="Path 1144" d="M81.59,128l.18-2.35.48.03-.14,1.8,1.8-.14.04.49Z" fill="#ebebeb"/>
        <path id="Path_1145" data-name="Path 1145" d="M140.17,179.23a1.7,1.7,0,1,1,1.69-1.7,1.7,1.7,0,0,1-1.69,1.7Zm0-2.67a1,1,0,1,0,1,1A1,1,0,0,0,140.17,176.56Z" transform="translate(-38.19 -54.98)" fill="#ebebeb"/>
        <path id="Path_1146" data-name="Path 1146" d="M132.36,181.89l6.66-3.67,1.14.65s-4.85,3-5.71,3.28A3.29,3.29,0,0,1,132.36,181.89Z" transform="translate(-38.19 -54.98)" fill="#ebebeb"/>
        <path id="Path_1147" data-name="Path 1147" d="M140.14,183a1.7,1.7,0,1,1,1.7-1.69,1.7,1.7,0,0,1-1.7,1.69Zm0-2.67a1,1,0,1,1,0,.01Z" transform="translate(-38.19 -54.98)" fill="#ebebeb"/>
        <path id="Path_1148" data-name="Path 1148" d="M132.33,177l6.67,3.67,1.14-.65s-4.85-3-5.71-3.28a3.33,3.33,0,0,0-2.1.26Z" transform="translate(-38.19 -54.98)" fill="#ebebeb"/>
        <path id="Path_1149" data-name="Path 1149" d="M119.68,195.08v-6.25l4,3.13Zm.72-4.76v3.28l2.1-1.64Z" transform="translate(-38.19 -54.98)" fill="#ebebeb"/>
        <path id="Path_1150" data-name="Path 1150" d="M89.82,133.94v6.07l-3.86-3.03Z" fill="#ebebeb"/>
        <path id="Path_1151" data-name="Path 1151" d="M124.05,195.28h-.24v-1h.24Zm0-1.92h-.24v-1h.24Zm0-1.93h-.24v-1h.24Zm0-1.92h-.24v-1h.24Z" transform="translate(-38.19 -54.98)" fill="#ebebeb"/>
        <rect id="Rectangle_183" data-name="Rectangle 183" width="60.64" height="35.98" transform="translate(295.79 8.89)" fill="#455a64"/>
        <path id="Path_1152" data-name="Path 1152" d="M299,12.11l-1.82-1.82.17-.17,1.82,1.82Z" fill="#ebebeb"/>
        <path id="Path_1153" data-name="Path 1153" d="M297.35,12.11l-.17-.17L299,10.12l.17.17Z" fill="#ebebeb"/>
        <rect id="Rectangle_184" data-name="Rectangle 184" width="0.24" height="1.53" transform="translate(352.601 11.117) rotate(-44.99)" fill="#ebebeb"/>
        <rect id="Rectangle_185" data-name="Rectangle 185" width="1.53" height="0.24" transform="translate(352.607 11.107) rotate(-45)" fill="#ebebeb"/>
        <rect id="Rectangle_186" data-name="Rectangle 186" width="0.24" height="1.53" transform="translate(353.793 11.116) rotate(-44.99)" fill="#ebebeb"/>
        <rect id="Rectangle_187" data-name="Rectangle 187" width="1.53" height="0.24" transform="matrix(0.707, -0.707, 0.707, 0.707, 353.786, 11.105)" fill="#ebebeb"/>
        <rect id="Rectangle_188" data-name="Rectangle 188" width="0.24" height="23.64" transform="translate(306.5 14.61)" fill="#ebebeb"/>
        <rect id="Rectangle_189" data-name="Rectangle 189" width="0.24" height="23.64" transform="translate(315.22 14.61)" fill="#ebebeb"/>
        <path id="Path_1154" data-name="Path 1154" d="M340.38,71.77a3,3,0,0,0-2.53,1.43,3.12,3.12,0,0,0,2.53,1.44,3.23,3.23,0,0,0,2.56-1.44A3.08,3.08,0,0,0,340.38,71.77Zm0,2.61a1.18,1.18,0,1,1,1.071-1.175,1.18,1.18,0,0,1-1.071,1.175Z" transform="translate(-38.19 -54.98)" fill="#ebebeb"/>
        <path id="Path_1155" data-name="Path 1155" d="M341.28,73.21a.91.91,0,1,1-.91-.91.9.9,0,0,1,.91.91Z" transform="translate(-38.19 -54.98)" fill="#ebebeb"/>
        <path id="Path_1156" data-name="Path 1156" d="M340.38,80a3,3,0,0,0-2.53,1.43,3.12,3.12,0,0,0,2.53,1.44,3.23,3.23,0,0,0,2.56-1.44A3.08,3.08,0,0,0,340.38,80Zm0,2.6a1.17,1.17,0,1,1,1.17-1.16,1.17,1.17,0,0,1-1.17,1.16Z" transform="translate(-38.19 -54.98)" fill="#ebebeb"/>
        <path id="Path_1157" data-name="Path 1157" d="M341.28,81.43a.91.91,0,1,1-.9-.815A.91.91,0,0,1,341.28,81.43Z" transform="translate(-38.19 -54.98)" fill="#ebebeb"/>
        <path id="Path_1158" data-name="Path 1158" d="M340.38,87.85a3,3,0,0,0-2.53,1.43,3.12,3.12,0,0,0,2.53,1.44,3.23,3.23,0,0,0,2.56-1.44A3.08,3.08,0,0,0,340.38,87.85Zm0,2.61a1.18,1.18,0,1,1,1.071-1.175,1.18,1.18,0,0,1-1.071,1.175Z" transform="translate(-38.19 -54.98)" fill="#ebebeb"/>
        <path id="Path_1159" data-name="Path 1159" d="M341.28,89.29a.91.91,0,1,1-.91-.91.9.9,0,0,1,.91.91Z" transform="translate(-38.19 -54.98)" fill="#ebebeb"/>
        <rect id="Rectangle_190" data-name="Rectangle 190" width="55.63" height="0.24" transform="translate(298.29 22.38)" fill="#ebebeb"/>
        <rect id="Rectangle_191" data-name="Rectangle 191" width="55.63" height="0.24" transform="translate(298.29 30.28)" fill="#ebebeb"/>
        <path id="Path_1160" data-name="Path 1160" d="M360.11,74.92h0a.14.14,0,0,1-.14-.14V71a.14.14,0,0,1,.28,0v3.6h1.92a.14.14,0,1,1,0,.28Z" transform="translate(-38.19 -54.98)" fill="#ebebeb"/>
        <path id="Path_1161" data-name="Path 1161" d="M365.49,72.24v2.54a.14.14,0,0,1-.28,0v-.42a1.31,1.31,0,0,1-1,.56,1.41,1.41,0,1,1,0-2.82,1.29,1.29,0,0,1,1,.56v-.42a.14.14,0,0,1,.28,0Zm-.28,1.27a1.06,1.06,0,1,0-1,1.13,1.1,1.1,0,0,0,1-1.13Z" transform="translate(-38.19 -54.98)" fill="#ebebeb"/>
        <path id="Path_1162" data-name="Path 1162" d="M366.63,72.24a.13.13,0,0,1,.13-.14.14.14,0,0,1,.14.14v1.52a.87.87,0,1,0,1.73,0V72.24a.09.09,0,0,1,0-.07h.19a.09.09,0,0,1,0,.05.141.141,0,0,1,0,.06v2.45A1.32,1.32,0,0,1,367.57,76a1.44,1.44,0,0,1-.58-.13.14.14,0,0,1,.12-.25,1,1,0,0,0,.46.11,1.05,1.05,0,0,0,1.06-1v-.18a1.16,1.16,0,0,1-.87.4,1.14,1.14,0,0,1-1.13-1.15Z" transform="translate(-38.19 -54.98)" fill="#ebebeb"/>
        <path id="Path_1163" data-name="Path 1163" d="M369.86,73.52a1.4,1.4,0,0,1,1.37-1.42,1.38,1.38,0,0,1,1.35,1.31h0a.12.12,0,0,1-.13.12h-2.31a1.1,1.1,0,0,0,1.09,1.08,1.06,1.06,0,0,0,.91-.51.12.12,0,0,1,.18,0,.14.14,0,0,1,.05.19,1.34,1.34,0,0,1-1.14.64,1.39,1.39,0,0,1-1.37-1.41Zm.3-.23h2.13a1.08,1.08,0,0,0-2.13,0Z" transform="translate(-38.19 -54.98)" fill="#ebebeb"/>
        <path id="Path_1164" data-name="Path 1164" d="M373.44,72.25a.14.14,0,0,1,.28,0v.62a.249.249,0,0,1,0-.07,1.35,1.35,0,0,1,1.12-.69.14.14,0,1,1,0,.28,1,1,0,0,0-.81.46,2.551,2.551,0,0,0-.34.65h0v1.23a.14.14,0,0,1-.28,0Z" transform="translate(-38.19 -54.98)" fill="#ebebeb"/>
        <path id="Path_1165" data-name="Path 1165" d="M378.12,71.31l-.57.33h-.07a.14.14,0,0,1-.12-.07.13.13,0,0,1,.05-.19l.78-.47a.15.15,0,0,1,.19.06.16.16,0,0,1,0,.1v3.69a.14.14,0,1,1-.28,0Z" transform="translate(-38.19 -54.98)" fill="#ebebeb"/>
        <path id="Path_1166" data-name="Path 1166" d="M360.11,83.2h0a.14.14,0,0,1-.14-.14V79.32a.14.14,0,0,1,.28,0v3.6h1.92a.14.14,0,1,1,0,.28Z" transform="translate(-38.19 -54.98)" fill="#ebebeb"/>
        <path id="Path_1167" data-name="Path 1167" d="M365.49,80.52v2.54a.14.14,0,0,1-.28,0v-.42a1.31,1.31,0,0,1-1,.56,1.41,1.41,0,0,1,0-2.81,1.28,1.28,0,0,1,1,.55v-.42a.14.14,0,0,1,.28,0Zm-.28,1.27a1.06,1.06,0,1,0-1,1.13,1.09,1.09,0,0,0,1-1.13Z" transform="translate(-38.19 -54.98)" fill="#ebebeb"/>
        <path id="Path_1168" data-name="Path 1168" d="M366.63,80.52a.135.135,0,0,1,.27,0V82a.87.87,0,1,0,1.73,0V80.52a.09.09,0,0,1,0-.07h.19a.141.141,0,0,1,0,.06V83a1.33,1.33,0,0,1-1.34,1.33,1.45,1.45,0,0,1-.58-.14.14.14,0,0,1,.12-.25,1,1,0,0,0,.46.11,1.05,1.05,0,0,0,1.06-1v-.18a1.16,1.16,0,0,1-.87.4A1.14,1.14,0,0,1,366.63,82Z" transform="translate(-38.19 -54.98)" fill="#ebebeb"/>
        <path id="Path_1169" data-name="Path 1169" d="M369.86,81.8a1.39,1.39,0,0,1,1.37-1.41,1.37,1.37,0,0,1,1.35,1.3h0a.12.12,0,0,1-.13.12h-2.31a1.1,1.1,0,0,0,1.09,1.08,1.06,1.06,0,0,0,.91-.51.12.12,0,0,1,.18,0,.14.14,0,0,1,.05.19,1.34,1.34,0,0,1-1.14.64,1.39,1.39,0,0,1-1.37-1.41Zm.3-.23h2.13a1.08,1.08,0,0,0-2.13,0Z" transform="translate(-38.19 -54.98)" fill="#ebebeb"/>
        <path id="Path_1170" data-name="Path 1170" d="M373.44,80.53a.14.14,0,0,1,.28,0v.62a.249.249,0,0,1,0-.07,1.35,1.35,0,0,1,1.12-.69.14.14,0,1,1,0,.28,1,1,0,0,0-.81.46,2.551,2.551,0,0,0-.34.65h0v1.23a.14.14,0,0,1-.28,0Z" transform="translate(-38.19 -54.98)" fill="#ebebeb"/>
        <path id="Path_1171" data-name="Path 1171" d="M377.46,83l1.88-1.69a1.05,1.05,0,0,0,.34-.77,1.033,1.033,0,0,0-1.73-.76l-.2.17a.13.13,0,0,1-.19,0,.14.14,0,0,1,0-.2l.2-.18a1.31,1.31,0,0,1,.89-.34,1.28,1.28,0,0,1,1,.43,1.26,1.26,0,0,1,.35.88,1.34,1.34,0,0,1-.43,1L377.96,83h1.9a.14.14,0,1,1,0,.28H377.6a.157.157,0,0,1-.14-.28Z" transform="translate(-38.19 -54.98)" fill="#ebebeb"/>
        <path id="Path_1172" data-name="Path 1172" d="M360.11,91.48h0a.14.14,0,0,1-.14-.14V87.6a.14.14,0,0,1,.28,0v3.6h1.92a.14.14,0,1,1,0,.28Z" transform="translate(-38.19 -54.98)" fill="#ebebeb"/>
        <path id="Path_1173" data-name="Path 1173" d="M365.49,88.8v2.54a.14.14,0,0,1-.28,0v-.42a1.29,1.29,0,0,1-1,.56,1.41,1.41,0,0,1,0-2.81,1.28,1.28,0,0,1,1,.55V88.8a.14.14,0,0,1,.28,0Zm-.28,1.27a1.06,1.06,0,1,0-1,1.13,1.09,1.09,0,0,0,1-1.13Z" transform="translate(-38.19 -54.98)" fill="#ebebeb"/>
        <path id="Path_1174" data-name="Path 1174" d="M366.63,88.8a.135.135,0,0,1,.27,0v1.53a.87.87,0,0,0,1.73,0V88.8a.09.09,0,0,1,0-.07h.19a.141.141,0,0,1,0,.06v2.46a1.33,1.33,0,0,1-1.34,1.32,1.45,1.45,0,0,1-.58-.14.14.14,0,0,1,.12-.25,1.05,1.05,0,0,0,1.52-.93v-.19a1.16,1.16,0,0,1-.87.4,1.14,1.14,0,0,1-1.13-1.14Z" transform="translate(-38.19 -54.98)" fill="#ebebeb"/>
        <path id="Path_1175" data-name="Path 1175" d="M369.86,90.08a1.39,1.39,0,0,1,1.37-1.41A1.37,1.37,0,0,1,372.58,90h0a.12.12,0,0,1-.13.12h-2.31a1.1,1.1,0,0,0,1.09,1.08,1.06,1.06,0,0,0,.91-.51.12.12,0,0,1,.18,0,.14.14,0,0,1,.05.19,1.34,1.34,0,0,1-1.14.64,1.39,1.39,0,0,1-1.37-1.44Zm.3-.23h2.13a1.08,1.08,0,0,0-2.13,0Z" transform="translate(-38.19 -54.98)" fill="#ebebeb"/>
        <path id="Path_1176" data-name="Path 1176" d="M373.44,88.81a.14.14,0,0,1,.28,0v.62a.249.249,0,0,1,0-.07,1.35,1.35,0,0,1,1.12-.69.14.14,0,1,1,0,.28,1,1,0,0,0-.81.46,2.551,2.551,0,0,0-.34.65h0v1.23a.14.14,0,0,1-.28,0Z" transform="translate(-38.19 -54.98)" fill="#ebebeb"/>
        <path id="Path_1177" data-name="Path 1177" d="M379.89,87.71l-1,1.07a1.27,1.27,0,0,1,.69.37,1.32,1.32,0,0,1,.4,1,1.36,1.36,0,0,1-.4,1,1.41,1.41,0,0,1-1,.4,1.36,1.36,0,0,1-1-.4.145.145,0,1,1,.21-.2,1.1,1.1,0,0,0,.75.31,1.14,1.14,0,0,0,.77-.31,1.1,1.1,0,0,0,.31-.77A1.06,1.06,0,0,0,378.58,89a.14.14,0,0,1-.12-.06h0a.15.15,0,0,1,0-.21l1-1h-1.54a.15.15,0,0,1-.14-.15.14.14,0,0,1,.14-.14h1.88a.178.178,0,0,1,.14.21.05.05,0,0,1-.05.06Z" transform="translate(-38.19 -54.98)" fill="#ebebeb"/>
        <rect id="Rectangle_192" data-name="Rectangle 192" width="1.8" height="6.83" transform="translate(316.06 23.04)" fill="#455a64"/>
        <rect id="Rectangle_193" data-name="Rectangle 193" width="1.8" height="6.83" transform="translate(316.06 30.89)" fill="#263238"/>
        <rect id="Rectangle_194" data-name="Rectangle 194" width="1.8" height="6.83" transform="translate(316.06 14.81)" fill="#ffc727"/>
        <rect id="Rectangle_195" data-name="Rectangle 195" width="10.57" height="0.24" transform="translate(298.29 41.96)" fill="#ebebeb"/>
        <rect id="Rectangle_196" data-name="Rectangle 196" width="3.66" height="3.08" transform="translate(309.17 17.81)" fill="#ebebeb"/>
        <path id="Path_1178" data-name="Path 1178" d="M350.58,73.13h-.43v-.81c0-.89-.31-1.34-.93-1.34-1,0-1,1.19-1,1.24v.91h-.42v-.91a1.51,1.51,0,0,1,1.44-1.67c.88,0,1.36.63,1.36,1.77Z" transform="translate(-38.19 -54.98)" fill="#ebebeb"/>
        <path id="Path_1179" data-name="Path 1179" d="M387.24,75.08a1.87,1.87,0,1,1,1.87-1.87,1.87,1.87,0,0,1-1.87,1.87Zm0-3.5a1.63,1.63,0,1,0,1.63,1.63,1.63,1.63,0,0,0-1.63-1.63Z" transform="translate(-38.19 -54.98)" fill="#ebebeb"/>
        <path id="Path_1180" data-name="Path 1180" d="M387.24,83.3a1.87,1.87,0,1,1,1.87-1.87,1.87,1.87,0,0,1-1.87,1.87Zm0-3.5a1.63,1.63,0,1,0,1.63,1.63,1.63,1.63,0,0,0-1.63-1.63Z" transform="translate(-38.19 -54.98)" fill="#ebebeb"/>
        <path id="Path_1181" data-name="Path 1181" d="M387.24,91.53a1.88,1.88,0,1,1,1.87-1.88,1.88,1.88,0,0,1-1.87,1.88Zm0-3.51a1.65,1.65,0,1,0,0-.02Z" transform="translate(-38.19 -54.98)" fill="#ebebeb"/>
      </g>
      <g id="Character">
        <path id="Path_1182" data-name="Path 1182" d="M243.53,256.45l-2.58,15.51-17.52,94.6H220.6l12.74-94.6,1.88-15.51Z" fill="#c7c7c7"/>
        <path id="Path_1183" data-name="Path 1183" d="M235.22,256.45h8.31l-2.58,15.51h-7.61Z" fill="#a6a6a6"/>
        <path id="Path_1184" data-name="Path 1184" d="M298.55,366.56h-2.83l-17.52-94.6-2.58-15.51h8.31l1.88,15.51Z" fill="#c7c7c7"/>
        <path id="Path_1185" data-name="Path 1185" d="M283.93,256.45l1.88,15.51H278.2l-2.58-15.51Z" fill="#a6a6a6"/>
        <path id="Path_1186" data-name="Path 1186" d="M351.09,366.56h-2.82l-17.52-94.6-2.58-15.51h8.3l1.88,15.51Z" fill="#c7c7c7"/>
        <path id="Path_1187" data-name="Path 1187" d="M338.35,271.96h-7.6l-2.58-15.51h8.3Z" fill="#a6a6a6"/>
        <path id="Path_1188" data-name="Path 1188" d="M346.62,263.74H218.24V250.21H266.3l16.15-113.97h59.27Z" fill="#c7c7c7"/>
        <path id="Path_1189" data-name="Path 1189" d="M339.14,250.21H218.24v13.53H339.62Z" fill="#dbdbdb"/>
        <path id="Path_1190" data-name="Path 1190" d="M346.62,263.74h-7l-4.56-127.5h6.66Z" fill="#dbdbdb"/>
        <path id="Path_1191" data-name="Path 1191" d="M254.22,439.24c2.48.24,70.15-15.95,72.28-18.15.26-.25-1.08-6.4-3-14.78v-.17c-1.22-5.31-21-48.31-21-48.31l-43.86,12.28,20,39.89s-8.25,6-15.32,11.63h0c-4.37,3.48-8.13,6.6-8.93,7.61C252.21,431.92,251.74,439,254.22,439.24Z" transform="translate(-38.19 -54.98)" fill="#d3766a"/>
        <path id="Path_1192" data-name="Path 1192" d="M254.22,439.24c2.48.24,70.15-16,72.28-18.15.26-.25-1.08-6.39-3-14.78v-.16c-.45-2-3.49-9.21-7.12-17.49-7.21,1.95-33.09,9-42.48,11.88l4.73,9.46s-8.25,6-15.33,11.63h0c-4.36,3.48-8.13,6.61-8.93,7.62C252.21,431.92,251.73,439,254.22,439.24Z" transform="translate(-38.19 -54.98)" fill="#fff"/>
        <path id="Path_1193" data-name="Path 1193" d="M254,439.56c2.55.22,70.27-16.15,72.45-18.41.84-.85-.67-11.54-4.39-22.86L278.42,408.9S256.14,426.57,254,429.31,251.44,439.34,254,439.56Z" transform="translate(-38.19 -54.98)" fill="#ffc727"/>
        <path id="Path_1194" data-name="Path 1194" d="M254.31,436.62c11.29-3,57.08-14.15,68.46-16.29.1,0,.11.05,0,.07-11.12,3.25-57,14-68.43,16.41C254.12,436.86,254.07,436.68,254.31,436.62Z" transform="translate(-38.19 -54.98)" fill="#263238"/>
        <path id="Path_1195" data-name="Path 1195" d="M257.77,425.82a9.37,9.37,0,0,1,7.46,1.13,9.07,9.07,0,0,1,4,5.44c0,.07-.11.1-.14,0A10.84,10.84,0,0,0,257.81,426C257.71,426,257.68,425.84,257.77,425.82Z" transform="translate(-38.19 -54.98)" fill="#263238"/>
        <path id="Path_1196" data-name="Path 1196" d="M275.13,410.9c4.53-1.16,10.18-.83,13.91,2.2.14.12,0,.32-.18.29a64.341,64.341,0,0,0-13.67-1.91.3.3,0,0,1-.06-.58Z" transform="translate(-38.19 -54.98)" fill="#263238"/>
        <path id="Path_1197" data-name="Path 1197" d="M272,413.12c4.53-1.16,10.19-.83,13.91,2.2.14.12,0,.32-.18.28A64.231,64.231,0,0,0,272,413.7a.3.3,0,0,1,0-.58Z" transform="translate(-38.19 -54.98)" fill="#263238"/>
        <path id="Path_1198" data-name="Path 1198" d="M268.78,415.33c4.53-1.16,10.18-.83,13.9,2.2.15.12,0,.32-.17.29a64.34,64.34,0,0,0-13.68-1.91.291.291,0,1,1-.05-.58Z" transform="translate(-38.19 -54.98)" fill="#263238"/>
        <path id="Path_1199" data-name="Path 1199" d="M265.6,417.55c4.53-1.16,10.18-.83,13.91,2.2.14.12,0,.32-.18.28a64.877,64.877,0,0,0-13.67-1.9.3.3,0,0,1-.06-.58Z" transform="translate(-38.19 -54.98)" fill="#263238"/>
        <path id="Path_1200" data-name="Path 1200" d="M317.28,410.25c5.1-1.22,7,6.71,1.89,7.93S312.17,411.47,317.28,410.25Z" transform="translate(-38.19 -54.98)" fill="#263238"/>
        <path id="Path_1201" data-name="Path 1201" d="M269.26,406.54c3.22,2.57,7.44,3.66,11.21,5.11a.57.57,0,0,0,.73-.56.12.12,0,0,0,.11-.17,24.56,24.56,0,0,0-6.94-10.62c-1.89-1.63-5.24-2.8-7.08-.33S267.38,405,269.26,406.54Zm-1.12-3.71c-.74-5.06,4.64-2.34,6-1.08a27.688,27.688,0,0,1,2.4,2.67,68.645,68.645,0,0,1,4.19,6.11c-1.82-.83-3.68-1.5-5.52-2.26-2.21-.9-6.66-2.66-7.07-5.44Z" transform="translate(-38.19 -54.98)" fill="#263238"/>
        <path id="Path_1202" data-name="Path 1202" d="M296.74,404.12c-1.07-2.88-4.61-2.7-6.89-1.66a24.57,24.57,0,0,0-9.64,8.24.12.12,0,0,0,.06.19.57.57,0,0,0,.54.75c4-.34,8.39-.2,12.2-1.76C295.23,409,297.76,406.85,296.74,404.12Zm-9.92,5.76c-2,.21-4,.33-5.93.61a73.8,73.8,0,0,1,5.74-4.69,25.753,25.753,0,0,1,3.05-1.88c1.65-.83,7.57-1.93,5.44,2.71-1.12,2.56-5.94,2.99-8.3,3.25Z" transform="translate(-38.19 -54.98)" fill="#263238"/>
        <path id="Path_1203" data-name="Path 1203" d="M273.59,406.35l47-14.09s-38.73-80.71-37.51-84.82c.82-2.74,58.89-2.93,75.91-18.21,17.61-15.82,3.89-46.89,3.89-46.89L314,242.09s.84,10.19-1,11.78c-1.23,1-68,6.93-80.76,31.47C220.66,307.61,273.59,406.35,273.59,406.35Z" transform="translate(-38.19 -54.98)" fill="#263238"/>
        <path id="Path_1204" data-name="Path 1204" d="M283.06,307.44c-.21.69.73,3.59,2.45,7.93l-35.09,43.11c-12.51-28.53-24.27-61.42-18.16-73.14C245,260.8,311.78,254.92,313,253.87c1.86-1.58,1-11.78,1-11.78l31,.16-51.5,63.26C287.33,306.19,283.27,306.72,283.06,307.44Z" transform="translate(-38.19 -54.98)" fill="#263238"/>
        <path id="Path_1205" data-name="Path 1205" d="M272.42,396.41a28.883,28.883,0,0,1,3.83-1.43c1.35-.46,2.71-.92,4.07-1.36,2.68-.86,5.38-1.69,8.09-2.45,5.45-1.55,10.92-3.06,16.41-4.46,2.87-.72,9-2.31,9.39-2.25.18,0,.22.33.06.39-5.31,1.9-10.71,3.53-16.1,5.17s-10.77,3.27-16.23,4.64c-1.51.39-3,.72-4.55,1.09a34.583,34.583,0,0,1-4.83,1C272.4,396.8,272.25,396.5,272.42,396.41Z" transform="translate(-38.19 -54.98)" fill="#455a64"/>
        <path id="Path_1206" data-name="Path 1206" d="M360.24,251.64c-.15-1.63-.33-3.25-.52-4.88,0-.19-.31-.19-.29,0,.65,6.6,1.32,13.36.1,19.94a28.39,28.39,0,0,1-8.72,15.8c-9.68,9-23.23,11.69-35.85,13.84-7.22,1.23-14.49,2.17-21.79,2.89-3.58.35-7.16.63-10.74.86s-7.11.25-10.66.45c-1.12.06-2.12.58-1.95,1.86a9.23,9.23,0,0,0,.85,2.24l1.15,2.59q2.13,4.83,4.3,9.66,4.45,9.94,9,19.83,9.1,19.63,18.88,38.94l2.43,4.79c.06.1.21,0,.16-.1q-9.35-19.55-18.46-39.21c-3-6.51-6-13-9-19.53l-4.44-9.79c-.73-1.64-1.47-3.27-2.2-4.91-.36-.81-.73-1.63-1.09-2.45s-1.41-2.31-.65-3c.51-.42,1.57-.28,2.18-.29l2.83-.1c1.8-.06,3.59-.13,5.38-.22q5.44-.27,10.89-.74c7.09-.62,14.17-1.52,21.2-2.65,12.54-2,26.18-4.29,36.21-12.71a30.11,30.11,0,0,0,9.63-14C361,264.6,360.83,258,360.24,251.64Z" transform="translate(-38.19 -54.98)" fill="#455a64"/>
        <path id="Path_1207" data-name="Path 1207" d="M151,377.38c1.77,1.76,64.21,32.45,67.25,32.11.36,0,3.25-5.61,7.09-13.32l.07-.15c2.45-4.88,24.67-45.91,24.67-45.91l-38.85-19.67-22.84,39.93s-10.16-.66-19.22-.81h0c-5.58-.11-10.47-.1-11.73.17C154.11,370.46,149.21,375.63,151,377.38Z" transform="translate(-38.19 -54.98)" fill="#d3766a"/>
        <path id="Path_1208" data-name="Path 1208" d="M151,377.38c1.77,1.76,64.21,32.45,67.26,32.11.35,0,3.24-5.61,7.08-13.32l.07-.15.53-1c.12-.25.25-.49.39-.74l.58-1.1c1.7-3.21,4.48-8.4,7.53-14.08l-39.61-20-6.44,11.26s-10.16-.66-19.22-.81h0c-5.58-.1-10.48-.1-11.73.17C154.11,370.46,149.2,375.63,151,377.38Z" transform="translate(-38.19 -54.98)" fill="#fff"/>
        <path id="Path_1209" data-name="Path 1209" d="M150.6,377.49c1.83,1.8,64.43,32.36,67.56,32,1.18-.12,6.84-9.32,11.19-20.41L189,369.44s-28.43-.59-31.82.15S148.77,375.69,150.6,377.49Z" transform="translate(-38.19 -54.98)" fill="#ffc727"/>
        <path id="Path_1210" data-name="Path 1210" d="M152.72,375.42c10.62,4.87,53,25.5,63.13,31.12.08,0,.05.1,0,.06C205.18,402,163,381,152.64,375.59,152.42,375.48,152.5,375.32,152.72,375.42Z" transform="translate(-38.19 -54.98)" fill="#263238"/>
        <path id="Path_1211" data-name="Path 1211" d="M162.28,369.31a9.39,9.39,0,0,1,5,5.62,9.17,9.17,0,0,1-.39,6.75.072.072,0,0,1-.13-.06,10.84,10.84,0,0,0-4.57-12.18C162.14,369.39,162.19,369.27,162.28,369.31Z" transform="translate(-38.19 -54.98)" fill="#263238"/>
        <path id="Path_1212" data-name="Path 1212" d="M185.16,368.89c4.23,2,8.38,5.85,9.31,10.56a.18.18,0,0,1-.32.11,64.282,64.282,0,0,0-9.31-10.19.29.29,0,0,1,.32-.48Z" transform="translate(-38.19 -54.98)" fill="#263238"/>
        <path id="Path_1213" data-name="Path 1213" d="M181.3,368.57c4.23,2,8.38,5.85,9.31,10.56a.18.18,0,0,1-.32.11A64.711,64.711,0,0,0,181,369.05a.29.29,0,0,1,.3-.48Z" transform="translate(-38.19 -54.98)" fill="#263238"/>
        <path id="Path_1214" data-name="Path 1214" d="M177.44,368.25c4.23,2,8.38,5.85,9.31,10.56a.18.18,0,0,1-.32.11,64.229,64.229,0,0,0-9.31-10.19.29.29,0,0,1,.32-.48Z" transform="translate(-38.19 -54.98)" fill="#263238"/>
        <path id="Path_1215" data-name="Path 1215" d="M173.58,367.93c4.23,2,8.38,5.85,9.31,10.56a.18.18,0,0,1-.32.11,64.669,64.669,0,0,0-9.31-10.19.29.29,0,0,1,.32-.48Z" transform="translate(-38.19 -54.98)" fill="#263238"/>
        <path id="Path_1216" data-name="Path 1216" d="M218,395.26c4.7,2.32,1.12,9.63-3.6,7.32S213.33,392.94,218,395.26Z" transform="translate(-38.19 -54.98)" fill="#263238"/>
        <path id="Path_1217" data-name="Path 1217" d="M183.43,361.78c.83,4,3.39,7.56,5.37,11.09a.57.57,0,0,0,.92,0,.12.12,0,0,0,.19-.06,24.6,24.6,0,0,0,1.43-12.6c-.42-2.47-2.26-5.5-5.24-4.78C183.27,356.15,182.94,359.43,183.43,361.78Zm1.5-3.57c2.65-4.37,5.06,1.16,5.29,3a26.8,26.8,0,0,1,.15,3.58,72.77,72.77,0,0,1-.67,7.38c-.87-1.79-1.88-3.49-2.81-5.25C185.78,364.81,183.47,360.62,184.93,358.21Z" transform="translate(-38.19 -54.98)" fill="#263238"/>
        <path id="Path_1218" data-name="Path 1218" d="M206.13,377.45c1-2.9-1.83-5-4.24-5.68a24.6,24.6,0,0,0-12.69.2.13.13,0,0,0-.07.19.57.57,0,0,0-.06.92c3.32,2.31,6.58,5.19,10.51,6.42C201.88,380.21,205.18,380.19,206.13,377.45Zm-11.31-1.9c-1.66-1.1-3.26-2.27-5-3.3a70.458,70.458,0,0,1,7.41,0,25.07,25.07,0,0,1,3.55.5c1.8.41,7.07,3.34,2.47,5.55-2.5,1.27-6.45-1.44-8.43-2.75Z" transform="translate(-38.19 -54.98)" fill="#263238"/>
        <path id="Path_1219" data-name="Path 1219" d="M188.57,363.91l46.85,23.41S272,313,276,308.19c5.35-6.39,75,2.63,91.44-18,17-21.33,2.43-47.82,2.43-47.82h-53s-.16,5.88,2.9,14.48c0,0-60.63-3.61-77.79,13.06C228.78,282.7,188.57,363.91,188.57,363.91Z" transform="translate(-38.19 -54.98)" fill="#263238"/>
        <path id="Path_1220" data-name="Path 1220" d="M329.4,262.18A89.688,89.688,0,0,0,321,257a34.42,34.42,0,0,0-6.38-2.59c-1.55-.37-2.23-.48-.78.2l3.9,1.85h-.82c-1,0-2.08-.09-3.13-.11-2-.06-4.08,0-6.11-.06-4.14,0-8.24.37-12.37.58-.1,0-.1.17,0,.17,4.12-.14,8.25.08,12.38.07,2,0,4.07.05,6.11.08l3,.06a23.9,23.9,0,0,0,2.54,0l1.13.54c3,1.41,6,2.89,8.88,4.52C329.39,262.35,329.48,262.24,329.4,262.18Z" transform="translate(-38.19 -54.98)" fill="#455a64"/>
        <path id="Path_1221" data-name="Path 1221" d="M315.58,240.36c.54,2.51,1,5,1.63,7.51a29.353,29.353,0,0,0,1,3.4c.33.94.84,2,1.9,2.25,1.23.28,1.61-.76,1.55-1.78s-.33-2.29-.52-3.41c-.21-1.3-.43-2.6-.62-3.9-.09-.65-.2-1.3-.28-2a17.209,17.209,0,0,0-.18-1.76.07.07,0,0,1-.07.05h0a.08.08,0,0,1-.08-.07.185.185,0,0,1,.07-.18.08.08,0,0,1,.11,0c.24.13.24.46.31.7.18.63.36,1.26.52,1.9.31,1.2.6,2.4.86,3.6s.52,2.41.77,3.62a5.62,5.62,0,0,1,.15,2.76,2.12,2.12,0,0,1-2,1.53l.12.24c.1.25.17.51.25.77a7.669,7.669,0,0,1,.23.78,2.631,2.631,0,0,1,.06.39c0,.14,0,.28,0,.43a.21.21,0,0,1-.39.12,4.126,4.126,0,0,0-.22-.35,2,2,0,0,1-.16-.43c-.08-.25-.14-.5-.2-.75s-.12-.51-.16-.77a1.638,1.638,0,0,1,0-.45,2.81,2.81,0,0,1-1.41-.6,4.78,4.78,0,0,1-1.41-2.31c-.34-1.05-.59-2.13-.84-3.2a45.562,45.562,0,0,1-1.32-8C315.12,240.16,315.52,240.07,315.58,240.36Z" transform="translate(-38.19 -54.98)" fill="#455a64"/>
        <path id="Path_1222" data-name="Path 1222" d="M341.15,247.49c.18,1.24.28,2.48.52,3.71s.53,2.41.88,3.59A12.51,12.51,0,0,0,344,258a12.1,12.1,0,0,0,2.32,2.53A20.559,20.559,0,0,0,352,264a29.237,29.237,0,0,0,3.2,1.06c.57.14,1.15.26,1.72.36a3.68,3.68,0,0,1,1.39.37.28.28,0,0,1-.05.48,5,5,0,0,1-2.58,0,18.133,18.133,0,0,1-2.73-.57,20.1,20.1,0,0,1-5.13-2.37,16.649,16.649,0,0,1-4.23-3.7,12.56,12.56,0,0,1-2.16-5.18,25.37,25.37,0,0,1-.52-6.95.12.12,0,0,1,.24-.01Z" transform="translate(-38.19 -54.98)" fill="#455a64"/>
        <path id="Path_1223" data-name="Path 1223" d="M198.08,355.39a28.813,28.813,0,0,1,3.76,1.59c1.3.6,2.61,1.19,3.9,1.81q3.81,1.81,7.56,3.76c5,2.63,10,5.28,15,8,2.59,1.43,8.14,4.49,8.38,4.8.11.14-.07.39-.23.32-5.17-2.26-10.21-4.78-15.25-7.29s-10.08-5-15-7.77c-1.36-.76-2.69-1.56-4.05-2.33a34.927,34.927,0,0,1-4.22-2.57C197.8,355.66,197.89,355.33,198.08,355.39Z" transform="translate(-38.19 -54.98)" fill="#455a64"/>
        <path id="Path_1224" data-name="Path 1224" d="M369.82,254.71a.18.18,0,0,0-.35,0c.1,11.51-1.68,24.38-10.54,32.64-9.72,9.06-23.73,10.14-36.35,10-7.24-.06-14.47-.25-21.71,0s-14.62.59-21.84,1.52a11.92,11.92,0,0,0-7.42,3.54,38,38,0,0,0-4.91,7.07q-5.47,9-10.59,18.3-10.17,18.39-18.83,37.55-1.08,2.38-2.13,4.77c-.05.1.11.19.15.08q8.8-19.21,18.94-37.78,5.06-9.29,10.44-18.39c1.69-2.84,3.33-5.76,5.21-8.49,1.67-2.41,3.75-4.67,6.64-5.55a27.158,27.158,0,0,1,5.39-.78q2.77-.25,5.56-.46c3.6-.26,7.22-.46,10.84-.59,7.3-.27,14.58-.18,21.89-.05,12.67.23,26.52-.2,37-8.27A29.88,29.88,0,0,0,367,276.2a53.7,53.7,0,0,0,2.83-17.14C369.86,257.61,369.85,256.16,369.82,254.71Z" transform="translate(-38.19 -54.98)" fill="#455a64"/>
        <path id="Path_1225" data-name="Path 1225" d="M293.94,305.14c-2.59,0-5.17.15-7.75.24a30.621,30.621,0,0,0-6.42.57c-2,.49-3.51.72-5.11,2.91-2,2.73-12.89,23.76-17.46,33.07q-1.9,3.87-3.75,7.77c-1.26,2.69-2.39,5.44-3.65,8.13-.05.09.1.18.15.08,1.12-2.25,2.36-4.44,3.52-6.66s2.28-4.48,3.4-6.73q3.4-6.81,6.82-13.61c2.26-4.5,5-8.88,7.3-13.35,1.93-3.76,4.57-8.9,6.4-9.66a30.54,30.54,0,0,1,8-1.94c2.85-.2,5.7-.38,8.55-.62a.1.1,0,0,0,0-.2Z" transform="translate(-38.19 -54.98)" fill="#455a64"/>
        <path id="Path_1226" data-name="Path 1226" d="M350.93,170.41c2.43,9.62,7,20.75,4.74,30.78-1.75,7.86-7.53,14.1-13.91,18.65-14,10-35.48,15.34-49.45,2.24-5.57-5.24-8.93-17.84-2.73-24,3.19-3.15,7.45-4.6,11.38-6.58a18.07,18.07,0,0,0,10-12.12c2.92-11,.43-18.05-.83-29a7.81,7.81,0,0,1,1.46-6.19,20.81,20.81,0,0,1,12-7.28c4.87-.48,10.35,3,14.6,4.95a12.877,12.877,0,0,1,7.86,9.18C347.74,157.48,349.29,164,350.93,170.41Z" transform="translate(-38.19 -54.98)" fill="#263238"/>
        <path id="Path_1227" data-name="Path 1227" d="M353.07,174.74c-2.8-8.67-5.76-17.26-8.67-25.89h-.09c2.19,7.17,4.28,14.35,6.56,21.5,2.24,7,5,14,6.63,21.21,3.63,16.09-11.64,26.08-25.54,28.12-.63.09-.41,1.09.22,1,12.15-2.17,25.73-9.26,26.68-23.14C359.38,189.94,355.35,181.83,353.07,174.74Z" transform="translate(-38.19 -54.98)" fill="#263238"/>
        <path id="Path_1228" data-name="Path 1228" d="M310.72,149.39a.133.133,0,1,0-.26.06c1.42,9,3.92,19.29.45,28.07a23,23,0,0,1-8.55,10.62c-3.05,2.05-6.57,2.89-9.92,4.3-13.09,5.48-9.43,23.93,2,29.08.23.1.43-.3.19-.42-8.12-4.13-12.49-13.76-8.33-22.35,3.34-6.9,12.5-6.81,18.07-11.3C315.86,178.14,313.65,162.24,310.72,149.39Z" transform="translate(-38.19 -54.98)" fill="#263238"/>
        <path id="Path_1229" data-name="Path 1229" d="M334.88,185.66c-6,13-26.54,43.12-36.44,44.49-8.75,1.21-30.41-3.82-37.71-7.83-3.36-1.84,5.08-26.71,10.72-25.53,7,1.48,16.56,5,23.09,5.36,2.31.14,13.43-7.8,33-20.7C334.84,176.65,338.26,178.35,334.88,185.66Z" transform="translate(-38.19 -54.98)" fill="#d3766a"/>
        <path id="Path_1230" data-name="Path 1230" d="M260.11,199.89s-17.42-2.69-18.32-2.53-.71,1.45-.6,2.46a10.29,10.29,0,0,0,.76,1.68c1.31,2.58,3.53,7.21,0,8.26-4.62,1.37-9.6-9-10.13-10.75a5.77,5.77,0,0,1,.14-2.4c.63-2.85,2.6-7,6-8.06,4.6-1.47,9.85-.83,14.45-.6Z" transform="translate(-38.19 -54.98)" fill="#d3766a"/>
        <path id="Path_1231" data-name="Path 1231" d="M260.11,199.89s-17.42-2.69-18.32-2.53-.71,1.45-.6,2.46a10.29,10.29,0,0,0,.76,1.68c-3.56-1.73-7.48-3.65-10-4.89.63-2.85,2.6-7,6-8.06,4.6-1.47,9.85-.83,14.45-.6Z" transform="translate(-38.19 -54.98)" fill="#263238"/>
        <path id="Path_1232" data-name="Path 1232" d="M260.73,222.32c-.91-.49-5.6-1.87-11.93-4.06-1.7-4.9-6.23-14.24-7.42-16.72-.85-3-4.37-8.88-4.65-8.75-.51.25-2.32,1.13-4.61,2-3,1.17-6.87,2.38-9.62,2.2a3.52,3.52,0,0,1-3.21-1.72c-1-2,3.35-4.37,8.25-7.6,6.67-4.41,15.1-9.46,19.22-8.24,6.1,1.79,12.11,9.25,14.16,11.26s10.53,6.08,10.53,6.08C269.71,205.94,262,223,260.73,222.32Z" transform="translate(-38.19 -54.98)" fill="#d3766a"/>
        <path id="Path_1233" data-name="Path 1233" d="M240.69,199.68c-.08-.12-.15-.06-.09.09.17.48.93,2.63.46,2.87-.82.4-5.69-2.23-7.93-3-.12,0-.19.13-.07.16a35.538,35.538,0,0,1,3.29,1.57c1,.51,4,2.29,5.06,1.78C242.1,202.83,241,200.16,240.69,199.68Z" transform="translate(-38.19 -54.98)" fill="#263238"/>
        <path id="Path_1234" data-name="Path 1234" d="M216.81,211.4c-.61.59-1.27,1.06-1.56.79h0c-.26-.29.24-.94.84-1.53Z" transform="translate(-38.19 -54.98)" fill="#263238"/>
        <path id="Path_1235" data-name="Path 1235" d="M223.78,210.57c-.63.62-5.4,1.11-7.17,1a.87.87,0,0,1-.73-.74c0-1.74.57-6.53,1.2-7.15.43-.42,2.41-1.45,4.35-2.66,2.53-1.56,29.69-26.74,30.14-26.86s1.26.55,1.66,1,1.07,1.26.94,1.7-26,27-27.62,29.45C225.29,208.2,224.21,210.16,223.78,210.57Z" transform="translate(-38.19 -54.98)" fill="#37474f"/>
        <path id="Path_1236" data-name="Path 1236" d="M223.78,210.58a.66.66,0,0,1-.24.14,22.639,22.639,0,0,1-4.11-3.3,15.151,15.151,0,0,1-2.54-3.38.76.76,0,0,1,.19-.34,2,2,0,0,1,.31-.24c.57,1.17,2.32,4,6.66,6.78A2.489,2.489,0,0,1,223.78,210.58Z" transform="translate(-38.19 -54.98)" fill="#a6a6a6"/>
        <rect id="Rectangle_197" data-name="Rectangle 197" width="1.98" height="12.1" rx="0.73" transform="translate(193.122 140.151) rotate(45.74)" fill="#263238"/>
        <rect id="Rectangle_198" data-name="Rectangle 198" width="1.15" height="7.68" rx="0.43" transform="translate(190.628 143.158) rotate(45.73)" fill="#a6a6a6"/>
        <rect id="Rectangle_199" data-name="Rectangle 199" width="0.34" height="1.15" transform="translate(186.972 146.737) rotate(-44.26)" fill="#263238"/>
        <path id="Path_1237" data-name="Path 1237" d="M248.8,218.26c-2.17-.75-4.1-1.39-5.43-1.78a16.38,16.38,0,0,1-9.72-7.19c-2.08-3.06-12.73-6.34-7.55-9.56s14.46,4.66,15.36,3.3a2.1,2.1,0,0,0-.08-1.49C242.57,204,247.1,213.36,248.8,218.26Z" transform="translate(-38.19 -54.98)" fill="#d3766a"/>
        <path id="Path_1238" data-name="Path 1238" d="M305.07,193.5l21.53,8.63s6.8-9.47,9.82-15.25c4-7.64,2.1-10.91-7.75-7.09C322.07,182.35,305.07,193.5,305.07,193.5Z" transform="translate(-38.19 -54.98)" fill="#2b3647"/>
        <path id="Path_1239" data-name="Path 1239" d="M324,201.08a27.756,27.756,0,0,1,2.63,1c.78-1.13,1.53-2.28,2.32-3.4.39-.57.79-1.12,1.2-1.67s.93-1.32,1.33-1.86c.07-.08.18,0,.12.08-.45.75-.8,1.29-1.2,1.94s-.72,1.14-1.09,1.7c-.8,1.19-1.6,2.49-2.45,3.63a23.5,23.5,0,0,1-2.89-1.31Z" transform="translate(-38.19 -54.98)" fill="#263238"/>
        <path id="Path_1240" data-name="Path 1240" d="M308.07,192.33q4.83,1.5,9.58,3.35,2.36.91,4.69,1.91c1.55.65,3,1.47,4.6,2.11.08,0,0,.17-.06.13-1.53-.71-3.16-1.23-4.72-1.86l-4.7-1.88c-3.14-1.23-6.28-2.47-9.45-3.63C307.92,192.43,308,192.3,308.07,192.33Z" transform="translate(-38.19 -54.98)" fill="#263238"/>
        <path id="Path_1241" data-name="Path 1241" d="M312.26,244.81l61.16,4.94s-15.65-53.36-28.26-66.83c-5.74-6.13-11.34-5.2-16.1-1.25-1.18,1-15.88,19.64-17.13,26.14-1.1,5.75,3.57,12.13,3.57,12.13Z" transform="translate(-38.19 -54.98)" fill="#2b3647"/>
        <path id="Path_1242" data-name="Path 1242" d="M321.31,191.56c-1.84,2.94-3.84,5.77-5.7,8.7a41.29,41.29,0,0,0-2.58,4.46,11.49,11.49,0,0,0-1.26,4.95,8.811,8.811,0,0,1,.09-2.61,12.2,12.2,0,0,1,.79-2.51,34,34,0,0,1,2.51-4.59c.88-1.33,1.78-2.66,2.72-3.94.15-.46.34-.91.51-1.36a16.762,16.762,0,0,1,1-1.89,14.29,14.29,0,0,1-.71,2l-.24.55Q319.81,193.39,321.31,191.56Z" transform="translate(-38.19 -54.98)" fill="#263238"/>
        <path id="Path_1243" data-name="Path 1243" d="M361.24,214a41.069,41.069,0,0,1-7.45,2.35,7.909,7.909,0,0,1-2.28.09,3.53,3.53,0,0,1-2.08-.92,7.29,7.29,0,0,1-1.77-4.15,52.761,52.761,0,0,1-.43-5.31,2.112,2.112,0,0,0,0-.26,33.5,33.5,0,0,0-.23-3.47,23.546,23.546,0,0,0-.8-4.42,10.791,10.791,0,0,0-2-4,8.19,8.19,0,0,0-3.59-2.55,12.23,12.23,0,0,0-4.42-.56,39,39,0,0,0-6.16.83h-.22l-2.54.54c-2.43.51-4.86,1-7.34,1.32.05-.07.1-.14.14-.21,2.41-.28,4.78-.8,7.16-1.31l2.65-.56h.21a36.576,36.576,0,0,1,6.09-.84,12.77,12.77,0,0,1,4.51.56,8.56,8.56,0,0,1,3.71,2.62,11.091,11.091,0,0,1,2.05,4.05,23.549,23.549,0,0,1,.8,4.47c.11,1.09.17,2.18.22,3.27v.26a52.729,52.729,0,0,0,.42,5.49,7.07,7.07,0,0,0,1.7,4c1.08,1.06,2.75,1,4.19.79a41.386,41.386,0,0,0,7.42-2.31ZM325,240.12a7.2,7.2,0,0,0-4-2.16,3.52,3.52,0,0,0-2.21.57,8.21,8.21,0,0,0-1.73,1.49,32.538,32.538,0,0,0-3.45,4.9h.2a32.337,32.337,0,0,1,3.39-4.79c1-1.08,2.28-2.15,3.78-2a7,7,0,0,1,3.84,2.11c2,1.85,3.64,4,5.49,6h.35C328.77,244.27,327.05,242,325,240.12Zm42.62-8.52-.64.05a14.61,14.61,0,0,0-8,4.06,59.562,59.562,0,0,0-6.1,6.7c-1.51,1.81-3,3.65-4.67,5.3h.29c1.63-1.64,3.07-3.43,4.54-5.2a61.171,61.171,0,0,1,6.06-6.69,14.5,14.5,0,0,1,7.88-4l.69-.05Zm-11.95-30.91a15,15,0,0,0-7.5,4.18c-.25.23-.49.47-.73.71l-.22.22c-1.8,1.85-3.4,3.89-5,5.9-1.46,1.84-2.9,3.7-4.53,5.39l-.19.19c-.39.41-.81.81-1.24,1.2a12.39,12.39,0,0,1-3.76,2.39,8.3,8.3,0,0,1-4.39.34,11.08,11.08,0,0,1-4.08-1.77,23.109,23.109,0,0,1-3.44-2.89c-2.16-2.1-4-4.49-6.3-6.51a10.21,10.21,0,0,0-2.44-1.66v.22a9.4,9.4,0,0,1,2.34,1.59c2.24,2,4.11,4.4,6.26,6.53a23.717,23.717,0,0,0,3.48,2.92,11,11,0,0,0,4.17,1.81,8.49,8.49,0,0,0,4.52-.35,12.48,12.48,0,0,0,3.82-2.45c.47-.43.93-.87,1.36-1.32l.19-.19c1.59-1.68,3-3.51,4.43-5.31a72.541,72.541,0,0,1,4.85-5.77,2.282,2.282,0,0,1,.22-.22c.27-.28.55-.56.84-.83a14.73,14.73,0,0,1,7.43-4.16Zm-6.48,20.05a7.27,7.27,0,0,0-3.92-2.22c-2.41-.65-4.88-.94-7.31-1.38h-.27l-1.32-.27a23.8,23.8,0,0,1-4.31-1.3,11,11,0,0,1-3.71-2.45,8.27,8.27,0,0,1-2.12-3.86,12.37,12.37,0,0,1-.05-4.46,53.12,53.12,0,0,1,2.41-8.69c.48-1.45,1-2.91,1.41-4.39l.06-.22a38.421,38.421,0,0,0,1-4.11,16.39,16.39,0,0,0-.09-7l-.15.09a16.261,16.261,0,0,1,.05,6.91,39.921,39.921,0,0,1-1,4.19,1.418,1.418,0,0,0-.07.22c-.43,1.43-.91,2.86-1.39,4.28a54.582,54.582,0,0,0-2.44,8.73,12.6,12.6,0,0,0,.05,4.54,8.47,8.47,0,0,0,2.17,4,11.17,11.17,0,0,0,3.8,2.5,23.648,23.648,0,0,0,4.35,1.3c.39.09.79.17,1.18.24l.27.05c2.49.46,5,.74,7.44,1.39a7,7,0,0,1,3.82,2.14c.93,1.2.71,2.86.31,4.26a49.749,49.749,0,0,1-3.71,8.23,55.151,55.151,0,0,0-3.69,8.27,13.81,13.81,0,0,0-.73,4.46,7.915,7.915,0,0,0,.11,1.08h.14a6.615,6.615,0,0,1-.12-1.09,13.621,13.621,0,0,1,.74-4.42,55.777,55.777,0,0,1,3.7-8.24,50.63,50.63,0,0,0,3.74-8.25,8.14,8.14,0,0,0,.36-2.25,3.56,3.56,0,0,0-.72-2.28Z" transform="translate(-38.19 -54.98)" fill="#fff"/>
        <path id="Path_1244" data-name="Path 1244" d="M331.91,218.65a46.836,46.836,0,0,0-7.08.74c-1.16.22-2.3.5-3.44.8-.57.15-1.14.28-1.71.41a8.06,8.06,0,0,1-1.83.24.04.04,0,1,0,0,.08,12.606,12.606,0,0,0,1.74.07,12.054,12.054,0,0,0,1.68-.21c1.17-.22,2.34-.49,3.52-.72,2.37-.46,4.74-.93,7.14-1.22a.1.1,0,0,0-.02-.19Z" transform="translate(-38.19 -54.98)" fill="#263238"/>
        <path id="Path_1245" data-name="Path 1245" d="M337.63,221.08a52.091,52.091,0,0,0-5.84-.62c-1-.05-2,0-2.94,0l-1.4.07c-.52,0-1,.14-1.54.17v.08c.48,0,1,.06,1.46.08h1.46l2.93.1c2,.05,3.91.12,5.86.23C337.73,221.25,337.73,221.1,337.63,221.08Z" transform="translate(-38.19 -54.98)" fill="#263238"/>
        <path id="Path_1246" data-name="Path 1246" d="M337.15,180.12c.06,1.1-2.89,9.27-7.68,10.44-1.56.38-4-8.05-4-8.05l-.32-.58-4.52-8.13,8.29-9.58,1.22-1.31s1.09,2.31,2.42,5.2c.06.13.13.26.19.41s.16.31.22.46c.21.43.41.87.61,1.31s.3.66.44,1,.3.7.46,1.06a61.911,61.911,0,0,1,2.67,7.77Z" transform="translate(-38.19 -54.98)" fill="#d3766a"/>
        <path id="Path_1247" data-name="Path 1247" d="M332.54,168.11a18.66,18.66,0,0,1-7.41,13.82l-4.52-8.13,8.29-9.58,1.22-1.31S331.21,165.22,332.54,168.11Z" transform="translate(-38.19 -54.98)" fill="#263238"/>
        <path id="Path_1248" data-name="Path 1248" d="M305.33,161.52c.53,16.31,10.36,17.84,13.88,17.72,3.19-.1,14.06-.87,15.22-17.16s-6.6-21.2-13.91-21.34S304.8,145.2,305.33,161.52Z" transform="translate(-38.19 -54.98)" fill="#d3766a"/>
        <path id="Path_1249" data-name="Path 1249" d="M307.54,158.62a8.342,8.342,0,0,0,1.09-.29,1.72,1.72,0,0,0,1.05-.51.57.57,0,0,0,0-.71,1.44,1.44,0,0,0-1.43-.25,2.13,2.13,0,0,0-1.29.82.62.62,0,0,0,.58.94Z" transform="translate(-38.19 -54.98)" fill="#263238"/>
        <path id="Path_1250" data-name="Path 1250" d="M318.72,158a10.435,10.435,0,0,1-1.12-.17,1.82,1.82,0,0,1-1.1-.39.59.59,0,0,1,0-.71,1.45,1.45,0,0,1,1.4-.42,2.12,2.12,0,0,1,1.37.68.62.62,0,0,1-.55,1.01Z" transform="translate(-38.19 -54.98)" fill="#263238"/>
        <path id="Path_1251" data-name="Path 1251" d="M316.35,162.12a.092.092,0,0,1,.09.1c0,1.11.19,2.38,1.2,2.72V165C316.4,164.87,316.17,163.18,316.35,162.12Z" transform="translate(-38.19 -54.98)" fill="#263238"/>
        <path id="Path_1252" data-name="Path 1252" d="M317.31,160.93c1.78-.19,2,3.39.38,3.57S315.81,161.09,317.31,160.93Z" transform="translate(-38.19 -54.98)" fill="#263238"/>
        <path id="Path_1253" data-name="Path 1253" d="M318,161.07c.33.18.66.52,1,.53s.74-.39,1-.77h.07c.06.69-.16,1.41-.89,1.56s-1.18-.43-1.4-1.11C317.8,161.2,317.89,161,318,161.07Z" transform="translate(-38.19 -54.98)" fill="#263238"/>
        <path id="Path_1254" data-name="Path 1254" d="M310.17,162.32s-.08.06-.08.11c.13,1.1.08,2.39-.89,2.83v.07C310.42,165.06,310.46,163.35,310.17,162.32Z" transform="translate(-38.19 -54.98)" fill="#263238"/>
        <path id="Path_1255" data-name="Path 1255" d="M309.09,161.24c-1.79,0-1.65,3.59,0,3.59S310.6,161.24,309.09,161.24Z" transform="translate(-38.19 -54.98)" fill="#263238"/>
        <path id="Path_1256" data-name="Path 1256" d="M308.35,161.51c-.27.2-.54.55-.88.59s-.69-.34-1-.7h-.05c0,.69.26,1.39.92,1.5s1-.51,1.16-1.2C308.57,161.61,308.46,161.43,308.35,161.51Z" transform="translate(-38.19 -54.98)" fill="#263238"/>
        <path id="Path_1257" data-name="Path 1257" d="M317.12,171.22c-.24.29-.46.67-.86.75a2.76,2.76,0,0,1-1.21-.14l-.05.06a1.49,1.49,0,0,0,1.48.44,1.17,1.17,0,0,0,.75-1.08C317.24,171.19,317.15,171.17,317.12,171.22Z" transform="translate(-38.19 -54.98)" fill="#263238"/>
        <path id="Path_1258" data-name="Path 1258" d="M312.72,169.66a4.55,4.55,0,0,0,1.81,1.41,2,2,0,0,0,1.24.08c.89-.23.92-1.05.76-1.76a4.8,4.8,0,0,0-.4-1.07A5.85,5.85,0,0,1,312.72,169.66Z" transform="translate(-38.19 -54.98)" fill="#263238"/>
        <path id="Path_1259" data-name="Path 1259" d="M314.53,171.07a2,2,0,0,0,1.24.08c.89-.23.92-1.05.76-1.76A2.12,2.12,0,0,0,314.53,171.07Z" transform="translate(-38.19 -54.98)" fill="#ff9cbd"/>
        <path id="Path_1260" data-name="Path 1260" d="M312.24,167.48s-.13,1.67-.08,2.45c0,.07.19.1.46.1h0a3.72,3.72,0,0,0,3.53-1.59c.05-.08-.06-.16-.12-.11a5.6,5.6,0,0,1-3.34,1.17c-.07-.21.32-2.85.2-2.85a7.07,7.07,0,0,0-1.75.5c.17-3.48.9-6.92,1-10.39a.1.1,0,0,0-.2,0,56.449,56.449,0,0,0-1.59,11.15C310.36,168.31,311.94,167.63,312.24,167.48Z" transform="translate(-38.19 -54.98)" fill="#263238"/>
        <path id="Path_1261" data-name="Path 1261" d="M333.26,163.38c-1.78-.11-6.38-5-6.49-13.58,0,0,.63,7.69,1.2,8.82s-2.57-2.76-2.75-9.67a27.91,27.91,0,0,1-7.11,3.65c-3.27.9-5.27.86-5.5.63s4.58-1.74,5.88-3.23c0,0-8.7,4-12.7,4.3-.46,0-1-9.5,5.22-13.51s16,.38,18.62,2.94c0,0,3.09.45,6.44,5S335.17,163.5,333.26,163.38Z" transform="translate(-38.19 -54.98)" fill="#263238"/>
        <path id="Path_1262" data-name="Path 1262" d="M318.5,167.43a5.13,5.13,0,0,1-4.68-5.54h0a5.12,5.12,0,1,1,5.95,5.49,6,6,0,0,1-1.27.05Zm-4-5.48a4.44,4.44,0,1,0,4.8-4,4.549,4.549,0,0,0-1.11,0A4.45,4.45,0,0,0,314.5,162Z" transform="translate(-38.19 -54.98)" fill="#ffc727"/>
        <path id="Path_1263" data-name="Path 1263" d="M307.69,167.92c-2.1.11-3.92-2.11-4.06-4.93a6.11,6.11,0,0,1,.9-3.63,3.19,3.19,0,0,1,5.46-.26,6.07,6.07,0,0,1,1.26,3.52c.13,2.67-1.29,4.94-3.23,5.27a1.841,1.841,0,0,1-.33.03Zm-2.58-8.18a5.43,5.43,0,0,0-.8,3.22c.12,2.44,1.62,4.36,3.35,4.28s3-2.14,2.91-4.59a5.5,5.5,0,0,0-1.11-3.13,2.73,2.73,0,0,0-2.24-1.15h-.26a2.83,2.83,0,0,0-1.85,1.37Z" transform="translate(-38.19 -54.98)" fill="#ffc727"/>
        <path id="Path_1264" data-name="Path 1264" d="M314,162.48l.41-.55c-.8-.61-2.64-1.4-3.83,0l.53.44C312.19,161.12,314,162.42,314,162.48Z" transform="translate(-38.19 -54.98)" fill="#ffc727"/>
        <path id="Path_1265" data-name="Path 1265" d="M336.89,162.68l.59-.35c-.16-.27-1.61-2.7-3.15-2.87s-10.57,1.15-11,1.2l.1.68c2.62-.38,9.67-1.33,10.78-1.2S336.5,162,336.89,162.68Z" transform="translate(-38.19 -54.98)" fill="#ffc727"/>
        <path id="Path_1266" data-name="Path 1266" d="M334.65,168.1a3.31,3.31,0,0,1-.73.28,2.639,2.639,0,0,1-.76.11,2.27,2.27,0,0,1-1-.19,2.77,2.77,0,0,1-.67-.4,3.09,3.09,0,0,1-.72-.84l.38-4.43s2.94-5.49,5.38-4.5S337.23,166.77,334.65,168.1Z" transform="translate(-38.19 -54.98)" fill="#d3766a"/>
        <path id="Path_1267" data-name="Path 1267" d="M336,160.31s.06.05,0,.07c-1.8,1-2.58,2.86-3.06,4.76a1.52,1.52,0,0,1,2.21-.68c.05,0,0,.11,0,.11a1.67,1.67,0,0,0-1.78.81,7.88,7.88,0,0,0-.71,1.6c-.07.18-.39.13-.35-.07h0C332,164.46,333.44,160.86,336,160.31Z" transform="translate(-38.19 -54.98)" fill="#263238"/>
        <path id="Path_1268" data-name="Path 1268" d="M334.35,167.44a.75.75,0,1,1-.18-.552A.75.75,0,0,1,334.35,167.44Z" transform="translate(-38.19 -54.98)" fill="#fff"/>
        <path id="Path_1269" data-name="Path 1269" d="M335.75,166.12a.53.53,0,1,1-.49-.57.52.52,0,0,1,.49.57Z" transform="translate(-38.19 -54.98)" fill="#fff"/>
        <path id="Path_1270" data-name="Path 1270" d="M348,185.84c11.12,17.23,25.75,46.06,17.79,51.59-13.1,9.09-49.46,12-57.78,12.32-3.59.14-8.83-23.66-6.21-26.47s40.73-1.87,41.18-4.18c.26-1.31-1.91-12.88-4.48-27.28C335.51,175.22,344.78,180.91,348,185.84Z" transform="translate(-38.19 -54.98)" fill="#d3766a"/>
        <path id="Path_1271" data-name="Path 1271" d="M308.14,221.87s-10.88-1-18-1.26c-4-.16-10.85.16-13.83,1.38-4.46,1.83-22,12.3-19.52,16.6,2.22,3.89,16.11-7,16.11-7s-15,9.77-11.46,14S279,235.32,279,235.32s-15.18,10.38-10.86,14.13c3.27,2.83,16.74-9.5,16.74-9.5s-13,9-9.75,12.07c3.58,3.38,16.72-7.23,16.72-7.23,9.54,6.39,16.69,5.54,21.71,4.32C314.77,248.82,308.14,221.87,308.14,221.87Z" transform="translate(-38.19 -54.98)" fill="#d3766a"/>
        <path id="Path_1272" data-name="Path 1272" d="M277.84,227.86c-1.8,1.09-3.63,2.17-5.33,3.41s-3.36,2.54-4.94,3.93a35.689,35.689,0,0,0-5.62,6c3.19-3.71,9.21-8.24,10.91-9.48s3.34-2.57,5-3.81C277.93,227.89,277.89,227.84,277.84,227.86Z" transform="translate(-38.19 -54.98)" fill="#263238"/>
        <path id="Path_1273" data-name="Path 1273" d="M282.43,233.92c-2.24,1.48-4.52,2.87-6.7,4.46s-4.08,3.26-6.13,5c-.16.13,0,.17.13,0,2.11-1.63,4.2-3,6.34-4.59s4.21-3.31,6.4-4.84C282.51,234,282.47,233.9,282.43,233.92Z" transform="translate(-38.19 -54.98)" fill="#263238"/>
        <path id="Path_1274" data-name="Path 1274" d="M287.31,238.41a60.07,60.07,0,0,0-9.73,7.6c-.15.14,0,.17.18,0,3.19-2.58,5.67-4.64,9.62-7.52C287.44,238.49,287.38,238.37,287.31,238.41Z" transform="translate(-38.19 -54.98)" fill="#263238"/>
        <path id="Path_1275" data-name="Path 1275" d="M310.21,221.51c-2.53-.22-5.28-.09-7.88-.19-2.27-.09-4.4-.39-6.61-.54-4.53-.3-11.22-.72-15.72,0-3.27.52-7.31,3.18-9.61,4.26-.1.05,0,.19.08.16,4.31-1.55,6.91-3.4,10.81-4,4.49-.65,16.21.23,20.72.49,2.64.15,5.56-.12,8.2,0a.1.1,0,1,0,.01-.18Z" transform="translate(-38.19 -54.98)" fill="#263238"/>
        <path id="Path_1276" data-name="Path 1276" d="M362.18,207.71l-23.11-2s-1.81-11.52-1.91-18c-.13-8.62,3-10.69,10.12-2.85C352,190.1,362.18,207.71,362.18,207.71Z" transform="translate(-38.19 -54.98)" fill="#2b3647"/>
        <path id="Path_1277" data-name="Path 1277" d="M341.89,206c-.24-.07-2.61-.35-2.79-.32-.17-1.36-.33-2.72-.53-4.08-.1-.68-.2-1.36-.32-2s-.24-1.6-.36-2.26c0-.1-.15-.09-.14,0,.06.87.14,1.51.2,2.27s.13,1.34.21,2c.18,1.42.31,2.94.56,4.34a22.438,22.438,0,0,0,3.17.13S341.93,206,341.89,206Z" transform="translate(-38.19 -54.98)" fill="#263238"/>
        <path id="Path_1278" data-name="Path 1278" d="M360,205.32c-3.35-.52-6.69-1-10.06-1.32-1.68-.16-3.36-.29-5-.41s-3.39,0-5.06-.18a.075.075,0,1,0,0,.15c1.68,0,3.37.32,5.05.46s3.37.28,5,.44c3.35.31,6.71.62,10.06,1C360.12,205.48,360.12,205.33,360,205.32Z" transform="translate(-38.19 -54.98)" fill="#263238"/>
      </g>
      <g id="Table">
        <rect id="Rectangle_200" data-name="Rectangle 200" width="336.8" height="11.98" transform="translate(43.41 191.86)" fill="#37474f"/>
        <rect id="Rectangle_201" data-name="Rectangle 201" width="312.69" height="11.97" transform="translate(55.47 203.84)" fill="#455a64"/>
        <path id="Path_1279" data-name="Path 1279" d="M55.49,383.87H50.65L64.74,215.81H77.1Z" fill="#455a64"/>
        <path id="Path_1280" data-name="Path 1280" d="M77.1,215.82l-1.45,11.24H63.8l.94-11.24Z" fill="#263238"/>
        <path id="Path_1281" data-name="Path 1281" d="M368.13,383.87h4.84L358.88,215.81H346.52Z" fill="#455a64"/>
        <path id="Path_1282" data-name="Path 1282" d="M346.52,215.82l1.45,11.24h11.85l-.94-11.24Z" fill="#263238"/>
      </g>
      <g id="Devices">
        <path id="Path_1283" data-name="Path 1283" d="M128.11,191.86h69.48L180.71,145.5H111.24Z" fill="#263238"/>
        <path id="Path_1284" data-name="Path 1284" d="M125.65,191.86h69.47L178.25,145.5H108.78Z" fill="#37474f"/>
        <path id="Path_1285" data-name="Path 1285" d="M108.77,145.5l16.88,46.36h28.1L115.28,145.5Z" fill="#263238"/>
        <path id="Path_1286" data-name="Path 1286" d="M113.27,191.86h8.46l7.58-13.15h-8.45Z" fill="#455a64"/>
        <path id="Path_1287" data-name="Path 1287" d="M129.31,178.71v13.15h-7.58Z" fill="#37474f"/>
        <path id="Path_1288" data-name="Path 1288" d="M160.7,191.86h8.45l7.59-13.15h-8.45Z" fill="#455a64"/>
        <path id="Path_1289" data-name="Path 1289" d="M176.74,178.71v13.15h-7.59Z" fill="#263238"/>
        <rect id="Rectangle_202" data-name="Rectangle 202" width="56.15" height="2.52" transform="translate(226.22 189.34)" fill="#c7c7c7"/>
        <rect id="Rectangle_203" data-name="Rectangle 203" width="28.26" height="2.52" transform="translate(226.22 189.34)" fill="#a6a6a6"/>
        <path id="Path_1290" data-name="Path 1290" d="M251.44,191.86H196.72l-7.16-37.17h54.72Z" fill="#c7c7c7"/>
        <path id="Path_1291" data-name="Path 1291" d="M262,228.26a3,3,0,0,1-3,3.33,3.7,3.7,0,0,1-3.62-3.33,3,3,0,0,1,3-3.34,3.71,3.71,0,0,1,3.62,3.34Z" transform="translate(-38.19 -54.98)" fill="#a6a6a6"/>
      </g>
      <g id="Lamp">
        <path id="Path_1292" data-name="Path 1292" d="M84.78,185.71l-1.8-.23L92.25,115l33.63-18.46.87,1.59L93.93,116.15Z" fill="#263238"/>
        <path id="Path_1293" data-name="Path 1293" d="M128.72,170.55a2.56,2.56,0,1,0,2.56-2.56A2.56,2.56,0,0,0,128.72,170.55Z" transform="translate(-38.19 -54.98)" fill="#ffc727"/>
        <path id="Path_1294" data-name="Path 1294" d="M161.59,152.32a2.56,2.56,0,1,0,2.56-2.56A2.56,2.56,0,0,0,161.59,152.32Z" transform="translate(-38.19 -54.98)" fill="#ffc727"/>
        <path id="Path_1295" data-name="Path 1295" d="M143.17,99.68l-12.03,13.43-5.56-6.86-3.38-4.18,9.02-10.06,4.53,2.91Z" fill="#ffc727"/>
        <path id="Path_1296" data-name="Path 1296" d="M143.17,99.68l-12.03,13.43-5.56-6.86,10.17-11.33Z" opacity="0.1"/>
        <path id="Path_1297" data-name="Path 1297" d="M160.61,106.31l-20.98,23.41L125.7,111.95,141.42,94.4Z" fill="#ffc727"/>
        <path id="Path_1298" data-name="Path 1298" d="M100.36,191.86H69.32l1.9-9.75H98.45Z" fill="#ffc727"/>
      </g>
      <g id="Icons">
        <path id="Path_1299" data-name="Path 1299" d="M320.791,72.562l-40.659,38.184a7.3,7.3,0,0,1-6.955,2.027,6.863,6.863,0,0,1-5.139-4.874,6.445,6.445,0,0,1,2.161-6.573l40.647-38.2Z" transform="translate(-38.19 -63.234)" fill="#ebebeb"/>
        <path id="Path_1300" data-name="Path 1300" d="M271.44,16.04l-9.12,9.06-6.07-9.69,7.34-7.28Z" fill="#c7c7c7"/>
        <path id="Path_1301" data-name="Path 1301" d="M267.57,104.93h0a1.43,1.43,0,0,1,0-2l7.26-7.2,2,2-7.26,7.21a1.42,1.42,0,0,1-2-.01Z" transform="translate(-38.19 -54.98)" fill="#ebebeb"/>
        <path id="Path_1302" data-name="Path 1302" d="M276.83,97.72l-7.26,7.22a1.414,1.414,0,0,1-2-2l1.23-1.21,6-6Z" transform="translate(-38.19 -54.98)" fill="#ebebeb"/>
        <rect id="Rectangle_204" data-name="Rectangle 204" width="16.66" height="7.86" transform="translate(268.058 -0.188) rotate(45.2)" fill="#ffc727"/>
        <path id="Path_1303" data-name="Path 1303" d="M308.959,76.958,299,67.49l8.4-7.886a7.333,7.333,0,0,1,9.972,0h0a6.423,6.423,0,0,1,0,9.444Z" transform="translate(-29.867 -64.322)" fill="#ffc727"/>
        <path id="Path_1304" data-name="Path 1304" d="M289.47,91l-11.93,11.84a5.53,5.53,0,0,1-6.74.83l-1.23,1.23a1.414,1.414,0,0,1-2-2l1.23-1.21a5.56,5.56,0,0,1,.88-6.74l4-4Z" transform="translate(-38.19 -54.98)" fill="#ffc727"/>
        <rect id="Rectangle_205" data-name="Rectangle 205" width="17.67" height="62.16" transform="translate(85.23 144.73) rotate(90)" fill="#ebebeb"/>
        <rect id="Rectangle_206" data-name="Rectangle 206" width="13.27" height="8.6" transform="translate(83.27 146.93) rotate(90)" fill="#ffc727"/>
        <rect id="Rectangle_207" data-name="Rectangle 207" width="13.27" height="8.6" transform="translate(72.84 146.93) rotate(90)" fill="#ffc727" opacity="0.8"/>
        <rect id="Rectangle_208" data-name="Rectangle 208" width="13.27" height="8.6" transform="translate(62.42 146.94) rotate(90)" fill="#ffc727" opacity="0.6"/>
        <rect id="Rectangle_209" data-name="Rectangle 209" width="13.27" height="8.6" transform="translate(52 146.93) rotate(90)" fill="#ffc727" opacity="0.4"/>
        <rect id="Rectangle_210" data-name="Rectangle 210" width="13.27" height="8.6" transform="translate(41.58 146.93) rotate(90)" fill="#ffc727" opacity="0.2"/>
        <g id="Group_17" data-name="Group 17" opacity="0.2">
          <rect id="Rectangle_211" data-name="Rectangle 211" width="13.27" height="8.6" transform="translate(83.27 146.93) rotate(90)"/>
          <rect id="Rectangle_212" data-name="Rectangle 212" width="13.27" height="8.6" transform="translate(72.84 146.93) rotate(90)" opacity="0.8"/>
          <rect id="Rectangle_213" data-name="Rectangle 213" width="13.27" height="8.6" transform="translate(62.42 146.94) rotate(90)" opacity="0.6"/>
          <rect id="Rectangle_214" data-name="Rectangle 214" width="13.27" height="8.6" transform="translate(52 146.93) rotate(90)" opacity="0.4"/>
          <rect id="Rectangle_215" data-name="Rectangle 215" width="13.27" height="8.6" transform="translate(41.58 146.93) rotate(90)" opacity="0.2"/>
        </g>
        <path id="Path_1305" data-name="Path 1305" d="M65.48,209.67a1.12,1.12,0,1,1,1.12-1.12A1.12,1.12,0,0,1,65.48,209.67Z" transform="translate(-38.19 -54.98)" fill="#263238"/>
        <rect id="Rectangle_216" data-name="Rectangle 216" width="17.67" height="62.16" transform="translate(62.02 106.342) rotate(45)" fill="#ebebeb"/>
        <rect id="Rectangle_217" data-name="Rectangle 217" width="13.27" height="8.6" transform="translate(62.175 109.294) rotate(45)" fill="#ffc727"/>
        <rect id="Rectangle_218" data-name="Rectangle 218" width="13.27" height="8.6" transform="translate(54.809 116.671) rotate(45)" fill="#ffc727" opacity="0.8"/>
        <rect id="Rectangle_219" data-name="Rectangle 219" width="13.27" height="8.6" transform="translate(47.436 124.041) rotate(45)" fill="#ffc727" opacity="0.6"/>
        <rect id="Rectangle_220" data-name="Rectangle 220" width="13.27" height="8.6" transform="translate(40.073 131.411) rotate(45)" fill="#ffc727" opacity="0.4"/>
        <rect id="Rectangle_221" data-name="Rectangle 221" width="13.27" height="8.6" transform="translate(32.701 138.781) rotate(45)" fill="#ffc727" opacity="0.2"/>
        <g id="Group_18" data-name="Group 18" opacity="0.1">
          <rect id="Rectangle_222" data-name="Rectangle 222" width="13.27" height="8.6" transform="translate(62.175 109.294) rotate(45)"/>
          <rect id="Rectangle_223" data-name="Rectangle 223" width="13.27" height="8.6" transform="translate(54.809 116.671) rotate(45)" opacity="0.8"/>
          <rect id="Rectangle_224" data-name="Rectangle 224" width="13.27" height="8.6" transform="translate(47.436 124.041) rotate(45)" opacity="0.6"/>
          <rect id="Rectangle_225" data-name="Rectangle 225" width="13.27" height="8.6" transform="translate(40.073 131.411) rotate(45)" opacity="0.4"/>
          <rect id="Rectangle_226" data-name="Rectangle 226" width="13.27" height="8.6" transform="translate(32.701 138.781) rotate(45)" opacity="0.2"/>
        </g>
        <path id="Path_1306" data-name="Path 1306" d="M66.27,209.34a1.11,1.11,0,1,1,.33-.79,1.12,1.12,0,0,1-.33.79Z" transform="translate(-38.19 -54.98)" fill="#263238"/>
        <rect id="Rectangle_227" data-name="Rectangle 227" width="17.67" height="62.16" transform="translate(18.46 95.62)" fill="#ebebeb"/>
        <rect id="Rectangle_228" data-name="Rectangle 228" width="13.27" height="8.6" transform="translate(20.65 97.59)" fill="#ffc727"/>
        <rect id="Rectangle_229" data-name="Rectangle 229" width="13.27" height="8.6" transform="translate(20.65 108.01)" fill="#ffc727" opacity="0.8"/>
        <rect id="Rectangle_230" data-name="Rectangle 230" width="13.27" height="8.6" transform="translate(20.65 118.44)" fill="#ffc727" opacity="0.6"/>
        <rect id="Rectangle_231" data-name="Rectangle 231" width="13.27" height="8.6" transform="translate(20.65 128.86)" fill="#ffc727" opacity="0.4"/>
        <rect id="Rectangle_232" data-name="Rectangle 232" width="13.27" height="8.6" transform="translate(20.65 139.28)" fill="#ffc727" opacity="0.2"/>
        <path id="Path_1307" data-name="Path 1307" d="M67.3,208.55a1.82,1.82,0,1,1-1.82-1.82,1.82,1.82,0,0,1,1.82,1.82Z" transform="translate(-38.19 -54.98)" fill="#263238"/>
        <path id="Path_1308" data-name="Path 1308" d="M405.56,168.05H363.72V114.34h31.06l10.78,10.23Z" fill="#dbdbdb"/>
        <rect id="Rectangle_233" data-name="Rectangle 233" width="41.84" height="15.72" transform="translate(363.72 152.33)" fill="#ebebeb"/>
        <path id="Path_1309" data-name="Path 1309" d="M363.72,152.33l13.23-12.68,12,12.68Z" fill="#ffc727"/>
        <path id="Path_1310" data-name="Path 1310" d="M380.71,152.33l15.72-19.86L405.56,144v8.33Z" fill="#ffc727"/>
        <path id="Path_1311" data-name="Path 1311" d="M415.61,186.27a4.69,4.69,0,1,1-4.69-4.69,4.69,4.69,0,0,1,4.69,4.69Z" transform="translate(-38.19 -54.98)" fill="#fff"/>
        <path id="Path_1312" data-name="Path 1312" d="M394.78,114.34l10.78,10.23H394.78Z" fill="#ebebeb"/>
        <path id="Path_1313" data-name="Path 1313" d="M411.63,216.92a.28.28,0,0,1,.36.18,2.26,2.26,0,0,0,4.42-.69v-5.26a.29.29,0,0,1,.29-.29.3.3,0,0,1,.29.29v5.26a2.85,2.85,0,0,1-5.56.88A.3.3,0,0,1,411.63,216.92Z" transform="translate(-38.19 -54.98)" fill="#a6a6a6"/>
        <path id="Path_1314" data-name="Path 1314" d="M419.26,211.15a.29.29,0,0,1,.29-.29h2.37a2.39,2.39,0,1,1,0,4.78h-2.08V219a.29.29,0,1,1-.58,0Zm2.66,3.93a1.83,1.83,0,0,0,1.81-1.82,1.81,1.81,0,0,0-1.81-1.81h-2.08v3.63Z" transform="translate(-38.19 -54.98)" fill="#a6a6a6"/>
        <path id="Path_1315" data-name="Path 1315" d="M430.17,215.48a.28.28,0,0,1-.29-.29.29.29,0,0,1,.29-.3h2.63a.3.3,0,0,1,.27.3v2.92a.38.38,0,0,1-.11.22,4.3,4.3,0,1,1-2.71-7.59,4.38,4.38,0,0,1,2.72.95.29.29,0,0,1,0,.4.31.31,0,0,1-.42,0,3.71,3.71,0,1,0-2.34,6.53,3.84,3.84,0,0,0,2.22-.72v-2.47Z" transform="translate(-38.19 -54.98)" fill="#a6a6a6"/>
      </g>
    </g>
    <g id="Group_20" data-name="Group 20" transform="matrix(0.919, 0.195, -0.208, 0.978, 291.906, 137.266)">
      <g id="LogoCyberSoft" transform="translate(1.477 0.626)" opacity="0.68" clip-path="url(#clip-path-2)">
        <g id="LogoCyberSoft-2" data-name="LogoCyberSoft" transform="translate(-1.194 -0.457)">
          <g id="Group_5" data-name="Group 5" transform="translate(0 1.601)">
            <path id="Path_254" data-name="Path 254" d="M1.482.559,5.116,0,3.548,3.3,0,3.777Z" transform="matrix(0.799, 0.602, -0.602, 0.799, 3.428, 0)" fill="url(#linear-gradient)"/>
            <path id="Path_256" data-name="Path 256" d="M0,.478,3.513,0l1.4,1.937L1.464,2.42Z" transform="matrix(0.799, 0.602, -0.602, 0.799, 1.457, 2.644)" fill="url(#linear-gradient-2)"/>
            <path id="Path_257" data-name="Path 257" d="M3.233,0,3.27,2.39.084,4.184,0,1.764Z" transform="matrix(-0.999, -0.035, 0.035, -0.999, 7.44, 7.273)" fill="url(#radial-gradient)"/>
          </g>
          <g id="Group_6" data-name="Group 6" transform="translate(0.678 0)">
            <path id="Path_254-2" data-name="Path 254" d="M1.482.559,5.116,0,3.548,3.3,0,3.777Z" transform="matrix(0.799, 0.602, -0.602, 0.799, 2.75, 0)" fill="url(#linear-gradient-3)"/>
            <path id="Path_256-2" data-name="Path 256" d="M0,.486,3.564,0l.56.743L.592,1.271,0,.486Z" transform="matrix(0.799, 0.602, -0.602, 0.799, 0.765, 2.624)" fill="url(#linear-gradient-4)"/>
            <path id="Path_257-2" data-name="Path 257" d="M3.179,0l.033.954L.035,2.751,0,1.754Z" transform="matrix(-0.999, -0.035, 0.035, -0.999, 6.784, 5.822)" fill="url(#linear-gradient-5)"/>
          </g>
        </g>
      </g>
      <text id="Cybersoft_Acedemy" data-name="Cybersoft Acedemy" transform="translate(0 10.114)" fill="#f5f5f5" font-size="1" font-family="Prototype" opacity="0.65"><tspan x="0" y="0">Cybersoft Acedemy</tspan></text>
    </g>
  </g>
</svg>
