<svg id="logoCyberELearning-dark-version" xmlns="http://www.w3.org/2000/svg" xmlns:xlink="http://www.w3.org/1999/xlink" width="214.131" height="58" viewBox="0 0 214.131 58">
  <defs>
    <clipPath id="clip-path">
      <rect id="Rectangle_3" data-name="Rectangle 3" width="42.618" height="55.958" transform="translate(0 0)" fill="none"/>
    </clipPath>
    <linearGradient id="linear-gradient" x1="0.5" x2="0.938" y2="0.162" gradientUnits="objectBoundingBox">
      <stop offset="0" stop-color="#745f67"/>
      <stop offset="1" stop-color="#47232f"/>
    </linearGradient>
    <linearGradient id="linear-gradient-2" x1="-0.005" y1="0.148" x2="0.763" y2="0.971" gradientUnits="objectBoundingBox">
      <stop offset="0" stop-color="#fef388"/>
      <stop offset="0.27" stop-color="#cca962"/>
      <stop offset="0.609" stop-color="#936440"/>
      <stop offset="1" stop-color="#3b0f09"/>
    </linearGradient>
    <radialGradient id="radial-gradient" cx="0.105" cy="0.906" r="1.098" gradientTransform="matrix(0.029, -1, 1.283, 0.038, -1.06, 0.977)" gradientUnits="objectBoundingBox">
      <stop offset="0" stop-color="#562522"/>
      <stop offset="0.51" stop-color="#5c2b28"/>
      <stop offset="0.824" stop-color="#976260"/>
      <stop offset="1" stop-color="#a16c6a"/>
    </radialGradient>
    <linearGradient id="linear-gradient-3" x1="0.462" y1="0.431" x2="0.612" y2="0.701" gradientUnits="objectBoundingBox">
      <stop offset="0" stop-color="#d0a733"/>
      <stop offset="1" stop-color="#f8e87d"/>
    </linearGradient>
    <linearGradient id="linear-gradient-4" x1="0.5" y1="0" x2="0.5" y2="1" xlink:href="#linear-gradient-3"/>
    <linearGradient id="linear-gradient-5" x1="0.537" y1="0.181" x2="0.132" y2="0.669" xlink:href="#linear-gradient-3"/>
  </defs>
  <g id="Group_2" data-name="Group 2" transform="translate(47.297 -6.035)">
    <g id="Group_1" data-name="Group 1" transform="translate(0 0)">
      <text id="ybersoft" transform="translate(27.835 47.035)" fill="#e3b42f" font-size="35" font-family="Prototype" letter-spacing="0.02em"><tspan x="0" y="0">ybersoft</tspan></text>
      <text id="C" transform="translate(0.835 48.035)" fill="#d0a733" font-size="44" font-family="Prototype"><tspan x="0" y="0">C</tspan></text>
      <text id="ELearning" transform="translate(80.835 60.035)" fill="#d0a733" font-size="13" font-family="PalatinoLinotype-Bold, Palatino Linotype" font-weight="700" letter-spacing="0.237em"><tspan x="0" y="0">ELearning</tspan></text>
    </g>
  </g>
  <g id="LogoCyberSoft" transform="translate(0 0.271)" clip-path="url(#clip-path)">
    <g id="LogoCyberSoft-2" data-name="LogoCyberSoft" transform="translate(-8.092 -3.1)">
      <g id="Group_5" data-name="Group 5" transform="translate(0 10.854)">
        <path id="Path_254" data-name="Path 254" d="M10.049,3.792,34.682,0,24.048,22.367,0,25.6Z" transform="matrix(0.799, 0.602, -0.602, 0.799, 23.239, 0)" fill="url(#linear-gradient)"/>
        <path id="Path_256" data-name="Path 256" d="M0,3.24,23.814,0l9.476,13.133L9.923,16.407Z" transform="matrix(0.799, 0.602, -0.602, 0.799, 9.877, 17.926)" fill="url(#linear-gradient-2)"/>
        <path id="Path_257" data-name="Path 257" d="M21.917,0l.251,16.2L.573,28.361,0,11.957Z" transform="matrix(-0.999, -0.035, 0.035, -0.999, 50.432, 49.3)" fill="url(#radial-gradient)"/>
      </g>
      <g id="Group_6" data-name="Group 6" transform="translate(4.594 0)">
        <path id="Path_254-2" data-name="Path 254" d="M10.049,3.792,34.682,0,24.048,22.367,0,25.6Z" transform="matrix(0.799, 0.602, -0.602, 0.799, 18.645, 0)" fill="url(#linear-gradient-3)"/>
        <path id="Path_256-2" data-name="Path 256" d="M0,3.293,24.163,0l3.8,5.037L4.011,8.615,0,3.292Z" transform="matrix(0.799, 0.602, -0.602, 0.799, 5.186, 17.785)" fill="url(#linear-gradient-4)"/>
        <path id="Path_257-2" data-name="Path 257" d="M21.547,0l.226,6.47L.236,18.651,0,11.891Z" transform="matrix(-0.999, -0.035, 0.035, -0.999, 45.986, 39.467)" fill="url(#linear-gradient-5)"/>
      </g>
    </g>
  </g>
  <rect id="Rectangle_143" data-name="Rectangle 143" width="3.293" height="22.935" transform="matrix(-0.545, 0.839, -0.839, -0.545, 115.189, 36.418)" fill="#2b3647"/>
  <rect id="Rectangle_144" data-name="Rectangle 144" width="3.293" height="22.935" transform="matrix(-0.545, 0.839, -0.839, -0.545, 187.189, 36.418)" fill="#2b3647"/>
</svg>
