<svg xmlns="http://www.w3.org/2000/svg" xmlns:xlink="http://www.w3.org/1999/xlink" width="462.72" height="387.1" viewBox="0 0 462.72 387.1">
  <defs>
    <clipPath id="clip-path">
      <rect id="Rectangle_3" data-name="Rectangle 3" width="20.864" height="28.316" transform="translate(0 0)" fill="none"/>
    </clipPath>
    <linearGradient id="linear-gradient" x1="0.5" x2="0.938" y2="0.162" gradientUnits="objectBoundingBox">
      <stop offset="0" stop-color="#745f67"/>
      <stop offset="1" stop-color="#47232f"/>
    </linearGradient>
    <linearGradient id="linear-gradient-2" x1="-0.005" y1="0.148" x2="0.763" y2="0.971" gradientUnits="objectBoundingBox">
      <stop offset="0" stop-color="#fef388"/>
      <stop offset="0.27" stop-color="#cca962"/>
      <stop offset="0.609" stop-color="#936440"/>
      <stop offset="1" stop-color="#3b0f09"/>
    </linearGradient>
    <radialGradient id="radial-gradient" cx="0.105" cy="0.906" r="1.098" gradientTransform="matrix(0.029, -1, 1.283, 0.038, -1.06, 0.977)" gradientUnits="objectBoundingBox">
      <stop offset="0" stop-color="#562522"/>
      <stop offset="0.51" stop-color="#5c2b28"/>
      <stop offset="0.824" stop-color="#976260"/>
      <stop offset="1" stop-color="#a16c6a"/>
    </radialGradient>
    <linearGradient id="linear-gradient-3" x1="0.462" y1="0.431" x2="0.612" y2="0.701" gradientUnits="objectBoundingBox">
      <stop offset="0" stop-color="#d0a733"/>
      <stop offset="1" stop-color="#f8e87d"/>
    </linearGradient>
    <linearGradient id="linear-gradient-4" x1="0.5" y1="0" x2="0.5" y2="1" xlink:href="#linear-gradient-3"/>
    <linearGradient id="linear-gradient-5" x1="0.537" y1="0.181" x2="0.132" y2="0.669" xlink:href="#linear-gradient-3"/>
    <clipPath id="clip-path-2">
      <rect id="Rectangle_3-2" data-name="Rectangle 3" width="17.008" height="23.083" transform="translate(0 0)" fill="none"/>
    </clipPath>
  </defs>
  <g id="user-svg" transform="translate(-15.67 -56.79)">
    <g id="OBJECTS">
      <rect id="Rectangle_404" data-name="Rectangle 404" width="166.77" height="107.86" rx="7.2" transform="translate(76.81 73.74)" fill="#e2e4e4"/>
      <path id="Path_1584" data-name="Path 1584" d="M243.35,81.33v7.44H76.58V81.33a7.2,7.2,0,0,1,7.2-7.2H236.15a7.2,7.2,0,0,1,7.2,7.2Z" transform="translate(0.23 -0.38)" fill="#006891"/>
      <path id="Path_1585" data-name="Path 1585" d="M109.52,81.45a4.11,4.11,0,1,1-4.1-4.1A4.11,4.11,0,0,1,109.52,81.45Z" transform="translate(0.23 -0.38)" fill="#00aa80"/>
      <path id="Path_1586" data-name="Path 1586" d="M98.82,81.45a4.11,4.11,0,1,1-4.11-4.1,4.11,4.11,0,0,1,4.11,4.1Z" transform="translate(0.23 -0.38)" fill="#fdbb3b"/>
      <path id="Path_1587" data-name="Path 1587" d="M87.84,81.45a4.11,4.11,0,1,1-4.11-4.1,4.11,4.11,0,0,1,4.11,4.1Z" transform="translate(0.23 -0.38)" fill="#eb496f"/>
      <rect id="Rectangle_405" data-name="Rectangle 405" width="48.6" height="5.39" transform="translate(137.92 110.22)" fill="#fdbb3b"/>
      <path id="Path_1588" data-name="Path 1588" d="M229.99,110.22H192.87v5.39h37.12" fill="#fff"/>
      <path id="Path_1589" data-name="Path 1589" d="M93.95,125.08h83.33v-5.39H93.95" fill="#006891"/>
      <path id="Path_1590" data-name="Path 1590" d="M116.62,102.84h83.32V97.45H116.62" fill="#006891"/>
      <rect id="Rectangle_406" data-name="Rectangle 406" width="20.25" height="5.39" transform="translate(183.81 119.69)" fill="#fdbb3b"/>
      <path id="Path_1591" data-name="Path 1591" d="M229.99,119.69H210.42v5.39h19.57" fill="#fff"/>
      <path id="Path_1592" data-name="Path 1592" d="M229.99,97.45H206.17v5.39h23.82" fill="#fff"/>
      <path id="Path_1593" data-name="Path 1593" d="M93.95,134.56h43.97v-5.39H93.95" fill="#006891"/>
      <rect id="Rectangle_407" data-name="Rectangle 407" width="59.62" height="5.39" transform="translate(144.45 129.17)" fill="#fdbb3b"/>
      <path id="Path_1594" data-name="Path 1594" d="M110.93,144.04h26.99v-5.39H110.93" fill="#fdbb3b"/>
      <path id="Path_1595" data-name="Path 1595" d="M229.99,138.65H144.27v5.39h85.72" fill="#fff"/>
      <path id="Path_1596" data-name="Path 1596" d="M93.95,153.52h37.43v-5.39H93.95" fill="#006891"/>
      <rect id="Rectangle_408" data-name="Rectangle 408" width="66.15" height="5.39" transform="translate(137.92 148.13)" fill="#fdbb3b"/>
      <path id="Path_1597" data-name="Path 1597" d="M229.99,148.13H210.42v5.39h19.57" fill="#fff"/>
      <path id="Path_1598" data-name="Path 1598" d="M93.95,162.99h62.68V157.6H93.95" fill="#006891"/>
      <rect id="Rectangle_409" data-name="Rectangle 409" width="23.35" height="5.39" transform="translate(163.17 157.6)" fill="#fdbb3b"/>
      <path id="Path_1599" data-name="Path 1599" d="M229.99,157.6H192.87v5.39h37.12" fill="#fff"/>
      <rect id="Rectangle_410" data-name="Rectangle 410" width="82.7" height="5.39" transform="translate(121.37 167.08)" fill="#fdbb3b"/>
      <path id="Path_1600" data-name="Path 1600" d="M229.99,167.08H210.42v5.39h19.57" fill="#fff"/>
      <text id="_" data-name="&lt;/&gt;" transform="translate(93.95 104.91)" fill="#08b" font-size="11.02" font-family="Montserrat-ExtraBold, Montserrat" font-weight="800"><tspan x="0" y="0">&lt;/&gt;</tspan></text>
      <path id="Path_1601" data-name="Path 1601" d="M82,272.05a8.6,8.6,0,0,1,.08.86h0c.19,4.06-2,7.15-9.11,5.88a4.52,4.52,0,0,1-2.26-1.25h0A38.23,38.23,0,0,1,64.3,269a7.81,7.81,0,0,1-1.13-4.33,7,7,0,0,0-1.26-1.46,3.31,3.31,0,0,0-1.28-.56,3.25,3.25,0,0,0,.44,2.18c.69,1.34-1.47,3.37-3-.08-1.29-2.87-.88-4.72.61-5.34H57.55c-5.18.32-5-4,.41-4a15.994,15.994,0,0,1,1.82.07,1.709,1.709,0,0,1-.09-.3c-.34-.06-.68-.11-1-.14-5.25-.42-3.91-4.69,1.21-3.8a26.46,26.46,0,0,1,4.31,1.19,15.351,15.351,0,0,0-1.66-1.06c-3.8-2-2.34-5.63,1.42-3.88a38.48,38.48,0,0,1,11.82,9.54C78.32,260.36,81.45,267.14,82,272.05Z" transform="translate(0.23 -0.38)" fill="#efb3a6"/>
      <path id="Path_1602" data-name="Path 1602" d="M65.36,253.4c3.86,3.42,4.76,5.52,4.76,5.52" transform="translate(0.23 -0.38)" fill="none" stroke="#d17a80" stroke-miterlimit="10" stroke-width="1.44"/>
      <path id="Path_1603" data-name="Path 1603" d="M60.1,260.81a5.41,5.41,0,0,1,2.9,2.07" transform="translate(0.23 -0.38)" fill="none" stroke="#d17a80" stroke-miterlimit="10" stroke-width="1.44"/>
      <path id="Path_1604" data-name="Path 1604" d="M66.34,266.88c-1.25-2.29-1.38-4.47-2.43-6-1.4-2-4.75-5.06-4.24-6.23,1-2.27,3.23-.89,5.65,1.14s6.74,4.69,8.66,3.78" transform="translate(0.23 -0.38)" fill="none" stroke="#d17a80" stroke-miterlimit="10" stroke-width="1.44"/>
      <path id="Path_1605" data-name="Path 1605" d="M165.66,262.37h0c-.73,2.15-1.64,4.51-2.77,7.05a108.83,108.83,0,0,1-12.5,20.94c-2.26,3-4.77,6.08-7.61,9.25l-.4.45q-2,2.16-4.11,4.36a15.739,15.739,0,0,1-4,3L122,293s.76-1.45,2.06-3.87c.37-.71.8-1.5,1.26-2.36.58-1.06,1.22-2.23,1.9-3.49.17-.33.35-.67.54-1l1.36-2.54c7.06-13,17.39-31.53,21.47-36.53h0c.44-.41.86-.78,1.27-1.13l6.89,2.66,3.71,1.44c.34.5.69,1.06,1,1.62A60.8,60.8,0,0,1,165.66,262.37Z" transform="translate(0.23 -0.38)" fill="#edb1a4"/>
      <path id="Path_1606" data-name="Path 1606" d="M141.34,300.18a20,20,0,0,1-3.08,4.24,15.739,15.739,0,0,1-4,3c-20.85,11.14-61.81-28.79-61.81-28.79l6.55-7.5,46.34,15.64,2.13.73Z" transform="translate(0.23 -0.38)" fill="#edb1a4"/>
      <path id="Path_1607" data-name="Path 1607" d="M247.92,337.74l-89.76,1.45-6.27-91.52c-.59-4.21.24-6.61,4.2-8.16a101.174,101.174,0,0,1,14.61-4.71c1.31-.29,2.66-.57,4.07-.82a66.129,66.129,0,0,1,11.32-1l12.37-.85s4.37.09,10.26.64c2.37.21,5,.5,7.67.89s5.55.89,8.22,1.52a11.21,11.21,0,0,1,8.51,12.69Z" transform="translate(0.23 -0.38)" fill="#354358"/>
      <path id="Path_1608" data-name="Path 1608" d="M216.39,233.66c-47,27.62-46.73,7.43-45.69,1.14,1.31-.29,2.66-.57,4.07-.82a66.129,66.129,0,0,1,11.32-1l12.37-.85s4.37.09,10.26.64C211.09,233,213.71,233.27,216.39,233.66Z" transform="translate(0.23 -0.38)" fill="#006891"/>
      <path id="Path_1609" data-name="Path 1609" d="M208.72,232.77C167.9,257.64,174.77,234,174.77,234a66.13,66.13,0,0,1,11.32-1l12.37-.85S202.83,232.22,208.72,232.77Z" transform="translate(0.23 -0.38)" fill="#efb3a6"/>
      <path id="Path_1610" data-name="Path 1610" d="M156.65,198.31s-7.34.11-6.6-6,7.42-6.2,7.42-6.2Z" transform="translate(0.23 -0.38)" fill="#33324f"/>
      <path id="Path_1611" data-name="Path 1611" d="M204.33,180.11a9.31,9.31,0,0,0-7.29-2.44c-1.17-9.38-15.68-10.06-23.08-9.14l.15-.44a1.09,1.09,0,0,0,.1-.25c.57-2.52.92-5.94-.69-8.18a6.82,6.82,0,0,0-6.36-2.38c-4.93.66-6.85,5-7.37,9.48-2.51-2.84-8-3.13-10.32.39-3.17,4.84.2,9.16,3,13-2.71.39-7.64,2-6.5,5.45,1.3,3.85,8.12,2.29,10.88,1.59a.73.73,0,0,0,.25-.12.75.75,0,0,0,1-1c-1.1-2.67,10.54-3.51,12.08-3.64,4-.33,8.07-.69,12.11-.8,3.88-.11,7.56.4,10,3.94s4.14,7.56,6.1,11.29a.181.181,0,0,0,.05.07,22.88,22.88,0,0,1-.83,8.31c-.21.72.66,1.12,1.18.81,6.42-3.74,9-9.67,8.47-17.18C207,185.68,206.78,182.44,204.33,180.11Z" transform="translate(0.23 -0.38)" fill="#33324f"/>
      <path id="Path_1612" data-name="Path 1612" d="M200,235.26c-15.54,4.11-24.62,7.68-22.43,1.55l.47-2.37.13-.62,1.33-6.63,1.28-6.36.63-3.09,16.58-1.47.89,8.35.37,3.44Z" transform="translate(0.23 -0.38)" fill="#efb3a6"/>
      <path id="Path_1613" data-name="Path 1613" d="M199.2,228.06c-2.09.82-17.24,6.73-21.21,6.38l.13-.62,1.33-6.63,18.64-9.47Z" transform="translate(0.23 -0.38)" fill="#d17a80"/>
      <path id="Path_1614" data-name="Path 1614" d="M156,198.71c.05.64.09,1.27.15,1.93,0,.4.07.8.11,1.2a56,56,0,0,0,1.17,7,37.68,37.68,0,0,0,2.3,6.88,25.89,25.89,0,0,0,2.43,4.25c5.66,8,13.93,8.92,19.42,8.4,6.32-.58,16-3.68,19.11-16.5a44.07,44.07,0,0,0,.83-14.31,14.736,14.736,0,0,0-.17-1.77c-.07-.58-.15-1.27-.23-1.89-1.94-14.08-8.39-24.76-24.94-23.21C159.45,172.31,155.19,184.28,156,198.71Z" transform="translate(0.23 -0.38)" fill="#edb1a4"/>
      <path id="Path_1615" data-name="Path 1615" d="M190.56,186.12s-1.93,16.67,3.5,20.26c0,0,5.92,4,7.17-11.83Z" transform="translate(0.23 -0.38)" fill="#33324f"/>
      <path id="Path_1616" data-name="Path 1616" d="M192.49,192.62s-9.69,1.88-10.51-6.19c0,0-5.8,5.78-12.08.23,0,0-1.28,5.12-9.16,4,0,0,1.77,6.78-4.73,7.63l-1.79-3.62.94-8,2.31-5.45,5.58-6.95,5.92-2.85,7.5-1.25h6.26l7.5,1.66,5.5,5.08,4.53,6,1.26,11.61-1.22,1Z" transform="translate(0.23 -0.38)" fill="#33324f"/>
      <path id="Path_1617" data-name="Path 1617" d="M194.61,202a18.12,18.12,0,0,0,.69,4.34c.17.62.35,1.22.53,1.78h0a2.415,2.415,0,0,1,.08.25,1.5,1.5,0,0,0,.19.38,1.18,1.18,0,0,0,.38.39,5.13,5.13,0,0,0,5.81,1.22,6.081,6.081,0,0,0,1.86-1.06,9.9,9.9,0,0,0,3.57-5.73,8.85,8.85,0,0,0-.8-5.54,7.79,7.79,0,0,0-1.18-1.77,5.39,5.39,0,0,0-2-1.42,4.67,4.67,0,0,0-1.28-.35,7.67,7.67,0,0,0-5.3,1.53,5.821,5.821,0,0,0-1.49,1.48A7.36,7.36,0,0,0,194.61,202Z" transform="translate(0.23 -0.38)" fill="#efb3a6"/>
      <path id="Path_1618" data-name="Path 1618" d="M199.06,207.22s-3.16-10.31,5-7.67" transform="translate(0.23 -0.38)" fill="none" stroke="#d17a80" stroke-miterlimit="10" stroke-width="1.48"/>
      <line id="Line_1" data-name="Line 1" y1="1.6" x2="3.53" transform="translate(198.72 202.07)" fill="none" stroke="#d17a80" stroke-miterlimit="10" stroke-width="1.48"/>
      <path id="Path_1619" data-name="Path 1619" d="M174,213.52l-8.18.8c6.65-1.12,4.79-11.16,4.79-11.16" transform="translate(0.23 -0.38)" fill="none" stroke="#d17a80" stroke-miterlimit="10" stroke-width="1.48"/>
      <g id="Group_24" data-name="Group 24" opacity="0.5">
        <path id="Path_1620" data-name="Path 1620" d="M181.58,221.19c.89,1.33-4.78,2.95-5.43,1.64S180.66,219.8,181.58,221.19Z" transform="translate(0.23 -0.38)" fill="#d17a80"/>
      </g>
      <path id="Path_1621" data-name="Path 1621" d="M184.22,213.13c-1.88,4.48-7.22,6.14-12.45,5.63" transform="translate(0.23 -0.38)" fill="none" stroke="#d17a80" stroke-miterlimit="10" stroke-width="1.48"/>
      <path id="Path_1622" data-name="Path 1622" d="M161,203.87c.15,1.53,1.13,2.68,2.18,2.57s1.77-1.43,1.61-2.95-1.13-2.68-2.18-2.57S160.88,202.35,161,203.87Z" transform="translate(0.23 -0.38)" fill="#33324f"/>
      <path id="Path_1623" data-name="Path 1623" d="M178.78,202.06c.16,1.53,1.13,2.68,2.18,2.57s1.77-1.43,1.61-2.95-1.13-2.68-2.17-2.57S178.63,200.54,178.78,202.06Z" transform="translate(0.23 -0.38)" fill="#33324f"/>
      <path id="Path_1624" data-name="Path 1624" d="M177.8,198.6c5.53.31,8.64-1.22,3.88-1.88S174.94,198.44,177.8,198.6Z" transform="translate(0.23 -0.38)" fill="#33324f"/>
      <path id="Path_1625" data-name="Path 1625" d="M164.44,197.45c-4.89,2.6-8.36,2.51-4.31-.08S167,196.11,164.44,197.45Z" transform="translate(0.23 -0.38)" fill="#33324f"/>
      <path id="Path_1626" data-name="Path 1626" d="M185.83,199.16a8.23,8.23,0,0,0-3.41-3.07l-.5-.22a8,8,0,0,0-2.55-.57h-.49a8.12,8.12,0,0,0-3,.59,8.26,8.26,0,0,0-3.9,3.29,8.09,8.09,0,0,0-1.16,3.31h-4.49a8.1,8.1,0,0,0-1.17-3.31,8.26,8.26,0,0,0-3.9-3.29,8.12,8.12,0,0,0-3.05-.59,8,8,0,0,0-3,.59,8.27,8.27,0,0,0-3.49,2.68c-.14.2-.29.4-.41.61A8,8,0,0,0,150,203c0,.14,0,.29,0,.43a9.091,9.091,0,0,0,.12,1.39,8.49,8.49,0,0,0,.86,2.48h0a8.389,8.389,0,0,0,.5.81,8.23,8.23,0,0,0,4.66,3.23,8.051,8.051,0,0,0,1.79.25h.24a8.26,8.26,0,0,0,6.73-3.49,7.61,7.61,0,0,0,1.2-2.54,5.849,5.849,0,0,0,.15-.75,7,7,0,0,0,.09-1.12h4.38a7,7,0,0,0,.09,1.121,5.849,5.849,0,0,0,.16.749,7.79,7.79,0,0,0,1.19,2.54,8.26,8.26,0,0,0,6.73,3.49h.39a8.11,8.11,0,0,0,3.11-.78h0a8.09,8.09,0,0,0,2.79-2.19c.14-.16.26-.33.39-.51a8.06,8.06,0,0,0,1.35-3.29,7.122,7.122,0,0,0,.13-1.39A8.16,8.16,0,0,0,185.83,199.16ZM165,205.59a7,7,0,0,1-1.41,2.54,7.15,7.15,0,0,1-5.47,2.52H158a7.18,7.18,0,0,1-5.29-2.52,7,7,0,0,1-1.6-3.29,7.2,7.2,0,1,1,14.26-1.39,6.43,6.43,0,0,1-.14,1.39A5.871,5.871,0,0,1,165,205.59Zm19.3,2.54a7.15,7.15,0,0,1-5.14,2.51h-.32a7.23,7.23,0,0,1-6.88-5.06q-.1-.36-.18-.75a6.43,6.43,0,0,1-.14-1.39,7.11,7.11,0,0,1,1.42-4.29A7.2,7.2,0,0,1,186,204.84a7,7,0,0,1-1.66,3.29Z" transform="translate(0.23 -0.38)" fill="#fff"/>
      <path id="Path_1627" data-name="Path 1627" d="M239.24,246.23h0a101.219,101.219,0,0,1,6,31.3c.18,3.93.19,8.11,0,12.59-.16,3.48-.45,7.14-.88,11h-.15L225,297.64s-.33-1.61-.87-4.29l-1.29-6.53q-.37-1.87-.78-4c-3.15-16.29-7.57-40.6-6.48-43.52l10.89-3.61c.59.17,1.2.37,1.82.61A59.9,59.9,0,0,1,239.24,246.23Z" transform="translate(0.23 -0.38)" fill="#edb1a4"/>
      <path id="Path_1628" data-name="Path 1628" d="M225.79,292.88l-48.9,15-.87,9.9s72.46,10.86,68.47-22.76Z" transform="translate(0.23 -0.38)" fill="#edb1a4"/>
      <path id="Path_1629" data-name="Path 1629" d="M161.6,316.08a23.83,23.83,0,0,0-7,1.35c-3.37,1.27-3.41-2.32-.39-3.48a13.45,13.45,0,0,0-3.89,1.2,1.65,1.65,0,0,1-2.07-2.55,1.81,1.81,0,0,1-2.21-.83c-.74-1.37.79-2.77,1.37-3.18,0,0-2.74-2.4,3.09-4.95s13.6-3.95,23.33.91c6.69,3.34,7.11,8.58,5.54,11.31C176.47,320.81,167.59,321.61,161.6,316.08Z" transform="translate(0.23 -0.38)" fill="#efb3a6"/>
      <path id="Path_1630" data-name="Path 1630" d="M154.18,314c5.06-1.86,7.43-1.66,7.43-1.66" transform="translate(0.23 -0.38)" fill="none" stroke="#d17a80" stroke-miterlimit="10" stroke-width="1.44"/>
      <path id="Path_1631" data-name="Path 1631" d="M148.22,312.6c7.76-3.84,11.74-3.53,11.74-3.53" transform="translate(0.23 -0.38)" fill="none" stroke="#d17a80" stroke-miterlimit="10" stroke-width="1.44"/>
      <path id="Path_1632" data-name="Path 1632" d="M147.38,308.59c4.86-3.1,11.48-3.44,11.48-3.44" transform="translate(0.23 -0.38)" fill="none" stroke="#d17a80" stroke-miterlimit="10" stroke-width="1.44"/>
      <path id="Path_1633" data-name="Path 1633" d="M252.58,290.46l-7.36-.33-27.1-.73v-1.32l-6.75-50.71,5.48-2.54a23.67,23.67,0,0,1,9.59.9c.59.17,1.2.37,1.82.61C238.62,240.18,252.28,251.82,252.58,290.46Z" transform="translate(0.23 -0.38)" fill="#354358"/>
      <path id="Path_1634" data-name="Path 1634" d="M154.83,240.1s-18.42,9.56-29.49,41l22.88,21.41,12.62-15.7Z" transform="translate(0.23 -0.38)" fill="#354358"/>
      <line id="Line_2" data-name="Line 2" y1="2.09" x2="6.65" transform="translate(220.07 292.24)" fill="none" stroke="#d17a80" stroke-miterlimit="10" stroke-width="1.44"/>
      <line id="Line_3" data-name="Line 3" x2="9.25" y2="3.14" transform="translate(119.58 284.38)" fill="none" stroke="#d17a80" stroke-miterlimit="10" stroke-width="1.44"/>
      <path id="Path_1635" data-name="Path 1635" d="M155.07,294s-1.3-22.06,0-32" transform="translate(0.23 -0.38)" fill="none" stroke="#005467" stroke-miterlimit="10" stroke-width="0.74"/>
      <line id="Line_4" data-name="Line 4" x1="2.55" y1="5.03" transform="translate(152.46 263.98)" fill="none" stroke="#005467" stroke-miterlimit="10" stroke-width="0.74"/>
      <path id="Path_1636" data-name="Path 1636" d="M223.6,289.16l-3.53-.09-5.84-32.58" fill="none" stroke="#005467" stroke-miterlimit="10" stroke-width="0.74"/>
      <line id="Line_5" data-name="Line 5" x1="2.97" y1="2.96" transform="translate(212.15 258.5)" fill="none" stroke="#005467" stroke-miterlimit="10" stroke-width="0.74"/>
      <path id="Path_1637" data-name="Path 1637" d="M301.52,199s-14.13,4.68-10.07,17.72c0,0-10.83-1.31-13.76,13,0,0-16.46-.62-15.56,16.3s19.67,8.16,19.67,8.16,4.79,15.21,17.71,7.7c0,0,8,10.89,16.89,0Z" transform="translate(0.23 -0.38)" fill="#33324f"/>
      <path id="Path_1638" data-name="Path 1638" d="M341.15,204.29s11.83,9,3.73,20c0,0,10.66,2.31,8.77,16.76,0,0,15.77,4.78,9.4,20.48s-21.27,1.29-21.27,1.29-9.49,12.82-19.24,1.51c0,0-11.13,7.68-16-5.52Z" transform="translate(0.23 -0.38)" fill="#33324f"/>
      <path id="Path_1639" data-name="Path 1639" d="M347.31,206c-.15.89-.34,1.8-.56,2.74a65.293,65.293,0,0,1-2.11,7.15.94.94,0,0,1-.06.15c-.34,1-.72,2-1.12,3a3.22,3.22,0,0,1-2.85,2.06l-32.67,1.15c-2.51.09-4-2.8-4.9-5.2-3.42-9.48-10-31.73,13.23-39.27a24.87,24.87,0,0,1,12.55-.75C337.49,178.79,351.06,184.87,347.31,206Z" transform="translate(0.23 -0.38)" fill="#33324f"/>
      <path id="Path_1640" data-name="Path 1640" d="M338.87,302.49a18.94,18.94,0,0,0-.36,4.88,14.531,14.531,0,0,0,1,4.55c8.11,20.5,61.31,16.82,61.31,16.82l-.07-9.27-42.39-16.84-1.94-.77Z" transform="translate(0.23 -0.38)" fill="#e8776e"/>
      <path id="Path_1641" data-name="Path 1641" d="M357.19,307.65l-15.89,7.79a14.831,14.831,0,0,1-2.28-4.06c-.68-1.79-1.31-3.55-1.89-5.26-.05-.18-.12-.36-.18-.54-1.25-3.76-2.26-7.33-3.07-10.73A101,101,0,0,1,331,272.3c0-2.6.07-4.95.24-7.05h0a57.45,57.45,0,0,1,7.27-11.7c.49-.35,1-.7,1.49-1h.53l3.17.13,5.2.21c.64.77,1.29,1.64,2,2.61q.49.72,1,1.53c1.49,7.75,3.14,24.51,4.22,36.62.08.93.15,1.82.23,2.68l.09,1.06c0,.34.06.68.08,1,.09,1,.16,1.85.24,2.68s.15,1.74.21,2.49C357.08,306.12,357.19,307.65,357.19,307.65Z" transform="translate(0.23 -0.38)" fill="#e8776e"/>
      <line id="Line_6" data-name="Line 6" x2="5.24" y2="2.01" transform="translate(355.06 300.92)" fill="none" stroke="#924541" stroke-miterlimit="10" stroke-width="1.38"/>
      <path id="Path_1642" data-name="Path 1642" d="M397.25,318.13c-.2.18-.39.37-.57.56h0c-2.58,2.77-2.89,6.29,2.93,9.67a4,4,0,0,0,2.36.48h0a35.649,35.649,0,0,0,9.75-2.23,7.51,7.51,0,0,0,3.42-2.39,6.37,6.37,0,0,1,1.77-.28,3.249,3.249,0,0,1,1.26.37,3,3,0,0,1-1.64,1.28c-1.29.55-1,3.29,2.2,1.78,2.66-1.26,3.48-2.83,2.79-4.16a7.475,7.475,0,0,1,.8.69c3.49,3.34,5.93.16,2.1-3.08-.42-.35-.87-.7-1.34-1.05l.26-.15a7.679,7.679,0,0,1,.8.51c4,2.87,5.61-1,1.44-3.43a24.243,24.243,0,0,0-3.78-1.75,12.757,12.757,0,0,1,1.81.24c3.94.84,5.06-2.59,1.34-3.62a36.15,36.15,0,0,0-14.16-.34,33.55,33.55,0,0,0-13.54,6.9Z" transform="translate(0.23 -0.38)" fill="#e8776e"/>
      <path id="Path_1643" data-name="Path 1643" d="M420.36,314.92c-4.82.11-6.72,1.05-6.72,1.05" transform="translate(0.23 -0.38)" fill="none" stroke="#924541" stroke-miterlimit="10" stroke-width="1.38"/>
      <path id="Path_1644" data-name="Path 1644" d="M419.62,323.36a5,5,0,0,0-3.3-.28" transform="translate(0.23 -0.38)" fill="none" stroke="#924541" stroke-miterlimit="10" stroke-width="1.38"/>
      <path id="Path_1645" data-name="Path 1645" d="M411.53,323.91c2.26-.88,3.67-2.35,5.32-2.78,2.21-.57,6.43-.73,6.77-1.87.67-2.21-1.75-2.58-4.7-2.59s-7.62-.74-8.43-2.54" transform="translate(0.23 -0.38)" fill="none" stroke="#924541" stroke-miterlimit="10" stroke-width="1.38"/>
      <path id="Path_1646" data-name="Path 1646" d="M352.24,252.71a4.766,4.766,0,0,1,0,.84l-3.15,45.9-2.7,39.44-83.69-1.35,13.79-83.8a10.47,10.47,0,0,1,7.94-11.83c2.5-.59,5.11-1,7.66-1.42l1.84-.25c1.29-.17,2.54-.3,3.73-.43l1.59-.15,1.09-.09c4.94-.44,8.47-.5,8.47-.5l11.54.79a61.83,61.83,0,0,1,6.64.37l.47.06h.3l.83.11c.79.11,1.55.24,2.32.37s1.4.25,2.08.39h0l1.71.37c1.94.44,3.75.94,5.42,1.45l1.66.5h.07l.59.16h.11a4.75,4.75,0,0,1,.5.19h.11C345,244.76,348.53,246.93,352.24,252.71Z" transform="translate(0.23 -0.38)" fill="#fdbb3b"/>
      <path id="Path_1647" data-name="Path 1647" d="M325,250.28l2.4-9.87c.08,0,.08,0,.07-.12h.3l.83.11c.79.11,1.55.24,2.32.37s1.4.25,2.08.39h0l1.71.37C346,255.82,325,250.28,325,250.28Z" transform="translate(0.23 -0.38)" fill="#fff"/>
      <path id="Path_1648" data-name="Path 1648" d="M325.55,249.44a11.611,11.611,0,0,1-.73,1.22c-2.75,4.12-13.23,15.82-30.93-10.42,1.29-.17,2.54-.3,3.73-.43l1.59-.15,1.09-.09,24.61,9.61Z" transform="translate(0.23 -0.38)" fill="#fff"/>
      <path id="Path_1649" data-name="Path 1649" d="M297.62,239.81l1.59-.15c5.49-.51,9.56-.59,9.56-.59l11.54.79a61.834,61.834,0,0,1,6.64.37l1.57.26S334.83,262.25,297.62,239.81Z" transform="translate(0.23 -0.38)" fill="#e8776e"/>
      <g id="Group_25" data-name="Group 25" opacity="0.5">
        <path id="Path_1650" data-name="Path 1650" d="M321,230.14c-.83,1.24,4.46,2.75,5.06,1.53S321.86,228.85,321,230.14Z" transform="translate(0.23 -0.38)" fill="#924541"/>
      </g>
      <path id="Path_1651" data-name="Path 1651" d="M363.77,291.49s-3.27,2.1-7.15,4.27a65.363,65.363,0,0,1-7.57,3.69c-2,.76-3.66,1.14-4.54.77L342,249.47l-.3-6h.11a5.135,5.135,0,0,1,.59.16h.11l.5.19h.11c1.57.67,4.25,2.27,7.24,6.1.61.79,1.24,1.67,1.88,2.66.31.49.63,1,.94,1.56C357.25,261.24,361.41,272.69,363.77,291.49Z" transform="translate(0.23 -0.38)" fill="#fdbb3b"/>
      <path id="Path_1652" data-name="Path 1652" d="M345.44,265.38s6.41,18.44,3.61,34.07" transform="translate(0.23 -0.38)" fill="none" stroke="#ec9e05" stroke-miterlimit="10" stroke-width="1.11"/>
      <line id="Line_7" data-name="Line 7" y1="3.36" x2="1.59" transform="translate(346.99 266.1)" fill="none" stroke="#ec9e05" stroke-miterlimit="10" stroke-width="1.11"/>
      <path id="Path_1653" data-name="Path 1653" d="M277.26,245.92l.14-.11c.35-.25.67-.48,1-.68.57-.22,1.14-.41,1.69-.57l10.16,3.37c1,2.72-3.11,25.39-6.05,40.58q-.37,2-.72,3.69c-.42,2.12-.79,4-1.1,5.55a2.353,2.353,0,0,1-.11.54c-.5,2.5-.81,4-.81,4l-17.89,3.19h-.14q-.39-3.47-.62-6.73c-.08-1.19-.15-2.35-.21-3.49-.19-4.17-.17-8.08,0-11.74a97.169,97.169,0,0,1,4.79-26.93Z" transform="translate(0.23 -0.38)" fill="#e8776e"/>
      <path id="Path_1654" data-name="Path 1654" d="M281.25,297.93l43.44,19.68-.36,9.26s-68.3,1.48-60.63-29.14Z" transform="translate(0.23 -0.38)" fill="#e8776e"/>
      <path id="Path_1655" data-name="Path 1655" d="M337.87,327a22.369,22.369,0,0,1,6.35,2.08c3,1.58,3.42-1.75.76-3.17a12.379,12.379,0,0,1,3.46,1.57,1.54,1.54,0,0,0,2.22-2.12,1.67,1.67,0,0,0,2.14-.51c.84-1.18-.4-2.65-.89-3.09,0,0,2.81-1.9-2.28-4.95s-12.1-5.26-21.67-1.92c-6.59,2.29-7.6,7.1-6.46,9.81C323.56,329.6,331.68,331.39,337.87,327Z" transform="translate(0.23 -0.38)" fill="#e8776e"/>
      <path id="Path_1656" data-name="Path 1656" d="M345,325.89c-4.46-2.32-6.67-2.42-6.67-2.42" transform="translate(0.23 -0.38)" fill="none" stroke="#924541" stroke-miterlimit="10" stroke-width="1.38"/>
      <path id="Path_1657" data-name="Path 1657" d="M350.66,325.34c-6.72-4.47-10.45-4.66-10.45-4.66" transform="translate(0.23 -0.38)" fill="none" stroke="#924541" stroke-miterlimit="10" stroke-width="1.38"/>
      <path id="Path_1658" data-name="Path 1658" d="M351.91,321.74c-4.13-3.45-10.21-4.54-10.21-4.54" transform="translate(0.23 -0.38)" fill="none" stroke="#924541" stroke-miterlimit="10" stroke-width="1.38"/>
      <line id="Line_8" data-name="Line 8" x1="5.22" y1="2.38" transform="translate(279.39 296.59)" fill="none" stroke="#924541" stroke-miterlimit="10" stroke-width="1.38"/>
      <path id="Path_1659" data-name="Path 1659" d="M283.74,242.08s-24.31,6.64-30,53.39c0,0,21.78,2.09,32.51-1.4l7.64-47Z" transform="translate(0.23 -0.38)" fill="#fdbb3b"/>
      <path id="Path_1660" data-name="Path 1660" d="M283.15,294.54l3.34-.85,1.91-27.41" fill="none" stroke="#ec9e05" stroke-miterlimit="10" stroke-width="1.11"/>
      <line id="Line_9" data-name="Line 9" y1="3.21" x2="2.94" transform="translate(288.01 268.7)" fill="none" stroke="#ec9e05" stroke-miterlimit="10" stroke-width="1.11"/>
      <path id="Path_1661" data-name="Path 1661" d="M303.87,242.83c14.49,3.84,22.95,7.16,20.92,1.45l-.45-2.21-.11-.58L323,235.31l-1.2-5.93-.59-2.88-15.46-1.37-.82,7.79-.34,3.2Z" transform="translate(0.23 -0.38)" fill="#e8776e"/>
      <path id="Path_1662" data-name="Path 1662" d="M304.58,236.12c1.94.77,16.07,6.28,19.76,5.95l-.11-.58L323,235.31l-17.38-8.83Z" transform="translate(0.23 -0.38)" fill="#924541" opacity="0.5"/>
      <path id="Path_1663" data-name="Path 1663" d="M344.82,208.75c0,.6-.08,1.19-.13,1.8a10.363,10.363,0,0,1-.11,1.12,53.079,53.079,0,0,1-1.09,6.58,35.078,35.078,0,0,1-2.15,6.41,24.44,24.44,0,0,1-2.26,4c-5.28,7.5-13,8.31-18.1,7.83-5.9-.55-14.9-3.44-17.83-15.38a41.219,41.219,0,0,1-.77-13.35,12.81,12.81,0,0,1,.16-1.65c.07-.54.13-1.19.21-1.76,1.82-13.14,7.82-23.09,23.26-21.65C341.64,184.14,345.6,195.3,344.82,208.75Z" transform="translate(0.23 -0.38)" fill="#e8776e"/>
      <path id="Path_1664" data-name="Path 1664" d="M328.08,222.56l7.62.75c-6.19-1-4.46-10.41-4.46-10.41" transform="translate(0.23 -0.38)" fill="none" stroke="#924541" stroke-miterlimit="10" stroke-width="1.38"/>
      <path id="Path_1665" data-name="Path 1665" d="M340.15,213.57c-.14,1.42-1,2.49-2,2.39s-1.65-1.33-1.5-2.75,1.05-2.49,2-2.39S340.3,212.15,340.15,213.57Z" transform="translate(0.23 -0.38)" fill="#33324f"/>
      <path id="Path_1666" data-name="Path 1666" d="M323.61,211.88c-.15,1.42-1.06,2.49-2,2.39s-1.65-1.33-1.51-2.75,1.06-2.49,2-2.39S323.75,210.46,323.61,211.88Z" transform="translate(0.23 -0.38)" fill="#33324f"/>
      <path id="Path_1667" data-name="Path 1667" d="M336.78,205.44c-1.25,1.69,4.69,3.74,5.66,2.08S338.07,203.69,336.78,205.44Z" transform="translate(0.23 -0.38)" fill="#33324f"/>
      <path id="Path_1668" data-name="Path 1668" d="M323.64,203.33c.9,1.9-5.32,2.77-6,1S322.72,201.36,323.64,203.33Z" transform="translate(0.23 -0.38)" fill="#33324f"/>
      <path id="Path_1669" data-name="Path 1669" d="M321.13,223.7a5.75,5.75,0,0,0,10.76,2.64Z" transform="translate(0.23 -0.38)" fill="#972a45"/>
      <path id="Path_1670" data-name="Path 1670" d="M322,226.6a5.75,5.75,0,0,0,3.49,2.5,5.69,5.69,0,0,0,3.89-.41A4.63,4.63,0,0,0,326,226a4.79,4.79,0,0,0-4,.6Z" transform="translate(0.23 -0.38)" fill="#dc3c5e"/>
      <path id="Path_1671" data-name="Path 1671" d="M347.31,206c-.15.89-.34,1.8-.56,2.74a65.293,65.293,0,0,1-2.11,7.15.94.94,0,0,1-.06.15c-2.81-4.53-.76-15.22-.76-15.22-8.61-.87-14.2-7.64-14.2-7.64-6.11,2.93-15.33,1.93-15.33,1.93-1.79,9.2-5.74,13.67-7.75,15.42a.74.74,0,0,1-1.22-.56v-3l-3.78-2.11,2.06-8.23,2.49-7.75,11-7,17,1,5.79,5.21,6.44,7.66Z" transform="translate(0.23 -0.38)" fill="#33324f"/>
      <path id="Path_1672" data-name="Path 1672" d="M307.84,207.68a5.21,5.21,0,0,0-1.39-1.38,7.18,7.18,0,0,0-4.93-1.43,4.46,4.46,0,0,0-1.2.34,5,5,0,0,0-1.85,1.32,7,7,0,0,0-1.09,1.65,8.15,8.15,0,0,0-.75,5.16,9.2,9.2,0,0,0,3.33,5.35,5.78,5.78,0,0,0,1.73,1,4.79,4.79,0,0,0,5.42-1.15,1.13,1.13,0,0,0,.36-.36,1.271,1.271,0,0,0,.17-.35.333.333,0,0,1,.07-.24h0c.16-.52.33-1.08.48-1.67a16.631,16.631,0,0,0,.65-4A6.86,6.86,0,0,0,307.84,207.68Z" transform="translate(0.23 -0.38)" fill="#e8776e"/>
      <path id="Path_1673" data-name="Path 1673" d="M304.7,216.69s2.95-9.61-4.68-7.15" transform="translate(0.23 -0.38)" fill="none" stroke="#924541" stroke-miterlimit="10" stroke-width="1.38"/>
      <line id="Line_10" data-name="Line 10" x1="3.3" y1="1.5" transform="translate(302.16 211.86)" fill="none" stroke="#924541" stroke-miterlimit="10" stroke-width="1.38"/>
      <path id="Path_1674" data-name="Path 1674" d="M315.06,191.47l-2.17.54a.44.44,0,0,0-.3.56l1.91,5.34a.44.44,0,0,0,.47.28l.63-.1a.44.44,0,0,0,.36-.45l-.37-5.78a.43.43,0,0,0-.53-.39Z" transform="translate(0.23 -0.38)" fill="#fff"/>
      <path id="Path_1675" data-name="Path 1675" d="M346.48,198.16l-1.94-1.11a.44.44,0,0,0-.61.2l-2.31,5.17a.44.44,0,0,0,.15.53l.52.36a.42.42,0,0,0,.57-.08l3.73-4.42a.43.43,0,0,0-.11-.65Z" transform="translate(0.23 -0.38)" fill="#fff"/>
      <path id="Path_1676" data-name="Path 1676" d="M349.05,299.45" transform="translate(0.23 -0.38)" fill="none" stroke="#ec9e05" stroke-miterlimit="10" stroke-width="1.11"/>
      <path id="Path_1677" data-name="Path 1677" d="M349.05,299.45" transform="translate(0.23 -0.38)" fill="none" stroke="#ec9e05" stroke-miterlimit="10" stroke-width="1.11"/>
      <path id="Path_1678" data-name="Path 1678" d="M345.44,265.38" transform="translate(0.23 -0.38)" fill="none" stroke="#ec9e05" stroke-miterlimit="10" stroke-width="1.11"/>
      <path id="Path_1679" data-name="Path 1679" d="M346.76,269.85" transform="translate(0.23 -0.38)" fill="none" stroke="#ec9e05" stroke-miterlimit="10" stroke-width="1.11"/>
      <path id="Path_1680" data-name="Path 1680" d="M325.7,250.8a.54.54,0,0,0-.68-.44.53.53,0,0,0-.73.08,21,21,0,0,0-5,10.94c-.25,2.41.21,5.82,2.8,6.88,2.35,1,4.12-1.48,4.75-3.46C328.18,260.51,326.35,255.07,325.7,250.8Zm-4.41,15.43c-1.8-1.92-.92-5.7-.22-7.9a21.1,21.1,0,0,1,3.66-6.65c.4,2.56.83,5.12,1.16,7.68a14.809,14.809,0,0,1,.18,3.7C325.86,264.72,324.29,269.43,321.29,266.23Z" transform="translate(0.23 -0.38)" fill="#fff"/>
      <path id="Path_1681" data-name="Path 1681" d="M329.58,264.27c1.32,1.6,3.88,3.21,5.7,1.45,2-1.94,1.17-5.29,0-7.43a21,21,0,0,0-8.73-8.29,1.14,1.14,0,0,0-1.17.86C326.4,255.06,326.73,260.8,329.58,264.27Zm.06-1.9a14.3,14.3,0,0,1-1.21-3.49c-.65-2.51-1.2-5-1.78-7.57a21.29,21.29,0,0,1,5.87,4.82c1.47,1.78,3.69,5,2.73,7.42-1.59,4.07-4.81.29-5.61-1.18Z" transform="translate(0.23 -0.38)" fill="#fff"/>
      <path id="Path_1682" data-name="Path 1682" d="M327.92,258c0-.71-1.14-.71-1.09,0a172.929,172.929,0,0,1-.48,27.87c-.07.7,1,.7,1.1,0a171.778,171.778,0,0,0,.47-27.87Z" transform="translate(0.23 -0.38)" fill="#fff"/>
      <path id="Path_1683" data-name="Path 1683" d="M326.6,259c-.2-.68.83-1.06,1-.38a171.87,171.87,0,0,0,9.93,26c.31.64-.73,1-1,.37A171.751,171.751,0,0,1,326.6,259Z" transform="translate(0.23 -0.38)" fill="#fff"/>
      <rect id="Rectangle_411" data-name="Rectangle 411" width="3.73" height="7.99" transform="translate(245.92 319.41)" fill="#fff"/>
      <rect id="Rectangle_412" data-name="Rectangle 412" width="3.73" height="7.99" transform="translate(245.92 333.71)" fill="#fff"/>
      <rect id="Rectangle_413" data-name="Rectangle 413" width="3.73" height="7.99" transform="translate(251.5 332.29) rotate(-90)" fill="#fff"/>
      <rect id="Rectangle_414" data-name="Rectangle 414" width="3.73" height="7.99" transform="translate(236.37 332.3) rotate(-90)" fill="#fff"/>
      <ellipse id="Ellipse_19" data-name="Ellipse 19" cx="226.3" cy="24.32" rx="226.3" ry="24.32" transform="translate(15.67 334.25)" fill="#8a8586"/>
      <path id="Path_1684" data-name="Path 1684" d="M46,353.1v1.83a4.35,4.35,0,0,0,4.11,4.35l93.23,5a17.76,17.76,0,0,0,7.36-1.16l33-12.61a4.35,4.35,0,0,0,2.79-4.06V341.6Z" transform="translate(0.23 -0.38)" fill="#2b3647"/>
      <path id="Path_1685" data-name="Path 1685" d="M147.36,356.16l39.32-14.96L74.35,337.84,46.21,352.72Z" fill="#cdcdcd"/>
      <path id="Path_1686" data-name="Path 1686" d="M167.25,346.52l-5.57,2.08-.91.34-5.57,2.08-.91.34h-.01l-7.3,2.73-1.46-3-.12-.24-.06-.13-.11-.22-2.32-4.77,13.97.45h0l1.01.04h.01Z" fill="#3f3e58"/>
      <path id="Path_1687" data-name="Path 1687" d="M161.68,348.6l-.91.34-9.44-.29-1.02-.03-4.85-.15.02-.37,5.74.18,1.03.03Z" fill="#cdcdcd"/>
      <path id="Path_1688" data-name="Path 1688" d="M155.2,351.02l-.91.34h-.01l-8.76-.27-.12-.24-.18.07-.07-.21.19.01.38.01Z" fill="#cdcdcd"/>
      <path id="Path_1689" data-name="Path 1689" d="M157.89,346.22l-5.64,2.09h0l-.91.34h-.01l-5.61,2.08-.32.12-.18.07-.07-.21-.06-.16.14-.05,5.08-1.88.91-.34,5.66-2.1h0Z" fill="#cdcdcd"/>
      <path id="Path_1690" data-name="Path 1690" d="M147.12,357.08,46,353.64l-8.59-61.27c-.92-6.58,3.59-11.73,10.08-11.51l77.65,2.64c6.49.22,12.49,5.73,13.42,12.31Z" transform="translate(0.23 -0.38)" fill="#354358"/>
      <path id="Path_1691" data-name="Path 1691" d="M463.59,337.63H344.78l9.81-79.91H473.4Z" fill="#00b0d1"/>
      <path id="Path_1692" data-name="Path 1692" d="M468.58,337.63H349.76l9.82-79.91H478.39Z" fill="#354358"/>
      <path id="Path_1693" data-name="Path 1693" d="M394.86,356.32l24.4-6.55,2.59,7.36Z" fill="#08b"/>
      <path id="Path_1694" data-name="Path 1694" d="M402.1,306.38h19.28l12.46,41.28a10.14,10.14,0,0,1-9.71,13.06h-7Z" transform="translate(0.23 -0.38)" fill="#2b3647"/>
      <path id="Path_1695" data-name="Path 1695" d="M405.53,306.38h19.28l13.35,44.23a7.84,7.84,0,0,1-7.51,10.11H420.53Z" transform="translate(0.23 -0.38)" fill="#006891"/>
      <rect id="Rectangle_415" data-name="Rectangle 415" width="26.99" height="4.03" transform="translate(394.86 356.3)" fill="#006891"/>
      <rect id="Rectangle_416" data-name="Rectangle 416" width="11.09" height="4.41" transform="translate(305.26 342.48)" fill="#00b0d1"/>
      <rect id="Rectangle_417" data-name="Rectangle 417" width="11.09" height="4.41" transform="translate(320.4 342.48)" fill="#00b0d1"/>
      <rect id="Rectangle_418" data-name="Rectangle 418" width="11.09" height="4.41" transform="translate(335.55 342.48)" fill="#00b0d1"/>
      <rect id="Rectangle_419" data-name="Rectangle 419" width="11.09" height="4.41" transform="translate(350.69 342.48)" fill="#00b0d1"/>
      <rect id="Rectangle_420" data-name="Rectangle 420" width="11.09" height="4.41" transform="translate(365.83 342.48)" fill="#00b0d1"/>
      <rect id="Rectangle_421" data-name="Rectangle 421" width="11.09" height="4.41" transform="translate(380.98 342.48)" fill="#00b0d1"/>
      <rect id="Rectangle_422" data-name="Rectangle 422" width="11.09" height="4.41" transform="translate(396.12 342.48)" fill="#00b0d1"/>
      <rect id="Rectangle_423" data-name="Rectangle 423" width="106.57" height="6.06" transform="translate(302.85 345.35)" fill="#006891"/>
      <path id="Path_1696" data-name="Path 1696" d="M296.36,351.74H258a1.32,1.32,0,0,1-1.21-1.83c2.58-6.18,13.12-24.54,40.46-.47a1.32,1.32,0,0,1-.89,2.3Z" transform="translate(0.23 -0.38)" fill="#08b"/>
      <line id="Line_11" data-name="Line 11" x1="13.51" y1="9.35" transform="translate(283.96 339.71)" fill="none" stroke="#00b0d1" stroke-miterlimit="10" stroke-width="2"/>
      <rect id="Rectangle_424" data-name="Rectangle 424" width="3.73" height="7.99" transform="translate(274.63 69.92)" fill="#fff"/>
      <rect id="Rectangle_425" data-name="Rectangle 425" width="3.73" height="7.99" transform="translate(274.63 84.22)" fill="#fff"/>
      <rect id="Rectangle_426" data-name="Rectangle 426" width="3.73" height="7.99" transform="translate(280.21 82.81) rotate(-90)" fill="#fff"/>
      <rect id="Rectangle_427" data-name="Rectangle 427" width="3.73" height="7.99" transform="translate(265.08 82.81) rotate(-90)" fill="#fff"/>
      <rect id="Rectangle_428" data-name="Rectangle 428" width="3.73" height="7.99" transform="translate(133.61 56.79)" fill="#fff"/>
      <rect id="Rectangle_429" data-name="Rectangle 429" width="3.73" height="7.99" transform="translate(133.61 71.09)" fill="#fff"/>
      <rect id="Rectangle_430" data-name="Rectangle 430" width="3.73" height="7.99" transform="translate(139.18 69.68) rotate(-90)" fill="#fff"/>
      <rect id="Rectangle_431" data-name="Rectangle 431" width="3.73" height="7.99" transform="translate(124.06 69.68) rotate(-90)" fill="#fff"/>
      <rect id="Rectangle_432" data-name="Rectangle 432" width="3.73" height="7.99" transform="translate(384.16 194.45)" fill="#fff"/>
      <rect id="Rectangle_433" data-name="Rectangle 433" width="3.73" height="7.99" transform="translate(384.16 208.75)" fill="#fff"/>
      <rect id="Rectangle_434" data-name="Rectangle 434" width="3.73" height="7.99" transform="translate(389.74 207.34) rotate(-90)" fill="#fff"/>
      <rect id="Rectangle_435" data-name="Rectangle 435" width="3.73" height="7.99" transform="translate(374.61 207.34) rotate(-90)" fill="#fff"/>
      <rect id="Rectangle_436" data-name="Rectangle 436" width="3.73" height="7.99" transform="translate(276.4 421.6)" fill="#fff"/>
      <rect id="Rectangle_437" data-name="Rectangle 437" width="3.73" height="7.99" transform="translate(276.4 435.9)" fill="#fff"/>
      <rect id="Rectangle_438" data-name="Rectangle 438" width="3.73" height="7.99" transform="translate(281.98 434.49) rotate(-90)" fill="#fff"/>
      <rect id="Rectangle_439" data-name="Rectangle 439" width="3.73" height="7.99" transform="translate(266.85 434.49) rotate(-90)" fill="#fff"/>
      <rect id="Rectangle_440" data-name="Rectangle 440" width="3.73" height="7.99" transform="translate(460.91 352.93)" fill="#fff"/>
      <rect id="Rectangle_441" data-name="Rectangle 441" width="3.73" height="7.99" transform="translate(460.91 367.23)" fill="#fff"/>
      <rect id="Rectangle_442" data-name="Rectangle 442" width="3.73" height="7.99" transform="translate(466.49 365.82) rotate(-90)" fill="#fff"/>
      <rect id="Rectangle_443" data-name="Rectangle 443" width="3.73" height="7.99" transform="translate(451.37 365.81) rotate(-90)" fill="#fff"/>
      <rect id="Rectangle_444" data-name="Rectangle 444" width="3.73" height="7.99" transform="translate(65.27 385.22)" fill="#fff"/>
      <rect id="Rectangle_445" data-name="Rectangle 445" width="3.73" height="7.99" transform="translate(65.27 399.53)" fill="#fff"/>
      <rect id="Rectangle_446" data-name="Rectangle 446" width="3.73" height="7.99" transform="translate(70.85 398.12) rotate(-90)" fill="#fff"/>
      <rect id="Rectangle_447" data-name="Rectangle 447" width="3.73" height="7.99" transform="translate(55.72 398.11) rotate(-90)" fill="#fff"/>
      <rect id="Rectangle_448" data-name="Rectangle 448" width="3.73" height="7.99" transform="translate(120.2 226.61)" fill="#fff"/>
      <rect id="Rectangle_449" data-name="Rectangle 449" width="3.73" height="7.99" transform="translate(120.2 240.91)" fill="#fff"/>
      <rect id="Rectangle_450" data-name="Rectangle 450" width="3.73" height="7.99" transform="translate(125.77 239.5) rotate(-90)" fill="#fff"/>
      <rect id="Rectangle_451" data-name="Rectangle 451" width="3.73" height="7.99" transform="translate(110.65 239.5) rotate(-90)" fill="#fff"/>
      <rect id="Rectangle_452" data-name="Rectangle 452" width="103.04" height="66.64" rx="4.45" transform="translate(338.22 370.2)" fill="#e2e4e4"/>
      <path id="Path_1697" data-name="Path 1697" d="M441,375v4.6H338V375a4.45,4.45,0,0,1,4.45-4.45h94.14A4.45,4.45,0,0,1,441,375Z" transform="translate(0.23 -0.38)" fill="#354358"/>
      <path id="Path_1698" data-name="Path 1698" d="M358.34,375.11a2.54,2.54,0,1,1-2.53-2.54,2.54,2.54,0,0,1,2.53,2.54Z" transform="translate(0.23 -0.38)" fill="#00aa80"/>
      <path id="Path_1699" data-name="Path 1699" d="M351.73,375.11a2.54,2.54,0,1,1-2.54-2.54,2.54,2.54,0,0,1,2.54,2.54Z" transform="translate(0.23 -0.38)" fill="#fdbb3b"/>
      <path id="Path_1700" data-name="Path 1700" d="M345,375.11a2.54,2.54,0,1,1-2.54-2.54,2.54,2.54,0,0,1,2.54,2.54Z" transform="translate(0.23 -0.38)" fill="#eb496f"/>
      <text id="C_" data-name="C++" transform="translate(351.96 419.7)" fill="#2b3647" font-size="37.09" font-family="Montserrat-ExtraBold, Montserrat" font-weight="800"><tspan x="0" y="0" letter-spacing="-0.01em">C</tspan><tspan y="0" letter-spacing="0.01em">+</tspan><tspan y="0">+</tspan></text>
      <rect id="Rectangle_453" data-name="Rectangle 453" width="79.9" height="51.67" rx="3.45" transform="translate(327.91 56.97)" fill="#e2e4e4"/>
      <path id="Path_1701" data-name="Path 1701" d="M407.58,60.8v3.57H327.69V60.8a3.44,3.44,0,0,1,3.44-3.44h73a3.44,3.44,0,0,1,3.45,3.44Z" transform="translate(0.23 -0.38)" fill="#006891"/>
      <path id="Path_1702" data-name="Path 1702" d="M343.47,60.86a2,2,0,1,1-2-2A2,2,0,0,1,343.47,60.86Z" transform="translate(0.23 -0.38)" fill="#00aa80"/>
      <path id="Path_1703" data-name="Path 1703" d="M338.34,60.86a2,2,0,1,1-2-2A2,2,0,0,1,338.34,60.86Z" transform="translate(0.23 -0.38)" fill="#fdbb3b"/>
      <path id="Path_1704" data-name="Path 1704" d="M333.08,60.86a2,2,0,1,1-2-2A2,2,0,0,1,333.08,60.86Z" transform="translate(0.23 -0.38)" fill="#eb496f"/>
      <text id="HTML" transform="translate(334.55 92.57)" fill="#354358" font-size="22.13" font-family="Montserrat-ExtraBold, Montserrat" font-weight="800"><tspan x="0" y="0">HTML</tspan></text>
      <rect id="Rectangle_454" data-name="Rectangle 454" width="59.59" height="59.59" rx="6.65" transform="translate(47.01 171.69)" fill="#ffe226"/>
      <path id="Path_1705" data-name="Path 1705" d="M69.05,199.6l-8.29,2.84,8.29,2.85v4.65l-14-5.06V200l14-5.06Z" transform="translate(0.23 -0.38)" fill="#fff"/>
      <path id="Path_1706" data-name="Path 1706" d="M78.49,189H84l-9,25.78H69.46Z" transform="translate(0.23 -0.38)" fill="#fff"/>
      <path id="Path_1707" data-name="Path 1707" d="M98.06,200v4.87l-14,5.06v-4.65l8.3-2.85-8.3-2.84V195Z" transform="translate(0.23 -0.38)" fill="#fff"/>
      <rect id="Rectangle_455" data-name="Rectangle 455" width="49.27" height="49.27" rx="5.5" transform="translate(408.93 151.08)" fill="#ffe226"/>
      <path id="Path_1708" data-name="Path 1708" d="M438.15,191a4.77,4.77,0,1,1-1.425-3.371A4.78,4.78,0,0,1,438.15,191Z" transform="translate(0.23 -0.38)" fill="#fff"/>
      <path id="Path_1709" data-name="Path 1709" d="M447.06,168.36a22.58,22.58,0,0,0-27.43.24,3.2,3.2,0,0,1-4.05.18h0c-1-1-.72-3,.88-4.24a27.73,27.73,0,0,1,33.7-.3c1.62,1.22,2,3.24,1,4.22h0a3.19,3.19,0,0,1-4.1-.1Z" transform="translate(0.23 -0.38)" fill="#fff"/>
      <path id="Path_1710" data-name="Path 1710" d="M442.5,176a16.08,16.08,0,0,0-18.18.16,3.37,3.37,0,0,1-4.09.1h0c-1.05-.95-.64-3.08,1.14-4.33a21.25,21.25,0,0,1,24-.21c1.8,1.22,2.25,3.34,1.22,4.31h0a3.37,3.37,0,0,1-4.09-.03Z" transform="translate(0.23 -0.38)" fill="#fff"/>
      <path id="Path_1711" data-name="Path 1711" d="M437.56,183.65a9.33,9.33,0,0,0-8.5.08c-1.35.67-3.11.87-4.18-.07h0c-1.08-.92-.46-3.33,1.8-4.5a14.51,14.51,0,0,1,13.18-.12c2.28,1.14,2.94,3.53,1.88,4.47h0C440.69,184.47,438.92,184.3,437.56,183.65Z" transform="translate(0.23 -0.38)" fill="#fff"/>
      <rect id="Rectangle_456" data-name="Rectangle 456" width="53.32" height="53.32" rx="5.95" transform="translate(130.48 390.19)" fill="#ffe226"/>
      <text id="CSS" transform="translate(135.16 424.89)" fill="#fff" font-size="20.81" font-family="Montserrat-ExtraBold, Montserrat" font-weight="800"><tspan x="0" y="0" letter-spacing="-0.01em">C</tspan><tspan y="0">SS</tspan></text>
      <rect id="Rectangle_457" data-name="Rectangle 457" width="96.44" height="35.04" rx="8.4" transform="translate(272.92 133.99)" fill="#fff"/>
      <path id="Path_1712" data-name="Path 1712" d="M272.92,160.69v21.92l11.01-14.52Z" fill="#fff"/>
      <text id="phyton" transform="translate(282.29 157.13)" fill="#354358" font-size="19.91" font-family="Montserrat-ExtraBold, Montserrat" font-weight="800"><tspan x="0" y="0">p</tspan><tspan y="0" letter-spacing="-0.01em">h</tspan><tspan y="0" letter-spacing="0.01em">y</tspan><tspan y="0" letter-spacing="-0.02em">t</tspan><tspan y="0">on</tspan></text>
      <rect id="Rectangle_458" data-name="Rectangle 458" width="96.44" height="35.04" rx="8.4" transform="translate(199.93 358.58)" fill="#fff"/>
      <path id="Path_1713" data-name="Path 1713" d="M296.37,385.29V407.2l-11.01-14.52Z" fill="#fff"/>
      <text id="_code_" data-name="&lt;code&gt;" transform="translate(209.29 381.73)" fill="#2b3647" font-size="19.91" font-family="Montserrat-ExtraBold, Montserrat" font-weight="800"><tspan x="0" y="0">&lt;</tspan><tspan y="0" letter-spacing="-0.01em">c</tspan><tspan y="0">ode&gt;</tspan></text>
    </g>
    <g id="Group_27" data-name="Group 27" transform="matrix(0.988, 0, 0.005, 0.999, 76.272, 308.6)" opacity="0.67">
      <g id="LogoCyberSoft" transform="translate(2.559 -3.296) scale(0.956 1)" clip-path="url(#clip-path)">
        <g id="LogoCyberSoft-2" data-name="LogoCyberSoft" transform="translate(-3.962 -1.569)">
          <g id="Group_5" data-name="Group 5" transform="translate(0 5.492)">
            <path id="Path_254" data-name="Path 254" d="M5.01,1.976,17.186.274l-5.092,11.1L.2,12.8Z" transform="matrix(0.799, 0.602, -0.602, 0.799, 11.377, 0)" fill="url(#linear-gradient)"/>
            <path id="Path_256" data-name="Path 256" d="M.026,1.62,11.8.188l4.8,6.643L5.047,8.283Z" transform="matrix(0.799, 0.602, -0.602, 0.799, 4.836, 9.071)" fill="url(#linear-gradient-2)"/>
            <path id="Path_257" data-name="Path 257" d="M10.73.013l.132,8.2L.3,14.351l-.29-8.3Z" transform="matrix(-0.999, -0.035, 0.035, -0.999, 24.69, 24.947)" fill="url(#radial-gradient)"/>
          </g>
          <g id="Group_6" data-name="Group 6" transform="translate(2.249 0)">
            <path id="Path_254-2" data-name="Path 254" d="M5.01,1.976,17.186.274l-5.092,11.1L.2,12.8Z" transform="matrix(0.799, 0.602, -0.602, 0.799, 9.128, 0)" fill="url(#linear-gradient-3)"/>
            <path id="Path_256-2" data-name="Path 256" d="M.026,1.647,11.973.191l1.92,2.549L2.056,4.34.026,1.646Z" transform="matrix(0.799, 0.602, -0.602, 0.799, 2.539, 9)" fill="url(#linear-gradient-4)"/>
            <path id="Path_257-2" data-name="Path 257" d="M10.549.012l.114,3.274L.126,9.438.007,6.017Z" transform="matrix(-0.999, -0.035, 0.035, -0.999, 22.513, 19.972)" fill="url(#linear-gradient-5)"/>
          </g>
        </g>
      </g>
    </g>
    <g id="Group_28" data-name="Group 28" transform="matrix(0.994, -0.035, 0.028, 0.997, 402.019, 273.946)" opacity="0.66">
      <g id="LogoCyberSoft-3" data-name="LogoCyberSoft" transform="translate(5.188 -0.038)" clip-path="url(#clip-path-2)">
        <g id="LogoCyberSoft-4" data-name="LogoCyberSoft" transform="translate(-3.336 -1.001)">
          <g id="Group_5-2" data-name="Group 5" transform="translate(0 4.477)">
            <path id="Path_254-3" data-name="Path 254" d="M3.919,1.387,13.844,0,9.693,9.049,0,10.213Z" transform="matrix(0.799, 0.602, -0.602, 0.799, 9.378, 0)" fill="url(#linear-gradient)"/>
            <path id="Path_256-3" data-name="Path 256" d="M0,1.167,9.6,0l3.912,5.415L4.093,6.6Z" transform="matrix(0.799, 0.602, -0.602, 0.799, 3.972, 7.252)" fill="url(#linear-gradient-2)"/>
            <path id="Path_257-3" data-name="Path 257" d="M8.741,0l.108,6.683L.236,11.688,0,4.922Z" transform="matrix(-0.999, -0.035, 0.035, -0.999, 20.228, 20.048)" fill="url(#radial-gradient)"/>
          </g>
          <g id="Group_6-2" data-name="Group 6" transform="translate(1.897 0)">
            <path id="Path_254-4" data-name="Path 254" d="M3.919,1.387,13.844,0,9.693,9.049,0,10.213Z" transform="matrix(0.799, 0.602, -0.602, 0.799, 7.481, 0)" fill="url(#linear-gradient-3)"/>
            <path id="Path_256-4" data-name="Path 256" d="M0,1.186,9.739,0,11.3,2.078l-9.65,1.3L0,1.186Z" transform="matrix(0.799, 0.602, -0.602, 0.799, 2.036, 7.195)" fill="url(#linear-gradient-4)"/>
            <path id="Path_257-4" data-name="Path 257" d="M8.594,0l.093,2.669L.1,7.683,0,4.895Z" transform="matrix(-0.999, -0.035, 0.035, -0.999, 18.39, 15.992)" fill="url(#linear-gradient-5)"/>
          </g>
        </g>
      </g>
    </g>
  </g>
</svg>
