<svg xmlns="http://www.w3.org/2000/svg" xmlns:xlink="http://www.w3.org/1999/xlink" width="336.8" height="302.697" viewBox="0 0 336.8 302.697">
  <defs>
    <clipPath id="clip-path">
      <rect id="Rectangle_3" data-name="Rectangle 3" width="8.703" height="11.427" transform="translate(0 0)" fill="none"/>
    </clipPath>
    <linearGradient id="linear-gradient" x1="0.5" x2="0.938" y2="0.162" gradientUnits="objectBoundingBox">
      <stop offset="0" stop-color="#745f67"/>
      <stop offset="1" stop-color="#47232f"/>
    </linearGradient>
    <linearGradient id="linear-gradient-2" x1="-0.005" y1="0.148" x2="0.763" y2="0.971" gradientUnits="objectBoundingBox">
      <stop offset="0" stop-color="#fef388"/>
      <stop offset="0.27" stop-color="#cca962"/>
      <stop offset="0.609" stop-color="#936440"/>
      <stop offset="1" stop-color="#3b0f09"/>
    </linearGradient>
    <radialGradient id="radial-gradient" cx="0.105" cy="0.906" r="1.098" gradientTransform="matrix(0.029, -1, 1.283, 0.038, -1.06, 0.977)" gradientUnits="objectBoundingBox">
      <stop offset="0" stop-color="#562522"/>
      <stop offset="0.51" stop-color="#5c2b28"/>
      <stop offset="0.824" stop-color="#976260"/>
      <stop offset="1" stop-color="#a16c6a"/>
    </radialGradient>
    <linearGradient id="linear-gradient-3" x1="0.462" y1="0.431" x2="0.612" y2="0.701" gradientUnits="objectBoundingBox">
      <stop offset="0" stop-color="#d0a733"/>
      <stop offset="1" stop-color="#f8e87d"/>
    </linearGradient>
    <linearGradient id="linear-gradient-4" x1="0.5" y1="0" x2="0.5" y2="1" xlink:href="#linear-gradient-3"/>
    <linearGradient id="linear-gradient-5" x1="0.537" y1="0.181" x2="0.132" y2="0.669" xlink:href="#linear-gradient-3"/>
  </defs>
  <g id="women-svg" transform="translate(-1267.41 -2253.865)">
    <g id="Character" transform="translate(1224 2171.98)">
      <path id="Path_1182" data-name="Path 1182" d="M243.53,256.45l-2.58,15.51-17.52,94.6H220.6l12.74-94.6,1.88-15.51Z" fill="#c7c7c7"/>
      <path id="Path_1183" data-name="Path 1183" d="M235.22,256.45h8.31l-2.58,15.51h-7.61Z" fill="#a6a6a6"/>
      <path id="Path_1184" data-name="Path 1184" d="M298.55,366.56h-2.83l-17.52-94.6-2.58-15.51h8.31l1.88,15.51Z" fill="#c7c7c7"/>
      <path id="Path_1185" data-name="Path 1185" d="M283.93,256.45l1.88,15.51H278.2l-2.58-15.51Z" fill="#a6a6a6"/>
      <path id="Path_1186" data-name="Path 1186" d="M351.09,366.56h-2.82l-17.52-94.6-2.58-15.51h8.3l1.88,15.51Z" fill="#c7c7c7"/>
      <path id="Path_1187" data-name="Path 1187" d="M338.35,271.96h-7.6l-2.58-15.51h8.3Z" fill="#a6a6a6"/>
      <path id="Path_1188" data-name="Path 1188" d="M346.62,263.74H218.24V250.21H266.3l16.15-113.97h59.27Z" fill="#c7c7c7"/>
      <path id="Path_1189" data-name="Path 1189" d="M339.14,250.21H218.24v13.53H339.62Z" fill="#dbdbdb"/>
      <path id="Path_1190" data-name="Path 1190" d="M346.62,263.74h-7l-4.56-127.5h6.66Z" fill="#dbdbdb"/>
      <path id="Path_1191" data-name="Path 1191" d="M254.22,439.24c2.48.24,70.15-15.95,72.28-18.15.26-.25-1.08-6.4-3-14.78v-.17c-1.22-5.31-21-48.31-21-48.31l-43.86,12.28,20,39.89s-8.25,6-15.32,11.63h0c-4.37,3.48-8.13,6.6-8.93,7.61C252.21,431.92,251.74,439,254.22,439.24Z" transform="translate(-38.19 -54.98)" fill="#d3766a"/>
      <path id="Path_1192" data-name="Path 1192" d="M254.22,439.24c2.48.24,70.15-16,72.28-18.15.26-.25-1.08-6.39-3-14.78v-.16c-.45-2-3.49-9.21-7.12-17.49-7.21,1.95-33.09,9-42.48,11.88l4.73,9.46s-8.25,6-15.33,11.63h0c-4.36,3.48-8.13,6.61-8.93,7.62C252.21,431.92,251.73,439,254.22,439.24Z" transform="translate(-38.19 -54.98)" fill="#fff"/>
      <path id="Path_1193" data-name="Path 1193" d="M254,439.56c2.55.22,70.27-16.15,72.45-18.41.84-.85-.67-11.54-4.39-22.86L278.42,408.9S256.14,426.57,254,429.31,251.44,439.34,254,439.56Z" transform="translate(-38.19 -54.98)" fill="#ffe226"/>
      <path id="Path_1194" data-name="Path 1194" d="M254.31,436.62c11.29-3,57.08-14.15,68.46-16.29.1,0,.11.05,0,.07-11.12,3.25-57,14-68.43,16.41C254.12,436.86,254.07,436.68,254.31,436.62Z" transform="translate(-38.19 -54.98)" fill="#263238"/>
      <path id="Path_1195" data-name="Path 1195" d="M257.77,425.82a9.37,9.37,0,0,1,7.46,1.13,9.07,9.07,0,0,1,4,5.44c0,.07-.11.1-.14,0A10.84,10.84,0,0,0,257.81,426C257.71,426,257.68,425.84,257.77,425.82Z" transform="translate(-38.19 -54.98)" fill="#263238"/>
      <path id="Path_1196" data-name="Path 1196" d="M275.13,410.9c4.53-1.16,10.18-.83,13.91,2.2.14.12,0,.32-.18.29a64.341,64.341,0,0,0-13.67-1.91.3.3,0,0,1-.06-.58Z" transform="translate(-38.19 -54.98)" fill="#263238"/>
      <path id="Path_1197" data-name="Path 1197" d="M272,413.12c4.53-1.16,10.19-.83,13.91,2.2.14.12,0,.32-.18.28A64.231,64.231,0,0,0,272,413.7a.3.3,0,0,1,0-.58Z" transform="translate(-38.19 -54.98)" fill="#263238"/>
      <path id="Path_1198" data-name="Path 1198" d="M268.78,415.33c4.53-1.16,10.18-.83,13.9,2.2.15.12,0,.32-.17.29a64.34,64.34,0,0,0-13.68-1.91.291.291,0,1,1-.05-.58Z" transform="translate(-38.19 -54.98)" fill="#263238"/>
      <path id="Path_1199" data-name="Path 1199" d="M265.6,417.55c4.53-1.16,10.18-.83,13.91,2.2.14.12,0,.32-.18.28a64.877,64.877,0,0,0-13.67-1.9.3.3,0,0,1-.06-.58Z" transform="translate(-38.19 -54.98)" fill="#263238"/>
      <path id="Path_1200" data-name="Path 1200" d="M317.28,410.25c5.1-1.22,7,6.71,1.89,7.93S312.17,411.47,317.28,410.25Z" transform="translate(-38.19 -54.98)" fill="#263238"/>
      <path id="Path_1201" data-name="Path 1201" d="M269.26,406.54c3.22,2.57,7.44,3.66,11.21,5.11a.57.57,0,0,0,.73-.56.12.12,0,0,0,.11-.17,24.56,24.56,0,0,0-6.94-10.62c-1.89-1.63-5.24-2.8-7.08-.33S267.38,405,269.26,406.54Zm-1.12-3.71c-.74-5.06,4.64-2.34,6-1.08a27.688,27.688,0,0,1,2.4,2.67,68.645,68.645,0,0,1,4.19,6.11c-1.82-.83-3.68-1.5-5.52-2.26-2.21-.9-6.66-2.66-7.07-5.44Z" transform="translate(-38.19 -54.98)" fill="#263238"/>
      <path id="Path_1202" data-name="Path 1202" d="M296.74,404.12c-1.07-2.88-4.61-2.7-6.89-1.66a24.57,24.57,0,0,0-9.64,8.24.12.12,0,0,0,.06.19.57.57,0,0,0,.54.75c4-.34,8.39-.2,12.2-1.76C295.23,409,297.76,406.85,296.74,404.12Zm-9.92,5.76c-2,.21-4,.33-5.93.61a73.8,73.8,0,0,1,5.74-4.69,25.753,25.753,0,0,1,3.05-1.88c1.65-.83,7.57-1.93,5.44,2.71-1.12,2.56-5.94,2.99-8.3,3.25Z" transform="translate(-38.19 -54.98)" fill="#263238"/>
      <path id="Path_1203" data-name="Path 1203" d="M273.59,406.35l47-14.09s-38.73-80.71-37.51-84.82c.82-2.74,58.89-2.93,75.91-18.21,17.61-15.82,3.89-46.89,3.89-46.89L314,242.09s.84,10.19-1,11.78c-1.23,1-68,6.93-80.76,31.47C220.66,307.61,273.59,406.35,273.59,406.35Z" transform="translate(-38.19 -54.98)" fill="#263238"/>
      <path id="Path_1204" data-name="Path 1204" d="M283.06,307.44c-.21.69.73,3.59,2.45,7.93l-35.09,43.11c-12.51-28.53-24.27-61.42-18.16-73.14C245,260.8,311.78,254.92,313,253.87c1.86-1.58,1-11.78,1-11.78l31,.16-51.5,63.26C287.33,306.19,283.27,306.72,283.06,307.44Z" transform="translate(-38.19 -54.98)" fill="#263238"/>
      <path id="Path_1205" data-name="Path 1205" d="M272.42,396.41a28.883,28.883,0,0,1,3.83-1.43c1.35-.46,2.71-.92,4.07-1.36,2.68-.86,5.38-1.69,8.09-2.45,5.45-1.55,10.92-3.06,16.41-4.46,2.87-.72,9-2.31,9.39-2.25.18,0,.22.33.06.39-5.31,1.9-10.71,3.53-16.1,5.17s-10.77,3.27-16.23,4.64c-1.51.39-3,.72-4.55,1.09a34.583,34.583,0,0,1-4.83,1C272.4,396.8,272.25,396.5,272.42,396.41Z" transform="translate(-38.19 -54.98)" fill="#455a64"/>
      <path id="Path_1206" data-name="Path 1206" d="M360.24,251.64c-.15-1.63-.33-3.25-.52-4.88,0-.19-.31-.19-.29,0,.65,6.6,1.32,13.36.1,19.94a28.39,28.39,0,0,1-8.72,15.8c-9.68,9-23.23,11.69-35.85,13.84-7.22,1.23-14.49,2.17-21.79,2.89-3.58.35-7.16.63-10.74.86s-7.11.25-10.66.45c-1.12.06-2.12.58-1.95,1.86a9.23,9.23,0,0,0,.85,2.24l1.15,2.59q2.13,4.83,4.3,9.66,4.45,9.94,9,19.83,9.1,19.63,18.88,38.94l2.43,4.79c.06.1.21,0,.16-.1q-9.35-19.55-18.46-39.21c-3-6.51-6-13-9-19.53l-4.44-9.79c-.73-1.64-1.47-3.27-2.2-4.91-.36-.81-.73-1.63-1.09-2.45s-1.41-2.31-.65-3c.51-.42,1.57-.28,2.18-.29l2.83-.1c1.8-.06,3.59-.13,5.38-.22q5.44-.27,10.89-.74c7.09-.62,14.17-1.52,21.2-2.65,12.54-2,26.18-4.29,36.21-12.71a30.11,30.11,0,0,0,9.63-14C361,264.6,360.83,258,360.24,251.64Z" transform="translate(-38.19 -54.98)" fill="#455a64"/>
      <path id="Path_1207" data-name="Path 1207" d="M151,377.38c1.77,1.76,64.21,32.45,67.25,32.11.36,0,3.25-5.61,7.09-13.32l.07-.15c2.45-4.88,24.67-45.91,24.67-45.91l-38.85-19.67-22.84,39.93s-10.16-.66-19.22-.81h0c-5.58-.11-10.47-.1-11.73.17C154.11,370.46,149.21,375.63,151,377.38Z" transform="translate(-38.19 -54.98)" fill="#d3766a"/>
      <path id="Path_1208" data-name="Path 1208" d="M151,377.38c1.77,1.76,64.21,32.45,67.26,32.11.35,0,3.24-5.61,7.08-13.32l.07-.15.53-1c.12-.25.25-.49.39-.74l.58-1.1c1.7-3.21,4.48-8.4,7.53-14.08l-39.61-20-6.44,11.26s-10.16-.66-19.22-.81h0c-5.58-.1-10.48-.1-11.73.17C154.11,370.46,149.2,375.63,151,377.38Z" transform="translate(-38.19 -54.98)" fill="#fff"/>
      <path id="Path_1209" data-name="Path 1209" d="M150.6,377.49c1.83,1.8,64.43,32.36,67.56,32,1.18-.12,6.84-9.32,11.19-20.41L189,369.44s-28.43-.59-31.82.15S148.77,375.69,150.6,377.49Z" transform="translate(-38.19 -54.98)" fill="#ffe226"/>
      <path id="Path_1210" data-name="Path 1210" d="M152.72,375.42c10.62,4.87,53,25.5,63.13,31.12.08,0,.05.1,0,.06C205.18,402,163,381,152.64,375.59,152.42,375.48,152.5,375.32,152.72,375.42Z" transform="translate(-38.19 -54.98)" fill="#263238"/>
      <path id="Path_1211" data-name="Path 1211" d="M162.28,369.31a9.39,9.39,0,0,1,5,5.62,9.17,9.17,0,0,1-.39,6.75.072.072,0,0,1-.13-.06,10.84,10.84,0,0,0-4.57-12.18C162.14,369.39,162.19,369.27,162.28,369.31Z" transform="translate(-38.19 -54.98)" fill="#263238"/>
      <path id="Path_1212" data-name="Path 1212" d="M185.16,368.89c4.23,2,8.38,5.85,9.31,10.56a.18.18,0,0,1-.32.11,64.282,64.282,0,0,0-9.31-10.19.29.29,0,0,1,.32-.48Z" transform="translate(-38.19 -54.98)" fill="#263238"/>
      <path id="Path_1213" data-name="Path 1213" d="M181.3,368.57c4.23,2,8.38,5.85,9.31,10.56a.18.18,0,0,1-.32.11A64.711,64.711,0,0,0,181,369.05a.29.29,0,0,1,.3-.48Z" transform="translate(-38.19 -54.98)" fill="#263238"/>
      <path id="Path_1214" data-name="Path 1214" d="M177.44,368.25c4.23,2,8.38,5.85,9.31,10.56a.18.18,0,0,1-.32.11,64.229,64.229,0,0,0-9.31-10.19.29.29,0,0,1,.32-.48Z" transform="translate(-38.19 -54.98)" fill="#263238"/>
      <path id="Path_1215" data-name="Path 1215" d="M173.58,367.93c4.23,2,8.38,5.85,9.31,10.56a.18.18,0,0,1-.32.11,64.669,64.669,0,0,0-9.31-10.19.29.29,0,0,1,.32-.48Z" transform="translate(-38.19 -54.98)" fill="#263238"/>
      <path id="Path_1216" data-name="Path 1216" d="M218,395.26c4.7,2.32,1.12,9.63-3.6,7.32S213.33,392.94,218,395.26Z" transform="translate(-38.19 -54.98)" fill="#263238"/>
      <path id="Path_1217" data-name="Path 1217" d="M183.43,361.78c.83,4,3.39,7.56,5.37,11.09a.57.57,0,0,0,.92,0,.12.12,0,0,0,.19-.06,24.6,24.6,0,0,0,1.43-12.6c-.42-2.47-2.26-5.5-5.24-4.78C183.27,356.15,182.94,359.43,183.43,361.78Zm1.5-3.57c2.65-4.37,5.06,1.16,5.29,3a26.8,26.8,0,0,1,.15,3.58,72.77,72.77,0,0,1-.67,7.38c-.87-1.79-1.88-3.49-2.81-5.25C185.78,364.81,183.47,360.62,184.93,358.21Z" transform="translate(-38.19 -54.98)" fill="#263238"/>
      <path id="Path_1218" data-name="Path 1218" d="M206.13,377.45c1-2.9-1.83-5-4.24-5.68a24.6,24.6,0,0,0-12.69.2.13.13,0,0,0-.07.19.57.57,0,0,0-.06.92c3.32,2.31,6.58,5.19,10.51,6.42C201.88,380.21,205.18,380.19,206.13,377.45Zm-11.31-1.9c-1.66-1.1-3.26-2.27-5-3.3a70.458,70.458,0,0,1,7.41,0,25.07,25.07,0,0,1,3.55.5c1.8.41,7.07,3.34,2.47,5.55-2.5,1.27-6.45-1.44-8.43-2.75Z" transform="translate(-38.19 -54.98)" fill="#263238"/>
      <path id="Path_1219" data-name="Path 1219" d="M188.57,363.91l46.85,23.41S272,313,276,308.19c5.35-6.39,75,2.63,91.44-18,17-21.33,2.43-47.82,2.43-47.82h-53s-.16,5.88,2.9,14.48c0,0-60.63-3.61-77.79,13.06C228.78,282.7,188.57,363.91,188.57,363.91Z" transform="translate(-38.19 -54.98)" fill="#263238"/>
      <path id="Path_1220" data-name="Path 1220" d="M329.4,262.18A89.688,89.688,0,0,0,321,257a34.42,34.42,0,0,0-6.38-2.59c-1.55-.37-2.23-.48-.78.2l3.9,1.85h-.82c-1,0-2.08-.09-3.13-.11-2-.06-4.08,0-6.11-.06-4.14,0-8.24.37-12.37.58-.1,0-.1.17,0,.17,4.12-.14,8.25.08,12.38.07,2,0,4.07.05,6.11.08l3,.06a23.9,23.9,0,0,0,2.54,0l1.13.54c3,1.41,6,2.89,8.88,4.52C329.39,262.35,329.48,262.24,329.4,262.18Z" transform="translate(-38.19 -54.98)" fill="#455a64"/>
      <path id="Path_1221" data-name="Path 1221" d="M315.58,240.36c.54,2.51,1,5,1.63,7.51a29.353,29.353,0,0,0,1,3.4c.33.94.84,2,1.9,2.25,1.23.28,1.61-.76,1.55-1.78s-.33-2.29-.52-3.41c-.21-1.3-.43-2.6-.62-3.9-.09-.65-.2-1.3-.28-2a17.209,17.209,0,0,0-.18-1.76.07.07,0,0,1-.07.05h0a.08.08,0,0,1-.08-.07.185.185,0,0,1,.07-.18.08.08,0,0,1,.11,0c.24.13.24.46.31.7.18.63.36,1.26.52,1.9.31,1.2.6,2.4.86,3.6s.52,2.41.77,3.62a5.62,5.62,0,0,1,.15,2.76,2.12,2.12,0,0,1-2,1.53l.12.24c.1.25.17.51.25.77a7.669,7.669,0,0,1,.23.78,2.631,2.631,0,0,1,.06.39c0,.14,0,.28,0,.43a.21.21,0,0,1-.39.12,4.126,4.126,0,0,0-.22-.35,2,2,0,0,1-.16-.43c-.08-.25-.14-.5-.2-.75s-.12-.51-.16-.77a1.638,1.638,0,0,1,0-.45,2.81,2.81,0,0,1-1.41-.6,4.78,4.78,0,0,1-1.41-2.31c-.34-1.05-.59-2.13-.84-3.2a45.562,45.562,0,0,1-1.32-8C315.12,240.16,315.52,240.07,315.58,240.36Z" transform="translate(-38.19 -54.98)" fill="#455a64"/>
      <path id="Path_1222" data-name="Path 1222" d="M341.15,247.49c.18,1.24.28,2.48.52,3.71s.53,2.41.88,3.59A12.51,12.51,0,0,0,344,258a12.1,12.1,0,0,0,2.32,2.53A20.559,20.559,0,0,0,352,264a29.237,29.237,0,0,0,3.2,1.06c.57.14,1.15.26,1.72.36a3.68,3.68,0,0,1,1.39.37.28.28,0,0,1-.05.48,5,5,0,0,1-2.58,0,18.133,18.133,0,0,1-2.73-.57,20.1,20.1,0,0,1-5.13-2.37,16.649,16.649,0,0,1-4.23-3.7,12.56,12.56,0,0,1-2.16-5.18,25.37,25.37,0,0,1-.52-6.95.12.12,0,0,1,.24-.01Z" transform="translate(-38.19 -54.98)" fill="#455a64"/>
      <path id="Path_1223" data-name="Path 1223" d="M198.08,355.39a28.813,28.813,0,0,1,3.76,1.59c1.3.6,2.61,1.19,3.9,1.81q3.81,1.81,7.56,3.76c5,2.63,10,5.28,15,8,2.59,1.43,8.14,4.49,8.38,4.8.11.14-.07.39-.23.32-5.17-2.26-10.21-4.78-15.25-7.29s-10.08-5-15-7.77c-1.36-.76-2.69-1.56-4.05-2.33a34.927,34.927,0,0,1-4.22-2.57C197.8,355.66,197.89,355.33,198.08,355.39Z" transform="translate(-38.19 -54.98)" fill="#455a64"/>
      <path id="Path_1224" data-name="Path 1224" d="M369.82,254.71a.18.18,0,0,0-.35,0c.1,11.51-1.68,24.38-10.54,32.64-9.72,9.06-23.73,10.14-36.35,10-7.24-.06-14.47-.25-21.71,0s-14.62.59-21.84,1.52a11.92,11.92,0,0,0-7.42,3.54,38,38,0,0,0-4.91,7.07q-5.47,9-10.59,18.3-10.17,18.39-18.83,37.55-1.08,2.38-2.13,4.77c-.05.1.11.19.15.08q8.8-19.21,18.94-37.78,5.06-9.29,10.44-18.39c1.69-2.84,3.33-5.76,5.21-8.49,1.67-2.41,3.75-4.67,6.64-5.55a27.158,27.158,0,0,1,5.39-.78q2.77-.25,5.56-.46c3.6-.26,7.22-.46,10.84-.59,7.3-.27,14.58-.18,21.89-.05,12.67.23,26.52-.2,37-8.27A29.88,29.88,0,0,0,367,276.2a53.7,53.7,0,0,0,2.83-17.14C369.86,257.61,369.85,256.16,369.82,254.71Z" transform="translate(-38.19 -54.98)" fill="#455a64"/>
      <path id="Path_1225" data-name="Path 1225" d="M293.94,305.14c-2.59,0-5.17.15-7.75.24a30.621,30.621,0,0,0-6.42.57c-2,.49-3.51.72-5.11,2.91-2,2.73-12.89,23.76-17.46,33.07q-1.9,3.87-3.75,7.77c-1.26,2.69-2.39,5.44-3.65,8.13-.05.09.1.18.15.08,1.12-2.25,2.36-4.44,3.52-6.66s2.28-4.48,3.4-6.73q3.4-6.81,6.82-13.61c2.26-4.5,5-8.88,7.3-13.35,1.93-3.76,4.57-8.9,6.4-9.66a30.54,30.54,0,0,1,8-1.94c2.85-.2,5.7-.38,8.55-.62a.1.1,0,0,0,0-.2Z" transform="translate(-38.19 -54.98)" fill="#455a64"/>
      <path id="Path_1226" data-name="Path 1226" d="M350.93,170.41c2.43,9.62,7,20.75,4.74,30.78-1.75,7.86-7.53,14.1-13.91,18.65-14,10-35.48,15.34-49.45,2.24-5.57-5.24-8.93-17.84-2.73-24,3.19-3.15,7.45-4.6,11.38-6.58a18.07,18.07,0,0,0,10-12.12c2.92-11,.43-18.05-.83-29a7.81,7.81,0,0,1,1.46-6.19,20.81,20.81,0,0,1,12-7.28c4.87-.48,10.35,3,14.6,4.95a12.877,12.877,0,0,1,7.86,9.18C347.74,157.48,349.29,164,350.93,170.41Z" transform="translate(-38.19 -54.98)" fill="#263238"/>
      <path id="Path_1227" data-name="Path 1227" d="M353.07,174.74c-2.8-8.67-5.76-17.26-8.67-25.89h-.09c2.19,7.17,4.28,14.35,6.56,21.5,2.24,7,5,14,6.63,21.21,3.63,16.09-11.64,26.08-25.54,28.12-.63.09-.41,1.09.22,1,12.15-2.17,25.73-9.26,26.68-23.14C359.38,189.94,355.35,181.83,353.07,174.74Z" transform="translate(-38.19 -54.98)" fill="#263238"/>
      <path id="Path_1228" data-name="Path 1228" d="M310.72,149.39a.133.133,0,1,0-.26.06c1.42,9,3.92,19.29.45,28.07a23,23,0,0,1-8.55,10.62c-3.05,2.05-6.57,2.89-9.92,4.3-13.09,5.48-9.43,23.93,2,29.08.23.1.43-.3.19-.42-8.12-4.13-12.49-13.76-8.33-22.35,3.34-6.9,12.5-6.81,18.07-11.3C315.86,178.14,313.65,162.24,310.72,149.39Z" transform="translate(-38.19 -54.98)" fill="#263238"/>
      <path id="Path_1229" data-name="Path 1229" d="M334.88,185.66c-6,13-26.54,43.12-36.44,44.49-8.75,1.21-30.41-3.82-37.71-7.83-3.36-1.84,5.08-26.71,10.72-25.53,7,1.48,16.56,5,23.09,5.36,2.31.14,13.43-7.8,33-20.7C334.84,176.65,338.26,178.35,334.88,185.66Z" transform="translate(-38.19 -54.98)" fill="#d3766a"/>
      <path id="Path_1230" data-name="Path 1230" d="M260.11,199.89s-17.42-2.69-18.32-2.53-.71,1.45-.6,2.46a10.29,10.29,0,0,0,.76,1.68c1.31,2.58,3.53,7.21,0,8.26-4.62,1.37-9.6-9-10.13-10.75a5.77,5.77,0,0,1,.14-2.4c.63-2.85,2.6-7,6-8.06,4.6-1.47,9.85-.83,14.45-.6Z" transform="translate(-38.19 -54.98)" fill="#d3766a"/>
      <path id="Path_1231" data-name="Path 1231" d="M260.11,199.89s-17.42-2.69-18.32-2.53-.71,1.45-.6,2.46a10.29,10.29,0,0,0,.76,1.68c-3.56-1.73-7.48-3.65-10-4.89.63-2.85,2.6-7,6-8.06,4.6-1.47,9.85-.83,14.45-.6Z" transform="translate(-38.19 -54.98)" fill="#263238"/>
      <path id="Path_1232" data-name="Path 1232" d="M260.73,222.32c-.91-.49-5.6-1.87-11.93-4.06-1.7-4.9-6.23-14.24-7.42-16.72-.85-3-4.37-8.88-4.65-8.75-.51.25-2.32,1.13-4.61,2-3,1.17-6.87,2.38-9.62,2.2a3.52,3.52,0,0,1-3.21-1.72c-1-2,3.35-4.37,8.25-7.6,6.67-4.41,15.1-9.46,19.22-8.24,6.1,1.79,12.11,9.25,14.16,11.26s10.53,6.08,10.53,6.08C269.71,205.94,262,223,260.73,222.32Z" transform="translate(-38.19 -54.98)" fill="#d3766a"/>
      <path id="Path_1233" data-name="Path 1233" d="M240.69,199.68c-.08-.12-.15-.06-.09.09.17.48.93,2.63.46,2.87-.82.4-5.69-2.23-7.93-3-.12,0-.19.13-.07.16a35.538,35.538,0,0,1,3.29,1.57c1,.51,4,2.29,5.06,1.78C242.1,202.83,241,200.16,240.69,199.68Z" transform="translate(-38.19 -54.98)" fill="#263238"/>
      <path id="Path_1234" data-name="Path 1234" d="M216.81,211.4c-.61.59-1.27,1.06-1.56.79h0c-.26-.29.24-.94.84-1.53Z" transform="translate(-38.19 -54.98)" fill="#263238"/>
      <path id="Path_1235" data-name="Path 1235" d="M223.78,210.57c-.63.62-5.4,1.11-7.17,1a.87.87,0,0,1-.73-.74c0-1.74.57-6.53,1.2-7.15.43-.42,2.41-1.45,4.35-2.66,2.53-1.56,29.69-26.74,30.14-26.86s1.26.55,1.66,1,1.07,1.26.94,1.7-26,27-27.62,29.45C225.29,208.2,224.21,210.16,223.78,210.57Z" transform="translate(-38.19 -54.98)" fill="#37474f"/>
      <path id="Path_1236" data-name="Path 1236" d="M223.78,210.58a.66.66,0,0,1-.24.14,22.639,22.639,0,0,1-4.11-3.3,15.151,15.151,0,0,1-2.54-3.38.76.76,0,0,1,.19-.34,2,2,0,0,1,.31-.24c.57,1.17,2.32,4,6.66,6.78A2.489,2.489,0,0,1,223.78,210.58Z" transform="translate(-38.19 -54.98)" fill="#a6a6a6"/>
      <rect id="Rectangle_197" data-name="Rectangle 197" width="1.98" height="12.1" rx="0.73" transform="translate(193.122 140.151) rotate(45.74)" fill="#263238"/>
      <rect id="Rectangle_198" data-name="Rectangle 198" width="1.15" height="7.68" rx="0.43" transform="translate(190.628 143.158) rotate(45.73)" fill="#a6a6a6"/>
      <rect id="Rectangle_199" data-name="Rectangle 199" width="0.34" height="1.15" transform="translate(186.972 146.737) rotate(-44.26)" fill="#263238"/>
      <path id="Path_1237" data-name="Path 1237" d="M248.8,218.26c-2.17-.75-4.1-1.39-5.43-1.78a16.38,16.38,0,0,1-9.72-7.19c-2.08-3.06-12.73-6.34-7.55-9.56s14.46,4.66,15.36,3.3a2.1,2.1,0,0,0-.08-1.49C242.57,204,247.1,213.36,248.8,218.26Z" transform="translate(-38.19 -54.98)" fill="#d3766a"/>
      <path id="Path_1238" data-name="Path 1238" d="M305.07,193.5l21.53,8.63s6.8-9.47,9.82-15.25c4-7.64,2.1-10.91-7.75-7.09C322.07,182.35,305.07,193.5,305.07,193.5Z" transform="translate(-38.19 -54.98)" fill="#ffe226"/>
      <path id="Path_1239" data-name="Path 1239" d="M324,201.08a27.756,27.756,0,0,1,2.63,1c.78-1.13,1.53-2.28,2.32-3.4.39-.57.79-1.12,1.2-1.67s.93-1.32,1.33-1.86c.07-.08.18,0,.12.08-.45.75-.8,1.29-1.2,1.94s-.72,1.14-1.09,1.7c-.8,1.19-1.6,2.49-2.45,3.63a23.5,23.5,0,0,1-2.89-1.31Z" transform="translate(-38.19 -54.98)" fill="#263238"/>
      <path id="Path_1240" data-name="Path 1240" d="M308.07,192.33q4.83,1.5,9.58,3.35,2.36.91,4.69,1.91c1.55.65,3,1.47,4.6,2.11.08,0,0,.17-.06.13-1.53-.71-3.16-1.23-4.72-1.86l-4.7-1.88c-3.14-1.23-6.28-2.47-9.45-3.63C307.92,192.43,308,192.3,308.07,192.33Z" transform="translate(-38.19 -54.98)" fill="#263238"/>
      <path id="Path_1241" data-name="Path 1241" d="M312.26,244.81l61.16,4.94s-15.65-53.36-28.26-66.83c-5.74-6.13-11.34-5.2-16.1-1.25-1.18,1-15.88,19.64-17.13,26.14-1.1,5.75,3.57,12.13,3.57,12.13Z" transform="translate(-38.19 -54.98)" fill="#ffe226"/>
      <path id="Path_1242" data-name="Path 1242" d="M321.31,191.56c-1.84,2.94-3.84,5.77-5.7,8.7a41.29,41.29,0,0,0-2.58,4.46,11.49,11.49,0,0,0-1.26,4.95,8.811,8.811,0,0,1,.09-2.61,12.2,12.2,0,0,1,.79-2.51,34,34,0,0,1,2.51-4.59c.88-1.33,1.78-2.66,2.72-3.94.15-.46.34-.91.51-1.36a16.762,16.762,0,0,1,1-1.89,14.29,14.29,0,0,1-.71,2l-.24.55Q319.81,193.39,321.31,191.56Z" transform="translate(-38.19 -54.98)" fill="#263238"/>
      <path id="Path_1243" data-name="Path 1243" d="M361.24,214a41.069,41.069,0,0,1-7.45,2.35,7.909,7.909,0,0,1-2.28.09,3.53,3.53,0,0,1-2.08-.92,7.29,7.29,0,0,1-1.77-4.15,52.761,52.761,0,0,1-.43-5.31,2.112,2.112,0,0,0,0-.26,33.5,33.5,0,0,0-.23-3.47,23.546,23.546,0,0,0-.8-4.42,10.791,10.791,0,0,0-2-4,8.19,8.19,0,0,0-3.59-2.55,12.23,12.23,0,0,0-4.42-.56,39,39,0,0,0-6.16.83h-.22l-2.54.54c-2.43.51-4.86,1-7.34,1.32.05-.07.1-.14.14-.21,2.41-.28,4.78-.8,7.16-1.31l2.65-.56h.21a36.576,36.576,0,0,1,6.09-.84,12.77,12.77,0,0,1,4.51.56,8.56,8.56,0,0,1,3.71,2.62,11.091,11.091,0,0,1,2.05,4.05,23.549,23.549,0,0,1,.8,4.47c.11,1.09.17,2.18.22,3.27v.26a52.729,52.729,0,0,0,.42,5.49,7.07,7.07,0,0,0,1.7,4c1.08,1.06,2.75,1,4.19.79a41.386,41.386,0,0,0,7.42-2.31ZM325,240.12a7.2,7.2,0,0,0-4-2.16,3.52,3.52,0,0,0-2.21.57,8.21,8.21,0,0,0-1.73,1.49,32.538,32.538,0,0,0-3.45,4.9h.2a32.337,32.337,0,0,1,3.39-4.79c1-1.08,2.28-2.15,3.78-2a7,7,0,0,1,3.84,2.11c2,1.85,3.64,4,5.49,6h.35C328.77,244.27,327.05,242,325,240.12Zm42.62-8.52-.64.05a14.61,14.61,0,0,0-8,4.06,59.562,59.562,0,0,0-6.1,6.7c-1.51,1.81-3,3.65-4.67,5.3h.29c1.63-1.64,3.07-3.43,4.54-5.2a61.171,61.171,0,0,1,6.06-6.69,14.5,14.5,0,0,1,7.88-4l.69-.05Zm-11.95-30.91a15,15,0,0,0-7.5,4.18c-.25.23-.49.47-.73.71l-.22.22c-1.8,1.85-3.4,3.89-5,5.9-1.46,1.84-2.9,3.7-4.53,5.39l-.19.19c-.39.41-.81.81-1.24,1.2a12.39,12.39,0,0,1-3.76,2.39,8.3,8.3,0,0,1-4.39.34,11.08,11.08,0,0,1-4.08-1.77,23.109,23.109,0,0,1-3.44-2.89c-2.16-2.1-4-4.49-6.3-6.51a10.21,10.21,0,0,0-2.44-1.66v.22a9.4,9.4,0,0,1,2.34,1.59c2.24,2,4.11,4.4,6.26,6.53a23.717,23.717,0,0,0,3.48,2.92,11,11,0,0,0,4.17,1.81,8.49,8.49,0,0,0,4.52-.35,12.48,12.48,0,0,0,3.82-2.45c.47-.43.93-.87,1.36-1.32l.19-.19c1.59-1.68,3-3.51,4.43-5.31a72.541,72.541,0,0,1,4.85-5.77,2.282,2.282,0,0,1,.22-.22c.27-.28.55-.56.84-.83a14.73,14.73,0,0,1,7.43-4.16Zm-6.48,20.05a7.27,7.27,0,0,0-3.92-2.22c-2.41-.65-4.88-.94-7.31-1.38h-.27l-1.32-.27a23.8,23.8,0,0,1-4.31-1.3,11,11,0,0,1-3.71-2.45,8.27,8.27,0,0,1-2.12-3.86,12.37,12.37,0,0,1-.05-4.46,53.12,53.12,0,0,1,2.41-8.69c.48-1.45,1-2.91,1.41-4.39l.06-.22a38.421,38.421,0,0,0,1-4.11,16.39,16.39,0,0,0-.09-7l-.15.09a16.261,16.261,0,0,1,.05,6.91,39.921,39.921,0,0,1-1,4.19,1.418,1.418,0,0,0-.07.22c-.43,1.43-.91,2.86-1.39,4.28a54.582,54.582,0,0,0-2.44,8.73,12.6,12.6,0,0,0,.05,4.54,8.47,8.47,0,0,0,2.17,4,11.17,11.17,0,0,0,3.8,2.5,23.648,23.648,0,0,0,4.35,1.3c.39.09.79.17,1.18.24l.27.05c2.49.46,5,.74,7.44,1.39a7,7,0,0,1,3.82,2.14c.93,1.2.71,2.86.31,4.26a49.749,49.749,0,0,1-3.71,8.23,55.151,55.151,0,0,0-3.69,8.27,13.81,13.81,0,0,0-.73,4.46,7.915,7.915,0,0,0,.11,1.08h.14a6.615,6.615,0,0,1-.12-1.09,13.621,13.621,0,0,1,.74-4.42,55.777,55.777,0,0,1,3.7-8.24,50.63,50.63,0,0,0,3.74-8.25,8.14,8.14,0,0,0,.36-2.25,3.56,3.56,0,0,0-.72-2.28Z" transform="translate(-38.19 -54.98)" fill="#fff"/>
      <path id="Path_1244" data-name="Path 1244" d="M331.91,218.65a46.836,46.836,0,0,0-7.08.74c-1.16.22-2.3.5-3.44.8-.57.15-1.14.28-1.71.41a8.06,8.06,0,0,1-1.83.24.04.04,0,1,0,0,.08,12.606,12.606,0,0,0,1.74.07,12.054,12.054,0,0,0,1.68-.21c1.17-.22,2.34-.49,3.52-.72,2.37-.46,4.74-.93,7.14-1.22a.1.1,0,0,0-.02-.19Z" transform="translate(-38.19 -54.98)" fill="#263238"/>
      <path id="Path_1245" data-name="Path 1245" d="M337.63,221.08a52.091,52.091,0,0,0-5.84-.62c-1-.05-2,0-2.94,0l-1.4.07c-.52,0-1,.14-1.54.17v.08c.48,0,1,.06,1.46.08h1.46l2.93.1c2,.05,3.91.12,5.86.23C337.73,221.25,337.73,221.1,337.63,221.08Z" transform="translate(-38.19 -54.98)" fill="#263238"/>
      <path id="Path_1246" data-name="Path 1246" d="M337.15,180.12c.06,1.1-2.89,9.27-7.68,10.44-1.56.38-4-8.05-4-8.05l-.32-.58-4.52-8.13,8.29-9.58,1.22-1.31s1.09,2.31,2.42,5.2c.06.13.13.26.19.41s.16.31.22.46c.21.43.41.87.61,1.31s.3.66.44,1,.3.7.46,1.06a61.911,61.911,0,0,1,2.67,7.77Z" transform="translate(-38.19 -54.98)" fill="#d3766a"/>
      <path id="Path_1247" data-name="Path 1247" d="M332.54,168.11a18.66,18.66,0,0,1-7.41,13.82l-4.52-8.13,8.29-9.58,1.22-1.31S331.21,165.22,332.54,168.11Z" transform="translate(-38.19 -54.98)" fill="#263238"/>
      <path id="Path_1248" data-name="Path 1248" d="M305.33,161.52c.53,16.31,10.36,17.84,13.88,17.72,3.19-.1,14.06-.87,15.22-17.16s-6.6-21.2-13.91-21.34S304.8,145.2,305.33,161.52Z" transform="translate(-38.19 -54.98)" fill="#d3766a"/>
      <path id="Path_1249" data-name="Path 1249" d="M307.54,158.62a8.342,8.342,0,0,0,1.09-.29,1.72,1.72,0,0,0,1.05-.51.57.57,0,0,0,0-.71,1.44,1.44,0,0,0-1.43-.25,2.13,2.13,0,0,0-1.29.82.62.62,0,0,0,.58.94Z" transform="translate(-38.19 -54.98)" fill="#263238"/>
      <path id="Path_1250" data-name="Path 1250" d="M318.72,158a10.435,10.435,0,0,1-1.12-.17,1.82,1.82,0,0,1-1.1-.39.59.59,0,0,1,0-.71,1.45,1.45,0,0,1,1.4-.42,2.12,2.12,0,0,1,1.37.68.62.62,0,0,1-.55,1.01Z" transform="translate(-38.19 -54.98)" fill="#263238"/>
      <path id="Path_1251" data-name="Path 1251" d="M316.35,162.12a.092.092,0,0,1,.09.1c0,1.11.19,2.38,1.2,2.72V165C316.4,164.87,316.17,163.18,316.35,162.12Z" transform="translate(-38.19 -54.98)" fill="#263238"/>
      <path id="Path_1252" data-name="Path 1252" d="M317.31,160.93c1.78-.19,2,3.39.38,3.57S315.81,161.09,317.31,160.93Z" transform="translate(-38.19 -54.98)" fill="#263238"/>
      <path id="Path_1253" data-name="Path 1253" d="M318,161.07c.33.18.66.52,1,.53s.74-.39,1-.77h.07c.06.69-.16,1.41-.89,1.56s-1.18-.43-1.4-1.11C317.8,161.2,317.89,161,318,161.07Z" transform="translate(-38.19 -54.98)" fill="#263238"/>
      <path id="Path_1254" data-name="Path 1254" d="M310.17,162.32s-.08.06-.08.11c.13,1.1.08,2.39-.89,2.83v.07C310.42,165.06,310.46,163.35,310.17,162.32Z" transform="translate(-38.19 -54.98)" fill="#263238"/>
      <path id="Path_1255" data-name="Path 1255" d="M309.09,161.24c-1.79,0-1.65,3.59,0,3.59S310.6,161.24,309.09,161.24Z" transform="translate(-38.19 -54.98)" fill="#263238"/>
      <path id="Path_1256" data-name="Path 1256" d="M308.35,161.51c-.27.2-.54.55-.88.59s-.69-.34-1-.7h-.05c0,.69.26,1.39.92,1.5s1-.51,1.16-1.2C308.57,161.61,308.46,161.43,308.35,161.51Z" transform="translate(-38.19 -54.98)" fill="#263238"/>
      <path id="Path_1257" data-name="Path 1257" d="M317.12,171.22c-.24.29-.46.67-.86.75a2.76,2.76,0,0,1-1.21-.14l-.05.06a1.49,1.49,0,0,0,1.48.44,1.17,1.17,0,0,0,.75-1.08C317.24,171.19,317.15,171.17,317.12,171.22Z" transform="translate(-38.19 -54.98)" fill="#263238"/>
      <path id="Path_1258" data-name="Path 1258" d="M312.72,169.66a4.55,4.55,0,0,0,1.81,1.41,2,2,0,0,0,1.24.08c.89-.23.92-1.05.76-1.76a4.8,4.8,0,0,0-.4-1.07A5.85,5.85,0,0,1,312.72,169.66Z" transform="translate(-38.19 -54.98)" fill="#263238"/>
      <path id="Path_1259" data-name="Path 1259" d="M314.53,171.07a2,2,0,0,0,1.24.08c.89-.23.92-1.05.76-1.76A2.12,2.12,0,0,0,314.53,171.07Z" transform="translate(-38.19 -54.98)" fill="#ff9cbd"/>
      <path id="Path_1260" data-name="Path 1260" d="M312.24,167.48s-.13,1.67-.08,2.45c0,.07.19.1.46.1h0a3.72,3.72,0,0,0,3.53-1.59c.05-.08-.06-.16-.12-.11a5.6,5.6,0,0,1-3.34,1.17c-.07-.21.32-2.85.2-2.85a7.07,7.07,0,0,0-1.75.5c.17-3.48.9-6.92,1-10.39a.1.1,0,0,0-.2,0,56.449,56.449,0,0,0-1.59,11.15C310.36,168.31,311.94,167.63,312.24,167.48Z" transform="translate(-38.19 -54.98)" fill="#263238"/>
      <path id="Path_1261" data-name="Path 1261" d="M333.26,163.38c-1.78-.11-6.38-5-6.49-13.58,0,0,.63,7.69,1.2,8.82s-2.57-2.76-2.75-9.67a27.91,27.91,0,0,1-7.11,3.65c-3.27.9-5.27.86-5.5.63s4.58-1.74,5.88-3.23c0,0-8.7,4-12.7,4.3-.46,0-1-9.5,5.22-13.51s16,.38,18.62,2.94c0,0,3.09.45,6.44,5S335.17,163.5,333.26,163.38Z" transform="translate(-38.19 -54.98)" fill="#263238"/>
      <path id="Path_1262" data-name="Path 1262" d="M318.5,167.43a5.13,5.13,0,0,1-4.68-5.54h0a5.12,5.12,0,1,1,5.95,5.49,6,6,0,0,1-1.27.05Zm-4-5.48a4.44,4.44,0,1,0,4.8-4,4.549,4.549,0,0,0-1.11,0A4.45,4.45,0,0,0,314.5,162Z" transform="translate(-38.19 -54.98)" fill="#ffc727"/>
      <path id="Path_1263" data-name="Path 1263" d="M307.69,167.92c-2.1.11-3.92-2.11-4.06-4.93a6.11,6.11,0,0,1,.9-3.63,3.19,3.19,0,0,1,5.46-.26,6.07,6.07,0,0,1,1.26,3.52c.13,2.67-1.29,4.94-3.23,5.27a1.841,1.841,0,0,1-.33.03Zm-2.58-8.18a5.43,5.43,0,0,0-.8,3.22c.12,2.44,1.62,4.36,3.35,4.28s3-2.14,2.91-4.59a5.5,5.5,0,0,0-1.11-3.13,2.73,2.73,0,0,0-2.24-1.15h-.26a2.83,2.83,0,0,0-1.85,1.37Z" transform="translate(-38.19 -54.98)" fill="#ffc727"/>
      <path id="Path_1264" data-name="Path 1264" d="M314,162.48l.41-.55c-.8-.61-2.64-1.4-3.83,0l.53.44C312.19,161.12,314,162.42,314,162.48Z" transform="translate(-38.19 -54.98)" fill="#ffc727"/>
      <path id="Path_1265" data-name="Path 1265" d="M336.89,162.68l.59-.35c-.16-.27-1.61-2.7-3.15-2.87s-10.57,1.15-11,1.2l.1.68c2.62-.38,9.67-1.33,10.78-1.2S336.5,162,336.89,162.68Z" transform="translate(-38.19 -54.98)" fill="#ffc727"/>
      <path id="Path_1266" data-name="Path 1266" d="M334.65,168.1a3.31,3.31,0,0,1-.73.28,2.639,2.639,0,0,1-.76.11,2.27,2.27,0,0,1-1-.19,2.77,2.77,0,0,1-.67-.4,3.09,3.09,0,0,1-.72-.84l.38-4.43s2.94-5.49,5.38-4.5S337.23,166.77,334.65,168.1Z" transform="translate(-38.19 -54.98)" fill="#d3766a"/>
      <path id="Path_1267" data-name="Path 1267" d="M336,160.31s.06.05,0,.07c-1.8,1-2.58,2.86-3.06,4.76a1.52,1.52,0,0,1,2.21-.68c.05,0,0,.11,0,.11a1.67,1.67,0,0,0-1.78.81,7.88,7.88,0,0,0-.71,1.6c-.07.18-.39.13-.35-.07h0C332,164.46,333.44,160.86,336,160.31Z" transform="translate(-38.19 -54.98)" fill="#263238"/>
      <path id="Path_1268" data-name="Path 1268" d="M334.35,167.44a.75.75,0,1,1-.18-.552A.75.75,0,0,1,334.35,167.44Z" transform="translate(-38.19 -54.98)" fill="#fff"/>
      <path id="Path_1269" data-name="Path 1269" d="M335.75,166.12a.53.53,0,1,1-.49-.57.52.52,0,0,1,.49.57Z" transform="translate(-38.19 -54.98)" fill="#fff"/>
      <path id="Path_1270" data-name="Path 1270" d="M348,185.84c11.12,17.23,25.75,46.06,17.79,51.59-13.1,9.09-49.46,12-57.78,12.32-3.59.14-8.83-23.66-6.21-26.47s40.73-1.87,41.18-4.18c.26-1.31-1.91-12.88-4.48-27.28C335.51,175.22,344.78,180.91,348,185.84Z" transform="translate(-38.19 -54.98)" fill="#d3766a"/>
      <path id="Path_1271" data-name="Path 1271" d="M308.14,221.87s-10.88-1-18-1.26c-4-.16-10.85.16-13.83,1.38-4.46,1.83-22,12.3-19.52,16.6,2.22,3.89,16.11-7,16.11-7s-15,9.77-11.46,14S279,235.32,279,235.32s-15.18,10.38-10.86,14.13c3.27,2.83,16.74-9.5,16.74-9.5s-13,9-9.75,12.07c3.58,3.38,16.72-7.23,16.72-7.23,9.54,6.39,16.69,5.54,21.71,4.32C314.77,248.82,308.14,221.87,308.14,221.87Z" transform="translate(-38.19 -54.98)" fill="#d3766a"/>
      <path id="Path_1272" data-name="Path 1272" d="M277.84,227.86c-1.8,1.09-3.63,2.17-5.33,3.41s-3.36,2.54-4.94,3.93a35.689,35.689,0,0,0-5.62,6c3.19-3.71,9.21-8.24,10.91-9.48s3.34-2.57,5-3.81C277.93,227.89,277.89,227.84,277.84,227.86Z" transform="translate(-38.19 -54.98)" fill="#263238"/>
      <path id="Path_1273" data-name="Path 1273" d="M282.43,233.92c-2.24,1.48-4.52,2.87-6.7,4.46s-4.08,3.26-6.13,5c-.16.13,0,.17.13,0,2.11-1.63,4.2-3,6.34-4.59s4.21-3.31,6.4-4.84C282.51,234,282.47,233.9,282.43,233.92Z" transform="translate(-38.19 -54.98)" fill="#263238"/>
      <path id="Path_1274" data-name="Path 1274" d="M287.31,238.41a60.07,60.07,0,0,0-9.73,7.6c-.15.14,0,.17.18,0,3.19-2.58,5.67-4.64,9.62-7.52C287.44,238.49,287.38,238.37,287.31,238.41Z" transform="translate(-38.19 -54.98)" fill="#263238"/>
      <path id="Path_1275" data-name="Path 1275" d="M310.21,221.51c-2.53-.22-5.28-.09-7.88-.19-2.27-.09-4.4-.39-6.61-.54-4.53-.3-11.22-.72-15.72,0-3.27.52-7.31,3.18-9.61,4.26-.1.05,0,.19.08.16,4.31-1.55,6.91-3.4,10.81-4,4.49-.65,16.21.23,20.72.49,2.64.15,5.56-.12,8.2,0a.1.1,0,1,0,.01-.18Z" transform="translate(-38.19 -54.98)" fill="#263238"/>
      <path id="Path_1276" data-name="Path 1276" d="M362.18,207.71l-23.11-2s-1.81-11.52-1.91-18c-.13-8.62,3-10.69,10.12-2.85C352,190.1,362.18,207.71,362.18,207.71Z" transform="translate(-38.19 -54.98)" fill="#ffe226"/>
      <path id="Path_1277" data-name="Path 1277" d="M341.89,206c-.24-.07-2.61-.35-2.79-.32-.17-1.36-.33-2.72-.53-4.08-.1-.68-.2-1.36-.32-2s-.24-1.6-.36-2.26c0-.1-.15-.09-.14,0,.06.87.14,1.51.2,2.27s.13,1.34.21,2c.18,1.42.31,2.94.56,4.34a22.438,22.438,0,0,0,3.17.13S341.93,206,341.89,206Z" transform="translate(-38.19 -54.98)" fill="#263238"/>
      <path id="Path_1278" data-name="Path 1278" d="M360,205.32c-3.35-.52-6.69-1-10.06-1.32-1.68-.16-3.36-.29-5-.41s-3.39,0-5.06-.18a.075.075,0,1,0,0,.15c1.68,0,3.37.32,5.05.46s3.37.28,5,.44c3.35.31,6.71.62,10.06,1C360.12,205.48,360.12,205.33,360,205.32Z" transform="translate(-38.19 -54.98)" fill="#263238"/>
    </g>
    <g id="Table" transform="translate(1224 2171.98)">
      <rect id="Rectangle_200" data-name="Rectangle 200" width="336.8" height="11.98" transform="translate(43.41 191.86)" fill="#37474f"/>
      <rect id="Rectangle_201" data-name="Rectangle 201" width="312.69" height="11.97" transform="translate(55.47 203.84)" fill="#455a64"/>
      <path id="Path_1279" data-name="Path 1279" d="M55.49,383.87H50.65L64.74,215.81H77.1Z" fill="#455a64"/>
      <path id="Path_1280" data-name="Path 1280" d="M77.1,215.82l-1.45,11.24H63.8l.94-11.24Z" fill="#263238"/>
      <path id="Path_1281" data-name="Path 1281" d="M368.13,383.87h4.84L358.88,215.81H346.52Z" fill="#455a64"/>
      <path id="Path_1282" data-name="Path 1282" d="M346.52,215.82l1.45,11.24h11.85l-.94-11.24Z" fill="#263238"/>
    </g>
    <g id="Devices" transform="translate(1224 2171.98)">
      <path id="Path_1283" data-name="Path 1283" d="M128.11,191.86h69.48L180.71,145.5H111.24Z" fill="#263238"/>
      <path id="Path_1284" data-name="Path 1284" d="M125.65,191.86h69.47L178.25,145.5H108.78Z" fill="#37474f"/>
      <path id="Path_1285" data-name="Path 1285" d="M108.77,145.5l16.88,46.36h28.1L115.28,145.5Z" fill="#263238"/>
      <path id="Path_1286" data-name="Path 1286" d="M113.27,191.86h8.46l7.58-13.15h-8.45Z" fill="#455a64"/>
      <path id="Path_1287" data-name="Path 1287" d="M129.31,178.71v13.15h-7.58Z" fill="#37474f"/>
      <path id="Path_1288" data-name="Path 1288" d="M160.7,191.86h8.45l7.59-13.15h-8.45Z" fill="#455a64"/>
      <path id="Path_1289" data-name="Path 1289" d="M176.74,178.71v13.15h-7.59Z" fill="#263238"/>
      <rect id="Rectangle_202" data-name="Rectangle 202" width="56.15" height="2.52" transform="translate(226.22 189.34)" fill="#c7c7c7"/>
      <rect id="Rectangle_203" data-name="Rectangle 203" width="28.26" height="2.52" transform="translate(226.22 189.34)" fill="#a6a6a6"/>
      <path id="Path_1290" data-name="Path 1290" d="M251.44,191.86H196.72l-7.16-37.17h54.72Z" fill="#c7c7c7"/>
    </g>
    <g id="logolaptop" transform="matrix(0.988, 0.017, -0.039, 0.99, 1437.897, 2346.386)" opacity="0.85">
      <g id="LogoCyberSoft" transform="matrix(0.961, -0.24, 0.242, 0.97, -1.858, -7)" clip-path="url(#clip-path)">
        <g id="LogoCyberSoft-2" data-name="LogoCyberSoft" transform="translate(-1.653 -0.633)">
          <g id="Group_5" data-name="Group 5" transform="translate(0 2.216)">
            <path id="Path_254" data-name="Path 254" d="M2.052.774,7.083,0,4.911,4.568,0,5.228Z" transform="matrix(0.799, 0.602, -0.602, 0.799, 4.746, 0)" fill="url(#linear-gradient)"/>
            <path id="Path_256" data-name="Path 256" d="M0,.662,4.863,0,6.8,2.682l-4.772.669Z" transform="matrix(0.799, 0.602, -0.602, 0.799, 2.017, 3.661)" fill="url(#linear-gradient-2)"/>
            <path id="Path_257" data-name="Path 257" d="M4.476,0l.051,3.309L.117,5.792,0,2.442Z" transform="matrix(-0.999, -0.035, 0.035, -0.999, 10.299, 10.068)" fill="url(#radial-gradient)"/>
          </g>
          <g id="Group_6" data-name="Group 6" transform="translate(0.938 0)">
            <path id="Path_254-2" data-name="Path 254" d="M2.052.774,7.083,0,4.911,4.568,0,5.228Z" transform="matrix(0.799, 0.602, -0.602, 0.799, 3.808, 0)" fill="url(#linear-gradient-3)"/>
            <path id="Path_256-2" data-name="Path 256" d="M0,.672,4.934,0l.775,1.029-4.89.731L0,.672Z" transform="matrix(0.799, 0.602, -0.602, 0.799, 1.059, 3.632)" fill="url(#linear-gradient-4)"/>
            <path id="Path_257-2" data-name="Path 257" d="M4.4,0l.046,1.321L.048,3.809,0,2.428Z" transform="matrix(-0.999, -0.035, 0.035, -0.999, 9.391, 8.06)" fill="url(#linear-gradient-5)"/>
          </g>
        </g>
      </g>
    </g>
  </g>
</svg>
